; Harpsichord note data (7-byte records)

; field offsets:
;   tnext_lo     equ 0
;   tnext_hi     equ 1
;   duration_lo  equ 2
;   duration_hi  equ 3
;   pitch        equ 4
;   velocity     equ 5
;   instrument   equ 6

; Total notes: 8289

midi_data:
    db 0,0,232,3,62,110,1 ; n1 t=2.308 D4
    db 0,0,232,3,50,110,2 ; n2 t=2.308 D3
    db 0,0,232,3,62,110,3 ; n3 t=2.308 D4
    db 0,0,232,3,62,110,4 ; n4 t=2.308 D4
    db 0,0,232,3,62,110,5 ; n5 t=2.308 D4
    db 144,0,232,3,50,110,6 ; n6 t=2.308 D3
    db 0,0,232,3,64,110,1 ; n7 t=2.452 E4
    db 0,0,232,3,52,110,2 ; n8 t=2.452 E3
    db 0,0,232,3,64,110,3 ; n9 t=2.452 E4
    db 0,0,232,3,64,110,4 ; n10 t=2.452 E4
    db 0,0,232,3,64,110,5 ; n11 t=2.452 E4
    db 144,0,232,3,52,110,6 ; n12 t=2.452 E3
    db 0,0,232,3,65,110,1 ; n13 t=2.596 F4
    db 0,0,232,3,53,110,2 ; n14 t=2.596 F3
    db 0,0,232,3,65,110,3 ; n15 t=2.596 F4
    db 0,0,232,3,65,110,4 ; n16 t=2.596 F4
    db 0,0,232,3,65,110,5 ; n17 t=2.596 F4
    db 32,1,232,3,53,110,6 ; n18 t=2.596 F3
    db 0,0,232,3,64,110,1 ; n19 t=2.885 E4
    db 0,0,232,3,52,110,2 ; n20 t=2.885 E3
    db 0,0,232,3,64,110,3 ; n21 t=2.885 E4
    db 0,0,232,3,64,110,4 ; n22 t=2.885 E4
    db 0,0,232,3,64,110,5 ; n23 t=2.885 E4
    db 32,1,232,3,52,110,6 ; n24 t=2.885 E3
    db 0,0,232,3,62,110,1 ; n25 t=3.173 D4
    db 0,0,232,3,50,110,2 ; n26 t=3.173 D3
    db 0,0,232,3,62,110,3 ; n27 t=3.173 D4
    db 0,0,232,3,62,110,4 ; n28 t=3.173 D4
    db 0,0,232,3,62,110,5 ; n29 t=3.173 D4
    db 32,1,232,3,50,110,6 ; n30 t=3.173 D3
    db 0,0,232,3,69,110,1 ; n31 t=3.462 A4
    db 0,0,232,3,57,110,2 ; n32 t=3.462 A3
    db 0,0,232,3,69,110,3 ; n33 t=3.462 A4
    db 0,0,232,3,69,110,4 ; n34 t=3.462 A4
    db 0,0,232,3,69,110,5 ; n35 t=3.462 A4
    db 32,1,232,3,57,110,6 ; n36 t=3.462 A3
    db 0,0,232,3,74,110,1 ; n37 t=3.750 D5
    db 0,0,232,3,62,110,2 ; n38 t=3.750 D4
    db 0,0,232,3,74,110,3 ; n39 t=3.750 D5
    db 0,0,232,3,74,110,4 ; n40 t=3.750 D5
    db 0,0,232,3,74,110,5 ; n41 t=3.750 D5
    db 65,2,232,3,62,110,6 ; n42 t=3.750 D4
    db 0,0,232,3,69,110,1 ; n43 t=4.327 A4
    db 0,0,232,3,57,110,2 ; n44 t=4.327 A3
    db 0,0,232,3,69,110,3 ; n45 t=4.327 A4
    db 0,0,232,3,69,110,4 ; n46 t=4.327 A4
    db 0,0,232,3,69,110,5 ; n47 t=4.327 A4
    db 32,1,232,3,57,110,6 ; n48 t=4.327 A3
    db 0,0,232,3,70,110,1 ; n49 t=4.615 A#4
    db 0,0,232,3,58,110,2 ; n50 t=4.615 A#3
    db 0,0,232,3,70,110,3 ; n51 t=4.615 A#4
    db 0,0,232,3,70,110,4 ; n52 t=4.615 A#4
    db 0,0,232,3,70,110,5 ; n53 t=4.615 A#4
    db 32,1,232,3,58,110,6 ; n54 t=4.615 A#3
    db 0,0,232,3,67,110,1 ; n55 t=4.904 G4
    db 0,0,232,3,55,110,2 ; n56 t=4.904 G3
    db 0,0,232,3,67,110,3 ; n57 t=4.904 G4
    db 0,0,232,3,67,110,4 ; n58 t=4.904 G4
    db 0,0,232,3,67,110,5 ; n59 t=4.904 G4
    db 144,0,232,3,55,110,6 ; n60 t=4.904 G3
    db 0,0,232,3,64,110,1 ; n61 t=5.048 E4
    db 0,0,232,3,52,110,2 ; n62 t=5.048 E3
    db 0,0,232,3,64,110,3 ; n63 t=5.048 E4
    db 0,0,232,3,64,110,4 ; n64 t=5.048 E4
    db 0,0,232,3,64,110,5 ; n65 t=5.048 E4
    db 144,0,232,3,52,110,6 ; n66 t=5.048 E3
    db 0,0,232,3,69,110,1 ; n67 t=5.192 A4
    db 0,0,232,3,57,110,2 ; n68 t=5.192 A3
    db 0,0,232,3,69,110,3 ; n69 t=5.192 A4
    db 0,0,232,3,69,110,4 ; n70 t=5.192 A4
    db 0,0,232,3,69,110,5 ; n71 t=5.192 A4
    db 32,1,232,3,57,110,6 ; n72 t=5.192 A3
    db 0,0,232,3,65,110,1 ; n73 t=5.481 F4
    db 0,0,232,3,53,110,2 ; n74 t=5.481 F3
    db 0,0,232,3,65,110,3 ; n75 t=5.481 F4
    db 0,0,232,3,65,110,4 ; n76 t=5.481 F4
    db 0,0,232,3,65,110,5 ; n77 t=5.481 F4
    db 144,0,232,3,53,110,6 ; n78 t=5.481 F3
    db 0,0,232,3,62,110,1 ; n79 t=5.625 D4
    db 0,0,232,3,50,110,2 ; n80 t=5.625 D3
    db 0,0,232,3,62,110,3 ; n81 t=5.625 D4
    db 0,0,232,3,62,110,4 ; n82 t=5.625 D4
    db 0,0,232,3,62,110,5 ; n83 t=5.625 D4
    db 144,0,232,3,50,110,6 ; n84 t=5.625 D3
    db 0,0,232,3,67,110,1 ; n85 t=5.769 G4
    db 0,0,232,3,55,110,2 ; n86 t=5.769 G3
    db 0,0,232,3,67,110,3 ; n87 t=5.769 G4
    db 0,0,232,3,67,110,4 ; n88 t=5.769 G4
    db 0,0,232,3,67,110,5 ; n89 t=5.769 G4
    db 32,1,232,3,55,110,6 ; n90 t=5.769 G3
    db 0,0,232,3,64,110,1 ; n91 t=6.058 E4
    db 0,0,232,3,52,110,2 ; n92 t=6.058 E3
    db 0,0,232,3,64,110,3 ; n93 t=6.058 E4
    db 0,0,232,3,64,110,4 ; n94 t=6.058 E4
    db 0,0,232,3,64,110,5 ; n95 t=6.058 E4
    db 144,0,232,3,52,110,6 ; n96 t=6.058 E3
    db 0,0,232,3,61,110,1 ; n97 t=6.202 C#4
    db 0,0,232,3,49,110,2 ; n98 t=6.202 C#3
    db 0,0,232,3,61,110,3 ; n99 t=6.202 C#4
    db 0,0,232,3,61,110,4 ; n100 t=6.202 C#4
    db 0,0,232,3,61,110,5 ; n101 t=6.202 C#4
    db 144,0,232,3,49,110,6 ; n102 t=6.202 C#3
    db 0,0,232,3,57,110,1 ; n103 t=6.346 A3
    db 0,0,232,3,45,110,2 ; n104 t=6.346 A2
    db 0,0,232,3,57,110,3 ; n105 t=6.346 A3
    db 0,0,232,3,57,110,4 ; n106 t=6.346 A3
    db 0,0,232,3,57,110,5 ; n107 t=6.346 A3
    db 32,1,232,3,45,110,6 ; n108 t=6.346 A2
    db 0,0,232,3,70,110,1 ; n109 t=6.635 A#4
    db 0,0,232,3,58,110,2 ; n110 t=6.635 A#3
    db 0,0,232,3,70,110,3 ; n111 t=6.635 A#4
    db 0,0,232,3,70,110,4 ; n112 t=6.635 A#4
    db 0,0,232,3,70,110,5 ; n113 t=6.635 A#4
    db 65,2,232,3,58,110,6 ; n114 t=6.635 A#3
    db 0,0,232,3,67,110,1 ; n115 t=7.212 G4
    db 0,0,232,3,55,110,2 ; n116 t=7.212 G3
    db 0,0,232,3,67,110,3 ; n117 t=7.212 G4
    db 0,0,232,3,67,110,4 ; n118 t=7.212 G4
    db 0,0,232,3,67,110,5 ; n119 t=7.212 G4
    db 144,0,232,3,55,110,6 ; n120 t=7.212 G3
    db 0,0,232,3,64,110,1 ; n121 t=7.356 E4
    db 0,0,232,3,52,110,2 ; n122 t=7.356 E3
    db 0,0,232,3,64,110,3 ; n123 t=7.356 E4
    db 0,0,232,3,64,110,4 ; n124 t=7.356 E4
    db 0,0,232,3,64,110,5 ; n125 t=7.356 E4
    db 144,0,232,3,52,110,6 ; n126 t=7.356 E3
    db 0,0,232,3,57,110,1 ; n127 t=7.500 A3
    db 0,0,232,3,45,110,2 ; n128 t=7.500 A2
    db 0,0,232,3,57,110,3 ; n129 t=7.500 A3
    db 0,0,232,3,57,110,4 ; n130 t=7.500 A3
    db 0,0,232,3,57,110,5 ; n131 t=7.500 A3
    db 32,1,232,3,45,110,6 ; n132 t=7.500 A2
    db 0,0,232,3,73,110,1 ; n133 t=7.788 C#5
    db 0,0,232,3,61,110,2 ; n134 t=7.788 C#4
    db 0,0,232,3,73,110,3 ; n135 t=7.788 C#5
    db 0,0,232,3,73,110,4 ; n136 t=7.788 C#5
    db 0,0,232,3,73,110,5 ; n137 t=7.788 C#5
    db 65,2,232,3,61,110,6 ; n138 t=7.788 C#4
    db 0,0,232,3,70,110,1 ; n139 t=8.365 A#4
    db 0,0,232,3,58,110,2 ; n140 t=8.365 A#3
    db 0,0,232,3,70,110,3 ; n141 t=8.365 A#4
    db 0,0,232,3,70,110,4 ; n142 t=8.365 A#4
    db 0,0,232,3,70,110,5 ; n143 t=8.365 A#4
    db 144,0,232,3,58,110,6 ; n144 t=8.365 A#3
    db 0,0,232,3,67,110,1 ; n145 t=8.510 G4
    db 0,0,232,3,55,110,2 ; n146 t=8.510 G3
    db 0,0,232,3,67,110,3 ; n147 t=8.510 G4
    db 0,0,232,3,67,110,4 ; n148 t=8.510 G4
    db 0,0,232,3,67,110,5 ; n149 t=8.510 G4
    db 144,0,232,3,55,110,6 ; n150 t=8.510 G3
    db 0,0,232,3,57,110,1 ; n151 t=8.654 A3
    db 0,0,232,3,45,110,2 ; n152 t=8.654 A2
    db 0,0,232,3,57,110,3 ; n153 t=8.654 A3
    db 0,0,232,3,57,110,4 ; n154 t=8.654 A3
    db 0,0,232,3,57,110,5 ; n155 t=8.654 A3
    db 32,1,232,3,45,110,6 ; n156 t=8.654 A2
    db 0,0,232,3,76,110,1 ; n157 t=8.942 E5
    db 0,0,232,3,64,110,2 ; n158 t=8.942 E4
    db 0,0,232,3,76,110,3 ; n159 t=8.942 E5
    db 0,0,232,3,76,110,4 ; n160 t=8.942 E5
    db 0,0,232,3,76,110,5 ; n161 t=8.942 E5
    db 65,2,232,3,64,110,6 ; n162 t=8.942 E4
    db 0,0,232,3,73,110,1 ; n163 t=9.519 C#5
    db 0,0,232,3,61,110,2 ; n164 t=9.519 C#4
    db 0,0,232,3,73,110,3 ; n165 t=9.519 C#5
    db 0,0,232,3,73,110,4 ; n166 t=9.519 C#5
    db 0,0,232,3,73,110,5 ; n167 t=9.519 C#5
    db 144,0,232,3,61,110,6 ; n168 t=9.519 C#4
    db 0,0,232,3,69,110,1 ; n169 t=9.664 A4
    db 0,0,232,3,57,110,2 ; n170 t=9.664 A3
    db 0,0,232,3,69,110,3 ; n171 t=9.664 A4
    db 0,0,232,3,69,110,4 ; n172 t=9.664 A4
    db 0,0,232,3,69,110,5 ; n173 t=9.664 A4
    db 144,0,232,3,57,110,6 ; n174 t=9.664 A3
    db 0,0,232,3,70,110,1 ; n175 t=9.808 A#4
    db 0,0,232,3,58,110,2 ; n176 t=9.808 A#3
    db 0,0,232,3,70,110,3 ; n177 t=9.808 A#4
    db 0,0,232,3,70,110,4 ; n178 t=9.808 A#4
    db 0,0,232,3,70,110,5 ; n179 t=9.808 A#4
    db 144,0,232,3,58,110,6 ; n180 t=9.808 A#3
    db 0,0,232,3,67,110,1 ; n181 t=9.952 G4
    db 0,0,232,3,55,110,2 ; n182 t=9.952 G3
    db 0,0,232,3,67,110,3 ; n183 t=9.952 G4
    db 0,0,232,3,67,110,4 ; n184 t=9.952 G4
    db 0,0,232,3,67,110,5 ; n185 t=9.952 G4
    db 144,0,232,3,55,110,6 ; n186 t=9.952 G3
    db 0,0,232,3,69,110,1 ; n187 t=10.096 A4
    db 0,0,232,3,57,110,2 ; n188 t=10.096 A3
    db 0,0,232,3,69,110,3 ; n189 t=10.096 A4
    db 0,0,232,3,69,110,4 ; n190 t=10.096 A4
    db 0,0,232,3,69,110,5 ; n191 t=10.096 A4
    db 144,0,232,3,57,110,6 ; n192 t=10.096 A3
    db 0,0,232,3,65,110,1 ; n193 t=10.240 F4
    db 0,0,232,3,53,110,2 ; n194 t=10.240 F3
    db 0,0,232,3,65,110,3 ; n195 t=10.240 F4
    db 0,0,232,3,65,110,4 ; n196 t=10.240 F4
    db 0,0,232,3,65,110,5 ; n197 t=10.240 F4
    db 144,0,232,3,53,110,6 ; n198 t=10.240 F3
    db 0,0,232,3,67,110,1 ; n199 t=10.385 G4
    db 0,0,232,3,55,110,2 ; n200 t=10.385 G3
    db 0,0,232,3,67,110,3 ; n201 t=10.385 G4
    db 0,0,232,3,67,110,4 ; n202 t=10.385 G4
    db 0,0,232,3,67,110,5 ; n203 t=10.385 G4
    db 144,0,232,3,55,110,6 ; n204 t=10.385 G3
    db 0,0,232,3,64,110,1 ; n205 t=10.529 E4
    db 0,0,232,3,52,110,2 ; n206 t=10.529 E3
    db 0,0,232,3,64,110,3 ; n207 t=10.529 E4
    db 0,0,232,3,64,110,4 ; n208 t=10.529 E4
    db 0,0,232,3,64,110,5 ; n209 t=10.529 E4
    db 144,0,232,3,52,110,6 ; n210 t=10.529 E3
    db 0,0,232,3,65,110,1 ; n211 t=10.673 F4
    db 0,0,232,3,53,110,2 ; n212 t=10.673 F3
    db 0,0,232,3,65,110,3 ; n213 t=10.673 F4
    db 0,0,232,3,65,110,4 ; n214 t=10.673 F4
    db 0,0,232,3,65,110,5 ; n215 t=10.673 F4
    db 144,0,232,3,53,110,6 ; n216 t=10.673 F3
    db 0,0,232,3,62,110,1 ; n217 t=10.817 D4
    db 0,0,232,3,50,110,2 ; n218 t=10.817 D3
    db 0,0,232,3,62,110,3 ; n219 t=10.817 D4
    db 0,0,232,3,62,110,4 ; n220 t=10.817 D4
    db 0,0,232,3,62,110,5 ; n221 t=10.817 D4
    db 144,0,232,3,50,110,6 ; n222 t=10.817 D3
    db 0,0,232,3,64,110,1 ; n223 t=10.961 E4
    db 0,0,232,3,52,110,2 ; n224 t=10.961 E3
    db 0,0,232,3,64,110,3 ; n225 t=10.961 E4
    db 0,0,232,3,64,110,4 ; n226 t=10.961 E4
    db 0,0,232,3,64,110,5 ; n227 t=10.961 E4
    db 144,0,232,3,52,110,6 ; n228 t=10.961 E3
    db 0,0,232,3,61,110,1 ; n229 t=11.106 C#4
    db 0,0,232,3,49,110,2 ; n230 t=11.106 C#3
    db 0,0,232,3,61,110,3 ; n231 t=11.106 C#4
    db 0,0,232,3,61,110,4 ; n232 t=11.106 C#4
    db 0,0,232,3,61,110,5 ; n233 t=11.106 C#4
    db 144,0,232,3,49,110,6 ; n234 t=11.106 C#3
    db 0,0,232,3,62,110,1 ; n235 t=11.250 D4
    db 0,0,232,3,50,110,2 ; n236 t=11.250 D3
    db 0,0,232,3,62,110,3 ; n237 t=11.250 D4
    db 0,0,232,3,62,110,4 ; n238 t=11.250 D4
    db 0,0,232,3,62,110,5 ; n239 t=11.250 D4
    db 144,0,232,3,50,110,6 ; n240 t=11.250 D3
    db 0,0,232,3,59,110,1 ; n241 t=11.394 B3
    db 0,0,232,3,47,110,2 ; n242 t=11.394 B2
    db 0,0,232,3,59,110,3 ; n243 t=11.394 B3
    db 0,0,232,3,59,110,4 ; n244 t=11.394 B3
    db 0,0,232,3,59,110,5 ; n245 t=11.394 B3
    db 144,0,232,3,47,110,6 ; n246 t=11.394 B2
    db 0,0,232,3,61,110,1 ; n247 t=11.539 C#4
    db 0,0,232,3,49,110,2 ; n248 t=11.539 C#3
    db 0,0,232,3,61,110,3 ; n249 t=11.539 C#4
    db 0,0,232,3,61,110,4 ; n250 t=11.539 C#4
    db 0,0,232,3,61,110,5 ; n251 t=11.539 C#4
    db 144,0,232,3,49,110,6 ; n252 t=11.539 C#3
    db 0,0,232,3,57,110,1 ; n253 t=11.683 A3
    db 0,0,232,3,45,110,2 ; n254 t=11.683 A2
    db 0,0,232,3,57,110,3 ; n255 t=11.683 A3
    db 0,0,232,3,57,110,4 ; n256 t=11.683 A3
    db 0,0,232,3,57,110,5 ; n257 t=11.683 A3
    db 144,0,232,3,45,110,6 ; n258 t=11.683 A2
    db 0,0,232,3,59,110,1 ; n259 t=11.827 B3
    db 0,0,232,3,47,110,2 ; n260 t=11.827 B2
    db 0,0,232,3,59,110,3 ; n261 t=11.827 B3
    db 0,0,232,3,59,110,4 ; n262 t=11.827 B3
    db 0,0,232,3,59,110,5 ; n263 t=11.827 B3
    db 144,0,232,3,47,110,6 ; n264 t=11.827 B2
    db 0,0,232,3,61,110,1 ; n265 t=11.971 C#4
    db 0,0,232,3,49,110,2 ; n266 t=11.971 C#3
    db 0,0,232,3,61,110,3 ; n267 t=11.971 C#4
    db 0,0,232,3,61,110,4 ; n268 t=11.971 C#4
    db 0,0,232,3,61,110,5 ; n269 t=11.971 C#4
    db 144,0,232,3,49,110,6 ; n270 t=11.971 C#3
    db 0,0,232,3,62,110,1 ; n271 t=12.115 D4
    db 0,0,232,3,50,110,2 ; n272 t=12.115 D3
    db 0,0,232,3,62,110,3 ; n273 t=12.115 D4
    db 0,0,232,3,62,110,4 ; n274 t=12.115 D4
    db 0,0,232,3,62,110,5 ; n275 t=12.115 D4
    db 144,0,232,3,50,110,6 ; n276 t=12.115 D3
    db 0,0,232,3,64,110,1 ; n277 t=12.260 E4
    db 0,0,232,3,52,110,2 ; n278 t=12.260 E3
    db 0,0,232,3,64,110,3 ; n279 t=12.260 E4
    db 0,0,232,3,64,110,4 ; n280 t=12.260 E4
    db 0,0,232,3,64,110,5 ; n281 t=12.260 E4
    db 144,0,232,3,52,110,6 ; n282 t=12.260 E3
    db 0,0,232,3,65,110,1 ; n283 t=12.404 F4
    db 0,0,232,3,53,110,2 ; n284 t=12.404 F3
    db 0,0,232,3,65,110,3 ; n285 t=12.404 F4
    db 0,0,232,3,65,110,4 ; n286 t=12.404 F4
    db 0,0,232,3,65,110,5 ; n287 t=12.404 F4
    db 144,0,232,3,53,110,6 ; n288 t=12.404 F3
    db 0,0,232,3,67,110,1 ; n289 t=12.548 G4
    db 0,0,232,3,55,110,2 ; n290 t=12.548 G3
    db 0,0,232,3,67,110,3 ; n291 t=12.548 G4
    db 0,0,232,3,67,110,4 ; n292 t=12.548 G4
    db 0,0,232,3,67,110,5 ; n293 t=12.548 G4
    db 144,0,232,3,55,110,6 ; n294 t=12.548 G3
    db 0,0,232,3,69,110,1 ; n295 t=12.692 A4
    db 0,0,232,3,57,110,2 ; n296 t=12.692 A3
    db 0,0,232,3,69,110,3 ; n297 t=12.692 A4
    db 0,0,232,3,69,110,4 ; n298 t=12.692 A4
    db 0,0,232,3,69,110,5 ; n299 t=12.692 A4
    db 144,0,232,3,57,110,6 ; n300 t=12.692 A3
    db 0,0,232,3,70,110,1 ; n301 t=12.836 A#4
    db 0,0,232,3,58,110,2 ; n302 t=12.836 A#3
    db 0,0,232,3,70,110,3 ; n303 t=12.836 A#4
    db 0,0,232,3,70,110,4 ; n304 t=12.836 A#4
    db 0,0,232,3,70,110,5 ; n305 t=12.836 A#4
    db 144,0,232,3,58,110,6 ; n306 t=12.836 A#3
    db 0,0,232,3,72,110,1 ; n307 t=12.981 C5
    db 0,0,232,3,60,110,2 ; n308 t=12.981 C4
    db 0,0,232,3,72,110,3 ; n309 t=12.981 C5
    db 0,0,232,3,72,110,4 ; n310 t=12.981 C5
    db 0,0,232,3,72,110,5 ; n311 t=12.981 C5
    db 32,1,232,3,60,110,6 ; n312 t=12.981 C4
    db 0,0,232,3,72,110,1 ; n313 t=13.269 C5
    db 0,0,232,3,60,110,2 ; n314 t=13.269 C4
    db 0,0,232,3,72,110,3 ; n315 t=13.269 C5
    db 0,0,232,3,72,110,4 ; n316 t=13.269 C5
    db 0,0,232,3,72,110,5 ; n317 t=13.269 C5
    db 144,0,232,3,60,110,6 ; n318 t=13.269 C4
    db 0,0,232,3,74,110,1 ; n319 t=13.414 D5
    db 0,0,232,3,62,110,2 ; n320 t=13.414 D4
    db 0,0,232,3,74,110,3 ; n321 t=13.414 D5
    db 0,0,232,3,74,110,4 ; n322 t=13.414 D5
    db 0,0,232,3,74,110,5 ; n323 t=13.414 D5
    db 144,0,232,3,62,110,6 ; n324 t=13.414 D4
    db 0,0,232,3,75,110,1 ; n325 t=13.558 D#5
    db 0,0,232,3,63,110,2 ; n326 t=13.558 D#4
    db 0,0,232,3,75,110,3 ; n327 t=13.558 D#5
    db 0,0,232,3,75,110,4 ; n328 t=13.558 D#5
    db 0,0,232,3,75,110,5 ; n329 t=13.558 D#5
    db 32,1,232,3,63,110,6 ; n330 t=13.558 D#4
    db 0,0,232,3,66,110,1 ; n331 t=13.846 F#4
    db 0,0,232,3,54,110,2 ; n332 t=13.846 F#3
    db 0,0,232,3,66,110,3 ; n333 t=13.846 F#4
    db 0,0,232,3,66,110,4 ; n334 t=13.846 F#4
    db 0,0,232,3,66,110,5 ; n335 t=13.846 F#4
    db 32,1,232,3,54,110,6 ; n336 t=13.846 F#3
    db 0,0,232,3,67,110,1 ; n337 t=14.135 G4
    db 0,0,232,3,55,110,2 ; n338 t=14.135 G3
    db 0,0,232,3,67,110,3 ; n339 t=14.135 G4
    db 0,0,232,3,67,110,4 ; n340 t=14.135 G4
    db 0,0,232,3,67,110,5 ; n341 t=14.135 G4
    db 32,1,232,3,55,110,6 ; n342 t=14.135 G3
    db 0,0,232,3,61,110,1 ; n343 t=14.423 C#4
    db 0,0,232,3,49,110,2 ; n344 t=14.423 C#3
    db 0,0,232,3,61,110,3 ; n345 t=14.423 C#4
    db 0,0,232,3,61,110,4 ; n346 t=14.423 C#4
    db 0,0,232,3,61,110,5 ; n347 t=14.423 C#4
    db 32,1,232,3,49,110,6 ; n348 t=14.423 C#3
    db 0,0,232,3,62,110,1 ; n349 t=14.711 D4
    db 0,0,232,3,50,110,2 ; n350 t=14.711 D3
    db 0,0,232,3,62,110,3 ; n351 t=14.711 D4
    db 0,0,232,3,62,110,4 ; n352 t=14.711 D4
    db 0,0,232,3,62,110,5 ; n353 t=14.711 D4
    db 33,1,232,3,50,110,6 ; n354 t=14.711 D3
    db 0,0,232,3,56,110,1 ; n355 t=15.000 G#3
    db 0,0,232,3,44,110,2 ; n356 t=15.000 G#2
    db 0,0,232,3,56,110,3 ; n357 t=15.000 G#3
    db 0,0,232,3,56,110,4 ; n358 t=15.000 G#3
    db 0,0,232,3,56,110,5 ; n359 t=15.000 G#3
    db 65,2,232,3,44,110,6 ; n360 t=15.000 G#2
    db 0,0,232,3,57,110,1 ; n361 t=15.577 A3
    db 0,0,232,3,45,110,2 ; n362 t=15.577 A2
    db 0,0,232,3,57,110,3 ; n363 t=15.577 A3
    db 0,0,232,3,57,110,4 ; n364 t=15.577 A3
    db 0,0,232,3,57,110,5 ; n365 t=15.577 A3
    db 65,2,232,3,45,110,6 ; n366 t=15.577 A2
    db 0,0,232,3,62,110,1 ; n367 t=16.154 D4
    db 0,0,232,3,50,110,2 ; n368 t=16.154 D3
    db 0,0,232,3,38,110,2 ; n369 t=16.154 D2
    db 0,0,232,3,62,110,3 ; n370 t=16.154 D4
    db 0,0,232,3,62,110,4 ; n371 t=16.154 D4
    db 0,0,232,3,62,110,5 ; n372 t=16.154 D4
    db 72,0,232,3,38,110,6 ; n373 t=16.154 D2
    db 72,0,232,3,64,110,1 ; n374 t=16.226 E4
    db 72,0,232,3,65,110,1 ; n375 t=16.298 F4
    db 72,0,232,3,67,110,1 ; n376 t=16.370 G4
    db 0,0,232,3,69,110,1 ; n377 t=16.442 A4
    db 144,0,232,3,62,110,9 ; n378 t=16.442 D4
    db 144,0,232,3,64,110,1 ; n379 t=16.587 E4
    db 0,0,232,3,65,110,1 ; n380 t=16.731 F4
    db 0,0,232,3,74,110,7 ; n381 t=16.731 D5
    db 0,0,232,3,69,110,8 ; n382 t=16.731 A4
    db 144,0,232,3,62,110,9 ; n383 t=16.731 D4
    db 144,0,232,3,62,110,1 ; n384 t=16.875 D4
    db 0,0,232,3,64,110,1 ; n385 t=17.019 E4
    db 0,0,232,3,73,110,7 ; n386 t=17.019 C#5
    db 0,0,232,3,67,110,8 ; n387 t=17.019 G4
    db 144,0,232,3,62,110,9 ; n388 t=17.019 D4
    db 144,0,232,3,61,110,1 ; n389 t=17.163 C#4
    db 0,0,232,3,62,110,1 ; n390 t=17.308 D4
    db 0,0,232,3,50,110,2 ; n391 t=17.308 D3
    db 0,0,232,3,38,110,2 ; n392 t=17.308 D2
    db 144,0,232,3,62,110,9 ; n393 t=17.308 D4
    db 144,0,232,3,57,110,1 ; n394 t=17.452 A3
    db 0,0,232,3,58,110,1 ; n395 t=17.596 A#3
    db 144,0,232,3,62,110,9 ; n396 t=17.596 D4
    db 144,0,232,3,55,110,1 ; n397 t=17.740 G3
    db 0,0,232,3,57,110,1 ; n398 t=17.885 A3
    db 0,0,232,3,77,110,7 ; n399 t=17.885 F5
    db 0,0,232,3,74,110,8 ; n400 t=17.885 D5
    db 144,0,232,3,62,110,9 ; n401 t=17.885 D4
    db 144,0,232,3,62,110,1 ; n402 t=18.029 D4
    db 0,0,232,3,64,110,1 ; n403 t=18.173 E4
    db 0,0,232,3,76,110,7 ; n404 t=18.173 E5
    db 0,0,232,3,73,110,8 ; n405 t=18.173 C#5
    db 144,0,232,3,62,110,9 ; n406 t=18.173 D4
    db 144,0,232,3,61,110,1 ; n407 t=18.317 C#4
    db 0,0,232,3,62,110,1 ; n408 t=18.462 D4
    db 0,0,232,3,50,110,2 ; n409 t=18.462 D3
    db 0,0,232,3,38,110,2 ; n410 t=18.462 D2
    db 144,0,232,3,62,110,9 ; n411 t=18.462 D4
    db 144,0,232,3,65,110,1 ; n412 t=18.606 F4
    db 0,0,232,3,67,110,1 ; n413 t=18.750 G4
    db 144,0,232,3,62,110,9 ; n414 t=18.750 D4
    db 144,0,232,3,64,110,1 ; n415 t=18.894 E4
    db 0,0,232,3,65,110,1 ; n416 t=19.038 F4
    db 0,0,232,3,81,110,7 ; n417 t=19.038 A5
    db 0,0,232,3,74,110,8 ; n418 t=19.038 D5
    db 144,0,232,3,62,110,9 ; n419 t=19.038 D4
    db 144,0,232,3,69,110,1 ; n420 t=19.183 A4
    db 0,0,232,3,70,110,1 ; n421 t=19.327 A#4
    db 0,0,232,3,79,110,7 ; n422 t=19.327 G5
    db 0,0,232,3,73,110,8 ; n423 t=19.327 C#5
    db 144,0,232,3,62,110,9 ; n424 t=19.327 D4
    db 144,0,232,3,67,110,1 ; n425 t=19.471 G4
    db 0,0,232,3,69,110,1 ; n426 t=19.615 A4
    db 0,0,232,3,50,110,2 ; n427 t=19.615 D3
    db 0,0,232,3,62,110,9 ; n428 t=19.615 D4
    db 72,0,232,3,38,110,11 ; n429 t=19.615 D2
    db 0,0,232,3,73,110,1 ; n430 t=19.688 C#5
    db 72,0,232,3,52,110,2 ; n431 t=19.688 E3
    db 0,0,232,3,74,110,1 ; n432 t=19.760 D5
    db 72,0,232,3,53,110,2 ; n433 t=19.760 F3
    db 0,0,232,3,76,110,1 ; n434 t=19.832 E5
    db 72,0,232,3,55,110,2 ; n435 t=19.832 G3
    db 0,0,232,3,77,110,1 ; n436 t=19.904 F5
    db 0,0,232,3,57,110,2 ; n437 t=19.904 A3
    db 144,0,232,3,62,110,9 ; n438 t=19.904 D4
    db 0,0,232,3,73,110,1 ; n439 t=20.048 C#5
    db 144,0,232,3,52,110,2 ; n440 t=20.048 E3
    db 0,0,232,3,74,110,1 ; n441 t=20.192 D5
    db 0,0,232,3,53,110,2 ; n442 t=20.192 F3
    db 0,0,232,3,77,110,7 ; n443 t=20.192 F5
    db 0,0,232,3,74,110,8 ; n444 t=20.192 D5
    db 144,0,232,3,62,110,9 ; n445 t=20.192 D4
    db 0,0,232,3,69,110,1 ; n446 t=20.337 A4
    db 144,0,232,3,50,110,2 ; n447 t=20.337 D3
    db 0,0,232,3,70,110,1 ; n448 t=20.481 A#4
    db 0,0,232,3,55,110,2 ; n449 t=20.481 G3
    db 0,0,232,3,76,110,7 ; n450 t=20.481 E5
    db 0,0,232,3,73,110,8 ; n451 t=20.481 C#5
    db 144,0,232,3,62,110,9 ; n452 t=20.481 D4
    db 0,0,232,3,67,110,1 ; n453 t=20.625 G4
    db 144,0,232,3,52,110,2 ; n454 t=20.625 E3
    db 0,0,232,3,69,110,1 ; n455 t=20.769 A4
    db 0,0,232,3,53,110,2 ; n456 t=20.769 F3
    db 144,0,232,3,62,110,9 ; n457 t=20.769 D4
    db 0,0,232,3,65,110,1 ; n458 t=20.913 F4
    db 144,0,232,3,50,110,2 ; n459 t=20.913 D3
    db 0,0,232,3,67,110,1 ; n460 t=21.058 G4
    db 0,0,232,3,52,110,2 ; n461 t=21.058 E3
    db 144,0,232,3,62,110,9 ; n462 t=21.058 D4
    db 0,0,232,3,64,110,1 ; n463 t=21.202 E4
    db 144,0,232,3,49,110,2 ; n464 t=21.202 C#3
    db 0,0,232,3,65,110,1 ; n465 t=21.346 F4
    db 0,0,232,3,50,110,2 ; n466 t=21.346 D3
    db 0,0,232,3,74,110,7 ; n467 t=21.346 D5
    db 0,0,232,3,69,110,8 ; n468 t=21.346 A4
    db 144,0,232,3,62,110,9 ; n469 t=21.346 D4
    db 0,0,232,3,69,110,1 ; n470 t=21.490 A4
    db 144,0,232,3,53,110,2 ; n471 t=21.490 F3
    db 0,0,232,3,70,110,1 ; n472 t=21.635 A#4
    db 0,0,232,3,55,110,2 ; n473 t=21.635 G3
    db 0,0,232,3,73,110,7 ; n474 t=21.635 C#5
    db 0,0,232,3,67,110,8 ; n475 t=21.635 G4
    db 144,0,232,3,62,110,9 ; n476 t=21.635 D4
    db 0,0,232,3,67,110,1 ; n477 t=21.779 G4
    db 144,0,232,3,52,110,2 ; n478 t=21.779 E3
    db 0,0,232,3,69,110,1 ; n479 t=21.923 A4
    db 0,0,232,3,53,110,2 ; n480 t=21.923 F3
    db 144,0,232,3,62,110,9 ; n481 t=21.923 D4
    db 0,0,232,3,74,110,1 ; n482 t=22.067 D5
    db 144,0,232,3,65,110,2 ; n483 t=22.067 F4
    db 0,0,232,3,76,110,1 ; n484 t=22.212 E5
    db 0,0,232,3,67,110,2 ; n485 t=22.212 G4
    db 144,0,232,3,62,110,9 ; n486 t=22.212 D4
    db 0,0,232,3,73,110,1 ; n487 t=22.356 C#5
    db 144,0,232,3,64,110,2 ; n488 t=22.356 E4
    db 0,0,232,3,74,110,1 ; n489 t=22.500 D5
    db 0,0,232,3,65,110,2 ; n490 t=22.500 F4
    db 0,0,232,3,74,110,7 ; n491 t=22.500 D5
    db 0,0,232,3,65,110,8 ; n492 t=22.500 F4
    db 144,0,232,3,62,110,9 ; n493 t=22.500 D4
    db 0,0,232,3,77,110,1 ; n494 t=22.644 F5
    db 144,0,232,3,69,110,2 ; n495 t=22.644 A4
    db 0,0,232,3,79,110,1 ; n496 t=22.788 G5
    db 0,0,232,3,70,110,2 ; n497 t=22.788 A#4
    db 0,0,232,3,73,110,7 ; n498 t=22.788 C#5
    db 0,0,232,3,64,110,8 ; n499 t=22.788 E4
    db 144,0,232,3,62,110,9 ; n500 t=22.788 D4
    db 0,0,232,3,76,110,1 ; n501 t=22.933 E5
    db 144,0,232,3,67,110,2 ; n502 t=22.933 G4
    db 0,0,232,3,77,110,1 ; n503 t=23.077 F5
    db 0,0,232,3,69,110,2 ; n504 t=23.077 A4
    db 0,0,232,3,62,110,9 ; n505 t=23.077 D4
    db 72,0,232,3,38,110,11 ; n506 t=23.077 D2
    db 0,0,232,3,81,110,1 ; n507 t=23.149 A5
    db 72,0,232,3,67,110,2 ; n508 t=23.149 G4
    db 0,0,232,3,83,110,1 ; n509 t=23.221 B5
    db 72,0,232,3,65,110,2 ; n510 t=23.221 F4
    db 0,0,232,3,85,110,1 ; n511 t=23.293 C#6
    db 72,0,232,3,64,110,2 ; n512 t=23.293 E4
    db 0,0,232,3,86,110,1 ; n513 t=23.365 D6
    db 0,0,232,3,65,110,2 ; n514 t=23.365 F4
    db 144,0,232,3,62,110,9 ; n515 t=23.365 D4
    db 0,0,232,3,81,110,1 ; n516 t=23.510 A5
    db 144,0,232,3,62,110,2 ; n517 t=23.510 D4
    db 0,0,232,3,82,110,1 ; n518 t=23.654 A#5
    db 0,0,232,3,74,110,2 ; n519 t=23.654 D5
    db 0,0,232,3,67,110,7 ; n520 t=23.654 G4
    db 0,0,232,3,62,110,8 ; n521 t=23.654 D4
    db 144,0,232,3,62,110,9 ; n522 t=23.654 D4
    db 144,0,232,3,79,110,1 ; n523 t=23.798 G5
    db 0,0,232,3,81,110,1 ; n524 t=23.942 A5
    db 0,0,232,3,64,110,7 ; n525 t=23.942 E4
    db 0,0,232,3,61,110,8 ; n526 t=23.942 C#4
    db 144,0,232,3,62,110,9 ; n527 t=23.942 D4
    db 144,0,232,3,76,110,1 ; n528 t=24.087 E5
    db 0,0,232,3,77,110,1 ; n529 t=24.231 F5
    db 0,0,232,3,57,110,2 ; n530 t=24.231 A3
    db 72,0,232,3,62,110,9 ; n531 t=24.231 D4
    db 72,0,232,3,62,110,2 ; n532 t=24.303 D4
    db 0,0,232,3,74,110,1 ; n533 t=24.375 D5
    db 72,0,232,3,64,110,2 ; n534 t=24.375 E4
    db 72,0,232,3,65,110,2 ; n535 t=24.447 F4
    db 0,0,232,3,76,110,1 ; n536 t=24.519 E5
    db 0,0,232,3,67,110,2 ; n537 t=24.519 G4
    db 144,0,232,3,62,110,9 ; n538 t=24.519 D4
    db 0,0,232,3,73,110,1 ; n539 t=24.663 C#5
    db 144,0,232,3,64,110,2 ; n540 t=24.663 E4
    db 0,0,232,3,74,110,1 ; n541 t=24.808 D5
    db 0,0,232,3,65,110,2 ; n542 t=24.808 F4
    db 0,0,232,3,65,110,7 ; n543 t=24.808 F4
    db 0,0,232,3,62,110,8 ; n544 t=24.808 D4
    db 144,0,232,3,62,110,9 ; n545 t=24.808 D4
    db 0,0,232,3,77,110,1 ; n546 t=24.952 F5
    db 144,0,232,3,69,110,2 ; n547 t=24.952 A4
    db 0,0,232,3,79,110,1 ; n548 t=25.096 G5
    db 0,0,232,3,70,110,2 ; n549 t=25.096 A#4
    db 0,0,232,3,64,110,7 ; n550 t=25.096 E4
    db 0,0,232,3,61,110,8 ; n551 t=25.096 C#4
    db 144,0,232,3,62,110,9 ; n552 t=25.096 D4
    db 0,0,232,3,76,110,1 ; n553 t=25.240 E5
    db 144,0,232,3,67,110,2 ; n554 t=25.240 G4
    db 0,0,232,3,77,110,1 ; n555 t=25.385 F5
    db 0,0,232,3,69,110,2 ; n556 t=25.385 A4
    db 144,0,232,3,62,110,9 ; n557 t=25.385 D4
    db 0,0,232,3,81,110,1 ; n558 t=25.529 A5
    db 144,0,232,3,65,110,2 ; n559 t=25.529 F4
    db 0,0,232,3,82,110,1 ; n560 t=25.673 A#5
    db 0,0,232,3,67,110,2 ; n561 t=25.673 G4
    db 144,0,232,3,62,110,9 ; n562 t=25.673 D4
    db 0,0,232,3,79,110,1 ; n563 t=25.817 G5
    db 144,0,232,3,64,110,2 ; n564 t=25.817 E4
    db 0,0,232,3,81,110,1 ; n565 t=25.962 A5
    db 0,0,232,3,65,110,2 ; n566 t=25.962 F4
    db 0,0,232,3,62,110,7 ; n567 t=25.962 D4
    db 0,0,232,3,65,110,8 ; n568 t=25.962 F4
    db 144,0,232,3,62,110,9 ; n569 t=25.962 D4
    db 0,0,232,3,86,110,1 ; n570 t=26.106 D6
    db 144,0,232,3,62,110,2 ; n571 t=26.106 D4
    db 0,0,232,3,82,110,1 ; n572 t=26.250 A#5
    db 0,0,232,3,67,110,2 ; n573 t=26.250 G4
    db 0,0,232,3,61,110,7 ; n574 t=26.250 C#4
    db 0,0,232,3,64,110,8 ; n575 t=26.250 E4
    db 144,0,232,3,62,110,9 ; n576 t=26.250 D4
    db 0,0,232,3,79,110,1 ; n577 t=26.394 G5
    db 144,0,232,3,64,110,2 ; n578 t=26.394 E4
    db 0,0,232,3,81,110,1 ; n579 t=26.538 A5
    db 0,0,232,3,65,110,2 ; n580 t=26.538 F4
    db 0,0,232,3,62,110,7 ; n581 t=26.538 D4
    db 0,0,232,3,65,110,8 ; n582 t=26.538 F4
    db 0,0,232,3,62,110,9 ; n583 t=26.538 D4
    db 144,0,232,3,38,110,11 ; n584 t=26.538 D2
    db 0,0,232,3,86,110,1 ; n585 t=26.683 D6
    db 144,0,232,3,62,110,2 ; n586 t=26.683 D4
    db 0,0,232,3,79,110,1 ; n587 t=26.827 G5
    db 0,0,232,3,58,110,2 ; n588 t=26.827 A#3
    db 144,0,232,3,62,110,9 ; n589 t=26.827 D4
    db 0,0,232,3,76,110,1 ; n590 t=26.971 E5
    db 144,0,232,3,55,110,2 ; n591 t=26.971 G3
    db 0,0,232,3,77,110,1 ; n592 t=27.115 F5
    db 0,0,232,3,57,110,2 ; n593 t=27.115 A3
    db 144,0,232,3,62,110,9 ; n594 t=27.115 D4
    db 0,0,232,3,86,110,1 ; n595 t=27.260 D6
    db 144,0,232,3,53,110,2 ; n596 t=27.260 F3
    db 0,0,232,3,76,110,1 ; n597 t=27.404 E5
    db 0,0,232,3,55,110,2 ; n598 t=27.404 G3
    db 144,0,232,3,62,110,9 ; n599 t=27.404 D4
    db 0,0,232,3,73,110,1 ; n600 t=27.548 C#5
    db 144,0,232,3,52,110,2 ; n601 t=27.548 E3
    db 0,0,232,3,74,110,1 ; n602 t=27.692 D5
    db 0,0,232,3,53,110,2 ; n603 t=27.692 F3
    db 144,0,232,3,62,110,9 ; n604 t=27.692 D4
    db 0,0,232,3,86,110,1 ; n605 t=27.837 D6
    db 144,0,232,3,38,110,2 ; n606 t=27.837 D2
    db 0,0,232,3,81,110,1 ; n607 t=27.981 A5
    db 144,0,232,3,41,110,2 ; n608 t=27.981 F2
    db 0,0,232,3,77,110,1 ; n609 t=28.125 F5
    db 144,0,232,3,45,110,2 ; n610 t=28.125 A2
    db 0,0,232,3,74,110,1 ; n611 t=28.269 D5
    db 144,0,232,3,50,110,2 ; n612 t=28.269 D3
    db 0,0,232,3,81,110,1 ; n613 t=28.413 A5
    db 144,0,232,3,41,110,2 ; n614 t=28.413 F2
    db 0,0,232,3,77,110,1 ; n615 t=28.558 F5
    db 144,0,232,3,45,110,2 ; n616 t=28.558 A2
    db 0,0,232,3,74,110,1 ; n617 t=28.702 D5
    db 144,0,232,3,50,110,2 ; n618 t=28.702 D3
    db 0,0,232,3,69,110,1 ; n619 t=28.846 A4
    db 144,0,232,3,53,110,2 ; n620 t=28.846 F3
    db 0,0,232,3,77,110,1 ; n621 t=28.990 F5
    db 144,0,232,3,45,110,2 ; n622 t=28.990 A2
    db 0,0,232,3,74,110,1 ; n623 t=29.135 D5
    db 144,0,232,3,50,110,2 ; n624 t=29.135 D3
    db 0,0,232,3,69,110,1 ; n625 t=29.279 A4
    db 144,0,232,3,53,110,2 ; n626 t=29.279 F3
    db 0,0,232,3,65,110,1 ; n627 t=29.423 F4
    db 144,0,232,3,57,110,2 ; n628 t=29.423 A3
    db 0,0,232,3,74,110,1 ; n629 t=29.567 D5
    db 144,0,232,3,50,110,2 ; n630 t=29.567 D3
    db 0,0,232,3,69,110,1 ; n631 t=29.712 A4
    db 144,0,232,3,53,110,2 ; n632 t=29.712 F3
    db 0,0,232,3,65,110,1 ; n633 t=29.856 F4
    db 144,0,232,3,57,110,2 ; n634 t=29.856 A3
    db 0,0,232,3,62,110,1 ; n635 t=30.000 D4
    db 0,0,232,3,62,110,2 ; n636 t=30.000 D4
    db 0,0,232,3,62,110,3 ; n637 t=30.000 D4
    db 0,0,232,3,62,110,4 ; n638 t=30.000 D4
    db 144,0,232,3,38,110,6 ; n639 t=30.000 D2
    db 0,0,232,3,64,110,1 ; n640 t=30.144 E4
    db 0,0,232,3,64,110,3 ; n641 t=30.144 E4
    db 144,0,232,3,64,110,4 ; n642 t=30.144 E4
    db 0,0,232,3,65,110,1 ; n643 t=30.288 F4
    db 0,0,232,3,65,110,3 ; n644 t=30.288 F4
    db 32,1,232,3,65,110,4 ; n645 t=30.288 F4
    db 0,0,232,3,64,110,1 ; n646 t=30.577 E4
    db 0,0,232,3,64,110,3 ; n647 t=30.577 E4
    db 33,1,232,3,64,110,4 ; n648 t=30.577 E4
    db 0,0,232,3,62,110,1 ; n649 t=30.865 D4
    db 0,0,232,3,62,110,3 ; n650 t=30.865 D4
    db 32,1,232,3,62,110,4 ; n651 t=30.865 D4
    db 0,0,232,3,69,110,1 ; n652 t=31.154 A4
    db 0,0,232,3,50,110,2 ; n653 t=31.154 D3
    db 0,0,232,3,69,110,3 ; n654 t=31.154 A4
    db 0,0,232,3,69,110,4 ; n655 t=31.154 A4
    db 0,0,232,3,65,110,5 ; n656 t=31.154 F4
    db 144,0,232,3,50,110,6 ; n657 t=31.154 D3
    db 0,0,232,3,52,110,2 ; n658 t=31.298 E3
    db 0,0,232,3,67,110,5 ; n659 t=31.298 G4
    db 144,0,232,3,52,110,6 ; n660 t=31.298 E3
    db 0,0,232,3,74,110,1 ; n661 t=31.442 D5
    db 0,0,232,3,53,110,2 ; n662 t=31.442 F3
    db 0,0,232,3,74,110,3 ; n663 t=31.442 D5
    db 0,0,232,3,74,110,4 ; n664 t=31.442 D5
    db 0,0,232,3,69,110,5 ; n665 t=31.442 A4
    db 32,1,232,3,53,110,6 ; n666 t=31.442 F3
    db 0,0,232,3,52,110,2 ; n667 t=31.731 E3
    db 0,0,232,3,67,110,5 ; n668 t=31.731 G4
    db 32,1,232,3,52,110,6 ; n669 t=31.731 E3
    db 0,0,232,3,69,110,1 ; n670 t=32.019 A4
    db 0,0,232,3,50,110,2 ; n671 t=32.019 D3
    db 0,0,232,3,69,110,3 ; n672 t=32.019 A4
    db 0,0,232,3,69,110,4 ; n673 t=32.019 A4
    db 0,0,232,3,65,110,5 ; n674 t=32.019 F4
    db 32,1,232,3,50,110,6 ; n675 t=32.019 D3
    db 0,0,232,3,70,110,1 ; n676 t=32.308 A#4
    db 0,0,232,3,55,110,2 ; n677 t=32.308 G3
    db 0,0,232,3,70,110,3 ; n678 t=32.308 A#4
    db 0,0,232,3,70,110,4 ; n679 t=32.308 A#4
    db 32,1,232,3,55,110,6 ; n680 t=32.308 G3
    db 0,0,232,3,67,110,1 ; n681 t=32.596 G4
    db 0,0,232,3,64,110,2 ; n682 t=32.596 E4
    db 0,0,232,3,67,110,3 ; n683 t=32.596 G4
    db 0,0,232,3,67,110,4 ; n684 t=32.596 G4
    db 144,0,232,3,64,110,5 ; n685 t=32.596 E4
    db 0,0,232,3,64,110,1 ; n686 t=32.740 E4
    db 0,0,232,3,61,110,2 ; n687 t=32.740 C#4
    db 0,0,232,3,64,110,3 ; n688 t=32.740 E4
    db 144,0,232,3,64,110,4 ; n689 t=32.740 E4
    db 0,0,232,3,69,110,1 ; n690 t=32.885 A4
    db 0,0,232,3,53,110,2 ; n691 t=32.885 F3
    db 0,0,232,3,69,110,3 ; n692 t=32.885 A4
    db 0,0,232,3,69,110,4 ; n693 t=32.885 A4
    db 32,1,232,3,53,110,6 ; n694 t=32.885 F3
    db 0,0,232,3,65,110,1 ; n695 t=33.173 F4
    db 0,0,232,3,62,110,2 ; n696 t=33.173 D4
    db 0,0,232,3,65,110,3 ; n697 t=33.173 F4
    db 0,0,232,3,65,110,4 ; n698 t=33.173 F4
    db 144,0,232,3,62,110,5 ; n699 t=33.173 D4
    db 0,0,232,3,62,110,1 ; n700 t=33.317 D4
    db 0,0,232,3,58,110,2 ; n701 t=33.317 A#3
    db 0,0,232,3,62,110,3 ; n702 t=33.317 D4
    db 144,0,232,3,62,110,4 ; n703 t=33.317 D4
    db 0,0,232,3,67,110,1 ; n704 t=33.462 G4
    db 0,0,232,3,52,110,2 ; n705 t=33.462 E3
    db 0,0,232,3,67,110,3 ; n706 t=33.462 G4
    db 0,0,232,3,67,110,4 ; n707 t=33.462 G4
    db 144,0,232,3,52,110,6 ; n708 t=33.462 E3
    db 144,0,232,3,53,110,2 ; n709 t=33.606 F3
    db 0,0,232,3,64,110,1 ; n710 t=33.750 E4
    db 0,0,232,3,55,110,2 ; n711 t=33.750 G3
    db 0,0,232,3,64,110,3 ; n712 t=33.750 E4
    db 0,0,232,3,64,110,4 ; n713 t=33.750 E4
    db 144,0,232,3,67,110,5 ; n714 t=33.750 G4
    db 0,0,232,3,61,110,1 ; n715 t=33.894 C#4
    db 0,0,232,3,52,110,2 ; n716 t=33.894 E3
    db 0,0,232,3,61,110,3 ; n717 t=33.894 C#4
    db 144,0,232,3,61,110,4 ; n718 t=33.894 C#4
    db 0,0,232,3,57,110,1 ; n719 t=34.038 A3
    db 0,0,232,3,50,110,2 ; n720 t=34.038 D3
    db 0,0,232,3,57,110,3 ; n721 t=34.038 A3
    db 0,0,232,3,57,110,4 ; n722 t=34.038 A3
    db 144,0,232,3,50,110,6 ; n723 t=34.038 D3
    db 144,0,232,3,52,110,2 ; n724 t=34.183 E3
    db 0,0,232,3,70,110,1 ; n725 t=34.327 A#4
    db 0,0,232,3,55,110,2 ; n726 t=34.327 G3
    db 0,0,232,3,70,110,3 ; n727 t=34.327 A#4
    db 0,0,232,3,70,110,4 ; n728 t=34.327 A#4
    db 144,0,232,3,64,110,5 ; n729 t=34.327 E4
    db 0,0,232,3,52,110,2 ; n730 t=34.471 E3
    db 144,0,232,3,61,110,5 ; n731 t=34.471 C#4
    db 0,0,232,3,49,110,2 ; n732 t=34.615 C#3
    db 0,0,232,3,55,110,5 ; n733 t=34.615 G3
    db 144,0,232,3,49,110,6 ; n734 t=34.615 C#3
    db 144,0,232,3,50,110,2 ; n735 t=34.760 D3
    db 0,0,232,3,67,110,1 ; n736 t=34.904 G4
    db 0,0,232,3,52,110,2 ; n737 t=34.904 E3
    db 0,0,232,3,67,110,3 ; n738 t=34.904 G4
    db 0,0,232,3,67,110,4 ; n739 t=34.904 G4
    db 144,0,232,3,70,110,5 ; n740 t=34.904 A#4
    db 0,0,232,3,64,110,1 ; n741 t=35.048 E4
    db 0,0,232,3,49,110,2 ; n742 t=35.048 C#3
    db 0,0,232,3,64,110,3 ; n743 t=35.048 E4
    db 144,0,232,3,64,110,4 ; n744 t=35.048 E4
    db 0,0,232,3,57,110,1 ; n745 t=35.192 A3
    db 0,0,232,3,50,110,2 ; n746 t=35.192 D3
    db 0,0,232,3,57,110,3 ; n747 t=35.192 A3
    db 0,0,232,3,57,110,4 ; n748 t=35.192 A3
    db 144,0,232,3,50,110,6 ; n749 t=35.192 D3
    db 144,0,232,3,53,110,2 ; n750 t=35.337 F3
    db 0,0,232,3,73,110,1 ; n751 t=35.481 C#5
    db 0,0,232,3,52,110,2 ; n752 t=35.481 E3
    db 0,0,232,3,73,110,3 ; n753 t=35.481 C#5
    db 0,0,232,3,73,110,4 ; n754 t=35.481 C#5
    db 144,0,232,3,67,110,5 ; n755 t=35.481 G4
    db 0,0,232,3,50,110,2 ; n756 t=35.625 D3
    db 144,0,232,3,64,110,5 ; n757 t=35.625 E4
    db 0,0,232,3,52,110,2 ; n758 t=35.769 E3
    db 0,0,232,3,55,110,5 ; n759 t=35.769 G3
    db 144,0,232,3,52,110,6 ; n760 t=35.769 E3
    db 144,0,232,3,53,110,2 ; n761 t=35.913 F3
    db 0,0,232,3,70,110,1 ; n762 t=36.058 A#4
    db 0,0,232,3,55,110,2 ; n763 t=36.058 G3
    db 0,0,232,3,70,110,3 ; n764 t=36.058 A#4
    db 0,0,232,3,70,110,4 ; n765 t=36.058 A#4
    db 144,0,232,3,73,110,5 ; n766 t=36.058 C#5
    db 0,0,232,3,67,110,1 ; n767 t=36.202 G4
    db 0,0,232,3,52,110,2 ; n768 t=36.202 E3
    db 0,0,232,3,67,110,3 ; n769 t=36.202 G4
    db 144,0,232,3,67,110,4 ; n770 t=36.202 G4
    db 0,0,232,3,57,110,1 ; n771 t=36.346 A3
    db 0,0,232,3,53,110,2 ; n772 t=36.346 F3
    db 0,0,232,3,57,110,3 ; n773 t=36.346 A3
    db 0,0,232,3,57,110,4 ; n774 t=36.346 A3
    db 144,0,232,3,53,110,6 ; n775 t=36.346 F3
    db 144,0,232,3,57,110,2 ; n776 t=36.490 A3
    db 0,0,232,3,76,110,1 ; n777 t=36.635 E5
    db 0,0,232,3,55,110,2 ; n778 t=36.635 G3
    db 0,0,232,3,76,110,3 ; n779 t=36.635 E5
    db 0,0,232,3,76,110,4 ; n780 t=36.635 E5
    db 144,0,232,3,70,110,5 ; n781 t=36.635 A#4
    db 0,0,232,3,53,110,2 ; n782 t=36.779 F3
    db 144,0,232,3,67,110,5 ; n783 t=36.779 G4
    db 0,0,232,3,55,110,2 ; n784 t=36.923 G3
    db 0,0,232,3,55,110,5 ; n785 t=36.923 G3
    db 144,0,232,3,55,110,6 ; n786 t=36.923 G3
    db 144,0,232,3,43,110,2 ; n787 t=37.067 G2
    db 0,0,232,3,73,110,1 ; n788 t=37.212 C#5
    db 0,0,232,3,55,110,2 ; n789 t=37.212 G3
    db 0,0,232,3,73,110,3 ; n790 t=37.212 C#5
    db 0,0,232,3,73,110,4 ; n791 t=37.212 C#5
    db 0,0,232,3,76,110,5 ; n792 t=37.212 E5
    db 144,0,232,3,55,110,6 ; n793 t=37.212 G3
    db 0,0,232,3,69,110,1 ; n794 t=37.356 A4
    db 0,0,232,3,54,110,2 ; n795 t=37.356 F#3
    db 0,0,232,3,69,110,3 ; n796 t=37.356 A4
    db 144,0,232,3,69,110,4 ; n797 t=37.356 A4
    db 0,0,232,3,70,110,1 ; n798 t=37.500 A#4
    db 0,0,232,3,55,110,2 ; n799 t=37.500 G3
    db 0,0,232,3,70,110,3 ; n800 t=37.500 A#4
    db 0,0,232,3,70,110,4 ; n801 t=37.500 A#4
    db 144,0,232,3,55,110,6 ; n802 t=37.500 G3
    db 0,0,232,3,67,110,1 ; n803 t=37.644 G4
    db 0,0,232,3,67,110,3 ; n804 t=37.644 G4
    db 144,0,232,3,67,110,4 ; n805 t=37.644 G4
    db 0,0,232,3,69,110,1 ; n806 t=37.788 A4
    db 0,0,232,3,69,110,3 ; n807 t=37.788 A4
    db 0,0,232,3,69,110,4 ; n808 t=37.788 A4
    db 0,0,232,3,73,110,5 ; n809 t=37.788 C#5
    db 144,0,232,3,55,110,6 ; n810 t=37.788 G3
    db 0,0,232,3,65,110,1 ; n811 t=37.933 F4
    db 0,0,232,3,65,110,3 ; n812 t=37.933 F4
    db 0,0,232,3,65,110,4 ; n813 t=37.933 F4
    db 144,0,232,3,69,110,5 ; n814 t=37.933 A4
    db 0,0,232,3,67,110,1 ; n815 t=38.077 G4
    db 0,0,232,3,67,110,3 ; n816 t=38.077 G4
    db 0,0,232,3,67,110,4 ; n817 t=38.077 G4
    db 0,0,232,3,70,110,5 ; n818 t=38.077 A#4
    db 144,0,232,3,55,110,6 ; n819 t=38.077 G3
    db 0,0,232,3,64,110,1 ; n820 t=38.221 E4
    db 0,0,232,3,43,110,2 ; n821 t=38.221 G2
    db 0,0,232,3,64,110,3 ; n822 t=38.221 E4
    db 0,0,232,3,64,110,4 ; n823 t=38.221 E4
    db 144,0,232,3,67,110,5 ; n824 t=38.221 G4
    db 0,0,232,3,65,110,1 ; n825 t=38.365 F4
    db 0,0,232,3,55,110,2 ; n826 t=38.365 G3
    db 0,0,232,3,65,110,3 ; n827 t=38.365 F4
    db 0,0,232,3,65,110,4 ; n828 t=38.365 F4
    db 0,0,232,3,69,110,5 ; n829 t=38.365 A4
    db 144,0,232,3,55,110,6 ; n830 t=38.365 G3
    db 0,0,232,3,62,110,1 ; n831 t=38.510 D4
    db 0,0,232,3,54,110,2 ; n832 t=38.510 F#3
    db 0,0,232,3,62,110,3 ; n833 t=38.510 D4
    db 0,0,232,3,62,110,4 ; n834 t=38.510 D4
    db 144,0,232,3,65,110,5 ; n835 t=38.510 F4
    db 0,0,232,3,64,110,1 ; n836 t=38.654 E4
    db 0,0,232,3,55,110,2 ; n837 t=38.654 G3
    db 0,0,232,3,64,110,3 ; n838 t=38.654 E4
    db 0,0,232,3,64,110,4 ; n839 t=38.654 E4
    db 0,0,232,3,67,110,5 ; n840 t=38.654 G4
    db 144,0,232,3,55,110,6 ; n841 t=38.654 G3
    db 0,0,232,3,61,110,1 ; n842 t=38.798 C#4
    db 0,0,232,3,61,110,3 ; n843 t=38.798 C#4
    db 0,0,232,3,61,110,4 ; n844 t=38.798 C#4
    db 144,0,232,3,64,110,5 ; n845 t=38.798 E4
    db 0,0,232,3,62,110,1 ; n846 t=38.942 D4
    db 0,0,232,3,62,110,3 ; n847 t=38.942 D4
    db 0,0,232,3,62,110,4 ; n848 t=38.942 D4
    db 0,0,232,3,65,110,5 ; n849 t=38.942 F4
    db 144,0,232,3,55,110,6 ; n850 t=38.942 G3
    db 0,0,232,3,59,110,1 ; n851 t=39.087 B3
    db 0,0,232,3,59,110,3 ; n852 t=39.087 B3
    db 0,0,232,3,59,110,4 ; n853 t=39.087 B3
    db 144,0,232,3,62,110,5 ; n854 t=39.087 D4
    db 0,0,232,3,61,110,1 ; n855 t=39.231 C#4
    db 0,0,232,3,52,110,2 ; n856 t=39.231 E3
    db 0,0,232,3,43,110,2 ; n857 t=39.231 G2
    db 0,0,232,3,61,110,3 ; n858 t=39.231 C#4
    db 0,0,232,3,61,110,4 ; n859 t=39.231 C#4
    db 0,0,232,3,69,110,5 ; n860 t=39.231 A4
    db 144,0,232,3,55,110,6 ; n861 t=39.231 G3
    db 0,0,232,3,57,110,1 ; n862 t=39.375 A3
    db 0,0,232,3,57,110,3 ; n863 t=39.375 A3
    db 144,0,232,3,57,110,4 ; n864 t=39.375 A3
    db 0,0,232,3,59,110,1 ; n865 t=39.519 B3
    db 0,0,232,3,59,110,3 ; n866 t=39.519 B3
    db 144,0,232,3,59,110,4 ; n867 t=39.519 B3
    db 0,0,232,3,61,110,1 ; n868 t=39.663 C#4
    db 0,0,232,3,45,110,2 ; n869 t=39.663 A2
    db 0,0,232,3,61,110,3 ; n870 t=39.663 C#4
    db 144,0,232,3,61,110,4 ; n871 t=39.663 C#4
    db 0,0,232,3,62,110,1 ; n872 t=39.808 D4
    db 0,0,232,3,47,110,2 ; n873 t=39.808 B2
    db 0,0,232,3,62,110,3 ; n874 t=39.808 D4
    db 144,0,232,3,62,110,4 ; n875 t=39.808 D4
    db 0,0,232,3,64,110,1 ; n876 t=39.952 E4
    db 0,0,232,3,49,110,2 ; n877 t=39.952 C#3
    db 0,0,232,3,64,110,3 ; n878 t=39.952 E4
    db 144,0,232,3,64,110,4 ; n879 t=39.952 E4
    db 0,0,232,3,65,110,1 ; n880 t=40.096 F4
    db 0,0,232,3,50,110,2 ; n881 t=40.096 D3
    db 0,0,232,3,65,110,3 ; n882 t=40.096 F4
    db 144,0,232,3,65,110,4 ; n883 t=40.096 F4
    db 0,0,232,3,67,110,1 ; n884 t=40.240 G4
    db 0,0,232,3,52,110,2 ; n885 t=40.240 E3
    db 0,0,232,3,67,110,3 ; n886 t=40.240 G4
    db 144,0,232,3,67,110,4 ; n887 t=40.240 G4
    db 0,0,232,3,69,110,1 ; n888 t=40.385 A4
    db 0,0,232,3,54,110,2 ; n889 t=40.385 F#3
    db 0,0,232,3,69,110,3 ; n890 t=40.385 A4
    db 0,0,232,3,69,110,4 ; n891 t=40.385 A4
    db 144,0,232,3,54,110,6 ; n892 t=40.385 F#3
    db 0,0,232,3,70,110,1 ; n893 t=40.529 A#4
    db 0,0,232,3,55,110,2 ; n894 t=40.529 G3
    db 0,0,232,3,70,110,3 ; n895 t=40.529 A#4
    db 0,0,232,3,70,110,4 ; n896 t=40.529 A#4
    db 144,0,232,3,55,110,6 ; n897 t=40.529 G3
    db 0,0,232,3,72,110,1 ; n898 t=40.673 C5
    db 0,0,232,3,57,110,2 ; n899 t=40.673 A3
    db 0,0,232,3,72,110,3 ; n900 t=40.673 C5
    db 0,0,232,3,72,110,4 ; n901 t=40.673 C5
    db 32,1,232,3,57,110,6 ; n902 t=40.673 A3
    db 0,0,232,3,72,110,1 ; n903 t=40.962 C5
    db 0,0,232,3,57,110,2 ; n904 t=40.962 A3
    db 0,0,232,3,72,110,3 ; n905 t=40.962 C5
    db 0,0,232,3,72,110,4 ; n906 t=40.962 C5
    db 144,0,232,3,57,110,6 ; n907 t=40.962 A3
    db 0,0,232,3,74,110,1 ; n908 t=41.106 D5
    db 0,0,232,3,59,110,2 ; n909 t=41.106 B3
    db 0,0,232,3,74,110,3 ; n910 t=41.106 D5
    db 0,0,232,3,74,110,4 ; n911 t=41.106 D5
    db 144,0,232,3,58,110,6 ; n912 t=41.106 A#3
    db 0,0,232,3,75,110,1 ; n913 t=41.250 D#5
    db 0,0,232,3,60,110,2 ; n914 t=41.250 C4
    db 0,0,232,3,75,110,3 ; n915 t=41.250 D#5
    db 0,0,232,3,75,110,4 ; n916 t=41.250 D#5
    db 32,1,232,3,60,110,6 ; n917 t=41.250 C4
    db 0,0,232,3,66,110,1 ; n918 t=41.538 F#4
    db 0,0,232,3,62,110,1 ; n919 t=41.538 D4
    db 0,0,232,3,60,110,2 ; n920 t=41.538 C4
    db 0,0,232,3,66,110,3 ; n921 t=41.538 F#4
    db 0,0,232,3,66,110,4 ; n922 t=41.538 F#4
    db 32,1,232,3,60,110,6 ; n923 t=41.538 C4
    db 0,0,232,3,67,110,1 ; n924 t=41.827 G4
    db 0,0,232,3,59,110,2 ; n925 t=41.827 B3
    db 0,0,232,3,67,110,3 ; n926 t=41.827 G4
    db 0,0,232,3,67,110,4 ; n927 t=41.827 G4
    db 0,0,232,3,62,110,5 ; n928 t=41.827 D4
    db 32,1,232,3,59,110,6 ; n929 t=41.827 B3
    db 0,0,232,3,73,110,1 ; n930 t=42.115 C#5
    db 0,0,232,3,64,110,1 ; n931 t=42.115 E4
    db 0,0,232,3,58,110,2 ; n932 t=42.115 A#3
    db 32,1,232,3,58,110,6 ; n933 t=42.115 A#3
    db 0,0,232,3,74,110,1 ; n934 t=42.404 D5
    db 0,0,232,3,65,110,1 ; n935 t=42.404 F4
    db 0,0,232,3,57,110,2 ; n936 t=42.404 A3
    db 33,1,232,3,57,110,6 ; n937 t=42.404 A3
    db 0,0,232,3,61,110,1 ; n938 t=42.692 C#4
    db 0,0,232,3,64,110,1 ; n939 t=42.692 E4
    db 0,0,232,3,57,110,2 ; n940 t=42.692 A3
    db 0,0,232,3,64,110,3 ; n941 t=42.692 E4
    db 0,0,232,3,64,110,4 ; n942 t=42.692 E4
    db 0,0,232,3,61,110,5 ; n943 t=42.692 C#4
    db 32,1,232,3,57,110,6 ; n944 t=42.692 A3
    db 0,0,232,3,62,110,1 ; n945 t=42.981 D4
    db 0,0,232,3,65,110,1 ; n946 t=42.981 F4
    db 0,0,232,3,56,110,2 ; n947 t=42.981 G#3
    db 0,0,232,3,65,110,3 ; n948 t=42.981 F4
    db 0,0,232,3,65,110,4 ; n949 t=42.981 F4
    db 0,0,232,3,62,110,5 ; n950 t=42.981 D4
    db 32,1,232,3,56,110,6 ; n951 t=42.981 G#3
    db 0,0,232,3,64,110,1 ; n952 t=43.269 E4
    db 0,0,232,3,73,110,1 ; n953 t=43.269 C#5
    db 0,0,232,3,55,110,2 ; n954 t=43.269 G3
    db 32,1,232,3,55,110,6 ; n955 t=43.269 G3
    db 0,0,232,3,65,110,1 ; n956 t=43.558 F4
    db 0,0,232,3,74,110,1 ; n957 t=43.558 D5
    db 0,0,232,3,54,110,2 ; n958 t=43.558 F#3
    db 32,1,232,3,53,110,6 ; n959 t=43.558 F3
    db 0,0,232,3,74,110,1 ; n960 t=43.846 D5
    db 0,0,232,3,71,110,1 ; n961 t=43.846 B4
    db 0,0,232,3,50,110,2 ; n962 t=43.846 D3
    db 0,0,232,3,44,110,2 ; n963 t=43.846 G#2
    db 0,0,232,3,77,110,3 ; n964 t=43.846 F5
    db 0,0,232,3,74,110,4 ; n965 t=43.846 D5
    db 0,0,232,3,71,110,5 ; n966 t=43.846 B4
    db 72,0,232,3,44,110,6 ; n967 t=43.846 G#2
    db 72,0,232,3,72,110,1 ; n968 t=43.918 C5
    db 72,0,232,3,76,110,1 ; n969 t=43.990 E5
    db 72,0,232,3,77,110,1 ; n970 t=44.062 F5
    db 0,0,232,3,45,110,2 ; n971 t=44.135 A2
    db 144,0,232,3,45,110,6 ; n972 t=44.135 A2
    db 144,0,232,3,76,110,1 ; n973 t=44.279 E5
    db 0,0,232,3,74,110,1 ; n974 t=44.423 D5
    db 0,0,232,3,53,110,2 ; n975 t=44.423 F3
    db 0,0,232,3,45,110,2 ; n976 t=44.423 A2
    db 144,0,232,3,45,110,6 ; n977 t=44.423 A2
    db 144,0,232,3,72,110,1 ; n978 t=44.567 C5
    db 0,0,232,3,71,110,1 ; n979 t=44.712 B4
    db 0,0,232,3,47,110,2 ; n980 t=44.712 B2
    db 144,0,232,3,47,110,6 ; n981 t=44.712 B2
    db 144,0,232,3,69,110,1 ; n982 t=44.856 A4
    db 0,0,232,3,72,110,1 ; n983 t=45.000 C5
    db 0,0,232,3,56,110,2 ; n984 t=45.000 G#3
    db 0,0,232,3,47,110,2 ; n985 t=45.000 B2
    db 0,0,232,3,74,110,3 ; n986 t=45.000 D5
    db 0,0,232,3,65,110,4 ; n987 t=45.000 F4
    db 0,0,232,3,68,110,5 ; n988 t=45.000 G#4
    db 72,0,232,3,47,110,6 ; n989 t=45.000 B2
    db 72,0,232,3,71,110,1 ; n990 t=45.072 B4
    db 72,0,232,3,72,110,1 ; n991 t=45.144 C5
    db 72,0,232,3,74,110,1 ; n992 t=45.216 D5
    db 0,0,232,3,48,110,2 ; n993 t=45.288 C3
    db 144,0,232,3,48,110,6 ; n994 t=45.288 C3
    db 144,0,232,3,72,110,1 ; n995 t=45.433 C5
    db 0,0,232,3,71,110,1 ; n996 t=45.577 B4
    db 0,0,232,3,52,110,2 ; n997 t=45.577 E3
    db 0,0,232,3,48,110,2 ; n998 t=45.577 C3
    db 144,0,232,3,48,110,6 ; n999 t=45.577 C3
    db 144,0,232,3,69,110,1 ; n1000 t=45.721 A4
    db 0,0,232,3,68,110,1 ; n1001 t=45.865 G#4
    db 0,0,232,3,50,110,2 ; n1002 t=45.865 D3
    db 144,0,232,3,50,110,6 ; n1003 t=45.865 D3
    db 144,0,232,3,66,110,1 ; n1004 t=46.010 F#4
    db 0,0,232,3,64,110,1 ; n1005 t=46.154 E4
    db 0,0,232,3,50,110,2 ; n1006 t=46.154 D3
    db 0,0,232,3,56,110,2 ; n1007 t=46.154 G#3
    db 0,0,232,3,59,110,2 ; n1008 t=46.154 B3
    db 0,0,232,3,64,110,3 ; n1009 t=46.154 E4
    db 0,0,232,3,59,110,4 ; n1010 t=46.154 B3
    db 0,0,232,3,56,110,5 ; n1011 t=46.154 G#3
    db 144,0,232,3,50,110,6 ; n1012 t=46.154 D3
    db 144,0,232,3,76,110,5 ; n1013 t=46.298 E5
    db 0,0,232,3,66,110,1 ; n1014 t=46.442 F#4
    db 0,0,232,3,66,110,3 ; n1015 t=46.442 F#4
    db 0,0,232,3,66,110,4 ; n1016 t=46.442 F#4
    db 144,0,232,3,74,110,5 ; n1017 t=46.442 D5
    db 0,0,232,3,68,110,1 ; n1018 t=46.587 G#4
    db 0,0,232,3,68,110,3 ; n1019 t=46.587 G#4
    db 0,0,232,3,68,110,4 ; n1020 t=46.587 G#4
    db 144,0,232,3,72,110,5 ; n1021 t=46.587 C5
    db 0,0,232,3,69,110,1 ; n1022 t=46.731 A4
    db 0,0,232,3,69,110,3 ; n1023 t=46.731 A4
    db 0,0,232,3,69,110,4 ; n1024 t=46.731 A4
    db 144,0,232,3,71,110,5 ; n1025 t=46.731 B4
    db 0,0,232,3,71,110,1 ; n1026 t=46.875 B4
    db 0,0,232,3,71,110,3 ; n1027 t=46.875 B4
    db 0,0,232,3,71,110,4 ; n1028 t=46.875 B4
    db 144,0,232,3,69,110,5 ; n1029 t=46.875 A4
    db 0,0,232,3,72,110,1 ; n1030 t=47.019 C5
    db 0,0,232,3,72,110,3 ; n1031 t=47.019 C5
    db 0,0,232,3,72,110,4 ; n1032 t=47.019 C5
    db 144,0,232,3,68,110,5 ; n1033 t=47.019 G#4
    db 0,0,232,3,74,110,1 ; n1034 t=47.163 D5
    db 0,0,232,3,74,110,3 ; n1035 t=47.163 D5
    db 0,0,232,3,74,110,4 ; n1036 t=47.163 D5
    db 144,0,232,3,66,110,5 ; n1037 t=47.163 F#4
    db 0,0,232,3,76,110,1 ; n1038 t=47.308 E5
    db 0,0,232,3,57,110,2 ; n1039 t=47.308 A3
    db 0,0,232,3,52,110,2 ; n1040 t=47.308 E3
    db 0,0,232,3,49,110,2 ; n1041 t=47.308 C#3
    db 0,0,232,3,76,110,3 ; n1042 t=47.308 E5
    db 0,0,232,3,76,110,4 ; n1043 t=47.308 E5
    db 0,0,232,3,64,110,5 ; n1044 t=47.308 E4
    db 144,0,232,3,49,110,6 ; n1045 t=47.308 C#3
    db 0,0,232,3,77,110,1 ; n1046 t=47.452 F5
    db 0,0,232,3,50,110,2 ; n1047 t=47.452 D3
    db 0,0,232,3,77,110,3 ; n1048 t=47.452 F5
    db 0,0,232,3,77,110,4 ; n1049 t=47.452 F5
    db 144,0,232,3,50,110,6 ; n1050 t=47.452 D3
    db 0,0,232,3,79,110,1 ; n1051 t=47.596 G5
    db 0,0,232,3,52,110,2 ; n1052 t=47.596 E3
    db 0,0,232,3,79,110,3 ; n1053 t=47.596 G5
    db 0,0,232,3,79,110,4 ; n1054 t=47.596 G5
    db 32,1,232,3,52,110,6 ; n1055 t=47.596 E3
    db 0,0,232,3,79,110,1 ; n1056 t=47.885 G5
    db 0,0,232,3,52,110,2 ; n1057 t=47.885 E3
    db 0,0,232,3,79,110,3 ; n1058 t=47.885 G5
    db 0,0,232,3,79,110,4 ; n1059 t=47.885 G5
    db 144,0,232,3,52,110,6 ; n1060 t=47.885 E3
    db 0,0,232,3,81,110,1 ; n1061 t=48.029 A5
    db 0,0,232,3,53,110,2 ; n1062 t=48.029 F3
    db 0,0,232,3,81,110,3 ; n1063 t=48.029 A5
    db 0,0,232,3,81,110,4 ; n1064 t=48.029 A5
    db 144,0,232,3,53,110,6 ; n1065 t=48.029 F3
    db 0,0,232,3,82,110,1 ; n1066 t=48.173 A#5
    db 0,0,232,3,55,110,2 ; n1067 t=48.173 G3
    db 0,0,232,3,82,110,3 ; n1068 t=48.173 A#5
    db 0,0,232,3,82,110,4 ; n1069 t=48.173 A#5
    db 32,1,232,3,55,110,6 ; n1070 t=48.173 G3
    db 0,0,232,3,73,110,1 ; n1071 t=48.462 C#5
    db 0,0,232,3,64,110,1 ; n1072 t=48.462 E4
    db 0,0,232,3,55,110,2 ; n1073 t=48.462 G3
    db 0,0,232,3,58,110,2 ; n1074 t=48.462 A#3
    db 0,0,232,3,73,110,3 ; n1075 t=48.462 C#5
    db 0,0,232,3,73,110,4 ; n1076 t=48.462 C#5
    db 32,1,232,3,55,110,6 ; n1077 t=48.462 G3
    db 0,0,232,3,74,110,1 ; n1078 t=48.750 D5
    db 0,0,232,3,65,110,1 ; n1079 t=48.750 F4
    db 0,0,232,3,53,110,2 ; n1080 t=48.750 F3
    db 0,0,232,3,57,110,2 ; n1081 t=48.750 A3
    db 0,0,232,3,74,110,3 ; n1082 t=48.750 D5
    db 0,0,232,3,74,110,4 ; n1083 t=48.750 D5
    db 0,0,232,3,65,110,5 ; n1084 t=48.750 F4
    db 32,1,232,3,53,110,6 ; n1085 t=48.750 F3
    db 0,0,232,3,68,110,1 ; n1086 t=49.038 G#4
    db 0,0,232,3,62,110,1 ; n1087 t=49.038 D4
    db 0,0,232,3,53,110,2 ; n1088 t=49.038 F3
    db 0,0,232,3,59,110,2 ; n1089 t=49.038 B3
    db 0,0,232,3,68,110,3 ; n1090 t=49.038 G#4
    db 0,0,232,3,68,110,4 ; n1091 t=49.038 G#4
    db 0,0,232,3,59,110,5 ; n1092 t=49.038 B3
    db 32,1,232,3,53,110,6 ; n1093 t=49.038 F3
    db 0,0,232,3,69,110,1 ; n1094 t=49.327 A4
    db 0,0,232,3,64,110,1 ; n1095 t=49.327 E4
    db 0,0,232,3,52,110,2 ; n1096 t=49.327 E3
    db 0,0,232,3,60,110,2 ; n1097 t=49.327 C4
    db 0,0,232,3,69,110,3 ; n1098 t=49.327 A4
    db 0,0,232,3,69,110,4 ; n1099 t=49.327 A4
    db 0,0,232,3,60,110,5 ; n1100 t=49.327 C4
    db 32,1,232,3,52,110,6 ; n1101 t=49.327 E3
    db 0,0,232,3,63,110,1 ; n1102 t=49.615 D#4
    db 0,0,232,3,51,110,2 ; n1103 t=49.615 D#3
    db 0,0,232,3,63,110,3 ; n1104 t=49.615 D#4
    db 0,0,232,3,63,110,4 ; n1105 t=49.615 D#4
    db 0,0,232,3,51,110,5 ; n1106 t=49.615 D#3
    db 65,2,232,3,51,110,6 ; n1107 t=49.615 D#3
    db 0,0,232,3,64,110,1 ; n1108 t=50.192 E4
    db 0,0,232,3,52,110,2 ; n1109 t=50.192 E3
    db 0,0,232,3,64,110,3 ; n1110 t=50.192 E4
    db 0,0,232,3,64,110,4 ; n1111 t=50.192 E4
    db 0,0,232,3,52,110,5 ; n1112 t=50.192 E3
    db 65,2,232,3,52,110,6 ; n1113 t=50.192 E3
    db 0,0,232,3,57,110,1 ; n1114 t=50.769 A3
    db 0,0,232,3,45,110,2 ; n1115 t=50.769 A2
    db 0,0,232,3,57,110,3 ; n1116 t=50.769 A3
    db 0,0,232,3,57,110,4 ; n1117 t=50.769 A3
    db 0,0,232,3,57,110,5 ; n1118 t=50.769 A3
    db 72,0,232,3,45,110,6 ; n1119 t=50.769 A2
    db 72,0,232,3,59,110,1 ; n1120 t=50.841 B3
    db 72,0,232,3,60,110,1 ; n1121 t=50.913 C4
    db 72,0,232,3,62,110,1 ; n1122 t=50.986 D4
    db 0,0,232,3,64,110,1 ; n1123 t=51.058 E4
    db 144,0,232,3,57,110,9 ; n1124 t=51.058 A3
    db 144,0,232,3,59,110,1 ; n1125 t=51.202 B3
    db 0,0,232,3,60,110,1 ; n1126 t=51.346 C4
    db 0,0,232,3,69,110,7 ; n1127 t=51.346 A4
    db 0,0,232,3,64,110,8 ; n1128 t=51.346 E4
    db 144,0,232,3,57,110,9 ; n1129 t=51.346 A3
    db 144,0,232,3,57,110,2 ; n1130 t=51.490 A3
    db 0,0,232,3,59,110,2 ; n1131 t=51.635 B3
    db 0,0,232,3,68,110,7 ; n1132 t=51.635 G#4
    db 0,0,232,3,62,110,8 ; n1133 t=51.635 D4
    db 144,0,232,3,57,110,9 ; n1134 t=51.635 A3
    db 144,0,232,3,56,110,2 ; n1135 t=51.779 G#3
    db 0,0,232,3,57,110,2 ; n1136 t=51.923 A3
    db 0,0,232,3,33,110,2 ; n1137 t=51.923 A1
    db 0,0,232,3,45,110,2 ; n1138 t=51.923 A2
    db 144,0,232,3,57,110,9 ; n1139 t=51.923 A3
    db 144,0,232,3,52,110,2 ; n1140 t=52.067 E3
    db 0,0,232,3,53,110,2 ; n1141 t=52.212 F3
    db 144,0,232,3,57,110,9 ; n1142 t=52.212 A3
    db 144,0,232,3,50,110,2 ; n1143 t=52.356 D3
    db 0,0,232,3,52,110,2 ; n1144 t=52.500 E3
    db 0,0,232,3,72,110,7 ; n1145 t=52.500 C5
    db 0,0,232,3,69,110,8 ; n1146 t=52.500 A4
    db 144,0,232,3,57,110,9 ; n1147 t=52.500 A3
    db 144,0,232,3,57,110,2 ; n1148 t=52.644 A3
    db 0,0,232,3,59,110,2 ; n1149 t=52.788 B3
    db 0,0,232,3,71,110,7 ; n1150 t=52.788 B4
    db 0,0,232,3,68,110,8 ; n1151 t=52.788 G#4
    db 144,0,232,3,57,110,9 ; n1152 t=52.788 A3
    db 144,0,232,3,56,110,2 ; n1153 t=52.933 G#3
    db 0,0,232,3,57,110,2 ; n1154 t=53.077 A3
    db 0,0,232,3,33,110,2 ; n1155 t=53.077 A1
    db 0,0,232,3,45,110,2 ; n1156 t=53.077 A2
    db 144,0,232,3,57,110,9 ; n1157 t=53.077 A3
    db 144,0,232,3,60,110,2 ; n1158 t=53.221 C4
    db 0,0,232,3,62,110,2 ; n1159 t=53.365 D4
    db 144,0,232,3,57,110,9 ; n1160 t=53.365 A3
    db 144,0,232,3,59,110,2 ; n1161 t=53.510 B3
    db 0,0,232,3,60,110,2 ; n1162 t=53.654 C4
    db 0,0,232,3,76,110,7 ; n1163 t=53.654 E5
    db 0,0,232,3,69,110,8 ; n1164 t=53.654 A4
    db 144,0,232,3,57,110,9 ; n1165 t=53.654 A3
    db 144,0,232,3,64,110,1 ; n1166 t=53.798 E4
    db 0,0,232,3,65,110,1 ; n1167 t=53.942 F4
    db 0,0,232,3,74,110,7 ; n1168 t=53.942 D5
    db 0,0,232,3,68,110,8 ; n1169 t=53.942 G#4
    db 144,0,232,3,57,110,9 ; n1170 t=53.942 A3
    db 144,0,232,3,62,110,1 ; n1171 t=54.087 D4
    db 0,0,232,3,64,110,1 ; n1172 t=54.231 E4
    db 0,0,232,3,45,110,2 ; n1173 t=54.231 A2
    db 0,0,232,3,57,110,9 ; n1174 t=54.231 A3
    db 72,0,232,3,45,110,11 ; n1175 t=54.231 A2
    db 0,0,232,3,68,110,1 ; n1176 t=54.303 G#4
    db 72,0,232,3,47,110,2 ; n1177 t=54.303 B2
    db 0,0,232,3,69,110,1 ; n1178 t=54.375 A4
    db 72,0,232,3,48,110,2 ; n1179 t=54.375 C3
    db 0,0,232,3,71,110,1 ; n1180 t=54.447 B4
    db 72,0,232,3,50,110,2 ; n1181 t=54.447 D3
    db 0,0,232,3,72,110,1 ; n1182 t=54.519 C5
    db 0,0,232,3,52,110,2 ; n1183 t=54.519 E3
    db 144,0,232,3,57,110,9 ; n1184 t=54.519 A3
    db 0,0,232,3,68,110,1 ; n1185 t=54.663 G#4
    db 144,0,232,3,47,110,2 ; n1186 t=54.663 B2
    db 0,0,232,3,69,110,1 ; n1187 t=54.808 A4
    db 0,0,232,3,48,110,2 ; n1188 t=54.808 C3
    db 0,0,232,3,72,110,7 ; n1189 t=54.808 C5
    db 0,0,232,3,69,110,8 ; n1190 t=54.808 A4
    db 144,0,232,3,57,110,9 ; n1191 t=54.808 A3
    db 0,0,232,3,64,110,1 ; n1192 t=54.952 E4
    db 144,0,232,3,45,110,2 ; n1193 t=54.952 A2
    db 0,0,232,3,65,110,1 ; n1194 t=55.096 F4
    db 0,0,232,3,50,110,2 ; n1195 t=55.096 D3
    db 0,0,232,3,71,110,7 ; n1196 t=55.096 B4
    db 0,0,232,3,68,110,8 ; n1197 t=55.096 G#4
    db 144,0,232,3,57,110,9 ; n1198 t=55.096 A3
    db 0,0,232,3,62,110,1 ; n1199 t=55.240 D4
    db 144,0,232,3,47,110,2 ; n1200 t=55.240 B2
    db 0,0,232,3,64,110,1 ; n1201 t=55.385 E4
    db 0,0,232,3,48,110,2 ; n1202 t=55.385 C3
    db 144,0,232,3,57,110,9 ; n1203 t=55.385 A3
    db 0,0,232,3,60,110,1 ; n1204 t=55.529 C4
    db 144,0,232,3,45,110,2 ; n1205 t=55.529 A2
    db 0,0,232,3,62,110,1 ; n1206 t=55.673 D4
    db 0,0,232,3,47,110,2 ; n1207 t=55.673 B2
    db 144,0,232,3,57,110,9 ; n1208 t=55.673 A3
    db 0,0,232,3,59,110,1 ; n1209 t=55.817 B3
    db 144,0,232,3,44,110,2 ; n1210 t=55.817 G#2
    db 0,0,232,3,60,110,1 ; n1211 t=55.962 C4
    db 0,0,232,3,45,110,2 ; n1212 t=55.962 A2
    db 0,0,232,3,69,110,7 ; n1213 t=55.962 A4
    db 0,0,232,3,64,110,8 ; n1214 t=55.962 E4
    db 144,0,232,3,57,110,9 ; n1215 t=55.962 A3
    db 0,0,232,3,64,110,1 ; n1216 t=56.106 E4
    db 144,0,232,3,48,110,2 ; n1217 t=56.106 C3
    db 0,0,232,3,65,110,1 ; n1218 t=56.250 F4
    db 0,0,232,3,50,110,2 ; n1219 t=56.250 D3
    db 0,0,232,3,68,110,7 ; n1220 t=56.250 G#4
    db 0,0,232,3,62,110,8 ; n1221 t=56.250 D4
    db 144,0,232,3,57,110,9 ; n1222 t=56.250 A3
    db 0,0,232,3,62,110,1 ; n1223 t=56.394 D4
    db 144,0,232,3,47,110,2 ; n1224 t=56.394 B2
    db 0,0,232,3,64,110,1 ; n1225 t=56.538 E4
    db 0,0,232,3,48,110,2 ; n1226 t=56.538 C3
    db 144,0,232,3,57,110,9 ; n1227 t=56.538 A3
    db 0,0,232,3,69,110,1 ; n1228 t=56.683 A4
    db 144,0,232,3,60,110,2 ; n1229 t=56.683 C4
    db 0,0,232,3,71,110,1 ; n1230 t=56.827 B4
    db 0,0,232,3,62,110,2 ; n1231 t=56.827 D4
    db 144,0,232,3,57,110,9 ; n1232 t=56.827 A3
    db 0,0,232,3,68,110,1 ; n1233 t=56.971 G#4
    db 144,0,232,3,59,110,2 ; n1234 t=56.971 B3
    db 0,0,232,3,69,110,1 ; n1235 t=57.115 A4
    db 0,0,232,3,60,110,2 ; n1236 t=57.115 C4
    db 0,0,232,3,69,110,7 ; n1237 t=57.115 A4
    db 0,0,232,3,60,110,8 ; n1238 t=57.115 C4
    db 144,0,232,3,57,110,9 ; n1239 t=57.115 A3
    db 0,0,232,3,72,110,1 ; n1240 t=57.260 C5
    db 144,0,232,3,64,110,2 ; n1241 t=57.260 E4
    db 0,0,232,3,74,110,1 ; n1242 t=57.404 D5
    db 0,0,232,3,65,110,2 ; n1243 t=57.404 F4
    db 0,0,232,3,68,110,7 ; n1244 t=57.404 G#4
    db 0,0,232,3,59,110,8 ; n1245 t=57.404 B3
    db 144,0,232,3,57,110,9 ; n1246 t=57.404 A3
    db 0,0,232,3,71,110,1 ; n1247 t=57.548 B4
    db 144,0,232,3,62,110,2 ; n1248 t=57.548 D4
    db 0,0,232,3,72,110,1 ; n1249 t=57.692 C5
    db 0,0,232,3,64,110,2 ; n1250 t=57.692 E4
    db 0,0,232,3,57,110,9 ; n1251 t=57.692 A3
    db 144,0,232,3,45,110,11 ; n1252 t=57.692 A2
    db 0,0,232,3,68,110,1 ; n1253 t=57.837 G#4
    db 144,0,232,3,59,110,2 ; n1254 t=57.837 B3
    db 0,0,232,3,69,110,1 ; n1255 t=57.981 A4
    db 0,0,232,3,60,110,2 ; n1256 t=57.981 C4
    db 144,0,232,3,57,110,9 ; n1257 t=57.981 A3
    db 0,0,232,3,64,110,1 ; n1258 t=58.125 E4
    db 144,0,232,3,56,110,2 ; n1259 t=58.125 G#3
    db 0,0,232,3,65,110,1 ; n1260 t=58.269 F4
    db 0,0,232,3,57,110,2 ; n1261 t=58.269 A3
    db 0,0,232,3,62,110,7 ; n1262 t=58.269 D4
    db 0,0,232,3,57,110,8 ; n1263 t=58.269 A3
    db 144,0,232,3,57,110,9 ; n1264 t=58.269 A3
    db 144,0,232,3,62,110,1 ; n1265 t=58.413 D4
    db 0,0,232,3,64,110,1 ; n1266 t=58.558 E4
    db 0,0,232,3,45,110,2 ; n1267 t=58.558 A2
    db 0,0,232,3,50,110,2 ; n1268 t=58.558 D3
    db 0,0,232,3,56,110,2 ; n1269 t=58.558 G#3
    db 0,0,232,3,59,110,7 ; n1270 t=58.558 B3
    db 0,0,232,3,56,110,8 ; n1271 t=58.558 G#3
    db 144,0,232,3,57,110,9 ; n1272 t=58.558 A3
    db 144,0,232,3,59,110,1 ; n1273 t=58.702 B3
    db 0,0,232,3,60,110,1 ; n1274 t=58.846 C4
    db 0,0,232,3,48,110,2 ; n1275 t=58.846 C3
    db 0,0,232,3,45,110,2 ; n1276 t=58.846 A2
    db 0,0,232,3,52,110,2 ; n1277 t=58.846 E3
    db 144,0,232,3,57,110,9 ; n1278 t=58.846 A3
    db 144,0,232,3,56,110,2 ; n1279 t=58.990 G#3
    db 0,0,232,3,57,110,2 ; n1280 t=59.135 A3
    db 144,0,232,3,57,110,9 ; n1281 t=59.135 A3
    db 144,0,232,3,52,110,2 ; n1282 t=59.279 E3
    db 0,0,232,3,53,110,2 ; n1283 t=59.423 F3
    db 0,0,232,3,59,110,7 ; n1284 t=59.423 B3
    db 0,0,232,3,62,110,8 ; n1285 t=59.423 D4
    db 144,0,232,3,57,110,9 ; n1286 t=59.423 A3
    db 144,0,232,3,50,110,2 ; n1287 t=59.567 D3
    db 0,0,232,3,52,110,2 ; n1288 t=59.712 E3
    db 0,0,232,3,56,110,7 ; n1289 t=59.712 G#3
    db 0,0,232,3,59,110,8 ; n1290 t=59.712 B3
    db 144,0,232,3,57,110,9 ; n1291 t=59.712 A3
    db 144,0,232,3,47,110,2 ; n1292 t=59.856 B2
    db 0,0,232,3,48,110,2 ; n1293 t=60.000 C3
    db 0,0,232,3,36,110,2 ; n1294 t=60.000 C2
    db 0,0,232,3,57,110,7 ; n1295 t=60.000 A3
    db 0,0,232,3,64,110,8 ; n1296 t=60.000 E4
    db 144,0,232,3,57,110,9 ; n1297 t=60.000 A3
    db 144,0,232,3,44,110,2 ; n1298 t=60.144 G#2
    db 0,0,232,3,45,110,2 ; n1299 t=60.288 A2
    db 144,0,232,3,57,110,9 ; n1300 t=60.288 A3
    db 144,0,232,3,48,110,2 ; n1301 t=60.433 C3
    db 0,0,232,3,52,110,2 ; n1302 t=60.577 E3
    db 144,0,232,3,57,110,9 ; n1303 t=60.577 A3
    db 144,0,232,3,47,110,2 ; n1304 t=60.721 B2
    db 0,0,232,3,48,110,2 ; n1305 t=60.865 C3
    db 144,0,232,3,57,110,9 ; n1306 t=60.865 A3
    db 144,0,232,3,52,110,2 ; n1307 t=61.010 E3
    db 0,0,232,3,57,110,2 ; n1308 t=61.154 A3
    db 0,0,232,3,57,110,9 ; n1309 t=61.154 A3
    db 144,0,232,3,45,110,11 ; n1310 t=61.154 A2
    db 0,0,232,3,51,110,2 ; n1311 t=61.298 D#3
    db 144,0,232,3,47,110,2 ; n1312 t=61.298 B2
    db 0,0,232,3,52,110,2 ; n1313 t=61.442 E3
    db 0,0,232,3,48,110,2 ; n1314 t=61.442 C3
    db 144,0,232,3,57,110,9 ; n1315 t=61.442 A3
    db 0,0,232,3,57,110,2 ; n1316 t=61.587 A3
    db 144,0,232,3,52,110,2 ; n1317 t=61.587 E3
    db 0,0,232,3,60,110,2 ; n1318 t=61.731 C4
    db 0,0,232,3,57,110,2 ; n1319 t=61.731 A3
    db 144,0,232,3,57,110,9 ; n1320 t=61.731 A3
    db 0,0,232,3,56,110,2 ; n1321 t=61.875 G#3
    db 144,0,232,3,47,110,2 ; n1322 t=61.875 B2
    db 0,0,232,3,57,110,2 ; n1323 t=62.019 A3
    db 0,0,232,3,48,110,2 ; n1324 t=62.019 C3
    db 144,0,232,3,57,110,9 ; n1325 t=62.019 A3
    db 0,0,232,3,60,110,2 ; n1326 t=62.163 C4
    db 144,0,232,3,52,110,2 ; n1327 t=62.163 E3
    db 0,0,232,3,64,110,1 ; n1328 t=62.308 E4
    db 0,0,232,3,57,110,2 ; n1329 t=62.308 A3
    db 144,0,232,3,57,110,9 ; n1330 t=62.308 A3
    db 144,0,232,3,59,110,1 ; n1331 t=62.452 B3
    db 144,0,232,3,60,110,1 ; n1332 t=62.596 C4
    db 144,0,232,3,64,110,1 ; n1333 t=62.740 E4
    db 144,0,232,3,69,110,1 ; n1334 t=62.885 A4
    db 0,0,232,3,57,110,2 ; n1335 t=63.029 A3
    db 144,0,232,3,45,110,2 ; n1336 t=63.029 A2
    db 0,0,232,3,64,110,1 ; n1337 t=63.173 E4
    db 0,0,232,3,69,110,1 ; n1338 t=63.173 A4
    db 144,0,232,3,72,110,1 ; n1339 t=63.173 C5
    db 0,0,232,3,57,110,2 ; n1340 t=63.317 A3
    db 144,0,232,3,45,110,2 ; n1341 t=63.317 A2
    db 0,0,232,3,69,110,1 ; n1342 t=63.462 A4
    db 0,0,232,3,72,110,1 ; n1343 t=63.462 C5
    db 144,0,232,3,76,110,1 ; n1344 t=63.462 E5
    db 0,0,232,3,57,110,2 ; n1345 t=63.606 A3
    db 144,0,232,3,45,110,2 ; n1346 t=63.606 A2
    db 0,0,232,3,60,110,1 ; n1347 t=63.750 C4
    db 0,0,232,3,64,110,1 ; n1348 t=63.750 E4
    db 144,0,232,3,69,110,1 ; n1349 t=63.750 A4
    db 0,0,232,3,57,110,2 ; n1350 t=63.894 A3
    db 144,0,232,3,45,110,2 ; n1351 t=63.894 A2
    db 0,0,232,3,64,110,1 ; n1352 t=64.038 E4
    db 0,0,232,3,69,110,1 ; n1353 t=64.038 A4
    db 144,0,232,3,72,110,1 ; n1354 t=64.038 C5
    db 0,0,232,3,57,110,2 ; n1355 t=64.183 A3
    db 144,0,232,3,45,110,2 ; n1356 t=64.183 A2
    db 0,0,232,3,69,110,1 ; n1357 t=64.327 A4
    db 0,0,232,3,72,110,1 ; n1358 t=64.327 C5
    db 144,0,232,3,76,110,1 ; n1359 t=64.327 E5
    db 0,0,232,3,57,110,2 ; n1360 t=64.471 A3
    db 144,0,232,3,45,110,2 ; n1361 t=64.471 A2
    db 0,0,232,3,72,110,1 ; n1362 t=64.615 C5
    db 0,0,232,3,76,110,1 ; n1363 t=64.615 E5
    db 0,0,232,3,81,110,1 ; n1364 t=64.615 A5
    db 0,0,232,3,69,110,7 ; n1365 t=64.615 A4
    db 0,0,232,3,64,110,8 ; n1366 t=64.615 E4
    db 144,0,232,3,57,110,11 ; n1367 t=64.615 A3
    db 0,0,232,3,69,110,1 ; n1368 t=64.760 A4
    db 144,0,232,3,71,110,7 ; n1369 t=64.760 B4
    db 0,0,232,3,72,110,1 ; n1370 t=64.904 C5
    db 0,0,232,3,57,110,2 ; n1371 t=64.904 A3
    db 0,0,232,3,72,110,7 ; n1372 t=64.904 C5
    db 144,0,232,3,57,110,11 ; n1373 t=64.904 A3
    db 144,0,232,3,76,110,1 ; n1374 t=65.048 E5
    db 0,0,232,3,81,110,1 ; n1375 t=65.192 A5
    db 0,0,232,3,57,110,2 ; n1376 t=65.192 A3
    db 0,0,232,3,71,110,7 ; n1377 t=65.192 B4
    db 0,0,232,3,76,110,8 ; n1378 t=65.192 E5
    db 0,0,232,3,69,110,9 ; n1379 t=65.192 A4
    db 144,0,232,3,57,110,11 ; n1380 t=65.192 A3
    db 144,0,232,3,69,110,1 ; n1381 t=65.337 A4
    db 0,0,232,3,72,110,1 ; n1382 t=65.481 C5
    db 0,0,232,3,45,110,2 ; n1383 t=65.481 A2
    db 0,0,232,3,69,110,7 ; n1384 t=65.481 A4
    db 144,0,232,3,57,110,11 ; n1385 t=65.481 A3
    db 144,0,232,3,76,110,1 ; n1386 t=65.625 E5
    db 0,0,232,3,81,110,1 ; n1387 t=65.769 A5
    db 0,0,232,3,43,110,2 ; n1388 t=65.769 G2
    db 0,0,232,3,76,110,7 ; n1389 t=65.769 E5
    db 0,0,232,3,73,110,8 ; n1390 t=65.769 C#5
    db 144,0,232,3,55,110,11 ; n1391 t=65.769 G3
    db 144,0,232,3,69,110,1 ; n1392 t=65.913 A4
    db 0,0,232,3,73,110,1 ; n1393 t=66.058 C#5
    db 0,0,232,3,55,110,2 ; n1394 t=66.058 G3
    db 0,0,232,3,81,110,7 ; n1395 t=66.058 A5
    db 144,0,232,3,55,110,11 ; n1396 t=66.058 G3
    db 144,0,232,3,76,110,1 ; n1397 t=66.202 E5
    db 0,0,232,3,81,110,1 ; n1398 t=66.346 A5
    db 0,0,232,3,55,110,2 ; n1399 t=66.346 G3
    db 0,0,232,3,69,110,8 ; n1400 t=66.346 A4
    db 0,0,232,3,67,110,9 ; n1401 t=66.346 G4
    db 144,0,232,3,55,110,11 ; n1402 t=66.346 G3
    db 144,0,232,3,69,110,1 ; n1403 t=66.490 A4
    db 0,0,232,3,73,110,1 ; n1404 t=66.635 C#5
    db 0,0,232,3,43,110,2 ; n1405 t=66.635 G2
    db 0,0,232,3,73,110,7 ; n1406 t=66.635 C#5
    db 144,0,232,3,55,110,11 ; n1407 t=66.635 G3
    db 144,0,232,3,76,110,1 ; n1408 t=66.779 E5
    db 0,0,232,3,81,110,1 ; n1409 t=66.923 A5
    db 0,0,232,3,41,110,2 ; n1410 t=66.923 F2
    db 0,0,232,3,74,110,7 ; n1411 t=66.923 D5
    db 0,0,232,3,62,110,8 ; n1412 t=66.923 D4
    db 144,0,232,3,53,110,11 ; n1413 t=66.923 F3
    db 0,0,232,3,69,110,1 ; n1414 t=67.067 A4
    db 144,0,232,3,64,110,8 ; n1415 t=67.067 E4
    db 0,0,232,3,74,110,1 ; n1416 t=67.212 D5
    db 0,0,232,3,53,110,2 ; n1417 t=67.212 F3
    db 0,0,232,3,65,110,8 ; n1418 t=67.212 F4
    db 144,0,232,3,53,110,11 ; n1419 t=67.212 F3
    db 144,0,232,3,77,110,1 ; n1420 t=67.356 F5
    db 0,0,232,3,81,110,1 ; n1421 t=67.500 A5
    db 0,0,232,3,53,110,2 ; n1422 t=67.500 F3
    db 0,0,232,3,77,110,7 ; n1423 t=67.500 F5
    db 0,0,232,3,64,110,8 ; n1424 t=67.500 E4
    db 0,0,232,3,65,110,9 ; n1425 t=67.500 F4
    db 144,0,232,3,53,110,11 ; n1426 t=67.500 F3
    db 144,0,232,3,69,110,1 ; n1427 t=67.644 A4
    db 0,0,232,3,74,110,1 ; n1428 t=67.788 D5
    db 0,0,232,3,41,110,2 ; n1429 t=67.788 F2
    db 0,0,232,3,62,110,8 ; n1430 t=67.788 D4
    db 144,0,232,3,53,110,11 ; n1431 t=67.788 F3
    db 144,0,232,3,77,110,1 ; n1432 t=67.933 F5
    db 0,0,232,3,81,110,1 ; n1433 t=68.077 A5
    db 0,0,232,3,42,110,2 ; n1434 t=68.077 F#2
    db 0,0,232,3,74,110,7 ; n1435 t=68.077 D5
    db 0,0,232,3,69,110,8 ; n1436 t=68.077 A4
    db 144,0,232,3,54,110,11 ; n1437 t=68.077 F#3
    db 144,0,232,3,69,110,1 ; n1438 t=68.221 A4
    db 0,0,232,3,72,110,1 ; n1439 t=68.365 C5
    db 0,0,232,3,54,110,2 ; n1440 t=68.365 F#3
    db 0,0,232,3,74,110,8 ; n1441 t=68.365 D5
    db 144,0,232,3,54,110,11 ; n1442 t=68.365 F#3
    db 144,0,232,3,78,110,1 ; n1443 t=68.510 F#5
    db 0,0,232,3,81,110,1 ; n1444 t=68.654 A5
    db 0,0,232,3,54,110,2 ; n1445 t=68.654 F#3
    db 0,0,232,3,69,110,7 ; n1446 t=68.654 A4
    db 0,0,232,3,66,110,9 ; n1447 t=68.654 F#4
    db 144,0,232,3,54,110,11 ; n1448 t=68.654 F#3
    db 144,0,232,3,78,110,1 ; n1449 t=68.798 F#5
    db 0,0,232,3,72,110,1 ; n1450 t=68.942 C5
    db 0,0,232,3,42,110,2 ; n1451 t=68.942 F#2
    db 0,0,232,3,69,110,8 ; n1452 t=68.942 A4
    db 144,0,232,3,54,110,11 ; n1453 t=68.942 F#3
    db 144,0,232,3,69,110,1 ; n1454 t=69.087 A4
    db 0,0,232,3,70,110,1 ; n1455 t=69.231 A#4
    db 0,0,232,3,43,110,2 ; n1456 t=69.231 G2
    db 0,0,232,3,67,110,7 ; n1457 t=69.231 G4
    db 0,0,232,3,64,110,8 ; n1458 t=69.231 E4
    db 144,0,232,3,55,110,11 ; n1459 t=69.231 G3
    db 0,0,232,3,67,110,1 ; n1460 t=69.375 G4
    db 144,0,232,3,69,110,7 ; n1461 t=69.375 A4
    db 0,0,232,3,70,110,1 ; n1462 t=69.519 A#4
    db 0,0,232,3,55,110,2 ; n1463 t=69.519 G3
    db 0,0,232,3,70,110,7 ; n1464 t=69.519 A#4
    db 144,0,232,3,55,110,11 ; n1465 t=69.519 G3
    db 144,0,232,3,74,110,1 ; n1466 t=69.663 D5
    db 0,0,232,3,79,110,1 ; n1467 t=69.808 G5
    db 0,0,232,3,55,110,2 ; n1468 t=69.808 G3
    db 0,0,232,3,69,110,7 ; n1469 t=69.808 A4
    db 0,0,232,3,74,110,8 ; n1470 t=69.808 D5
    db 0,0,232,3,67,110,9 ; n1471 t=69.808 G4
    db 144,0,232,3,55,110,11 ; n1472 t=69.808 G3
    db 144,0,232,3,67,110,1 ; n1473 t=69.952 G4
    db 0,0,232,3,70,110,1 ; n1474 t=70.096 A#4
    db 0,0,232,3,43,110,2 ; n1475 t=70.096 G2
    db 0,0,232,3,67,110,7 ; n1476 t=70.096 G4
    db 144,0,232,3,55,110,11 ; n1477 t=70.096 G3
    db 144,0,232,3,74,110,1 ; n1478 t=70.240 D5
    db 0,0,232,3,79,110,1 ; n1479 t=70.385 G5
    db 0,0,232,3,41,110,2 ; n1480 t=70.385 F2
    db 0,0,232,3,74,110,7 ; n1481 t=70.385 D5
    db 0,0,232,3,71,110,8 ; n1482 t=70.385 B4
    db 144,0,232,3,53,110,11 ; n1483 t=70.385 F3
    db 144,0,232,3,67,110,1 ; n1484 t=70.529 G4
    db 0,0,232,3,71,110,1 ; n1485 t=70.673 B4
    db 0,0,232,3,53,110,2 ; n1486 t=70.673 F3
    db 0,0,232,3,79,110,7 ; n1487 t=70.673 G5
    db 144,0,232,3,53,110,11 ; n1488 t=70.673 F3
    db 144,0,232,3,74,110,1 ; n1489 t=70.817 D5
    db 0,0,232,3,79,110,1 ; n1490 t=70.962 G5
    db 0,0,232,3,53,110,2 ; n1491 t=70.962 F3
    db 0,0,232,3,67,110,8 ; n1492 t=70.962 G4
    db 0,0,232,3,65,110,9 ; n1493 t=70.962 F4
    db 144,0,232,3,53,110,11 ; n1494 t=70.962 F3
    db 144,0,232,3,67,110,1 ; n1495 t=71.106 G4
    db 0,0,232,3,71,110,1 ; n1496 t=71.250 B4
    db 0,0,232,3,41,110,2 ; n1497 t=71.250 F2
    db 0,0,232,3,71,110,7 ; n1498 t=71.250 B4
    db 144,0,232,3,53,110,11 ; n1499 t=71.250 F3
    db 144,0,232,3,74,110,1 ; n1500 t=71.394 D5
    db 0,0,232,3,79,110,1 ; n1501 t=71.538 G5
    db 0,0,232,3,40,110,2 ; n1502 t=71.538 E2
    db 0,0,232,3,72,110,7 ; n1503 t=71.538 C5
    db 0,0,232,3,60,110,8 ; n1504 t=71.538 C4
    db 144,0,232,3,52,110,11 ; n1505 t=71.538 E3
    db 0,0,232,3,67,110,1 ; n1506 t=71.683 G4
    db 144,0,232,3,62,110,8 ; n1507 t=71.683 D4
    db 0,0,232,3,72,110,1 ; n1508 t=71.827 C5
    db 0,0,232,3,52,110,2 ; n1509 t=71.827 E3
    db 0,0,232,3,64,110,8 ; n1510 t=71.827 E4
    db 144,0,232,3,52,110,11 ; n1511 t=71.827 E3
    db 144,0,232,3,76,110,1 ; n1512 t=71.971 E5
    db 0,0,232,3,79,110,1 ; n1513 t=72.115 G5
    db 0,0,232,3,52,110,2 ; n1514 t=72.115 E3
    db 0,0,232,3,76,110,7 ; n1515 t=72.115 E5
    db 0,0,232,3,62,110,8 ; n1516 t=72.115 D4
    db 0,0,232,3,64,110,9 ; n1517 t=72.115 E4
    db 144,0,232,3,52,110,11 ; n1518 t=72.115 E3
    db 144,0,232,3,67,110,1 ; n1519 t=72.260 G4
    db 0,0,232,3,72,110,1 ; n1520 t=72.404 C5
    db 0,0,232,3,40,110,2 ; n1521 t=72.404 E2
    db 0,0,232,3,60,110,8 ; n1522 t=72.404 C4
    db 144,0,232,3,52,110,11 ; n1523 t=72.404 E3
    db 144,0,232,3,76,110,1 ; n1524 t=72.548 E5
    db 0,0,232,3,79,110,1 ; n1525 t=72.692 G5
    db 0,0,232,3,40,110,2 ; n1526 t=72.692 E2
    db 0,0,232,3,72,110,7 ; n1527 t=72.692 C5
    db 0,0,232,3,67,110,8 ; n1528 t=72.692 G4
    db 144,0,232,3,52,110,11 ; n1529 t=72.692 E3
    db 144,0,232,3,67,110,1 ; n1530 t=72.837 G4
    db 0,0,232,3,70,110,1 ; n1531 t=72.981 A#4
    db 0,0,232,3,52,110,2 ; n1532 t=72.981 E3
    db 0,0,232,3,72,110,8 ; n1533 t=72.981 C5
    db 144,0,232,3,52,110,11 ; n1534 t=72.981 E3
    db 144,0,232,3,76,110,1 ; n1535 t=73.125 E5
    db 0,0,232,3,79,110,1 ; n1536 t=73.269 G5
    db 0,0,232,3,52,110,2 ; n1537 t=73.269 E3
    db 0,0,232,3,67,110,7 ; n1538 t=73.269 G4
    db 0,0,232,3,64,110,9 ; n1539 t=73.269 E4
    db 144,0,232,3,52,110,11 ; n1540 t=73.269 E3
    db 144,0,232,3,76,110,1 ; n1541 t=73.413 E5
    db 0,0,232,3,70,110,1 ; n1542 t=73.558 A#4
    db 0,0,232,3,40,110,2 ; n1543 t=73.558 E2
    db 0,0,232,3,67,110,8 ; n1544 t=73.558 G4
    db 144,0,232,3,52,110,11 ; n1545 t=73.558 E3
    db 144,0,232,3,67,110,1 ; n1546 t=73.702 G4
    db 0,0,232,3,69,110,1 ; n1547 t=73.846 A4
    db 0,0,232,3,41,110,2 ; n1548 t=73.846 F2
    db 0,0,232,3,65,110,7 ; n1549 t=73.846 F4
    db 0,0,232,3,60,110,8 ; n1550 t=73.846 C4
    db 144,0,232,3,53,110,11 ; n1551 t=73.846 F3
    db 0,0,232,3,65,110,1 ; n1552 t=73.990 F4
    db 144,0,232,3,67,110,7 ; n1553 t=73.990 G4
    db 0,0,232,3,69,110,1 ; n1554 t=74.135 A4
    db 0,0,232,3,53,110,2 ; n1555 t=74.135 F3
    db 0,0,232,3,69,110,7 ; n1556 t=74.135 A4
    db 144,0,232,3,53,110,11 ; n1557 t=74.135 F3
    db 144,0,232,3,72,110,1 ; n1558 t=74.279 C5
    db 0,0,232,3,77,110,1 ; n1559 t=74.423 F5
    db 0,0,232,3,53,110,2 ; n1560 t=74.423 F3
    db 0,0,232,3,67,110,7 ; n1561 t=74.423 G4
    db 0,0,232,3,72,110,8 ; n1562 t=74.423 C5
    db 0,0,232,3,65,110,9 ; n1563 t=74.423 F4
    db 144,0,232,3,53,110,11 ; n1564 t=74.423 F3
    db 144,0,232,3,65,110,1 ; n1565 t=74.567 F4
    db 0,0,232,3,69,110,1 ; n1566 t=74.712 A4
    db 0,0,232,3,41,110,2 ; n1567 t=74.712 F2
    db 0,0,232,3,65,110,7 ; n1568 t=74.712 F4
    db 144,0,232,3,53,110,11 ; n1569 t=74.712 F3
    db 144,0,232,3,72,110,1 ; n1570 t=74.856 C5
    db 0,0,232,3,77,110,1 ; n1571 t=75.000 F5
    db 0,0,232,3,39,110,2 ; n1572 t=75.000 D#2
    db 0,0,232,3,72,110,7 ; n1573 t=75.000 C5
    db 0,0,232,3,69,110,8 ; n1574 t=75.000 A4
    db 144,0,232,3,51,110,11 ; n1575 t=75.000 D#3
    db 144,0,232,3,65,110,1 ; n1576 t=75.144 F4
    db 0,0,232,3,69,110,1 ; n1577 t=75.288 A4
    db 0,0,232,3,51,110,2 ; n1578 t=75.288 D#3
    db 0,0,232,3,77,110,7 ; n1579 t=75.288 F5
    db 144,0,232,3,51,110,11 ; n1580 t=75.288 D#3
    db 144,0,232,3,72,110,1 ; n1581 t=75.433 C5
    db 0,0,232,3,77,110,1 ; n1582 t=75.577 F5
    db 0,0,232,3,51,110,2 ; n1583 t=75.577 D#3
    db 0,0,232,3,65,110,8 ; n1584 t=75.577 F4
    db 0,0,232,3,63,110,9 ; n1585 t=75.577 D#4
    db 144,0,232,3,51,110,11 ; n1586 t=75.577 D#3
    db 144,0,232,3,65,110,1 ; n1587 t=75.721 F4
    db 0,0,232,3,69,110,1 ; n1588 t=75.865 A4
    db 0,0,232,3,39,110,2 ; n1589 t=75.865 D#2
    db 0,0,232,3,69,110,7 ; n1590 t=75.865 A4
    db 144,0,232,3,51,110,11 ; n1591 t=75.865 D#3
    db 144,0,232,3,72,110,1 ; n1592 t=76.010 C5
    db 0,0,232,3,77,110,1 ; n1593 t=76.154 F5
    db 0,0,232,3,38,110,2 ; n1594 t=76.154 D2
    db 0,0,232,3,70,110,7 ; n1595 t=76.154 A#4
    db 0,0,232,3,58,110,8 ; n1596 t=76.154 A#3
    db 144,0,232,3,50,110,11 ; n1597 t=76.154 D3
    db 0,0,232,3,65,110,1 ; n1598 t=76.298 F4
    db 144,0,232,3,60,110,8 ; n1599 t=76.298 C4
    db 0,0,232,3,70,110,1 ; n1600 t=76.442 A#4
    db 0,0,232,3,50,110,2 ; n1601 t=76.442 D3
    db 0,0,232,3,62,110,8 ; n1602 t=76.442 D4
    db 144,0,232,3,50,110,11 ; n1603 t=76.442 D3
    db 144,0,232,3,74,110,1 ; n1604 t=76.587 D5
    db 0,0,232,3,77,110,1 ; n1605 t=76.731 F5
    db 0,0,232,3,50,110,2 ; n1606 t=76.731 D3
    db 0,0,232,3,74,110,7 ; n1607 t=76.731 D5
    db 0,0,232,3,60,110,8 ; n1608 t=76.731 C4
    db 0,0,232,3,62,110,9 ; n1609 t=76.731 D4
    db 144,0,232,3,50,110,11 ; n1610 t=76.731 D3
    db 144,0,232,3,65,110,1 ; n1611 t=76.875 F4
    db 0,0,232,3,70,110,1 ; n1612 t=77.019 A#4
    db 0,0,232,3,38,110,2 ; n1613 t=77.019 D2
    db 0,0,232,3,58,110,8 ; n1614 t=77.019 A#3
    db 144,0,232,3,50,110,11 ; n1615 t=77.019 D3
    db 144,0,232,3,74,110,1 ; n1616 t=77.163 D5
    db 0,0,232,3,77,110,1 ; n1617 t=77.308 F5
    db 0,0,232,3,38,110,2 ; n1618 t=77.308 D2
    db 0,0,232,3,70,110,7 ; n1619 t=77.308 A#4
    db 0,0,232,3,65,110,8 ; n1620 t=77.308 F4
    db 144,0,232,3,50,110,11 ; n1621 t=77.308 D3
    db 144,0,232,3,65,110,1 ; n1622 t=77.452 F4
    db 0,0,232,3,70,110,1 ; n1623 t=77.596 A#4
    db 0,0,232,3,50,110,2 ; n1624 t=77.596 D3
    db 0,0,232,3,70,110,8 ; n1625 t=77.596 A#4
    db 144,0,232,3,50,110,11 ; n1626 t=77.596 D3
    db 144,0,232,3,74,110,1 ; n1627 t=77.740 D5
    db 0,0,232,3,77,110,1 ; n1628 t=77.885 F5
    db 0,0,232,3,50,110,2 ; n1629 t=77.885 D3
    db 0,0,232,3,65,110,7 ; n1630 t=77.885 F4
    db 0,0,232,3,62,110,9 ; n1631 t=77.885 D4
    db 144,0,232,3,50,110,11 ; n1632 t=77.885 D3
    db 144,0,232,3,74,110,1 ; n1633 t=78.029 D5
    db 0,0,232,3,70,110,1 ; n1634 t=78.173 A#4
    db 0,0,232,3,38,110,2 ; n1635 t=78.173 D2
    db 0,0,232,3,65,110,8 ; n1636 t=78.173 F4
    db 144,0,232,3,50,110,11 ; n1637 t=78.173 D3
    db 144,0,232,3,74,110,1 ; n1638 t=78.317 D5
    db 0,0,232,3,68,110,1 ; n1639 t=78.462 G#4
    db 0,0,232,3,38,110,2 ; n1640 t=78.462 D2
    db 0,0,232,3,64,110,7 ; n1641 t=78.462 E4
    db 0,0,232,3,59,110,8 ; n1642 t=78.462 B3
    db 0,0,232,3,64,110,9 ; n1643 t=78.462 E4
    db 144,0,232,3,50,110,11 ; n1644 t=78.462 D3
    db 0,0,232,3,64,110,1 ; n1645 t=78.606 E4
    db 144,0,232,3,62,110,2 ; n1646 t=78.606 D4
    db 0,0,232,3,68,110,1 ; n1647 t=78.750 G#4
    db 0,0,232,3,59,110,2 ; n1648 t=78.750 B3
    db 0,0,232,3,64,110,7 ; n1649 t=78.750 E4
    db 144,0,232,3,71,110,9 ; n1650 t=78.750 B4
    db 0,0,232,3,71,110,1 ; n1651 t=78.894 B4
    db 144,0,232,3,56,110,2 ; n1652 t=78.894 G#3
    db 0,0,232,3,76,110,1 ; n1653 t=79.038 E5
    db 0,0,232,3,52,110,2 ; n1654 t=79.038 E3
    db 0,0,232,3,68,110,7 ; n1655 t=79.038 G#4
    db 144,0,232,3,59,110,8 ; n1656 t=79.038 B3
    db 0,0,232,3,64,110,1 ; n1657 t=79.183 E4
    db 144,0,232,3,59,110,2 ; n1658 t=79.183 B3
    db 0,0,232,3,68,110,1 ; n1659 t=79.327 G#4
    db 0,0,232,3,56,110,2 ; n1660 t=79.327 G#3
    db 0,0,232,3,68,110,7 ; n1661 t=79.327 G#4
    db 144,0,232,3,64,110,9 ; n1662 t=79.327 E4
    db 0,0,232,3,71,110,1 ; n1663 t=79.471 B4
    db 144,0,232,3,52,110,2 ; n1664 t=79.471 E3
    db 0,0,232,3,76,110,1 ; n1665 t=79.615 E5
    db 0,0,232,3,48,110,2 ; n1666 t=79.615 C3
    db 0,0,232,3,69,110,7 ; n1667 t=79.615 A4
    db 0,0,232,3,60,110,8 ; n1668 t=79.615 C4
    db 144,0,232,3,48,110,11 ; n1669 t=79.615 C3
    db 144,0,232,3,64,110,1 ; n1670 t=79.760 E4
    db 0,0,232,3,69,110,1 ; n1671 t=79.904 A4
    db 0,0,232,3,60,110,2 ; n1672 t=79.904 C4
    db 0,0,232,3,69,110,7 ; n1673 t=79.904 A4
    db 144,0,232,3,60,110,9 ; n1674 t=79.904 C4
    db 144,0,232,3,72,110,1 ; n1675 t=80.048 C5
    db 0,0,232,3,76,110,1 ; n1676 t=80.192 E5
    db 0,0,232,3,72,110,7 ; n1677 t=80.192 C5
    db 144,0,232,3,64,110,8 ; n1678 t=80.192 E4
    db 144,0,232,3,72,110,1 ; n1679 t=80.337 C5
    db 0,0,232,3,69,110,1 ; n1680 t=80.481 A4
    db 0,0,232,3,72,110,7 ; n1681 t=80.481 C5
    db 144,0,232,3,57,110,9 ; n1682 t=80.481 A3
    db 144,0,232,3,72,110,1 ; n1683 t=80.625 C5
    db 0,0,232,3,66,110,1 ; n1684 t=80.769 F#4
    db 0,0,232,3,62,110,7 ; n1685 t=80.769 D4
    db 0,0,232,3,66,110,8 ; n1686 t=80.769 F#4
    db 144,0,232,3,48,110,11 ; n1687 t=80.769 C3
    db 0,0,232,3,62,110,1 ; n1688 t=80.913 D4
    db 144,0,232,3,60,110,2 ; n1689 t=80.913 C4
    db 0,0,232,3,66,110,1 ; n1690 t=81.058 F#4
    db 0,0,232,3,57,110,2 ; n1691 t=81.058 A3
    db 0,0,232,3,62,110,7 ; n1692 t=81.058 D4
    db 144,0,232,3,69,110,9 ; n1693 t=81.058 A4
    db 0,0,232,3,69,110,1 ; n1694 t=81.202 A4
    db 144,0,232,3,54,110,2 ; n1695 t=81.202 F#3
    db 0,0,232,3,74,110,1 ; n1696 t=81.346 D5
    db 0,0,232,3,50,110,2 ; n1697 t=81.346 D3
    db 0,0,232,3,66,110,7 ; n1698 t=81.346 F#4
    db 144,0,232,3,57,110,8 ; n1699 t=81.346 A3
    db 0,0,232,3,62,110,1 ; n1700 t=81.490 D4
    db 144,0,232,3,57,110,2 ; n1701 t=81.490 A3
    db 0,0,232,3,66,110,1 ; n1702 t=81.635 F#4
    db 0,0,232,3,54,110,2 ; n1703 t=81.635 F#3
    db 0,0,232,3,66,110,7 ; n1704 t=81.635 F#4
    db 144,0,232,3,62,110,9 ; n1705 t=81.635 D4
    db 0,0,232,3,69,110,1 ; n1706 t=81.779 A4
    db 144,0,232,3,50,110,2 ; n1707 t=81.779 D3
    db 0,0,232,3,74,110,1 ; n1708 t=81.923 D5
    db 0,0,232,3,46,110,2 ; n1709 t=81.923 A#2
    db 0,0,232,3,67,110,7 ; n1710 t=81.923 G4
    db 0,0,232,3,58,110,8 ; n1711 t=81.923 A#3
    db 144,0,232,3,46,110,11 ; n1712 t=81.923 A#2
    db 144,0,232,3,62,110,1 ; n1713 t=82.067 D4
    db 0,0,232,3,67,110,1 ; n1714 t=82.212 G4
    db 0,0,232,3,58,110,2 ; n1715 t=82.212 A#3
    db 0,0,232,3,67,110,7 ; n1716 t=82.212 G4
    db 144,0,232,3,58,110,9 ; n1717 t=82.212 A#3
    db 144,0,232,3,70,110,1 ; n1718 t=82.356 A#4
    db 0,0,232,3,74,110,1 ; n1719 t=82.500 D5
    db 0,0,232,3,70,110,7 ; n1720 t=82.500 A#4
    db 144,0,232,3,62,110,8 ; n1721 t=82.500 D4
    db 144,0,232,3,70,110,1 ; n1722 t=82.644 A#4
    db 0,0,232,3,67,110,1 ; n1723 t=82.788 G4
    db 0,0,232,3,70,110,7 ; n1724 t=82.788 A#4
    db 144,0,232,3,55,110,9 ; n1725 t=82.788 G3
    db 144,0,232,3,70,110,1 ; n1726 t=82.933 A#4
    db 0,0,232,3,64,110,1 ; n1727 t=83.077 E4
    db 0,0,232,3,60,110,7 ; n1728 t=83.077 C4
    db 0,0,232,3,64,110,8 ; n1729 t=83.077 E4
    db 144,0,232,3,46,110,11 ; n1730 t=83.077 A#2
    db 0,0,232,3,60,110,1 ; n1731 t=83.221 C4
    db 144,0,232,3,58,110,2 ; n1732 t=83.221 A#3
    db 0,0,232,3,64,110,1 ; n1733 t=83.365 E4
    db 0,0,232,3,55,110,2 ; n1734 t=83.365 G3
    db 0,0,232,3,60,110,7 ; n1735 t=83.365 C4
    db 144,0,232,3,67,110,9 ; n1736 t=83.365 G4
    db 0,0,232,3,67,110,1 ; n1737 t=83.510 G4
    db 144,0,232,3,52,110,2 ; n1738 t=83.510 E3
    db 0,0,232,3,72,110,1 ; n1739 t=83.654 C5
    db 0,0,232,3,48,110,2 ; n1740 t=83.654 C3
    db 0,0,232,3,64,110,7 ; n1741 t=83.654 E4
    db 144,0,232,3,55,110,8 ; n1742 t=83.654 G3
    db 0,0,232,3,60,110,1 ; n1743 t=83.798 C4
    db 144,0,232,3,55,110,2 ; n1744 t=83.798 G3
    db 0,0,232,3,64,110,1 ; n1745 t=83.942 E4
    db 0,0,232,3,52,110,2 ; n1746 t=83.942 E3
    db 0,0,232,3,64,110,7 ; n1747 t=83.942 E4
    db 144,0,232,3,60,110,9 ; n1748 t=83.942 C4
    db 0,0,232,3,67,110,1 ; n1749 t=84.087 G4
    db 144,0,232,3,48,110,2 ; n1750 t=84.087 C3
    db 0,0,232,3,72,110,1 ; n1751 t=84.231 C5
    db 0,0,232,3,45,110,2 ; n1752 t=84.231 A2
    db 0,0,232,3,65,110,7 ; n1753 t=84.231 F4
    db 0,0,232,3,57,110,8 ; n1754 t=84.231 A3
    db 144,0,232,3,45,110,11 ; n1755 t=84.231 A2
    db 144,0,232,3,60,110,1 ; n1756 t=84.375 C4
    db 0,0,232,3,65,110,1 ; n1757 t=84.519 F4
    db 0,0,232,3,57,110,2 ; n1758 t=84.519 A3
    db 0,0,232,3,65,110,7 ; n1759 t=84.519 F4
    db 144,0,232,3,57,110,9 ; n1760 t=84.519 A3
    db 144,0,232,3,69,110,1 ; n1761 t=84.663 A4
    db 0,0,232,3,72,110,1 ; n1762 t=84.808 C5
    db 0,0,232,3,69,110,7 ; n1763 t=84.808 A4
    db 0,0,232,3,60,110,8 ; n1764 t=84.808 C4
    db 144,0,232,3,57,110,11 ; n1765 t=84.808 A3
    db 0,0,232,3,69,110,1 ; n1766 t=84.952 A4
    db 144,0,232,3,57,110,2 ; n1767 t=84.952 A3
    db 0,0,232,3,65,110,1 ; n1768 t=85.096 F4
    db 0,0,232,3,60,110,2 ; n1769 t=85.096 C4
    db 0,0,232,3,69,110,7 ; n1770 t=85.096 A4
    db 144,0,232,3,53,110,9 ; n1771 t=85.096 F3
    db 0,0,232,3,69,110,1 ; n1772 t=85.240 A4
    db 144,0,232,3,57,110,2 ; n1773 t=85.240 A3
    db 0,0,232,3,62,110,1 ; n1774 t=85.385 D4
    db 0,0,232,3,45,110,2 ; n1775 t=85.385 A2
    db 0,0,232,3,70,110,7 ; n1776 t=85.385 A#4
    db 144,0,232,3,62,110,8 ; n1777 t=85.385 D4
    db 0,0,232,3,58,110,1 ; n1778 t=85.529 A#3
    db 144,0,232,3,50,110,2 ; n1779 t=85.529 D3
    db 0,0,232,3,62,110,1 ; n1780 t=85.673 D4
    db 0,0,232,3,53,110,2 ; n1781 t=85.673 F3
    db 144,0,232,3,70,110,9 ; n1782 t=85.673 A#4
    db 0,0,232,3,65,110,1 ; n1783 t=85.817 F4
    db 144,0,232,3,57,110,2 ; n1784 t=85.817 A3
    db 0,0,232,3,70,110,1 ; n1785 t=85.962 A#4
    db 0,0,232,3,43,110,2 ; n1786 t=85.962 G2
    db 0,0,232,3,64,110,8 ; n1787 t=85.962 E4
    db 144,0,232,3,55,110,11 ; n1788 t=85.962 G3
    db 0,0,232,3,67,110,1 ; n1789 t=86.106 G4
    db 144,0,232,3,55,110,2 ; n1790 t=86.106 G3
    db 0,0,232,3,64,110,1 ; n1791 t=86.250 E4
    db 0,0,232,3,58,110,2 ; n1792 t=86.250 A#3
    db 144,0,232,3,67,110,9 ; n1793 t=86.250 G4
    db 0,0,232,3,67,110,1 ; n1794 t=86.394 G4
    db 144,0,232,3,55,110,2 ; n1795 t=86.394 G3
    db 0,0,232,3,60,110,1 ; n1796 t=86.538 C4
    db 0,0,232,3,43,110,2 ; n1797 t=86.538 G2
    db 0,0,232,3,69,110,7 ; n1798 t=86.538 A4
    db 0,0,232,3,64,110,8 ; n1799 t=86.538 E4
    db 144,0,232,3,64,110,9 ; n1800 t=86.538 E4
    db 0,0,232,3,57,110,1 ; n1801 t=86.683 A3
    db 144,0,232,3,48,110,2 ; n1802 t=86.683 C3
    db 0,0,232,3,60,110,1 ; n1803 t=86.827 C4
    db 0,0,232,3,52,110,2 ; n1804 t=86.827 E3
    db 144,0,232,3,69,110,9 ; n1805 t=86.827 A4
    db 0,0,232,3,65,110,1 ; n1806 t=86.971 F4
    db 144,0,232,3,55,110,2 ; n1807 t=86.971 G3
    db 0,0,232,3,69,110,1 ; n1808 t=87.115 A4
    db 0,0,232,3,41,110,2 ; n1809 t=87.115 F2
    db 0,0,232,3,62,110,8 ; n1810 t=87.115 D4
    db 144,0,232,3,53,110,11 ; n1811 t=87.115 F3
    db 0,0,232,3,65,110,1 ; n1812 t=87.260 F4
    db 144,0,232,3,53,110,2 ; n1813 t=87.260 F3
    db 0,0,232,3,62,110,1 ; n1814 t=87.404 D4
    db 0,0,232,3,57,110,2 ; n1815 t=87.404 A3
    db 144,0,232,3,65,110,9 ; n1816 t=87.404 F4
    db 0,0,232,3,65,110,1 ; n1817 t=87.548 F4
    db 144,0,232,3,53,110,2 ; n1818 t=87.548 F3
    db 0,0,232,3,58,110,1 ; n1819 t=87.692 A#3
    db 0,0,232,3,41,110,2 ; n1820 t=87.692 F2
    db 0,0,232,3,67,110,7 ; n1821 t=87.692 G4
    db 0,0,232,3,62,110,8 ; n1822 t=87.692 D4
    db 144,0,232,3,62,110,9 ; n1823 t=87.692 D4
    db 0,0,232,3,55,110,1 ; n1824 t=87.837 G3
    db 144,0,232,3,46,110,2 ; n1825 t=87.837 A#2
    db 0,0,232,3,58,110,1 ; n1826 t=87.981 A#3
    db 0,0,232,3,50,110,2 ; n1827 t=87.981 D3
    db 144,0,232,3,67,110,9 ; n1828 t=87.981 G4
    db 0,0,232,3,62,110,1 ; n1829 t=88.125 D4
    db 144,0,232,3,53,110,2 ; n1830 t=88.125 F3
    db 0,0,232,3,67,110,1 ; n1831 t=88.269 G4
    db 0,0,232,3,40,110,2 ; n1832 t=88.269 E2
    db 0,0,232,3,60,110,8 ; n1833 t=88.269 C4
    db 144,0,232,3,52,110,11 ; n1834 t=88.269 E3
    db 0,0,232,3,64,110,1 ; n1835 t=88.413 E4
    db 144,0,232,3,52,110,2 ; n1836 t=88.413 E3
    db 0,0,232,3,60,110,1 ; n1837 t=88.558 C4
    db 0,0,232,3,55,110,2 ; n1838 t=88.558 G3
    db 144,0,232,3,64,110,9 ; n1839 t=88.558 E4
    db 0,0,232,3,64,110,1 ; n1840 t=88.702 E4
    db 144,0,232,3,52,110,2 ; n1841 t=88.702 E3
    db 0,0,232,3,57,110,1 ; n1842 t=88.846 A3
    db 0,0,232,3,41,110,2 ; n1843 t=88.846 F2
    db 0,0,232,3,65,110,7 ; n1844 t=88.846 F4
    db 0,0,232,3,65,110,8 ; n1845 t=88.846 F4
    db 0,0,232,3,60,110,9 ; n1846 t=88.846 C4
    db 144,0,232,3,53,110,11 ; n1847 t=88.846 F3
    db 0,0,232,3,65,110,1 ; n1848 t=88.990 F4
    db 144,0,232,3,45,110,2 ; n1849 t=88.990 A2
    db 0,0,232,3,67,110,1 ; n1850 t=89.135 G4
    db 144,0,232,3,46,110,2 ; n1851 t=89.135 A#2
    db 0,0,232,3,69,110,1 ; n1852 t=89.279 A4
    db 144,0,232,3,48,110,2 ; n1853 t=89.279 C3
    db 0,0,232,3,70,110,1 ; n1854 t=89.423 A#4
    db 144,0,232,3,50,110,2 ; n1855 t=89.423 D3
    db 0,0,232,3,72,110,1 ; n1856 t=89.567 C5
    db 144,0,232,3,52,110,2 ; n1857 t=89.567 E3
    db 0,0,232,3,74,110,1 ; n1858 t=89.712 D5
    db 0,0,232,3,53,110,2 ; n1859 t=89.712 F3
    db 0,0,232,3,67,110,7 ; n1860 t=89.712 G4
    db 0,0,232,3,72,110,8 ; n1861 t=89.712 C5
    db 0,0,232,3,57,110,9 ; n1862 t=89.712 A3
    db 144,0,232,3,52,110,11 ; n1863 t=89.712 E3
    db 0,0,232,3,76,110,1 ; n1864 t=89.856 E5
    db 144,0,232,3,52,110,2 ; n1865 t=89.856 E3
    db 0,0,232,3,77,110,1 ; n1866 t=90.000 F5
    db 0,0,232,3,50,110,2 ; n1867 t=90.000 D3
    db 0,0,232,3,69,110,7 ; n1868 t=90.000 A4
    db 0,0,232,3,65,110,8 ; n1869 t=90.000 F4
    db 0,0,232,3,62,110,9 ; n1870 t=90.000 D4
    db 144,0,232,3,50,110,11 ; n1871 t=90.000 D3
    db 0,0,232,3,72,110,1 ; n1872 t=90.144 C5
    db 0,0,232,3,52,110,2 ; n1873 t=90.144 E3
    db 0,0,232,3,72,110,3 ; n1874 t=90.144 C5
    db 144,0,232,3,72,110,4 ; n1875 t=90.144 C5
    db 0,0,232,3,74,110,1 ; n1876 t=90.288 D5
    db 0,0,232,3,53,110,2 ; n1877 t=90.288 F3
    db 0,0,232,3,74,110,3 ; n1878 t=90.288 D5
    db 144,0,232,3,74,110,4 ; n1879 t=90.288 D5
    db 0,0,232,3,76,110,1 ; n1880 t=90.433 E5
    db 0,0,232,3,55,110,2 ; n1881 t=90.433 G3
    db 0,0,232,3,76,110,3 ; n1882 t=90.433 E5
    db 144,0,232,3,76,110,4 ; n1883 t=90.433 E5
    db 0,0,232,3,77,110,1 ; n1884 t=90.577 F5
    db 0,0,232,3,57,110,2 ; n1885 t=90.577 A3
    db 0,0,232,3,77,110,3 ; n1886 t=90.577 F5
    db 144,0,232,3,77,110,4 ; n1887 t=90.577 F5
    db 0,0,232,3,79,110,1 ; n1888 t=90.721 G5
    db 0,0,232,3,58,110,2 ; n1889 t=90.721 A#3
    db 0,0,232,3,79,110,3 ; n1890 t=90.721 G5
    db 0,0,232,3,79,110,4 ; n1891 t=90.721 G5
    db 144,0,232,3,64,110,5 ; n1892 t=90.721 E4
    db 0,0,232,3,81,110,1 ; n1893 t=90.865 A5
    db 0,0,232,3,60,110,2 ; n1894 t=90.865 C4
    db 0,0,232,3,81,110,3 ; n1895 t=90.865 A5
    db 0,0,232,3,81,110,4 ; n1896 t=90.865 A5
    db 0,0,232,3,65,110,5 ; n1897 t=90.865 F4
    db 144,0,232,3,48,110,6 ; n1898 t=90.865 C3
    db 0,0,232,3,82,110,1 ; n1899 t=91.010 A#5
    db 0,0,232,3,58,110,2 ; n1900 t=91.010 A#3
    db 0,0,232,3,82,110,3 ; n1901 t=91.010 A#5
    db 0,0,232,3,82,110,4 ; n1902 t=91.010 A#5
    db 0,0,232,3,67,110,5 ; n1903 t=91.010 G4
    db 144,0,232,3,46,110,6 ; n1904 t=91.010 A#2
    db 0,0,232,3,84,110,1 ; n1905 t=91.154 C6
    db 0,0,232,3,57,110,2 ; n1906 t=91.154 A3
    db 0,0,232,3,84,110,3 ; n1907 t=91.154 C6
    db 0,0,232,3,84,110,4 ; n1908 t=91.154 C6
    db 0,0,232,3,69,110,5 ; n1909 t=91.154 A4
    db 32,1,232,3,45,110,6 ; n1910 t=91.154 A2
    db 0,0,232,3,77,110,1 ; n1911 t=91.442 F5
    db 0,0,232,3,60,110,2 ; n1912 t=91.442 C4
    db 0,0,232,3,77,110,3 ; n1913 t=91.442 F5
    db 0,0,232,3,77,110,4 ; n1914 t=91.442 F5
    db 0,0,232,3,74,110,5 ; n1915 t=91.442 D5
    db 72,0,232,3,46,110,6 ; n1916 t=91.442 A#2
    db 72,0,232,3,58,110,2 ; n1917 t=91.514 A#3
    db 72,0,232,3,57,110,2 ; n1918 t=91.587 A3
    db 72,0,232,3,58,110,2 ; n1919 t=91.659 A#3
    db 0,0,232,3,72,110,1 ; n1920 t=91.731 C5
    db 0,0,232,3,60,110,2 ; n1921 t=91.731 C4
    db 0,0,232,3,72,110,3 ; n1922 t=91.731 C5
    db 0,0,232,3,72,110,4 ; n1923 t=91.731 C5
    db 0,0,232,3,72,110,5 ; n1924 t=91.731 C5
    db 32,1,232,3,48,110,6 ; n1925 t=91.731 C3
    db 0,0,232,3,76,110,1 ; n1926 t=92.019 E5
    db 0,0,232,3,48,110,2 ; n1927 t=92.019 C3
    db 0,0,232,3,76,110,3 ; n1928 t=92.019 E5
    db 0,0,232,3,76,110,4 ; n1929 t=92.019 E5
    db 0,0,232,3,70,110,5 ; n1930 t=92.019 A#4
    db 32,1,232,3,36,110,6 ; n1931 t=92.019 C2
    db 0,0,232,3,65,110,1 ; n1932 t=92.308 F4
    db 0,0,232,3,41,110,2 ; n1933 t=92.308 F2
    db 0,0,232,3,53,110,2 ; n1934 t=92.308 F3
    db 0,0,232,3,77,110,7 ; n1935 t=92.308 F5
    db 0,0,232,3,72,110,8 ; n1936 t=92.308 C5
    db 0,0,232,3,69,110,9 ; n1937 t=92.308 A4
    db 144,0,232,3,41,110,11 ; n1938 t=92.308 F2
    db 144,0,232,3,67,110,1 ; n1939 t=92.452 G4
    db 0,0,232,3,69,110,1 ; n1940 t=92.596 A4
    db 32,1,232,3,41,110,11 ; n1941 t=92.596 F2
    db 0,0,232,3,67,110,1 ; n1942 t=92.885 G4
    db 32,1,232,3,41,110,11 ; n1943 t=92.885 F2
    db 0,0,232,3,65,110,1 ; n1944 t=93.173 F4
    db 32,1,232,3,41,110,11 ; n1945 t=93.173 F2
    db 0,0,232,3,72,110,1 ; n1946 t=93.462 C5
    db 0,0,232,3,57,110,2 ; n1947 t=93.462 A3
    db 144,0,232,3,41,110,11 ; n1948 t=93.462 F2
    db 144,0,232,3,58,110,2 ; n1949 t=93.606 A#3
    db 0,0,232,3,81,110,1 ; n1950 t=93.750 A5
    db 0,0,232,3,60,110,2 ; n1951 t=93.750 C4
    db 144,0,232,3,41,110,11 ; n1952 t=93.750 F2
    db 144,0,232,3,58,110,2 ; n1953 t=93.894 A#3
    db 0,0,232,3,62,110,2 ; n1954 t=94.038 D4
    db 144,0,232,3,41,110,11 ; n1955 t=94.038 F2
    db 144,0,232,3,60,110,2 ; n1956 t=94.183 C4
    db 0,0,232,3,72,110,1 ; n1957 t=94.327 C5
    db 0,0,232,3,58,110,2 ; n1958 t=94.327 A#3
    db 144,0,232,3,41,110,11 ; n1959 t=94.327 F2
    db 144,0,232,3,57,110,2 ; n1960 t=94.471 A3
    db 0,0,232,3,64,110,1 ; n1961 t=94.615 E4
    db 0,0,232,3,55,110,2 ; n1962 t=94.615 G3
    db 0,0,232,3,79,110,7 ; n1963 t=94.615 G5
    db 0,0,232,3,70,110,8 ; n1964 t=94.615 A#4
    db 0,0,232,3,64,110,9 ; n1965 t=94.615 E4
    db 144,0,232,3,41,110,11 ; n1966 t=94.615 F2
    db 0,0,232,3,65,110,1 ; n1967 t=94.760 F4
    db 144,0,232,3,57,110,2 ; n1968 t=94.760 A3
    db 0,0,232,3,67,110,1 ; n1969 t=94.904 G4
    db 0,0,232,3,58,110,2 ; n1970 t=94.904 A#3
    db 144,0,232,3,41,110,11 ; n1971 t=94.904 F2
    db 144,0,232,3,57,110,2 ; n1972 t=95.048 A3
    db 0,0,232,3,65,110,1 ; n1973 t=95.192 F4
    db 0,0,232,3,58,110,2 ; n1974 t=95.192 A#3
    db 144,0,232,3,41,110,11 ; n1975 t=95.192 F2
    db 144,0,232,3,57,110,2 ; n1976 t=95.337 A3
    db 0,0,232,3,64,110,1 ; n1977 t=95.481 E4
    db 0,0,232,3,55,110,2 ; n1978 t=95.481 G3
    db 144,0,232,3,41,110,11 ; n1979 t=95.481 F2
    db 144,0,232,3,53,110,2 ; n1980 t=95.625 F3
    db 0,0,232,3,70,110,1 ; n1981 t=95.769 A#4
    db 0,0,232,3,52,110,2 ; n1982 t=95.769 E3
    db 0,0,232,3,76,110,7 ; n1983 t=95.769 E5
    db 0,0,232,3,67,110,9 ; n1984 t=95.769 G4
    db 144,0,232,3,41,110,11 ; n1985 t=95.769 F2
    db 144,0,232,3,53,110,2 ; n1986 t=95.913 F3
    db 0,0,232,3,79,110,1 ; n1987 t=96.058 G5
    db 0,0,232,3,52,110,2 ; n1988 t=96.058 E3
    db 144,0,232,3,41,110,11 ; n1989 t=96.058 F2
    db 144,0,232,3,50,110,2 ; n1990 t=96.202 D3
    db 0,0,232,3,48,110,2 ; n1991 t=96.346 C3
    db 144,0,232,3,41,110,11 ; n1992 t=96.346 F2
    db 144,0,232,3,46,110,2 ; n1993 t=96.490 A#2
    db 0,0,232,3,70,110,1 ; n1994 t=96.635 A#4
    db 0,0,232,3,45,110,2 ; n1995 t=96.635 A2
    db 144,0,232,3,41,110,11 ; n1996 t=96.635 F2
    db 144,0,232,3,43,110,2 ; n1997 t=96.779 G2
    db 0,0,232,3,69,110,1 ; n1998 t=96.923 A4
    db 0,0,232,3,41,110,2 ; n1999 t=96.923 F2
    db 0,0,232,3,48,110,2 ; n2000 t=96.923 C3
    db 0,0,232,3,53,110,2 ; n2001 t=96.923 F3
    db 0,0,232,3,77,110,7 ; n2002 t=96.923 F5
    db 0,0,232,3,72,110,8 ; n2003 t=96.923 C5
    db 0,0,232,3,69,110,9 ; n2004 t=96.923 A4
    db 144,0,232,3,41,110,11 ; n2005 t=96.923 F2
    db 144,0,232,3,70,110,1 ; n2006 t=97.067 A#4
    db 0,0,232,3,72,110,1 ; n2007 t=97.212 C5
    db 32,1,232,3,65,110,3 ; n2008 t=97.212 F4
    db 0,0,232,3,72,110,1 ; n2009 t=97.500 C5
    db 144,0,232,3,69,110,3 ; n2010 t=97.500 A4
    db 144,0,232,3,74,110,1 ; n2011 t=97.644 D5
    db 0,0,232,3,75,110,1 ; n2012 t=97.788 D#5
    db 32,1,232,3,72,110,3 ; n2013 t=97.788 C5
    db 0,0,232,3,66,110,1 ; n2014 t=98.077 F#4
    db 32,1,232,3,62,110,3 ; n2015 t=98.077 D4
    db 0,0,232,3,81,110,1 ; n2016 t=98.365 A5
    db 0,0,232,3,60,110,2 ; n2017 t=98.365 C4
    db 0,0,232,3,50,110,2 ; n2018 t=98.365 D3
    db 0,0,232,3,81,110,3 ; n2019 t=98.365 A5
    db 0,0,232,3,66,110,4 ; n2020 t=98.365 F#4
    db 0,0,232,3,60,110,5 ; n2021 t=98.365 C4
    db 144,0,232,3,50,110,6 ; n2022 t=98.365 D3
    db 0,0,232,3,79,110,1 ; n2023 t=98.510 G5
    db 144,0,232,3,79,110,3 ; n2024 t=98.510 G5
    db 0,0,232,3,78,110,1 ; n2025 t=98.654 F#5
    db 0,0,232,3,58,110,2 ; n2026 t=98.654 A#3
    db 0,0,232,3,52,110,2 ; n2027 t=98.654 E3
    db 0,0,232,3,78,110,3 ; n2028 t=98.654 F#5
    db 0,0,232,3,67,110,4 ; n2029 t=98.654 G4
    db 0,0,232,3,58,110,5 ; n2030 t=98.654 A#3
    db 144,0,232,3,52,110,6 ; n2031 t=98.654 E3
    db 0,0,232,3,76,110,1 ; n2032 t=98.798 E5
    db 144,0,232,3,76,110,3 ; n2033 t=98.798 E5
    db 0,0,232,3,74,110,1 ; n2034 t=98.942 D5
    db 0,0,232,3,57,110,2 ; n2035 t=98.942 A3
    db 0,0,232,3,54,110,2 ; n2036 t=98.942 F#3
    db 0,0,232,3,74,110,3 ; n2037 t=98.942 D5
    db 0,0,232,3,69,110,4 ; n2038 t=98.942 A4
    db 0,0,232,3,57,110,5 ; n2039 t=98.942 A3
    db 144,0,232,3,54,110,6 ; n2040 t=98.942 F#3
    db 0,0,232,3,72,110,1 ; n2041 t=99.087 C5
    db 144,0,232,3,72,110,3 ; n2042 t=99.087 C5
    db 0,0,232,3,70,110,1 ; n2043 t=99.231 A#4
    db 0,0,232,3,43,110,2 ; n2044 t=99.231 G2
    db 0,0,232,3,50,110,2 ; n2045 t=99.231 D3
    db 0,0,232,3,55,110,2 ; n2046 t=99.231 G3
    db 0,0,232,3,70,110,3 ; n2047 t=99.231 A#4
    db 0,0,232,3,62,110,4 ; n2048 t=99.231 D4
    db 0,0,232,3,55,110,5 ; n2049 t=99.231 G3
    db 144,0,232,3,55,110,6 ; n2050 t=99.231 G3
    db 144,0,232,3,72,110,1 ; n2051 t=99.375 C5
    db 0,0,232,3,74,110,1 ; n2052 t=99.519 D5
    db 32,1,232,3,67,110,3 ; n2053 t=99.519 G4
    db 0,0,232,3,74,110,1 ; n2054 t=99.808 D5
    db 144,0,232,3,70,110,3 ; n2055 t=99.808 A#4
    db 144,0,232,3,76,110,1 ; n2056 t=99.952 E5
    db 0,0,232,3,77,110,1 ; n2057 t=100.096 F5
    db 32,1,232,3,74,110,3 ; n2058 t=100.096 D5
    db 0,0,232,3,68,110,1 ; n2059 t=100.385 G#4
    db 32,1,232,3,64,110,3 ; n2060 t=100.385 E4
    db 0,0,232,3,83,110,1 ; n2061 t=100.673 B5
    db 0,0,232,3,52,110,2 ; n2062 t=100.673 E3
    db 0,0,232,3,62,110,2 ; n2063 t=100.673 D4
    db 0,0,232,3,83,110,3 ; n2064 t=100.673 B5
    db 0,0,232,3,68,110,4 ; n2065 t=100.673 G#4
    db 0,0,232,3,62,110,5 ; n2066 t=100.673 D4
    db 144,0,232,3,52,110,6 ; n2067 t=100.673 E3
    db 0,0,232,3,81,110,1 ; n2068 t=100.817 A5
    db 144,0,232,3,81,110,3 ; n2069 t=100.817 A5
    db 0,0,232,3,80,110,1 ; n2070 t=100.962 G#5
    db 0,0,232,3,54,110,2 ; n2071 t=100.962 F#3
    db 0,0,232,3,60,110,2 ; n2072 t=100.962 C4
    db 0,0,232,3,80,110,3 ; n2073 t=100.962 G#5
    db 0,0,232,3,69,110,4 ; n2074 t=100.962 A4
    db 0,0,232,3,60,110,5 ; n2075 t=100.962 C4
    db 144,0,232,3,54,110,6 ; n2076 t=100.962 F#3
    db 0,0,232,3,78,110,1 ; n2077 t=101.106 F#5
    db 144,0,232,3,78,110,3 ; n2078 t=101.106 F#5
    db 0,0,232,3,76,110,1 ; n2079 t=101.250 E5
    db 0,0,232,3,56,110,2 ; n2080 t=101.250 G#3
    db 0,0,232,3,59,110,2 ; n2081 t=101.250 B3
    db 0,0,232,3,76,110,3 ; n2082 t=101.250 E5
    db 0,0,232,3,71,110,4 ; n2083 t=101.250 B4
    db 0,0,232,3,59,110,5 ; n2084 t=101.250 B3
    db 144,0,232,3,56,110,6 ; n2085 t=101.250 G#3
    db 0,0,232,3,74,110,1 ; n2086 t=101.394 D5
    db 144,0,232,3,74,110,3 ; n2087 t=101.394 D5
    db 0,0,232,3,73,110,1 ; n2088 t=101.538 C#5
    db 0,0,232,3,45,110,2 ; n2089 t=101.538 A2
    db 0,0,232,3,52,110,2 ; n2090 t=101.538 E3
    db 0,0,232,3,57,110,2 ; n2091 t=101.538 A3
    db 0,0,232,3,73,110,3 ; n2092 t=101.538 C#5
    db 0,0,232,3,64,110,4 ; n2093 t=101.538 E4
    db 0,0,232,3,57,110,5 ; n2094 t=101.538 A3
    db 144,0,232,3,57,110,6 ; n2095 t=101.538 A3
    db 144,0,232,3,74,110,1 ; n2096 t=101.683 D5
    db 0,0,232,3,76,110,1 ; n2097 t=101.827 E5
    db 144,0,232,3,73,110,3 ; n2098 t=101.827 C#5
    db 144,0,232,3,77,110,1 ; n2099 t=101.971 F5
    db 0,0,232,3,79,110,1 ; n2100 t=102.115 G5
    db 144,0,232,3,76,110,3 ; n2101 t=102.115 E5
    db 144,0,232,3,81,110,1 ; n2102 t=102.260 A5
    db 0,0,232,3,82,110,1 ; n2103 t=102.404 A#5
    db 144,0,232,3,79,110,3 ; n2104 t=102.404 G5
    db 144,0,232,3,79,110,1 ; n2105 t=102.548 G5
    db 0,0,232,3,73,110,1 ; n2106 t=102.692 C#5
    db 32,1,232,3,69,110,3 ; n2107 t=102.692 A4
    db 0,0,232,3,76,110,1 ; n2108 t=102.981 E5
    db 0,0,232,3,67,110,2 ; n2109 t=102.981 G4
    db 0,0,232,3,57,110,2 ; n2110 t=102.981 A3
    db 0,0,232,3,76,110,3 ; n2111 t=102.981 E5
    db 0,0,232,3,73,110,4 ; n2112 t=102.981 C#5
    db 0,0,232,3,67,110,5 ; n2113 t=102.981 G4
    db 144,0,232,3,45,110,6 ; n2114 t=102.981 A2
    db 0,0,232,3,74,110,1 ; n2115 t=103.125 D5
    db 144,0,232,3,74,110,3 ; n2116 t=103.125 D5
    db 0,0,232,3,72,110,1 ; n2117 t=103.269 C5
    db 0,0,232,3,65,110,2 ; n2118 t=103.269 F4
    db 0,0,232,3,59,110,2 ; n2119 t=103.269 B3
    db 0,0,232,3,73,110,3 ; n2120 t=103.269 C#5
    db 0,0,232,3,74,110,4 ; n2121 t=103.269 D5
    db 0,0,232,3,65,110,5 ; n2122 t=103.269 F4
    db 144,0,232,3,47,110,6 ; n2123 t=103.269 B2
    db 0,0,232,3,71,110,1 ; n2124 t=103.413 B4
    db 144,0,232,3,71,110,3 ; n2125 t=103.413 B4
    db 0,0,232,3,69,110,1 ; n2126 t=103.558 A4
    db 0,0,232,3,64,110,2 ; n2127 t=103.558 E4
    db 0,0,232,3,61,110,2 ; n2128 t=103.558 C#4
    db 0,0,232,3,69,110,3 ; n2129 t=103.558 A4
    db 0,0,232,3,76,110,4 ; n2130 t=103.558 E5
    db 0,0,232,3,64,110,5 ; n2131 t=103.558 E4
    db 144,0,232,3,49,110,6 ; n2132 t=103.558 C#3
    db 0,0,232,3,67,110,1 ; n2133 t=103.702 G4
    db 144,0,232,3,67,110,3 ; n2134 t=103.702 G4
    db 0,0,232,3,65,110,1 ; n2135 t=103.846 F4
    db 0,0,232,3,62,110,2 ; n2136 t=103.846 D4
    db 0,0,232,3,65,110,3 ; n2137 t=103.846 F4
    db 0,0,232,3,69,110,4 ; n2138 t=103.846 A4
    db 0,0,232,3,62,110,5 ; n2139 t=103.846 D4
    db 144,0,232,3,50,110,6 ; n2140 t=103.846 D3
    db 0,0,232,3,67,110,1 ; n2141 t=103.990 G4
    db 144,0,232,3,67,110,3 ; n2142 t=103.990 G4
    db 0,0,232,3,69,110,1 ; n2143 t=104.135 A4
    db 0,0,232,3,49,110,2 ; n2144 t=104.135 C#3
    db 0,0,232,3,69,110,3 ; n2145 t=104.135 A4
    db 0,0,232,3,64,110,5 ; n2146 t=104.135 E4
    db 144,0,232,3,49,110,6 ; n2147 t=104.135 C#3
    db 0,0,232,3,67,110,1 ; n2148 t=104.279 G4
    db 0,0,232,3,67,110,3 ; n2149 t=104.279 G4
    db 144,0,232,3,70,110,4 ; n2150 t=104.279 A#4
    db 0,0,232,3,65,110,1 ; n2151 t=104.423 F4
    db 0,0,232,3,50,110,2 ; n2152 t=104.423 D3
    db 0,0,232,3,65,110,3 ; n2153 t=104.423 F4
    db 0,0,232,3,69,110,4 ; n2154 t=104.423 A4
    db 0,0,232,3,65,110,5 ; n2155 t=104.423 F4
    db 144,0,232,3,50,110,6 ; n2156 t=104.423 D3
    db 0,0,232,3,64,110,1 ; n2157 t=104.567 E4
    db 0,0,232,3,64,110,3 ; n2158 t=104.567 E4
    db 144,0,232,3,67,110,4 ; n2159 t=104.567 G4
    db 0,0,232,3,62,110,1 ; n2160 t=104.712 D4
    db 0,0,232,3,52,110,2 ; n2161 t=104.712 E3
    db 0,0,232,3,62,110,3 ; n2162 t=104.712 D4
    db 0,0,232,3,65,110,4 ; n2163 t=104.712 F4
    db 0,0,232,3,67,110,5 ; n2164 t=104.712 G4
    db 144,0,232,3,52,110,6 ; n2165 t=104.712 E3
    db 0,0,232,3,61,110,1 ; n2166 t=104.856 C#4
    db 0,0,232,3,61,110,3 ; n2167 t=104.856 C#4
    db 144,0,232,3,64,110,4 ; n2168 t=104.856 E4
    db 0,0,232,3,62,110,1 ; n2169 t=105.000 D4
    db 0,0,232,3,53,110,2 ; n2170 t=105.000 F3
    db 0,0,232,3,62,110,3 ; n2171 t=105.000 D4
    db 0,0,232,3,62,110,4 ; n2172 t=105.000 D4
    db 0,0,232,3,69,110,5 ; n2173 t=105.000 A4
    db 144,0,232,3,53,110,6 ; n2174 t=105.000 F3
    db 144,0,232,3,65,110,1 ; n2175 t=105.144 F4
    db 0,0,232,3,69,110,1 ; n2176 t=105.288 A4
    db 0,0,232,3,52,110,2 ; n2177 t=105.288 E3
    db 0,0,232,3,67,110,5 ; n2178 t=105.288 G4
    db 144,0,232,3,52,110,6 ; n2179 t=105.288 E3
    db 144,0,232,3,73,110,1 ; n2180 t=105.433 C#5
    db 0,0,232,3,74,110,1 ; n2181 t=105.577 D5
    db 0,0,232,3,53,110,2 ; n2182 t=105.577 F3
    db 0,0,232,3,69,110,5 ; n2183 t=105.577 A4
    db 144,0,232,3,53,110,6 ; n2184 t=105.577 F3
    db 144,0,232,3,69,110,1 ; n2185 t=105.721 A4
    db 0,0,232,3,65,110,1 ; n2186 t=105.865 F4
    db 0,0,232,3,50,110,2 ; n2187 t=105.865 D3
    db 0,0,232,3,71,110,5 ; n2188 t=105.865 B4
    db 0,0,232,3,50,110,6 ; n2189 t=105.865 D3
    db 144,0,232,3,74,110,7 ; n2190 t=105.865 D5
    db 144,0,232,3,62,110,1 ; n2191 t=106.010 D4
    db 0,0,232,3,52,110,2 ; n2192 t=106.154 E3
    db 0,0,232,3,56,110,2 ; n2193 t=106.154 G#3
    db 0,0,232,3,59,110,9 ; n2194 t=106.154 B3
    db 144,0,232,3,52,110,11 ; n2195 t=106.154 E3
    db 144,0,232,3,65,110,1 ; n2196 t=106.298 F4
    db 0,0,232,3,71,110,1 ; n2197 t=106.442 B4
    db 0,0,232,3,65,110,7 ; n2198 t=106.442 F4
    db 144,0,232,3,74,110,8 ; n2199 t=106.442 D5
    db 0,0,232,3,69,110,1 ; n2200 t=106.587 A4
    db 144,0,232,3,62,110,7 ; n2201 t=106.587 D4
    db 0,0,232,3,71,110,1 ; n2202 t=106.731 B4
    db 0,0,232,3,56,110,7 ; n2203 t=106.731 G#3
    db 144,0,232,3,64,110,9 ; n2204 t=106.731 E4
    db 144,0,232,3,65,110,1 ; n2205 t=106.875 F4
    db 0,0,232,3,64,110,1 ; n2206 t=107.019 E4
    db 0,0,232,3,74,110,7 ; n2207 t=107.019 D5
    db 144,0,232,3,71,110,8 ; n2208 t=107.019 B4
    db 0,0,232,3,62,110,1 ; n2209 t=107.163 D4
    db 144,0,232,3,68,110,8 ; n2210 t=107.163 G#4
    db 0,0,232,3,52,110,2 ; n2211 t=107.308 E3
    db 0,0,232,3,56,110,2 ; n2212 t=107.308 G#3
    db 0,0,232,3,59,110,8 ; n2213 t=107.308 B3
    db 144,0,232,3,52,110,11 ; n2214 t=107.308 E3
    db 144,0,232,3,65,110,1 ; n2215 t=107.452 F4
    db 0,0,232,3,71,110,1 ; n2216 t=107.596 B4
    db 0,0,232,3,65,110,7 ; n2217 t=107.596 F4
    db 144,0,232,3,74,110,8 ; n2218 t=107.596 D5
    db 0,0,232,3,69,110,1 ; n2219 t=107.740 A4
    db 144,0,232,3,62,110,7 ; n2220 t=107.740 D4
    db 0,0,232,3,71,110,1 ; n2221 t=107.885 B4
    db 0,0,232,3,56,110,7 ; n2222 t=107.885 G#3
    db 144,0,232,3,64,110,9 ; n2223 t=107.885 E4
    db 144,0,232,3,65,110,1 ; n2224 t=108.029 F4
    db 0,0,232,3,64,110,1 ; n2225 t=108.173 E4
    db 0,0,232,3,68,110,7 ; n2226 t=108.173 G#4
    db 144,0,232,3,71,110,8 ; n2227 t=108.173 B4
    db 0,0,232,3,62,110,1 ; n2228 t=108.317 D4
    db 144,0,232,3,68,110,8 ; n2229 t=108.317 G#4
    db 0,0,232,3,60,110,1 ; n2230 t=108.462 C4
    db 0,0,232,3,45,110,2 ; n2231 t=108.462 A2
    db 0,0,232,3,52,110,2 ; n2232 t=108.462 E3
    db 0,0,232,3,57,110,2 ; n2233 t=108.462 A3
    db 0,0,232,3,69,110,7 ; n2234 t=108.462 A4
    db 0,0,232,3,64,110,8 ; n2235 t=108.462 E4
    db 144,0,232,3,45,110,11 ; n2236 t=108.462 A2
    db 144,0,232,3,64,110,1 ; n2237 t=108.606 E4
    db 0,0,232,3,69,110,1 ; n2238 t=108.750 A4
    db 0,0,232,3,64,110,7 ; n2239 t=108.750 E4
    db 144,0,232,3,60,110,8 ; n2240 t=108.750 C4
    db 144,0,232,3,68,110,1 ; n2241 t=108.894 G#4
    db 0,0,232,3,69,110,1 ; n2242 t=109.038 A4
    db 0,0,232,3,60,110,7 ; n2243 t=109.038 C4
    db 0,0,232,3,57,110,8 ; n2244 t=109.038 A3
    db 144,0,232,3,57,110,9 ; n2245 t=109.038 A3
    db 144,0,232,3,65,110,1 ; n2246 t=109.183 F4
    db 0,0,232,3,64,110,1 ; n2247 t=109.327 E4
    db 0,0,232,3,64,110,7 ; n2248 t=109.327 E4
    db 144,0,232,3,60,110,8 ; n2249 t=109.327 C4
    db 144,0,232,3,62,110,1 ; n2250 t=109.471 D4
    db 0,0,232,3,60,110,1 ; n2251 t=109.615 C4
    db 0,0,232,3,45,110,2 ; n2252 t=109.615 A2
    db 0,0,232,3,52,110,2 ; n2253 t=109.615 E3
    db 0,0,232,3,57,110,2 ; n2254 t=109.615 A3
    db 0,0,232,3,69,110,7 ; n2255 t=109.615 A4
    db 0,0,232,3,64,110,8 ; n2256 t=109.615 E4
    db 144,0,232,3,45,110,11 ; n2257 t=109.615 A2
    db 144,0,232,3,64,110,1 ; n2258 t=109.760 E4
    db 0,0,232,3,69,110,1 ; n2259 t=109.904 A4
    db 0,0,232,3,64,110,7 ; n2260 t=109.904 E4
    db 144,0,232,3,60,110,8 ; n2261 t=109.904 C4
    db 144,0,232,3,68,110,1 ; n2262 t=110.048 G#4
    db 0,0,232,3,69,110,1 ; n2263 t=110.192 A4
    db 0,0,232,3,60,110,7 ; n2264 t=110.192 C4
    db 0,0,232,3,57,110,8 ; n2265 t=110.192 A3
    db 144,0,232,3,57,110,9 ; n2266 t=110.192 A3
    db 144,0,232,3,65,110,1 ; n2267 t=110.337 F4
    db 0,0,232,3,64,110,1 ; n2268 t=110.481 E4
    db 0,0,232,3,79,110,7 ; n2269 t=110.481 G5
    db 144,0,232,3,61,110,8 ; n2270 t=110.481 C#4
    db 144,0,232,3,62,110,1 ; n2271 t=110.625 D4
    db 0,0,232,3,57,110,2 ; n2272 t=110.769 A3
    db 0,0,232,3,61,110,2 ; n2273 t=110.769 C#4
    db 0,0,232,3,64,110,8 ; n2274 t=110.769 E4
    db 144,0,232,3,57,110,11 ; n2275 t=110.769 A3
    db 144,0,232,3,70,110,1 ; n2276 t=110.913 A#4
    db 0,0,232,3,76,110,1 ; n2277 t=111.058 E5
    db 0,0,232,3,70,110,7 ; n2278 t=111.058 A#4
    db 144,0,232,3,79,110,8 ; n2279 t=111.058 G5
    db 0,0,232,3,74,110,1 ; n2280 t=111.202 D5
    db 144,0,232,3,67,110,7 ; n2281 t=111.202 G4
    db 0,0,232,3,76,110,1 ; n2282 t=111.346 E5
    db 0,0,232,3,61,110,7 ; n2283 t=111.346 C#4
    db 144,0,232,3,69,110,9 ; n2284 t=111.346 A4
    db 144,0,232,3,70,110,1 ; n2285 t=111.490 A#4
    db 0,0,232,3,69,110,1 ; n2286 t=111.635 A4
    db 0,0,232,3,79,110,7 ; n2287 t=111.635 G5
    db 144,0,232,3,76,110,8 ; n2288 t=111.635 E5
    db 0,0,232,3,67,110,1 ; n2289 t=111.779 G4
    db 144,0,232,3,73,110,8 ; n2290 t=111.779 C#5
    db 0,0,232,3,57,110,2 ; n2291 t=111.923 A3
    db 0,0,232,3,61,110,2 ; n2292 t=111.923 C#4
    db 0,0,232,3,64,110,8 ; n2293 t=111.923 E4
    db 144,0,232,3,57,110,11 ; n2294 t=111.923 A3
    db 144,0,232,3,70,110,1 ; n2295 t=112.067 A#4
    db 0,0,232,3,76,110,1 ; n2296 t=112.212 E5
    db 0,0,232,3,70,110,7 ; n2297 t=112.212 A#4
    db 144,0,232,3,79,110,8 ; n2298 t=112.212 G5
    db 0,0,232,3,74,110,1 ; n2299 t=112.356 D5
    db 144,0,232,3,67,110,7 ; n2300 t=112.356 G4
    db 0,0,232,3,76,110,1 ; n2301 t=112.500 E5
    db 0,0,232,3,61,110,7 ; n2302 t=112.500 C#4
    db 144,0,232,3,69,110,9 ; n2303 t=112.500 A4
    db 144,0,232,3,70,110,1 ; n2304 t=112.644 A#4
    db 0,0,232,3,69,110,1 ; n2305 t=112.788 A4
    db 0,0,232,3,73,110,7 ; n2306 t=112.788 C#5
    db 144,0,232,3,76,110,8 ; n2307 t=112.788 E5
    db 0,0,232,3,67,110,1 ; n2308 t=112.933 G4
    db 144,0,232,3,73,110,8 ; n2309 t=112.933 C#5
    db 0,0,232,3,65,110,1 ; n2310 t=113.077 F4
    db 0,0,232,3,50,110,2 ; n2311 t=113.077 D3
    db 0,0,232,3,57,110,2 ; n2312 t=113.077 A3
    db 0,0,232,3,62,110,2 ; n2313 t=113.077 D4
    db 0,0,232,3,74,110,7 ; n2314 t=113.077 D5
    db 0,0,232,3,69,110,8 ; n2315 t=113.077 A4
    db 144,0,232,3,50,110,11 ; n2316 t=113.077 D3
    db 144,0,232,3,69,110,1 ; n2317 t=113.221 A4
    db 0,0,232,3,74,110,1 ; n2318 t=113.365 D5
    db 0,0,232,3,69,110,7 ; n2319 t=113.365 A4
    db 144,0,232,3,65,110,8 ; n2320 t=113.365 F4
    db 144,0,232,3,73,110,1 ; n2321 t=113.510 C#5
    db 0,0,232,3,74,110,1 ; n2322 t=113.654 D5
    db 0,0,232,3,65,110,7 ; n2323 t=113.654 F4
    db 0,0,232,3,62,110,8 ; n2324 t=113.654 D4
    db 144,0,232,3,62,110,9 ; n2325 t=113.654 D4
    db 144,0,232,3,70,110,1 ; n2326 t=113.798 A#4
    db 0,0,232,3,69,110,1 ; n2327 t=113.942 A4
    db 0,0,232,3,69,110,7 ; n2328 t=113.942 A4
    db 144,0,232,3,65,110,8 ; n2329 t=113.942 F4
    db 144,0,232,3,67,110,1 ; n2330 t=114.087 G4
    db 0,0,232,3,65,110,1 ; n2331 t=114.231 F4
    db 0,0,232,3,62,110,2 ; n2332 t=114.231 D4
    db 0,0,232,3,57,110,2 ; n2333 t=114.231 A3
    db 0,0,232,3,50,110,2 ; n2334 t=114.231 D3
    db 0,0,232,3,74,110,7 ; n2335 t=114.231 D5
    db 0,0,232,3,69,110,8 ; n2336 t=114.231 A4
    db 144,0,232,3,50,110,11 ; n2337 t=114.231 D3
    db 144,0,232,3,69,110,1 ; n2338 t=114.375 A4
    db 0,0,232,3,74,110,1 ; n2339 t=114.519 D5
    db 0,0,232,3,69,110,7 ; n2340 t=114.519 A4
    db 144,0,232,3,65,110,8 ; n2341 t=114.519 F4
    db 144,0,232,3,73,110,1 ; n2342 t=114.663 C#5
    db 0,0,232,3,74,110,1 ; n2343 t=114.808 D5
    db 0,0,232,3,65,110,7 ; n2344 t=114.808 F4
    db 0,0,232,3,62,110,8 ; n2345 t=114.808 D4
    db 144,0,232,3,62,110,9 ; n2346 t=114.808 D4
    db 144,0,232,3,70,110,1 ; n2347 t=114.952 A#4
    db 0,0,232,3,69,110,1 ; n2348 t=115.096 A4
    db 0,0,232,3,81,110,7 ; n2349 t=115.096 A5
    db 144,0,232,3,65,110,8 ; n2350 t=115.096 F4
    db 144,0,232,3,67,110,1 ; n2351 t=115.240 G4
    db 0,0,232,3,59,110,2 ; n2352 t=115.385 B3
    db 0,0,232,3,63,110,2 ; n2353 t=115.385 D#4
    db 0,0,232,3,71,110,8 ; n2354 t=115.385 B4
    db 144,0,232,3,59,110,11 ; n2355 t=115.385 B3
    db 144,0,232,3,72,110,1 ; n2356 t=115.529 C5
    db 0,0,232,3,78,110,1 ; n2357 t=115.673 F#5
    db 0,0,232,3,72,110,7 ; n2358 t=115.673 C5
    db 144,0,232,3,81,110,8 ; n2359 t=115.673 A5
    db 0,0,232,3,76,110,1 ; n2360 t=115.817 E5
    db 144,0,232,3,69,110,7 ; n2361 t=115.817 A4
    db 0,0,232,3,78,110,1 ; n2362 t=115.962 F#5
    db 0,0,232,3,66,110,7 ; n2363 t=115.962 F#4
    db 144,0,232,3,71,110,9 ; n2364 t=115.962 B4
    db 144,0,232,3,72,110,1 ; n2365 t=116.106 C5
    db 0,0,232,3,71,110,1 ; n2366 t=116.250 B4
    db 0,0,232,3,81,110,7 ; n2367 t=116.250 A5
    db 144,0,232,3,78,110,8 ; n2368 t=116.250 F#5
    db 0,0,232,3,69,110,1 ; n2369 t=116.394 A4
    db 144,0,232,3,75,110,8 ; n2370 t=116.394 D#5
    db 0,0,232,3,59,110,2 ; n2371 t=116.538 B3
    db 0,0,232,3,63,110,2 ; n2372 t=116.538 D#4
    db 0,0,232,3,69,110,8 ; n2373 t=116.538 A4
    db 144,0,232,3,59,110,11 ; n2374 t=116.538 B3
    db 144,0,232,3,72,110,1 ; n2375 t=116.683 C5
    db 0,0,232,3,78,110,1 ; n2376 t=116.827 F#5
    db 0,0,232,3,72,110,7 ; n2377 t=116.827 C5
    db 144,0,232,3,81,110,8 ; n2378 t=116.827 A5
    db 0,0,232,3,76,110,1 ; n2379 t=116.971 E5
    db 144,0,232,3,69,110,7 ; n2380 t=116.971 A4
    db 0,0,232,3,78,110,1 ; n2381 t=117.115 F#5
    db 0,0,232,3,66,110,7 ; n2382 t=117.115 F#4
    db 144,0,232,3,71,110,9 ; n2383 t=117.115 B4
    db 144,0,232,3,72,110,1 ; n2384 t=117.260 C5
    db 0,0,232,3,71,110,1 ; n2385 t=117.404 B4
    db 0,0,232,3,71,110,7 ; n2386 t=117.404 B4
    db 144,0,232,3,78,110,8 ; n2387 t=117.404 F#5
    db 0,0,232,3,69,110,1 ; n2388 t=117.548 A4
    db 144,0,232,3,75,110,8 ; n2389 t=117.548 D#5
    db 0,0,232,3,64,110,2 ; n2390 t=117.692 E4
    db 0,0,232,3,68,110,2 ; n2391 t=117.692 G#4
    db 0,0,232,3,76,110,8 ; n2392 t=117.692 E5
    db 144,0,232,3,52,110,11 ; n2393 t=117.692 E3
    db 144,0,232,3,77,110,1 ; n2394 t=117.837 F5
    db 0,0,232,3,83,110,1 ; n2395 t=117.981 B5
    db 0,0,232,3,65,110,7 ; n2396 t=117.981 F4
    db 144,0,232,3,74,110,8 ; n2397 t=117.981 D5
    db 0,0,232,3,81,110,1 ; n2398 t=118.125 A5
    db 144,0,232,3,62,110,7 ; n2399 t=118.125 D4
    db 0,0,232,3,83,110,1 ; n2400 t=118.269 B5
    db 0,0,232,3,56,110,7 ; n2401 t=118.269 G#3
    db 144,0,232,3,64,110,9 ; n2402 t=118.269 E4
    db 144,0,232,3,77,110,1 ; n2403 t=118.413 F5
    db 0,0,232,3,76,110,1 ; n2404 t=118.558 E5
    db 0,0,232,3,71,110,7 ; n2405 t=118.558 B4
    db 144,0,232,3,71,110,8 ; n2406 t=118.558 B4
    db 0,0,232,3,74,110,1 ; n2407 t=118.702 D5
    db 144,0,232,3,68,110,8 ; n2408 t=118.702 G#4
    db 0,0,232,3,64,110,2 ; n2409 t=118.846 E4
    db 0,0,232,3,68,110,2 ; n2410 t=118.846 G#4
    db 0,0,232,3,64,110,8 ; n2411 t=118.846 E4
    db 144,0,232,3,52,110,11 ; n2412 t=118.846 E3
    db 144,0,232,3,77,110,1 ; n2413 t=118.990 F5
    db 0,0,232,3,83,110,1 ; n2414 t=119.135 B5
    db 0,0,232,3,65,110,7 ; n2415 t=119.135 F4
    db 144,0,232,3,74,110,8 ; n2416 t=119.135 D5
    db 0,0,232,3,81,110,1 ; n2417 t=119.279 A5
    db 144,0,232,3,62,110,7 ; n2418 t=119.279 D4
    db 0,0,232,3,83,110,1 ; n2419 t=119.423 B5
    db 0,0,232,3,56,110,7 ; n2420 t=119.423 G#3
    db 144,0,232,3,64,110,9 ; n2421 t=119.423 E4
    db 144,0,232,3,77,110,1 ; n2422 t=119.567 F5
    db 0,0,232,3,76,110,1 ; n2423 t=119.712 E5
    db 0,0,232,3,76,110,7 ; n2424 t=119.712 E5
    db 144,0,232,3,71,110,8 ; n2425 t=119.712 B4
    db 0,0,232,3,74,110,1 ; n2426 t=119.856 D5
    db 144,0,232,3,68,110,8 ; n2427 t=119.856 G#4
    db 0,0,232,3,72,110,1 ; n2428 t=120.000 C5
    db 0,0,232,3,57,110,2 ; n2429 t=120.000 A3
    db 0,0,232,3,69,110,2 ; n2430 t=120.000 A4
    db 0,0,232,3,76,110,7 ; n2431 t=120.000 E5
    db 0,0,232,3,69,110,8 ; n2432 t=120.000 A4
    db 144,0,232,3,57,110,11 ; n2433 t=120.000 A3
    db 144,0,232,3,76,110,1 ; n2434 t=120.144 E5
    db 0,0,232,3,81,110,1 ; n2435 t=120.288 A5
    db 0,0,232,3,72,110,7 ; n2436 t=120.288 C5
    db 144,0,232,3,64,110,8 ; n2437 t=120.288 E4
    db 144,0,232,3,80,110,1 ; n2438 t=120.433 G#5
    db 0,0,232,3,81,110,1 ; n2439 t=120.577 A5
    db 0,0,232,3,69,110,7 ; n2440 t=120.577 A4
    db 0,0,232,3,60,110,8 ; n2441 t=120.577 C4
    db 144,0,232,3,69,110,9 ; n2442 t=120.577 A4
    db 144,0,232,3,74,110,1 ; n2443 t=120.721 D5
    db 0,0,232,3,72,110,1 ; n2444 t=120.865 C5
    db 0,0,232,3,72,110,7 ; n2445 t=120.865 C5
    db 144,0,232,3,64,110,8 ; n2446 t=120.865 E4
    db 144,0,232,3,71,110,1 ; n2447 t=121.010 B4
    db 0,0,232,3,69,110,1 ; n2448 t=121.154 A4
    db 0,0,232,3,55,110,2 ; n2449 t=121.154 G3
    db 0,0,232,3,64,110,2 ; n2450 t=121.154 E4
    db 0,0,232,3,76,110,7 ; n2451 t=121.154 E5
    db 0,0,232,3,69,110,8 ; n2452 t=121.154 A4
    db 144,0,232,3,55,110,11 ; n2453 t=121.154 G3
    db 144,0,232,3,72,110,1 ; n2454 t=121.298 C5
    db 0,0,232,3,81,110,1 ; n2455 t=121.442 A5
    db 0,0,232,3,72,110,7 ; n2456 t=121.442 C5
    db 144,0,232,3,64,110,8 ; n2457 t=121.442 E4
    db 144,0,232,3,80,110,1 ; n2458 t=121.587 G#5
    db 0,0,232,3,81,110,1 ; n2459 t=121.731 A5
    db 0,0,232,3,69,110,7 ; n2460 t=121.731 A4
    db 0,0,232,3,60,110,8 ; n2461 t=121.731 C4
    db 144,0,232,3,67,110,9 ; n2462 t=121.731 G4
    db 144,0,232,3,70,110,1 ; n2463 t=121.875 A#4
    db 0,0,232,3,69,110,1 ; n2464 t=122.019 A4
    db 0,0,232,3,72,110,7 ; n2465 t=122.019 C5
    db 144,0,232,3,64,110,8 ; n2466 t=122.019 E4
    db 144,0,232,3,67,110,1 ; n2467 t=122.163 G4
    db 0,0,232,3,53,110,2 ; n2468 t=122.308 F3
    db 0,0,232,3,65,110,2 ; n2469 t=122.308 F4
    db 0,0,232,3,77,110,7 ; n2470 t=122.308 F5
    db 0,0,232,3,69,110,8 ; n2471 t=122.308 A4
    db 144,0,232,3,53,110,11 ; n2472 t=122.308 F3
    db 144,0,232,3,72,110,1 ; n2473 t=122.452 C5
    db 0,0,232,3,81,110,1 ; n2474 t=122.596 A5
    db 0,0,232,3,72,110,7 ; n2475 t=122.596 C5
    db 144,0,232,3,65,110,8 ; n2476 t=122.596 F4
    db 144,0,232,3,80,110,1 ; n2477 t=122.740 G#5
    db 0,0,232,3,81,110,1 ; n2478 t=122.885 A5
    db 0,0,232,3,69,110,7 ; n2479 t=122.885 A4
    db 0,0,232,3,60,110,8 ; n2480 t=122.885 C4
    db 144,0,232,3,65,110,9 ; n2481 t=122.885 F4
    db 144,0,232,3,65,110,2 ; n2482 t=123.029 F4
    db 0,0,232,3,64,110,2 ; n2483 t=123.173 E4
    db 0,0,232,3,72,110,7 ; n2484 t=123.173 C5
    db 144,0,232,3,69,110,8 ; n2485 t=123.173 A4
    db 144,0,232,3,62,110,2 ; n2486 t=123.317 D4
    db 0,0,232,3,60,110,2 ; n2487 t=123.462 C4
    db 0,0,232,3,52,110,2 ; n2488 t=123.462 E3
    db 0,0,232,3,76,110,7 ; n2489 t=123.462 E5
    db 0,0,232,3,69,110,8 ; n2490 t=123.462 A4
    db 144,0,232,3,52,110,11 ; n2491 t=123.462 E3
    db 144,0,232,3,72,110,1 ; n2492 t=123.606 C5
    db 0,0,232,3,81,110,1 ; n2493 t=123.750 A5
    db 0,0,232,3,72,110,7 ; n2494 t=123.750 C5
    db 144,0,232,3,64,110,8 ; n2495 t=123.750 E4
    db 144,0,232,3,80,110,1 ; n2496 t=123.894 G#5
    db 0,0,232,3,81,110,1 ; n2497 t=124.038 A5
    db 0,0,232,3,69,110,7 ; n2498 t=124.038 A4
    db 0,0,232,3,60,110,8 ; n2499 t=124.038 C4
    db 144,0,232,3,64,110,9 ; n2500 t=124.038 E4
    db 144,0,232,3,76,110,1 ; n2501 t=124.183 E5
    db 0,0,232,3,74,110,1 ; n2502 t=124.327 D5
    db 0,0,232,3,72,110,7 ; n2503 t=124.327 C5
    db 144,0,232,3,64,110,8 ; n2504 t=124.327 E4
    db 144,0,232,3,72,110,1 ; n2505 t=124.471 C5
    db 0,0,232,3,77,110,1 ; n2506 t=124.615 F5
    db 0,0,232,3,62,110,2 ; n2507 t=124.615 D4
    db 0,0,232,3,50,110,2 ; n2508 t=124.615 D3
    db 0,0,232,3,77,110,7 ; n2509 t=124.615 F5
    db 0,0,232,3,69,110,8 ; n2510 t=124.615 A4
    db 144,0,232,3,50,110,11 ; n2511 t=124.615 D3
    db 144,0,232,3,74,110,1 ; n2512 t=124.760 D5
    db 0,0,232,3,72,110,1 ; n2513 t=124.904 C5
    db 0,0,232,3,76,110,7 ; n2514 t=124.904 E5
    db 144,0,232,3,67,110,8 ; n2515 t=124.904 G4
    db 144,0,232,3,71,110,1 ; n2516 t=125.048 B4
    db 0,0,232,3,74,110,1 ; n2517 t=125.192 D5
    db 0,0,232,3,74,110,7 ; n2518 t=125.192 D5
    db 0,0,232,3,65,110,8 ; n2519 t=125.192 F4
    db 144,0,232,3,62,110,9 ; n2520 t=125.192 D4
    db 144,0,232,3,71,110,1 ; n2521 t=125.337 B4
    db 0,0,232,3,69,110,1 ; n2522 t=125.481 A4
    db 0,0,232,3,72,110,7 ; n2523 t=125.481 C5
    db 144,0,232,3,64,110,8 ; n2524 t=125.481 E4
    db 144,0,232,3,68,110,1 ; n2525 t=125.625 G#4
    db 0,0,232,3,71,110,1 ; n2526 t=125.769 B4
    db 0,0,232,3,56,110,2 ; n2527 t=125.769 G#3
    db 0,0,232,3,52,110,2 ; n2528 t=125.769 E3
    db 0,0,232,3,71,110,7 ; n2529 t=125.769 B4
    db 0,0,232,3,62,110,8 ; n2530 t=125.769 D4
    db 144,0,232,3,44,110,11 ; n2531 t=125.769 G#2
    db 144,0,232,3,68,110,1 ; n2532 t=125.913 G#4
    db 0,0,232,3,66,110,1 ; n2533 t=126.058 F#4
    db 0,0,232,3,69,110,7 ; n2534 t=126.058 A4
    db 144,0,232,3,60,110,8 ; n2535 t=126.058 C4
    db 144,0,232,3,64,110,1 ; n2536 t=126.202 E4
    db 0,0,232,3,65,110,1 ; n2537 t=126.346 F4
    db 0,0,232,3,68,110,7 ; n2538 t=126.346 G#4
    db 0,0,232,3,59,110,8 ; n2539 t=126.346 B3
    db 144,0,232,3,56,110,9 ; n2540 t=126.346 G#3
    db 144,0,232,3,62,110,1 ; n2541 t=126.490 D4
    db 0,0,232,3,60,110,1 ; n2542 t=126.635 C4
    db 0,0,232,3,66,110,7 ; n2543 t=126.635 F#4
    db 144,0,232,3,62,110,8 ; n2544 t=126.635 D4
    db 144,0,232,3,59,110,1 ; n2545 t=126.779 B3
    db 0,0,232,3,60,110,1 ; n2546 t=126.923 C4
    db 0,0,232,3,57,110,2 ; n2547 t=126.923 A3
    db 0,0,232,3,52,110,2 ; n2548 t=126.923 E3
    db 0,0,232,3,64,110,7 ; n2549 t=126.923 E4
    db 0,0,232,3,60,110,8 ; n2550 t=126.923 C4
    db 0,0,232,3,57,110,9 ; n2551 t=126.923 A3
    db 144,0,232,3,45,110,11 ; n2552 t=126.923 A2
    db 144,0,232,3,64,110,1 ; n2553 t=127.067 E4
    db 144,0,232,3,69,110,1 ; n2554 t=127.212 A4
    db 144,0,232,3,68,110,1 ; n2555 t=127.356 G#4
    db 144,0,232,3,69,110,1 ; n2556 t=127.500 A4
    db 144,0,232,3,64,110,1 ; n2557 t=127.644 E4
    db 0,0,232,3,72,110,1 ; n2558 t=127.788 C5
    db 0,0,232,3,45,110,2 ; n2559 t=127.788 A2
    db 144,0,232,3,45,110,11 ; n2560 t=127.788 A2
    db 0,0,232,3,69,110,1 ; n2561 t=127.933 A4
    db 0,0,232,3,47,110,2 ; n2562 t=127.933 B2
    db 144,0,232,3,47,110,11 ; n2563 t=127.933 B2
    db 0,0,232,3,76,110,1 ; n2564 t=128.077 E5
    db 0,0,232,3,48,110,2 ; n2565 t=128.077 C3
    db 32,1,232,3,48,110,11 ; n2566 t=128.077 C3
    db 0,0,232,3,69,110,1 ; n2567 t=128.365 A4
    db 0,0,232,3,48,110,2 ; n2568 t=128.365 C3
    db 72,0,232,3,50,110,11 ; n2569 t=128.365 D3
    db 72,0,232,3,47,110,2 ; n2570 t=128.438 B2
    db 72,0,232,3,48,110,2 ; n2571 t=128.510 C3
    db 72,0,232,3,50,110,2 ; n2572 t=128.582 D3
    db 0,0,232,3,64,110,1 ; n2573 t=128.654 E4
    db 0,0,232,3,52,110,2 ; n2574 t=128.654 E3
    db 32,1,232,3,52,110,11 ; n2575 t=128.654 E3
    db 0,0,232,3,68,110,1 ; n2576 t=128.942 G#4
    db 0,0,232,3,40,110,2 ; n2577 t=128.942 E2
    db 32,1,232,3,40,110,11 ; n2578 t=128.942 E2
    db 0,0,232,3,69,110,1 ; n2579 t=129.231 A4
    db 0,0,232,3,45,110,2 ; n2580 t=129.231 A2
    db 0,0,232,3,48,110,2 ; n2581 t=129.231 C3
    db 0,0,232,3,52,110,2 ; n2582 t=129.231 E3
    db 0,0,232,3,57,110,2 ; n2583 t=129.231 A3
    db 0,0,232,3,69,110,3 ; n2584 t=129.231 A4
    db 144,0,232,3,45,110,6 ; n2585 t=129.231 A2
    db 0,0,232,3,71,110,1 ; n2586 t=129.375 B4
    db 144,0,232,3,71,110,3 ; n2587 t=129.375 B4
    db 0,0,232,3,72,110,1 ; n2588 t=129.519 C5
    db 0,0,232,3,72,110,3 ; n2589 t=129.519 C5
    db 32,1,232,3,45,110,6 ; n2590 t=129.519 A2
    db 0,0,232,3,71,110,1 ; n2591 t=129.808 B4
    db 0,0,232,3,71,110,3 ; n2592 t=129.808 B4
    db 32,1,232,3,45,110,6 ; n2593 t=129.808 A2
    db 0,0,232,3,69,110,1 ; n2594 t=130.096 A4
    db 0,0,232,3,69,110,3 ; n2595 t=130.096 A4
    db 32,1,232,3,45,110,6 ; n2596 t=130.096 A2
    db 0,0,232,3,76,110,1 ; n2597 t=130.385 E5
    db 0,0,232,3,57,110,2 ; n2598 t=130.385 A3
    db 0,0,232,3,76,110,3 ; n2599 t=130.385 E5
    db 0,0,232,3,72,110,4 ; n2600 t=130.385 C5
    db 0,0,232,3,57,110,5 ; n2601 t=130.385 A3
    db 144,0,232,3,45,110,6 ; n2602 t=130.385 A2
    db 0,0,232,3,59,110,2 ; n2603 t=130.529 B3
    db 0,0,232,3,74,110,4 ; n2604 t=130.529 D5
    db 144,0,232,3,59,110,5 ; n2605 t=130.529 B3
    db 0,0,232,3,81,110,1 ; n2606 t=130.673 A5
    db 0,0,232,3,60,110,2 ; n2607 t=130.673 C4
    db 0,0,232,3,81,110,3 ; n2608 t=130.673 A5
    db 0,0,232,3,76,110,4 ; n2609 t=130.673 E5
    db 0,0,232,3,60,110,5 ; n2610 t=130.673 C4
    db 32,1,232,3,45,110,6 ; n2611 t=130.673 A2
    db 0,0,232,3,59,110,2 ; n2612 t=130.962 B3
    db 0,0,232,3,74,110,4 ; n2613 t=130.962 D5
    db 0,0,232,3,59,110,5 ; n2614 t=130.962 B3
    db 32,1,232,3,45,110,6 ; n2615 t=130.962 A2
    db 0,0,232,3,76,110,1 ; n2616 t=131.250 E5
    db 0,0,232,3,57,110,2 ; n2617 t=131.250 A3
    db 0,0,232,3,76,110,3 ; n2618 t=131.250 E5
    db 0,0,232,3,72,110,4 ; n2619 t=131.250 C5
    db 0,0,232,3,57,110,5 ; n2620 t=131.250 A3
    db 32,1,232,3,45,110,6 ; n2621 t=131.250 A2
    db 0,0,232,3,77,110,1 ; n2622 t=131.538 F5
    db 0,0,232,3,62,110,2 ; n2623 t=131.538 D4
    db 0,0,232,3,77,110,3 ; n2624 t=131.538 F5
    db 0,0,232,3,62,110,5 ; n2625 t=131.538 D4
    db 32,1,232,3,45,110,6 ; n2626 t=131.538 A2
    db 0,0,232,3,74,110,1 ; n2627 t=131.827 D5
    db 0,0,232,3,71,110,2 ; n2628 t=131.827 B4
    db 0,0,232,3,74,110,3 ; n2629 t=131.827 D5
    db 0,0,232,3,71,110,4 ; n2630 t=131.827 B4
    db 144,0,232,3,45,110,6 ; n2631 t=131.827 A2
    db 0,0,232,3,71,110,1 ; n2632 t=131.971 B4
    db 0,0,232,3,68,110,2 ; n2633 t=131.971 G#4
    db 144,0,232,3,71,110,3 ; n2634 t=131.971 B4
    db 0,0,232,3,76,110,1 ; n2635 t=132.115 E5
    db 0,0,232,3,60,110,2 ; n2636 t=132.115 C4
    db 0,0,232,3,76,110,3 ; n2637 t=132.115 E5
    db 0,0,232,3,60,110,5 ; n2638 t=132.115 C4
    db 32,1,232,3,45,110,6 ; n2639 t=132.115 A2
    db 0,0,232,3,72,110,1 ; n2640 t=132.404 C5
    db 0,0,232,3,69,110,2 ; n2641 t=132.404 A4
    db 0,0,232,3,72,110,3 ; n2642 t=132.404 C5
    db 0,0,232,3,69,110,4 ; n2643 t=132.404 A4
    db 144,0,232,3,45,110,6 ; n2644 t=132.404 A2
    db 0,0,232,3,69,110,1 ; n2645 t=132.548 A4
    db 0,0,232,3,65,110,2 ; n2646 t=132.548 F4
    db 144,0,232,3,69,110,3 ; n2647 t=132.548 A4
    db 0,0,232,3,74,110,1 ; n2648 t=132.692 D5
    db 0,0,232,3,59,110,2 ; n2649 t=132.692 B3
    db 0,0,232,3,74,110,3 ; n2650 t=132.692 D5
    db 0,0,232,3,59,110,5 ; n2651 t=132.692 B3
    db 144,0,232,3,45,110,6 ; n2652 t=132.692 A2
    db 144,0,232,3,60,110,2 ; n2653 t=132.837 C4
    db 0,0,232,3,71,110,1 ; n2654 t=132.981 B4
    db 0,0,232,3,62,110,2 ; n2655 t=132.981 D4
    db 0,0,232,3,71,110,3 ; n2656 t=132.981 B4
    db 0,0,232,3,74,110,4 ; n2657 t=132.981 D5
    db 144,0,232,3,45,110,6 ; n2658 t=132.981 A2
    db 0,0,232,3,68,110,1 ; n2659 t=133.125 G#4
    db 0,0,232,3,59,110,2 ; n2660 t=133.125 B3
    db 144,0,232,3,68,110,3 ; n2661 t=133.125 G#4
    db 0,0,232,3,64,110,1 ; n2662 t=133.269 E4
    db 0,0,232,3,57,110,2 ; n2663 t=133.269 A3
    db 0,0,232,3,64,110,3 ; n2664 t=133.269 E4
    db 0,0,232,3,57,110,5 ; n2665 t=133.269 A3
    db 144,0,232,3,45,110,6 ; n2666 t=133.269 A2
    db 144,0,232,3,59,110,2 ; n2667 t=133.413 B3
    db 0,0,232,3,77,110,1 ; n2668 t=133.558 F5
    db 0,0,232,3,62,110,2 ; n2669 t=133.558 D4
    db 0,0,232,3,77,110,3 ; n2670 t=133.558 F5
    db 0,0,232,3,71,110,4 ; n2671 t=133.558 B4
    db 144,0,232,3,45,110,6 ; n2672 t=133.558 A2
    db 0,0,232,3,59,110,2 ; n2673 t=133.702 B3
    db 144,0,232,3,68,110,4 ; n2674 t=133.702 G#4
    db 0,0,232,3,56,110,2 ; n2675 t=133.846 G#3
    db 0,0,232,3,62,110,4 ; n2676 t=133.846 D4
    db 0,0,232,3,56,110,5 ; n2677 t=133.846 G#3
    db 144,0,232,3,45,110,6 ; n2678 t=133.846 A2
    db 144,0,232,3,57,110,2 ; n2679 t=133.990 A3
    db 0,0,232,3,74,110,1 ; n2680 t=134.135 D5
    db 0,0,232,3,59,110,2 ; n2681 t=134.135 B3
    db 0,0,232,3,74,110,3 ; n2682 t=134.135 D5
    db 0,0,232,3,77,110,4 ; n2683 t=134.135 F5
    db 144,0,232,3,45,110,6 ; n2684 t=134.135 A2
    db 0,0,232,3,71,110,1 ; n2685 t=134.279 B4
    db 0,0,232,3,56,110,2 ; n2686 t=134.279 G#3
    db 144,0,232,3,71,110,3 ; n2687 t=134.279 B4
    db 0,0,232,3,64,110,1 ; n2688 t=134.423 E4
    db 0,0,232,3,57,110,2 ; n2689 t=134.423 A3
    db 0,0,232,3,64,110,3 ; n2690 t=134.423 E4
    db 0,0,232,3,57,110,5 ; n2691 t=134.423 A3
    db 144,0,232,3,45,110,6 ; n2692 t=134.423 A2
    db 144,0,232,3,60,110,2 ; n2693 t=134.567 C4
    db 0,0,232,3,80,110,1 ; n2694 t=134.712 G#5
    db 0,0,232,3,59,110,2 ; n2695 t=134.712 B3
    db 0,0,232,3,80,110,3 ; n2696 t=134.712 G#5
    db 0,0,232,3,74,110,4 ; n2697 t=134.712 D5
    db 144,0,232,3,45,110,6 ; n2698 t=134.712 A2
    db 0,0,232,3,57,110,2 ; n2699 t=134.856 A3
    db 144,0,232,3,71,110,4 ; n2700 t=134.856 B4
    db 0,0,232,3,59,110,2 ; n2701 t=135.000 B3
    db 0,0,232,3,62,110,4 ; n2702 t=135.000 D4
    db 0,0,232,3,59,110,5 ; n2703 t=135.000 B3
    db 144,0,232,3,45,110,6 ; n2704 t=135.000 A2
    db 144,0,232,3,60,110,2 ; n2705 t=135.144 C4
    db 0,0,232,3,77,110,1 ; n2706 t=135.288 F5
    db 0,0,232,3,62,110,2 ; n2707 t=135.288 D4
    db 0,0,232,3,77,110,3 ; n2708 t=135.288 F5
    db 0,0,232,3,80,110,4 ; n2709 t=135.288 G#5
    db 144,0,232,3,45,110,6 ; n2710 t=135.288 A2
    db 0,0,232,3,74,110,1 ; n2711 t=135.433 D5
    db 0,0,232,3,59,110,2 ; n2712 t=135.433 B3
    db 144,0,232,3,74,110,3 ; n2713 t=135.433 D5
    db 0,0,232,3,64,110,1 ; n2714 t=135.577 E4
    db 0,0,232,3,60,110,2 ; n2715 t=135.577 C4
    db 0,0,232,3,64,110,3 ; n2716 t=135.577 E4
    db 0,0,232,3,60,110,5 ; n2717 t=135.577 C4
    db 144,0,232,3,45,110,6 ; n2718 t=135.577 A2
    db 144,0,232,3,64,110,2 ; n2719 t=135.721 E4
    db 0,0,232,3,83,110,1 ; n2720 t=135.865 B5
    db 0,0,232,3,62,110,2 ; n2721 t=135.865 D4
    db 0,0,232,3,83,110,3 ; n2722 t=135.865 B5
    db 0,0,232,3,77,110,4 ; n2723 t=135.865 F5
    db 144,0,232,3,45,110,6 ; n2724 t=135.865 A2
    db 0,0,232,3,60,110,2 ; n2725 t=136.010 C4
    db 144,0,232,3,74,110,4 ; n2726 t=136.010 D5
    db 0,0,232,3,62,110,2 ; n2727 t=136.154 D4
    db 0,0,232,3,62,110,4 ; n2728 t=136.154 D4
    db 0,0,232,3,62,110,5 ; n2729 t=136.154 D4
    db 144,0,232,3,45,110,6 ; n2730 t=136.154 A2
    db 144,0,232,3,50,110,2 ; n2731 t=136.298 D3
    db 0,0,232,3,80,110,1 ; n2732 t=136.442 G#5
    db 0,0,232,3,62,110,2 ; n2733 t=136.442 D4
    db 0,0,232,3,80,110,3 ; n2734 t=136.442 G#5
    db 0,0,232,3,83,110,4 ; n2735 t=136.442 B5
    db 144,0,232,3,62,110,5 ; n2736 t=136.442 D4
    db 0,0,232,3,76,110,1 ; n2737 t=136.587 E5
    db 0,0,232,3,60,110,2 ; n2738 t=136.587 C4
    db 144,0,232,3,76,110,3 ; n2739 t=136.587 E5
    db 0,0,232,3,77,110,1 ; n2740 t=136.731 F5
    db 0,0,232,3,62,110,2 ; n2741 t=136.731 D4
    db 0,0,232,3,77,110,3 ; n2742 t=136.731 F5
    db 144,0,232,3,62,110,5 ; n2743 t=136.731 D4
    db 0,0,232,3,74,110,1 ; n2744 t=136.875 D5
    db 144,0,232,3,74,110,3 ; n2745 t=136.875 D5
    db 0,0,232,3,76,110,1 ; n2746 t=137.019 E5
    db 0,0,232,3,76,110,3 ; n2747 t=137.019 E5
    db 0,0,232,3,80,110,4 ; n2748 t=137.019 G#5
    db 144,0,232,3,62,110,5 ; n2749 t=137.019 D4
    db 0,0,232,3,72,110,1 ; n2750 t=137.163 C5
    db 0,0,232,3,72,110,3 ; n2751 t=137.163 C5
    db 144,0,232,3,76,110,4 ; n2752 t=137.163 E5
    db 0,0,232,3,74,110,1 ; n2753 t=137.308 D5
    db 0,0,232,3,74,110,3 ; n2754 t=137.308 D5
    db 0,0,232,3,77,110,4 ; n2755 t=137.308 F5
    db 144,0,232,3,62,110,5 ; n2756 t=137.308 D4
    db 0,0,232,3,71,110,1 ; n2757 t=137.452 B4
    db 0,0,232,3,50,110,2 ; n2758 t=137.452 D3
    db 0,0,232,3,71,110,3 ; n2759 t=137.452 B4
    db 144,0,232,3,74,110,4 ; n2760 t=137.452 D5
    db 0,0,232,3,72,110,1 ; n2761 t=137.596 C5
    db 0,0,232,3,62,110,2 ; n2762 t=137.596 D4
    db 0,0,232,3,72,110,3 ; n2763 t=137.596 C5
    db 0,0,232,3,76,110,4 ; n2764 t=137.596 E5
    db 144,0,232,3,62,110,5 ; n2765 t=137.596 D4
    db 0,0,232,3,69,110,1 ; n2766 t=137.740 A4
    db 0,0,232,3,60,110,2 ; n2767 t=137.740 C4
    db 0,0,232,3,69,110,3 ; n2768 t=137.740 A4
    db 144,0,232,3,72,110,4 ; n2769 t=137.740 C5
    db 0,0,232,3,71,110,1 ; n2770 t=137.885 B4
    db 0,0,232,3,62,110,2 ; n2771 t=137.885 D4
    db 0,0,232,3,71,110,3 ; n2772 t=137.885 B4
    db 0,0,232,3,74,110,4 ; n2773 t=137.885 D5
    db 144,0,232,3,62,110,5 ; n2774 t=137.885 D4
    db 0,0,232,3,68,110,1 ; n2775 t=138.029 G#4
    db 0,0,232,3,68,110,3 ; n2776 t=138.029 G#4
    db 144,0,232,3,71,110,4 ; n2777 t=138.029 B4
    db 0,0,232,3,69,110,1 ; n2778 t=138.173 A4
    db 0,0,232,3,69,110,3 ; n2779 t=138.173 A4
    db 0,0,232,3,72,110,4 ; n2780 t=138.173 C5
    db 144,0,232,3,62,110,5 ; n2781 t=138.173 D4
    db 0,0,232,3,66,110,1 ; n2782 t=138.317 F#4
    db 0,0,232,3,66,110,3 ; n2783 t=138.317 F#4
    db 144,0,232,3,69,110,4 ; n2784 t=138.317 A4
    db 0,0,232,3,68,110,1 ; n2785 t=138.462 G#4
    db 0,0,232,3,52,110,2 ; n2786 t=138.462 E3
    db 0,0,232,3,59,110,2 ; n2787 t=138.462 B3
    db 0,0,232,3,50,110,2 ; n2788 t=138.462 D3
    db 0,0,232,3,68,110,3 ; n2789 t=138.462 G#4
    db 0,0,232,3,76,110,4 ; n2790 t=138.462 E5
    db 144,0,232,3,62,110,5 ; n2791 t=138.462 D4
    db 0,0,232,3,64,110,1 ; n2792 t=138.606 E4
    db 144,0,232,3,64,110,3 ; n2793 t=138.606 E4
    db 0,0,232,3,66,110,1 ; n2794 t=138.750 F#4
    db 144,0,232,3,66,110,3 ; n2795 t=138.750 F#4
    db 0,0,232,3,68,110,1 ; n2796 t=138.894 G#4
    db 0,0,232,3,52,110,2 ; n2797 t=138.894 E3
    db 144,0,232,3,68,110,3 ; n2798 t=138.894 G#4
    db 0,0,232,3,69,110,1 ; n2799 t=139.038 A4
    db 0,0,232,3,54,110,2 ; n2800 t=139.038 F#3
    db 144,0,232,3,69,110,3 ; n2801 t=139.038 A4
    db 0,0,232,3,71,110,1 ; n2802 t=139.183 B4
    db 0,0,232,3,56,110,2 ; n2803 t=139.183 G#3
    db 144,0,232,3,71,110,3 ; n2804 t=139.183 B4
    db 0,0,232,3,72,110,1 ; n2805 t=139.327 C5
    db 0,0,232,3,57,110,2 ; n2806 t=139.327 A3
    db 144,0,232,3,72,110,3 ; n2807 t=139.327 C5
    db 0,0,232,3,74,110,1 ; n2808 t=139.471 D5
    db 0,0,232,3,59,110,2 ; n2809 t=139.471 B3
    db 144,0,232,3,74,110,3 ; n2810 t=139.471 D5
    db 0,0,232,3,76,110,1 ; n2811 t=139.615 E5
    db 0,0,232,3,60,110,2 ; n2812 t=139.615 C4
    db 0,0,232,3,76,110,3 ; n2813 t=139.615 E5
    db 144,0,232,3,49,110,6 ; n2814 t=139.615 C#3
    db 0,0,232,3,77,110,1 ; n2815 t=139.760 F5
    db 0,0,232,3,62,110,2 ; n2816 t=139.760 D4
    db 0,0,232,3,77,110,3 ; n2817 t=139.760 F5
    db 144,0,232,3,50,110,6 ; n2818 t=139.760 D3
    db 0,0,232,3,79,110,1 ; n2819 t=139.904 G5
    db 0,0,232,3,64,110,2 ; n2820 t=139.904 E4
    db 0,0,232,3,79,110,3 ; n2821 t=139.904 G5
    db 32,1,232,3,52,110,6 ; n2822 t=139.904 E3
    db 0,0,232,3,79,110,1 ; n2823 t=140.192 G5
    db 0,0,232,3,64,110,2 ; n2824 t=140.192 E4
    db 0,0,232,3,79,110,3 ; n2825 t=140.192 G5
    db 144,0,232,3,52,110,6 ; n2826 t=140.192 E3
    db 0,0,232,3,81,110,1 ; n2827 t=140.337 A5
    db 0,0,232,3,65,110,2 ; n2828 t=140.337 F4
    db 0,0,232,3,81,110,3 ; n2829 t=140.337 A5
    db 144,0,232,3,53,110,6 ; n2830 t=140.337 F3
    db 0,0,232,3,82,110,1 ; n2831 t=140.481 A#5
    db 0,0,232,3,67,110,2 ; n2832 t=140.481 G4
    db 0,0,232,3,82,110,3 ; n2833 t=140.481 A#5
    db 32,1,232,3,55,110,6 ; n2834 t=140.481 G3
    db 0,0,232,3,73,110,1 ; n2835 t=140.769 C#5
    db 0,0,232,3,64,110,1 ; n2836 t=140.769 E4
    db 0,0,232,3,58,110,2 ; n2837 t=140.769 A#3
    db 0,0,232,3,55,110,2 ; n2838 t=140.769 G3
    db 0,0,232,3,73,110,3 ; n2839 t=140.769 C#5
    db 0,0,232,3,58,110,5 ; n2840 t=140.769 A#3
    db 32,1,232,3,55,110,6 ; n2841 t=140.769 G3
    db 0,0,232,3,74,110,1 ; n2842 t=141.058 D5
    db 0,0,232,3,65,110,1 ; n2843 t=141.058 F4
    db 0,0,232,3,57,110,2 ; n2844 t=141.058 A3
    db 0,0,232,3,53,110,2 ; n2845 t=141.058 F3
    db 0,0,232,3,74,110,3 ; n2846 t=141.058 D5
    db 0,0,232,3,77,110,4 ; n2847 t=141.058 F5
    db 0,0,232,3,57,110,5 ; n2848 t=141.058 A3
    db 32,1,232,3,53,110,6 ; n2849 t=141.058 F3
    db 0,0,232,3,68,110,1 ; n2850 t=141.346 G#4
    db 0,0,232,3,62,110,1 ; n2851 t=141.346 D4
    db 0,0,232,3,58,110,2 ; n2852 t=141.346 A#3
    db 0,0,232,3,53,110,2 ; n2853 t=141.346 F3
    db 0,0,232,3,68,110,3 ; n2854 t=141.346 G#4
    db 0,0,232,3,71,110,4 ; n2855 t=141.346 B4
    db 0,0,232,3,62,110,5 ; n2856 t=141.346 D4
    db 32,1,232,3,53,110,6 ; n2857 t=141.346 F3
    db 0,0,232,3,69,110,1 ; n2858 t=141.635 A4
    db 0,0,232,3,64,110,1 ; n2859 t=141.635 E4
    db 0,0,232,3,60,110,2 ; n2860 t=141.635 C4
    db 0,0,232,3,52,110,2 ; n2861 t=141.635 E3
    db 0,0,232,3,69,110,3 ; n2862 t=141.635 A4
    db 0,0,232,3,72,110,4 ; n2863 t=141.635 C5
    db 0,0,232,3,64,110,5 ; n2864 t=141.635 E4
    db 32,1,232,3,52,110,6 ; n2865 t=141.635 E3
    db 0,0,232,3,63,110,1 ; n2866 t=141.923 D#4
    db 0,0,232,3,51,110,2 ; n2867 t=141.923 D#3
    db 0,0,232,3,63,110,3 ; n2868 t=141.923 D#4
    db 0,0,232,3,63,110,4 ; n2869 t=141.923 D#4
    db 0,0,232,3,63,110,5 ; n2870 t=141.923 D#4
    db 65,2,232,3,51,110,6 ; n2871 t=141.923 D#3
    db 0,0,232,3,64,110,1 ; n2872 t=142.500 E4
    db 0,0,232,3,52,110,2 ; n2873 t=142.500 E3
    db 0,0,232,3,64,110,3 ; n2874 t=142.500 E4
    db 0,0,232,3,64,110,4 ; n2875 t=142.500 E4
    db 0,0,232,3,64,110,5 ; n2876 t=142.500 E4
    db 65,2,232,3,52,110,6 ; n2877 t=142.500 E3
    db 0,0,232,3,57,110,2 ; n2878 t=143.077 A3
    db 0,0,232,3,57,110,3 ; n2879 t=143.077 A3
    db 0,0,232,3,57,110,4 ; n2880 t=143.077 A3
    db 0,0,232,3,57,110,5 ; n2881 t=143.077 A3
    db 144,0,232,3,45,110,6 ; n2882 t=143.077 A2
    db 144,0,232,3,69,110,1 ; n2883 t=143.221 A4
    db 0,0,232,3,69,110,1 ; n2884 t=143.365 A4
    db 144,0,232,3,57,110,7 ; n2885 t=143.365 A3
    db 144,0,232,3,69,110,1 ; n2886 t=143.510 A4
    db 0,0,232,3,68,110,1 ; n2887 t=143.654 G#4
    db 144,0,232,3,59,110,7 ; n2888 t=143.654 B3
    db 144,0,232,3,69,110,1 ; n2889 t=143.798 A4
    db 0,0,232,3,69,110,1 ; n2890 t=143.942 A4
    db 144,0,232,3,60,110,7 ; n2891 t=143.942 C4
    db 144,0,232,3,69,110,1 ; n2892 t=144.087 A4
    db 0,0,232,3,70,110,1 ; n2893 t=144.231 A#4
    db 144,0,232,3,62,110,7 ; n2894 t=144.231 D4
    db 144,0,232,3,69,110,1 ; n2895 t=144.375 A4
    db 0,0,232,3,69,110,1 ; n2896 t=144.519 A4
    db 144,0,232,3,65,110,7 ; n2897 t=144.519 F4
    db 144,0,232,3,69,110,1 ; n2898 t=144.663 A4
    db 0,0,232,3,68,110,1 ; n2899 t=144.808 G#4
    db 144,0,232,3,64,110,7 ; n2900 t=144.808 E4
    db 144,0,232,3,69,110,1 ; n2901 t=144.952 A4
    db 0,0,232,3,69,110,1 ; n2902 t=145.096 A4
    db 144,0,232,3,62,110,7 ; n2903 t=145.096 D4
    db 144,0,232,3,69,110,1 ; n2904 t=145.240 A4
    db 0,0,232,3,64,110,1 ; n2905 t=145.385 E4
    db 0,0,232,3,57,110,2 ; n2906 t=145.385 A3
    db 0,0,232,3,60,110,7 ; n2907 t=145.385 C4
    db 144,0,232,3,45,110,11 ; n2908 t=145.385 A2
    db 144,0,232,3,69,110,1 ; n2909 t=145.529 A4
    db 0,0,232,3,69,110,1 ; n2910 t=145.673 A4
    db 144,0,232,3,57,110,7 ; n2911 t=145.673 A3
    db 144,0,232,3,69,110,1 ; n2912 t=145.817 A4
    db 0,0,232,3,68,110,1 ; n2913 t=145.962 G#4
    db 144,0,232,3,59,110,7 ; n2914 t=145.962 B3
    db 144,0,232,3,69,110,1 ; n2915 t=146.106 A4
    db 0,0,232,3,69,110,1 ; n2916 t=146.250 A4
    db 144,0,232,3,60,110,7 ; n2917 t=146.250 C4
    db 144,0,232,3,69,110,1 ; n2918 t=146.394 A4
    db 0,0,232,3,70,110,1 ; n2919 t=146.538 A#4
    db 144,0,232,3,62,110,7 ; n2920 t=146.538 D4
    db 144,0,232,3,69,110,1 ; n2921 t=146.683 A4
    db 0,0,232,3,69,110,1 ; n2922 t=146.827 A4
    db 144,0,232,3,65,110,7 ; n2923 t=146.827 F4
    db 144,0,232,3,69,110,1 ; n2924 t=146.971 A4
    db 0,0,232,3,68,110,1 ; n2925 t=147.115 G#4
    db 144,0,232,3,64,110,7 ; n2926 t=147.115 E4
    db 144,0,232,3,69,110,1 ; n2927 t=147.260 A4
    db 0,0,232,3,69,110,1 ; n2928 t=147.404 A4
    db 144,0,232,3,62,110,7 ; n2929 t=147.404 D4
    db 144,0,232,3,69,110,1 ; n2930 t=147.548 A4
    db 0,0,232,3,64,110,1 ; n2931 t=147.692 E4
    db 0,0,232,3,57,110,2 ; n2932 t=147.692 A3
    db 0,0,232,3,60,110,7 ; n2933 t=147.692 C4
    db 144,0,232,3,45,110,11 ; n2934 t=147.692 A2
    db 144,0,232,3,69,110,1 ; n2935 t=147.837 A4
    db 0,0,232,3,72,110,1 ; n2936 t=147.981 C5
    db 0,0,232,3,64,110,1 ; n2937 t=147.981 E4
    db 144,0,232,3,69,110,7 ; n2938 t=147.981 A4
    db 144,0,232,3,69,110,1 ; n2939 t=148.125 A4
    db 0,0,232,3,71,110,1 ; n2940 t=148.269 B4
    db 0,0,232,3,62,110,1 ; n2941 t=148.269 D4
    db 144,0,232,3,68,110,7 ; n2942 t=148.269 G#4
    db 144,0,232,3,69,110,1 ; n2943 t=148.413 A4
    db 0,0,232,3,72,110,1 ; n2944 t=148.558 C5
    db 0,0,232,3,64,110,1 ; n2945 t=148.558 E4
    db 144,0,232,3,69,110,7 ; n2946 t=148.558 A4
    db 144,0,232,3,69,110,1 ; n2947 t=148.702 A4
    db 0,0,232,3,74,110,1 ; n2948 t=148.846 D5
    db 0,0,232,3,65,110,1 ; n2949 t=148.846 F4
    db 144,0,232,3,71,110,7 ; n2950 t=148.846 B4
    db 144,0,232,3,69,110,1 ; n2951 t=148.990 A4
    db 0,0,232,3,72,110,1 ; n2952 t=149.135 C5
    db 0,0,232,3,64,110,1 ; n2953 t=149.135 E4
    db 144,0,232,3,69,110,7 ; n2954 t=149.135 A4
    db 144,0,232,3,69,110,1 ; n2955 t=149.279 A4
    db 0,0,232,3,74,110,1 ; n2956 t=149.423 D5
    db 0,0,232,3,65,110,1 ; n2957 t=149.423 F4
    db 144,0,232,3,71,110,7 ; n2958 t=149.423 B4
    db 144,0,232,3,69,110,1 ; n2959 t=149.567 A4
    db 0,0,232,3,71,110,1 ; n2960 t=149.712 B4
    db 0,0,232,3,62,110,1 ; n2961 t=149.712 D4
    db 144,0,232,3,68,110,7 ; n2962 t=149.712 G#4
    db 144,0,232,3,69,110,1 ; n2963 t=149.856 A4
    db 0,0,232,3,72,110,1 ; n2964 t=150.000 C5
    db 0,0,232,3,64,110,1 ; n2965 t=150.000 E4
    db 0,0,232,3,69,110,7 ; n2966 t=150.000 A4
    db 144,0,232,3,45,110,11 ; n2967 t=150.000 A2
    db 144,0,232,3,69,110,1 ; n2968 t=150.144 A4
    db 0,0,232,3,72,110,1 ; n2969 t=150.288 C5
    db 0,0,232,3,64,110,1 ; n2970 t=150.288 E4
    db 144,0,232,3,69,110,7 ; n2971 t=150.288 A4
    db 144,0,232,3,69,110,1 ; n2972 t=150.433 A4
    db 0,0,232,3,71,110,1 ; n2973 t=150.577 B4
    db 0,0,232,3,62,110,1 ; n2974 t=150.577 D4
    db 144,0,232,3,68,110,7 ; n2975 t=150.577 G#4
    db 144,0,232,3,69,110,1 ; n2976 t=150.721 A4
    db 0,0,232,3,72,110,1 ; n2977 t=150.865 C5
    db 0,0,232,3,64,110,1 ; n2978 t=150.865 E4
    db 144,0,232,3,69,110,7 ; n2979 t=150.865 A4
    db 144,0,232,3,69,110,1 ; n2980 t=151.010 A4
    db 0,0,232,3,74,110,1 ; n2981 t=151.154 D5
    db 0,0,232,3,65,110,1 ; n2982 t=151.154 F4
    db 144,0,232,3,71,110,7 ; n2983 t=151.154 B4
    db 144,0,232,3,69,110,1 ; n2984 t=151.298 A4
    db 0,0,232,3,72,110,1 ; n2985 t=151.442 C5
    db 0,0,232,3,64,110,1 ; n2986 t=151.442 E4
    db 144,0,232,3,69,110,7 ; n2987 t=151.442 A4
    db 144,0,232,3,69,110,1 ; n2988 t=151.587 A4
    db 0,0,232,3,74,110,1 ; n2989 t=151.731 D5
    db 0,0,232,3,65,110,1 ; n2990 t=151.731 F4
    db 144,0,232,3,71,110,7 ; n2991 t=151.731 B4
    db 144,0,232,3,69,110,1 ; n2992 t=151.875 A4
    db 0,0,232,3,71,110,1 ; n2993 t=152.019 B4
    db 0,0,232,3,62,110,1 ; n2994 t=152.019 D4
    db 144,0,232,3,68,110,7 ; n2995 t=152.019 G#4
    db 144,0,232,3,69,110,1 ; n2996 t=152.163 A4
    db 0,0,232,3,72,110,1 ; n2997 t=152.308 C5
    db 0,0,232,3,64,110,1 ; n2998 t=152.308 E4
    db 0,0,232,3,69,110,7 ; n2999 t=152.308 A4
    db 144,0,232,3,45,110,11 ; n3000 t=152.308 A2
    db 144,0,232,3,69,110,1 ; n3001 t=152.452 A4
    db 0,0,232,3,60,110,1 ; n3002 t=152.596 C4
    db 0,0,232,3,69,110,1 ; n3003 t=152.596 A4
    db 144,0,232,3,64,110,7 ; n3004 t=152.596 E4
    db 144,0,232,3,69,110,1 ; n3005 t=152.740 A4
    db 0,0,232,3,70,110,1 ; n3006 t=152.885 A#4
    db 0,0,232,3,62,110,1 ; n3007 t=152.885 D4
    db 144,0,232,3,65,110,7 ; n3008 t=152.885 F4
    db 144,0,232,3,69,110,1 ; n3009 t=153.029 A4
    db 0,0,232,3,68,110,1 ; n3010 t=153.173 G#4
    db 0,0,232,3,59,110,1 ; n3011 t=153.173 B3
    db 144,0,232,3,62,110,7 ; n3012 t=153.173 D4
    db 144,0,232,3,69,110,1 ; n3013 t=153.317 A4
    db 0,0,232,3,69,110,1 ; n3014 t=153.462 A4
    db 0,0,232,3,60,110,1 ; n3015 t=153.462 C4
    db 144,0,232,3,64,110,7 ; n3016 t=153.462 E4
    db 144,0,232,3,69,110,1 ; n3017 t=153.606 A4
    db 0,0,232,3,72,110,1 ; n3018 t=153.750 C5
    db 0,0,232,3,64,110,1 ; n3019 t=153.750 E4
    db 144,0,232,3,69,110,7 ; n3020 t=153.750 A4
    db 144,0,232,3,69,110,1 ; n3021 t=153.894 A4
    db 0,0,232,3,70,110,1 ; n3022 t=154.038 A#4
    db 0,0,232,3,62,110,1 ; n3023 t=154.038 D4
    db 144,0,232,3,65,110,7 ; n3024 t=154.038 F4
    db 144,0,232,3,69,110,1 ; n3025 t=154.183 A4
    db 0,0,232,3,68,110,1 ; n3026 t=154.327 G#4
    db 0,0,232,3,59,110,1 ; n3027 t=154.327 B3
    db 144,0,232,3,62,110,7 ; n3028 t=154.327 D4
    db 144,0,232,3,69,110,1 ; n3029 t=154.471 A4
    db 0,0,232,3,60,110,1 ; n3030 t=154.615 C4
    db 0,0,232,3,69,110,1 ; n3031 t=154.615 A4
    db 0,0,232,3,64,110,7 ; n3032 t=154.615 E4
    db 144,0,232,3,45,110,11 ; n3033 t=154.615 A2
    db 144,0,232,3,69,110,1 ; n3034 t=154.760 A4
    db 0,0,232,3,60,110,1 ; n3035 t=154.904 C4
    db 0,0,232,3,64,110,1 ; n3036 t=154.904 E4
    db 144,0,232,3,64,110,7 ; n3037 t=154.904 E4
    db 144,0,232,3,69,110,1 ; n3038 t=155.048 A4
    db 0,0,232,3,62,110,1 ; n3039 t=155.192 D4
    db 144,0,232,3,66,110,1 ; n3040 t=155.192 F#4
    db 144,0,232,3,69,110,1 ; n3041 t=155.337 A4
    db 0,0,232,3,59,110,1 ; n3042 t=155.481 B3
    db 0,0,232,3,68,110,1 ; n3043 t=155.481 G#4
    db 144,0,232,3,62,110,7 ; n3044 t=155.481 D4
    db 144,0,232,3,69,110,1 ; n3045 t=155.625 A4
    db 0,0,232,3,60,110,1 ; n3046 t=155.769 C4
    db 0,0,232,3,69,110,1 ; n3047 t=155.769 A4
    db 144,0,232,3,60,110,7 ; n3048 t=155.769 C4
    db 144,0,232,3,69,110,1 ; n3049 t=155.913 A4
    db 0,0,232,3,60,110,1 ; n3050 t=156.058 C4
    db 0,0,232,3,64,110,1 ; n3051 t=156.058 E4
    db 144,0,232,3,60,110,7 ; n3052 t=156.058 C4
    db 144,0,232,3,69,110,1 ; n3053 t=156.202 A4
    db 0,0,232,3,62,110,1 ; n3054 t=156.346 D4
    db 144,0,232,3,66,110,1 ; n3055 t=156.346 F#4
    db 144,0,232,3,69,110,1 ; n3056 t=156.490 A4
    db 0,0,232,3,59,110,1 ; n3057 t=156.635 B3
    db 0,0,232,3,68,110,1 ; n3058 t=156.635 G#4
    db 144,0,232,3,59,110,7 ; n3059 t=156.635 B3
    db 144,0,232,3,69,110,1 ; n3060 t=156.779 A4
    db 0,0,232,3,60,110,1 ; n3061 t=156.923 C4
    db 0,0,232,3,69,110,1 ; n3062 t=156.923 A4
    db 144,0,232,3,57,110,7 ; n3063 t=156.923 A3
    db 144,0,232,3,69,110,1 ; n3064 t=157.067 A4
    db 0,0,232,3,60,110,1 ; n3065 t=157.212 C4
    db 144,0,232,3,64,110,1 ; n3066 t=157.212 E4
    db 144,0,232,3,69,110,1 ; n3067 t=157.356 A4
    db 0,0,232,3,62,110,1 ; n3068 t=157.500 D4
    db 144,0,232,3,66,110,1 ; n3069 t=157.500 F#4
    db 144,0,232,3,69,110,1 ; n3070 t=157.644 A4
    db 0,0,232,3,64,110,1 ; n3071 t=157.788 E4
    db 144,0,232,3,68,110,1 ; n3072 t=157.788 G#4
    db 144,0,232,3,69,110,1 ; n3073 t=157.933 A4
    db 0,0,232,3,66,110,1 ; n3074 t=158.077 F#4
    db 144,0,232,3,69,110,1 ; n3075 t=158.077 A4
    db 144,0,232,3,69,110,1 ; n3076 t=158.221 A4
    db 0,0,232,3,68,110,1 ; n3077 t=158.365 G#4
    db 144,0,232,3,71,110,1 ; n3078 t=158.365 B4
    db 144,0,232,3,69,110,1 ; n3079 t=158.510 A4
    db 0,0,232,3,69,110,1 ; n3080 t=158.654 A4
    db 144,0,232,3,72,110,1 ; n3081 t=158.654 C5
    db 144,0,232,3,69,110,1 ; n3082 t=158.798 A4
    db 0,0,232,3,71,110,1 ; n3083 t=158.942 B4
    db 144,0,232,3,74,110,1 ; n3084 t=158.942 D5
    db 144,0,232,3,69,110,1 ; n3085 t=159.087 A4
    db 0,0,232,3,76,110,1 ; n3086 t=159.231 E5
    db 144,0,232,3,72,110,1 ; n3087 t=159.231 C5
    db 144,0,232,3,69,110,1 ; n3088 t=159.375 A4
    db 0,0,232,3,72,110,1 ; n3089 t=159.519 C5
    db 0,0,232,3,57,110,2 ; n3090 t=159.519 A3
    db 0,0,232,3,76,110,3 ; n3091 t=159.519 E5
    db 0,0,232,3,76,110,4 ; n3092 t=159.519 E5
    db 0,0,232,3,69,110,5 ; n3093 t=159.519 A4
    db 144,0,232,3,57,110,6 ; n3094 t=159.519 A3
    db 0,0,232,3,76,110,1 ; n3095 t=159.663 E5
    db 0,0,232,3,59,110,2 ; n3096 t=159.663 B3
    db 144,0,232,3,67,110,5 ; n3097 t=159.663 G4
    db 0,0,232,3,81,110,1 ; n3098 t=159.808 A5
    db 0,0,232,3,57,110,2 ; n3099 t=159.808 A3
    db 0,0,232,3,78,110,3 ; n3100 t=159.808 F#5
    db 0,0,232,3,75,110,4 ; n3101 t=159.808 D#5
    db 144,0,232,3,66,110,5 ; n3102 t=159.808 F#4
    db 144,0,232,3,79,110,1 ; n3103 t=159.952 G5
    db 0,0,232,3,78,110,1 ; n3104 t=160.096 F#5
    db 0,0,232,3,55,110,2 ; n3105 t=160.096 G3
    db 0,0,232,3,79,110,3 ; n3106 t=160.096 G5
    db 0,0,232,3,76,110,4 ; n3107 t=160.096 E5
    db 0,0,232,3,71,110,5 ; n3108 t=160.096 B4
    db 144,0,232,3,55,110,6 ; n3109 t=160.096 G3
    db 144,0,232,3,76,110,1 ; n3110 t=160.240 E5
    db 0,0,232,3,75,110,1 ; n3111 t=160.385 D#5
    db 0,0,232,3,54,110,2 ; n3112 t=160.385 F#3
    db 0,0,232,3,81,110,3 ; n3113 t=160.385 A5
    db 0,0,232,3,78,110,4 ; n3114 t=160.385 F#5
    db 0,0,232,3,72,110,5 ; n3115 t=160.385 C5
    db 144,0,232,3,54,110,6 ; n3116 t=160.385 F#3
    db 144,0,232,3,78,110,1 ; n3117 t=160.529 F#5
    db 0,0,232,3,81,110,1 ; n3118 t=160.673 A5
    db 0,0,232,3,59,110,2 ; n3119 t=160.673 B3
    db 144,0,232,3,59,110,6 ; n3120 t=160.673 B3
    db 0,0,232,3,84,110,1 ; n3121 t=160.817 C6
    db 144,0,232,3,57,110,2 ; n3122 t=160.817 A3
    db 0,0,232,3,83,110,1 ; n3123 t=160.962 B5
    db 0,0,232,3,59,110,2 ; n3124 t=160.962 B3
    db 0,0,232,3,78,110,3 ; n3125 t=160.962 F#5
    db 0,0,232,3,75,110,4 ; n3126 t=160.962 D#5
    db 144,0,232,3,71,110,5 ; n3127 t=160.962 B4
    db 144,0,232,3,81,110,1 ; n3128 t=161.106 A5
    db 0,0,232,3,79,110,1 ; n3129 t=161.250 G5
    db 0,0,232,3,47,110,2 ; n3130 t=161.250 B2
    db 144,0,232,3,47,110,6 ; n3131 t=161.250 B2
    db 144,0,232,3,78,110,1 ; n3132 t=161.394 F#5
    db 0,0,232,3,79,110,1 ; n3133 t=161.538 G5
    db 0,0,232,3,52,110,2 ; n3134 t=161.538 E3
    db 0,0,232,3,76,110,3 ; n3135 t=161.538 E5
    db 0,0,232,3,71,110,4 ; n3136 t=161.538 B4
    db 0,0,232,3,71,110,5 ; n3137 t=161.538 B4
    db 144,0,232,3,52,110,6 ; n3138 t=161.538 E3
    db 144,0,232,3,64,110,1 ; n3139 t=161.683 E4
    db 0,0,232,3,76,110,1 ; n3140 t=161.827 E5
    db 144,0,232,3,64,110,7 ; n3141 t=161.827 E4
    db 144,0,232,3,76,110,1 ; n3142 t=161.971 E5
    db 0,0,232,3,75,110,1 ; n3143 t=162.115 D#5
    db 144,0,232,3,66,110,7 ; n3144 t=162.115 F#4
    db 144,0,232,3,76,110,1 ; n3145 t=162.260 E5
    db 0,0,232,3,76,110,1 ; n3146 t=162.404 E5
    db 144,0,232,3,67,110,7 ; n3147 t=162.404 G4
    db 144,0,232,3,76,110,1 ; n3148 t=162.548 E5
    db 0,0,232,3,77,110,1 ; n3149 t=162.692 F5
    db 144,0,232,3,69,110,7 ; n3150 t=162.692 A4
    db 144,0,232,3,76,110,1 ; n3151 t=162.837 E5
    db 0,0,232,3,76,110,1 ; n3152 t=162.981 E5
    db 144,0,232,3,72,110,7 ; n3153 t=162.981 C5
    db 144,0,232,3,76,110,1 ; n3154 t=163.125 E5
    db 0,0,232,3,75,110,1 ; n3155 t=163.269 D#5
    db 144,0,232,3,71,110,7 ; n3156 t=163.269 B4
    db 144,0,232,3,76,110,1 ; n3157 t=163.413 E5
    db 0,0,232,3,76,110,1 ; n3158 t=163.558 E5
    db 144,0,232,3,69,110,7 ; n3159 t=163.558 A4
    db 144,0,232,3,76,110,1 ; n3160 t=163.702 E5
    db 0,0,232,3,64,110,1 ; n3161 t=163.846 E4
    db 0,0,232,3,71,110,1 ; n3162 t=163.846 B4
    db 0,0,232,3,67,110,7 ; n3163 t=163.846 G4
    db 144,0,232,3,52,110,11 ; n3164 t=163.846 E3
    db 144,0,232,3,76,110,1 ; n3165 t=163.990 E5
    db 0,0,232,3,76,110,1 ; n3166 t=164.135 E5
    db 144,0,232,3,64,110,7 ; n3167 t=164.135 E4
    db 144,0,232,3,76,110,1 ; n3168 t=164.279 E5
    db 0,0,232,3,75,110,1 ; n3169 t=164.423 D#5
    db 144,0,232,3,66,110,7 ; n3170 t=164.423 F#4
    db 144,0,232,3,76,110,1 ; n3171 t=164.567 E5
    db 0,0,232,3,76,110,1 ; n3172 t=164.712 E5
    db 144,0,232,3,67,110,7 ; n3173 t=164.712 G4
    db 144,0,232,3,76,110,1 ; n3174 t=164.856 E5
    db 0,0,232,3,77,110,1 ; n3175 t=165.000 F5
    db 144,0,232,3,69,110,7 ; n3176 t=165.000 A4
    db 144,0,232,3,76,110,1 ; n3177 t=165.144 E5
    db 0,0,232,3,76,110,1 ; n3178 t=165.288 E5
    db 144,0,232,3,72,110,7 ; n3179 t=165.288 C5
    db 144,0,232,3,76,110,1 ; n3180 t=165.433 E5
    db 0,0,232,3,75,110,1 ; n3181 t=165.577 D#5
    db 144,0,232,3,71,110,7 ; n3182 t=165.577 B4
    db 144,0,232,3,76,110,1 ; n3183 t=165.721 E5
    db 0,0,232,3,76,110,1 ; n3184 t=165.865 E5
    db 144,0,232,3,69,110,7 ; n3185 t=165.865 A4
    db 144,0,232,3,76,110,1 ; n3186 t=166.010 E5
    db 0,0,232,3,71,110,1 ; n3187 t=166.154 B4
    db 0,0,232,3,64,110,2 ; n3188 t=166.154 E4
    db 0,0,232,3,67,110,7 ; n3189 t=166.154 G4
    db 144,0,232,3,52,110,11 ; n3190 t=166.154 E3
    db 144,0,232,3,76,110,1 ; n3191 t=166.298 E5
    db 0,0,232,3,79,110,1 ; n3192 t=166.442 G5
    db 0,0,232,3,71,110,1 ; n3193 t=166.442 B4
    db 144,0,232,3,76,110,7 ; n3194 t=166.442 E5
    db 144,0,232,3,76,110,1 ; n3195 t=166.587 E5
    db 0,0,232,3,78,110,1 ; n3196 t=166.731 F#5
    db 0,0,232,3,69,110,1 ; n3197 t=166.731 A4
    db 144,0,232,3,75,110,7 ; n3198 t=166.731 D#5
    db 144,0,232,3,76,110,1 ; n3199 t=166.875 E5
    db 0,0,232,3,79,110,1 ; n3200 t=167.019 G5
    db 0,0,232,3,71,110,1 ; n3201 t=167.019 B4
    db 144,0,232,3,76,110,7 ; n3202 t=167.019 E5
    db 144,0,232,3,76,110,1 ; n3203 t=167.163 E5
    db 0,0,232,3,81,110,1 ; n3204 t=167.308 A5
    db 0,0,232,3,72,110,1 ; n3205 t=167.308 C5
    db 144,0,232,3,78,110,7 ; n3206 t=167.308 F#5
    db 144,0,232,3,76,110,1 ; n3207 t=167.452 E5
    db 0,0,232,3,79,110,1 ; n3208 t=167.596 G5
    db 0,0,232,3,71,110,1 ; n3209 t=167.596 B4
    db 144,0,232,3,76,110,7 ; n3210 t=167.596 E5
    db 144,0,232,3,76,110,1 ; n3211 t=167.740 E5
    db 0,0,232,3,81,110,1 ; n3212 t=167.885 A5
    db 0,0,232,3,72,110,1 ; n3213 t=167.885 C5
    db 144,0,232,3,78,110,7 ; n3214 t=167.885 F#5
    db 144,0,232,3,76,110,1 ; n3215 t=168.029 E5
    db 0,0,232,3,78,110,1 ; n3216 t=168.173 F#5
    db 0,0,232,3,69,110,1 ; n3217 t=168.173 A4
    db 144,0,232,3,75,110,7 ; n3218 t=168.173 D#5
    db 144,0,232,3,76,110,1 ; n3219 t=168.317 E5
    db 0,0,232,3,79,110,1 ; n3220 t=168.462 G5
    db 0,0,232,3,71,110,1 ; n3221 t=168.462 B4
    db 0,0,232,3,76,110,7 ; n3222 t=168.462 E5
    db 144,0,232,3,52,110,11 ; n3223 t=168.462 E3
    db 144,0,232,3,76,110,1 ; n3224 t=168.606 E5
    db 0,0,232,3,79,110,1 ; n3225 t=168.750 G5
    db 0,0,232,3,71,110,1 ; n3226 t=168.750 B4
    db 144,0,232,3,76,110,7 ; n3227 t=168.750 E5
    db 144,0,232,3,76,110,1 ; n3228 t=168.894 E5
    db 0,0,232,3,78,110,1 ; n3229 t=169.038 F#5
    db 0,0,232,3,69,110,1 ; n3230 t=169.038 A4
    db 144,0,232,3,75,110,7 ; n3231 t=169.038 D#5
    db 144,0,232,3,76,110,1 ; n3232 t=169.183 E5
    db 0,0,232,3,79,110,1 ; n3233 t=169.327 G5
    db 0,0,232,3,71,110,1 ; n3234 t=169.327 B4
    db 144,0,232,3,76,110,7 ; n3235 t=169.327 E5
    db 144,0,232,3,76,110,1 ; n3236 t=169.471 E5
    db 0,0,232,3,81,110,1 ; n3237 t=169.615 A5
    db 0,0,232,3,72,110,1 ; n3238 t=169.615 C5
    db 144,0,232,3,78,110,7 ; n3239 t=169.615 F#5
    db 144,0,232,3,76,110,1 ; n3240 t=169.760 E5
    db 0,0,232,3,79,110,1 ; n3241 t=169.904 G5
    db 0,0,232,3,71,110,1 ; n3242 t=169.904 B4
    db 144,0,232,3,76,110,7 ; n3243 t=169.904 E5
    db 144,0,232,3,76,110,1 ; n3244 t=170.048 E5
    db 0,0,232,3,81,110,1 ; n3245 t=170.192 A5
    db 0,0,232,3,72,110,1 ; n3246 t=170.192 C5
    db 144,0,232,3,78,110,7 ; n3247 t=170.192 F#5
    db 144,0,232,3,76,110,1 ; n3248 t=170.337 E5
    db 0,0,232,3,78,110,1 ; n3249 t=170.481 F#5
    db 0,0,232,3,69,110,1 ; n3250 t=170.481 A4
    db 144,0,232,3,75,110,7 ; n3251 t=170.481 D#5
    db 144,0,232,3,76,110,1 ; n3252 t=170.625 E5
    db 0,0,232,3,79,110,1 ; n3253 t=170.769 G5
    db 0,0,232,3,71,110,1 ; n3254 t=170.769 B4
    db 0,0,232,3,76,110,7 ; n3255 t=170.769 E5
    db 144,0,232,3,52,110,11 ; n3256 t=170.769 E3
    db 144,0,232,3,76,110,1 ; n3257 t=170.913 E5
    db 0,0,232,3,76,110,1 ; n3258 t=171.058 E5
    db 0,0,232,3,67,110,1 ; n3259 t=171.058 G4
    db 144,0,232,3,71,110,7 ; n3260 t=171.058 B4
    db 144,0,232,3,76,110,1 ; n3261 t=171.202 E5
    db 0,0,232,3,77,110,1 ; n3262 t=171.346 F5
    db 0,0,232,3,69,110,1 ; n3263 t=171.346 A4
    db 144,0,232,3,72,110,7 ; n3264 t=171.346 C5
    db 144,0,232,3,76,110,1 ; n3265 t=171.490 E5
    db 0,0,232,3,75,110,1 ; n3266 t=171.635 D#5
    db 0,0,232,3,66,110,1 ; n3267 t=171.635 F#4
    db 144,0,232,3,69,110,7 ; n3268 t=171.635 A4
    db 144,0,232,3,76,110,1 ; n3269 t=171.779 E5
    db 0,0,232,3,76,110,1 ; n3270 t=171.923 E5
    db 0,0,232,3,67,110,1 ; n3271 t=171.923 G4
    db 144,0,232,3,71,110,7 ; n3272 t=171.923 B4
    db 144,0,232,3,76,110,1 ; n3273 t=172.067 E5
    db 0,0,232,3,79,110,1 ; n3274 t=172.212 G5
    db 0,0,232,3,71,110,1 ; n3275 t=172.212 B4
    db 144,0,232,3,76,110,7 ; n3276 t=172.212 E5
    db 144,0,232,3,76,110,1 ; n3277 t=172.356 E5
    db 0,0,232,3,77,110,1 ; n3278 t=172.500 F5
    db 0,0,232,3,69,110,1 ; n3279 t=172.500 A4
    db 144,0,232,3,72,110,7 ; n3280 t=172.500 C5
    db 144,0,232,3,76,110,1 ; n3281 t=172.644 E5
    db 0,0,232,3,75,110,1 ; n3282 t=172.788 D#5
    db 0,0,232,3,66,110,1 ; n3283 t=172.788 F#4
    db 144,0,232,3,69,110,7 ; n3284 t=172.788 A4
    db 144,0,232,3,76,110,1 ; n3285 t=172.933 E5
    db 0,0,232,3,76,110,1 ; n3286 t=173.077 E5
    db 0,0,232,3,67,110,1 ; n3287 t=173.077 G4
    db 0,0,232,3,71,110,7 ; n3288 t=173.077 B4
    db 144,0,232,3,52,110,11 ; n3289 t=173.077 E3
    db 144,0,232,3,76,110,1 ; n3290 t=173.221 E5
    db 0,0,232,3,71,110,1 ; n3291 t=173.365 B4
    db 0,0,232,3,67,110,1 ; n3292 t=173.365 G4
    db 144,0,232,3,71,110,7 ; n3293 t=173.365 B4
    db 144,0,232,3,76,110,1 ; n3294 t=173.510 E5
    db 0,0,232,3,73,110,1 ; n3295 t=173.654 C#5
    db 144,0,232,3,69,110,1 ; n3296 t=173.654 A4
    db 144,0,232,3,76,110,1 ; n3297 t=173.798 E5
    db 0,0,232,3,66,110,1 ; n3298 t=173.942 F#4
    db 0,0,232,3,75,110,1 ; n3299 t=173.942 D#5
    db 144,0,232,3,69,110,7 ; n3300 t=173.942 A4
    db 144,0,232,3,76,110,1 ; n3301 t=174.087 E5
    db 0,0,232,3,76,110,1 ; n3302 t=174.231 E5
    db 0,0,232,3,67,110,1 ; n3303 t=174.231 G4
    db 144,0,232,3,67,110,7 ; n3304 t=174.231 G4
    db 144,0,232,3,76,110,1 ; n3305 t=174.375 E5
    db 0,0,232,3,71,110,1 ; n3306 t=174.519 B4
    db 0,0,232,3,67,110,1 ; n3307 t=174.519 G4
    db 144,0,232,3,67,110,7 ; n3308 t=174.519 G4
    db 144,0,232,3,76,110,1 ; n3309 t=174.663 E5
    db 0,0,232,3,73,110,1 ; n3310 t=174.808 C#5
    db 144,0,232,3,69,110,1 ; n3311 t=174.808 A4
    db 144,0,232,3,76,110,1 ; n3312 t=174.952 E5
    db 0,0,232,3,75,110,1 ; n3313 t=175.096 D#5
    db 0,0,232,3,66,110,1 ; n3314 t=175.096 F#4
    db 144,0,232,3,66,110,7 ; n3315 t=175.096 F#4
    db 144,0,232,3,76,110,1 ; n3316 t=175.240 E5
    db 0,0,232,3,76,110,1 ; n3317 t=175.385 E5
    db 0,0,232,3,67,110,1 ; n3318 t=175.385 G4
    db 144,0,232,3,64,110,7 ; n3319 t=175.385 E4
    db 144,0,232,3,76,110,1 ; n3320 t=175.529 E5
    db 0,0,232,3,71,110,1 ; n3321 t=175.673 B4
    db 144,0,232,3,67,110,1 ; n3322 t=175.673 G4
    db 144,0,232,3,76,110,1 ; n3323 t=175.817 E5
    db 0,0,232,3,73,110,1 ; n3324 t=175.962 C#5
    db 144,0,232,3,69,110,1 ; n3325 t=175.962 A4
    db 144,0,232,3,76,110,1 ; n3326 t=176.106 E5
    db 0,0,232,3,75,110,1 ; n3327 t=176.250 D#5
    db 144,0,232,3,71,110,1 ; n3328 t=176.250 B4
    db 144,0,232,3,76,110,1 ; n3329 t=176.394 E5
    db 0,0,232,3,76,110,1 ; n3330 t=176.538 E5
    db 144,0,232,3,73,110,1 ; n3331 t=176.538 C#5
    db 144,0,232,3,76,110,1 ; n3332 t=176.683 E5
    db 0,0,232,3,78,110,1 ; n3333 t=176.827 F#5
    db 144,0,232,3,75,110,1 ; n3334 t=176.827 D#5
    db 144,0,232,3,76,110,1 ; n3335 t=176.971 E5
    db 0,0,232,3,79,110,1 ; n3336 t=177.115 G5
    db 144,0,232,3,76,110,1 ; n3337 t=177.115 E5
    db 144,0,232,3,76,110,1 ; n3338 t=177.260 E5
    db 0,0,232,3,81,110,1 ; n3339 t=177.404 A5
    db 144,0,232,3,78,110,1 ; n3340 t=177.404 F#5
    db 144,0,232,3,76,110,1 ; n3341 t=177.548 E5
    db 0,0,232,3,83,110,1 ; n3342 t=177.692 B5
    db 144,0,232,3,79,110,1 ; n3343 t=177.692 G5
    db 144,0,232,3,76,110,1 ; n3344 t=177.837 E5
    db 0,0,232,3,83,110,1 ; n3345 t=177.981 B5
    db 0,0,232,3,79,110,1 ; n3346 t=177.981 G5
    db 144,0,232,3,76,110,7 ; n3347 t=177.981 E5
    db 144,0,232,3,76,110,1 ; n3348 t=178.125 E5
    db 0,0,232,3,84,110,1 ; n3349 t=178.269 C6
    db 144,0,232,3,81,110,1 ; n3350 t=178.269 A5
    db 144,0,232,3,76,110,1 ; n3351 t=178.413 E5
    db 0,0,232,3,83,110,1 ; n3352 t=178.558 B5
    db 0,0,232,3,79,110,1 ; n3353 t=178.558 G5
    db 0,0,232,3,71,110,7 ; n3354 t=178.558 B4
    db 144,0,232,3,76,110,8 ; n3355 t=178.558 E5
    db 0,0,232,3,76,110,1 ; n3356 t=178.702 E5
    db 144,0,232,3,67,110,7 ; n3357 t=178.702 G4
    db 0,0,232,3,84,110,1 ; n3358 t=178.846 C6
    db 0,0,232,3,81,110,1 ; n3359 t=178.846 A5
    db 144,0,232,3,64,110,7 ; n3360 t=178.846 E4
    db 144,0,232,3,76,110,1 ; n3361 t=178.990 E5
    db 0,0,232,3,81,110,1 ; n3362 t=179.135 A5
    db 0,0,232,3,78,110,1 ; n3363 t=179.135 F#5
    db 0,0,232,3,76,110,7 ; n3364 t=179.135 E5
    db 144,0,232,3,72,110,8 ; n3365 t=179.135 C5
    db 0,0,232,3,76,110,1 ; n3366 t=179.279 E5
    db 144,0,232,3,69,110,8 ; n3367 t=179.279 A4
    db 0,0,232,3,83,110,1 ; n3368 t=179.423 B5
    db 0,0,232,3,79,110,1 ; n3369 t=179.423 G5
    db 144,0,232,3,64,110,8 ; n3370 t=179.423 E4
    db 144,0,232,3,76,110,1 ; n3371 t=179.567 E5
    db 0,0,232,3,81,110,1 ; n3372 t=179.712 A5
    db 0,0,232,3,78,110,1 ; n3373 t=179.712 F#5
    db 0,0,232,3,72,110,7 ; n3374 t=179.712 C5
    db 144,0,232,3,76,110,8 ; n3375 t=179.712 E5
    db 0,0,232,3,76,110,1 ; n3376 t=179.856 E5
    db 144,0,232,3,69,110,7 ; n3377 t=179.856 A4
    db 0,0,232,3,83,110,1 ; n3378 t=180.000 B5
    db 0,0,232,3,79,110,1 ; n3379 t=180.000 G5
    db 144,0,232,3,64,110,7 ; n3380 t=180.000 E4
    db 144,0,232,3,76,110,1 ; n3381 t=180.144 E5
    db 0,0,232,3,79,110,1 ; n3382 t=180.288 G5
    db 0,0,232,3,76,110,1 ; n3383 t=180.288 E5
    db 0,0,232,3,76,110,7 ; n3384 t=180.288 E5
    db 144,0,232,3,71,110,8 ; n3385 t=180.288 B4
    db 0,0,232,3,76,110,1 ; n3386 t=180.433 E5
    db 144,0,232,3,67,110,8 ; n3387 t=180.433 G4
    db 0,0,232,3,81,110,1 ; n3388 t=180.577 A5
    db 0,0,232,3,78,110,1 ; n3389 t=180.577 F#5
    db 144,0,232,3,64,110,8 ; n3390 t=180.577 E4
    db 144,0,232,3,76,110,1 ; n3391 t=180.721 E5
    db 0,0,232,3,79,110,1 ; n3392 t=180.865 G5
    db 0,0,232,3,76,110,1 ; n3393 t=180.865 E5
    db 0,0,232,3,71,110,7 ; n3394 t=180.865 B4
    db 144,0,232,3,76,110,8 ; n3395 t=180.865 E5
    db 0,0,232,3,76,110,1 ; n3396 t=181.010 E5
    db 144,0,232,3,67,110,7 ; n3397 t=181.010 G4
    db 0,0,232,3,81,110,1 ; n3398 t=181.154 A5
    db 0,0,232,3,78,110,1 ; n3399 t=181.154 F#5
    db 144,0,232,3,64,110,7 ; n3400 t=181.154 E4
    db 144,0,232,3,76,110,1 ; n3401 t=181.298 E5
    db 0,0,232,3,78,110,1 ; n3402 t=181.442 F#5
    db 0,0,232,3,75,110,1 ; n3403 t=181.442 D#5
    db 0,0,232,3,76,110,7 ; n3404 t=181.442 E5
    db 144,0,232,3,72,110,8 ; n3405 t=181.442 C5
    db 0,0,232,3,76,110,1 ; n3406 t=181.587 E5
    db 144,0,232,3,69,110,8 ; n3407 t=181.587 A4
    db 0,0,232,3,79,110,1 ; n3408 t=181.731 G5
    db 0,0,232,3,76,110,1 ; n3409 t=181.731 E5
    db 144,0,232,3,64,110,8 ; n3410 t=181.731 E4
    db 144,0,232,3,76,110,1 ; n3411 t=181.875 E5
    db 0,0,232,3,78,110,1 ; n3412 t=182.019 F#5
    db 0,0,232,3,75,110,1 ; n3413 t=182.019 D#5
    db 0,0,232,3,72,110,7 ; n3414 t=182.019 C5
    db 144,0,232,3,76,110,8 ; n3415 t=182.019 E5
    db 0,0,232,3,76,110,1 ; n3416 t=182.163 E5
    db 144,0,232,3,69,110,7 ; n3417 t=182.163 A4
    db 0,0,232,3,79,110,1 ; n3418 t=182.308 G5
    db 0,0,232,3,76,110,1 ; n3419 t=182.308 E5
    db 144,0,232,3,64,110,7 ; n3420 t=182.308 E4
    db 144,0,232,3,76,110,1 ; n3421 t=182.452 E5
    db 0,0,232,3,80,110,1 ; n3422 t=182.596 G#5
    db 0,0,232,3,74,110,1 ; n3423 t=182.596 D5
    db 144,0,232,3,64,110,9 ; n3424 t=182.596 E4
    db 144,0,232,3,76,110,1 ; n3425 t=182.740 E5
    db 0,0,232,3,81,110,1 ; n3426 t=182.885 A5
    db 0,0,232,3,72,110,1 ; n3427 t=182.885 C5
    db 144,0,232,3,63,110,9 ; n3428 t=182.885 D#4
    db 144,0,232,3,76,110,1 ; n3429 t=183.029 E5
    db 0,0,232,3,79,110,1 ; n3430 t=183.173 G5
    db 0,0,232,3,71,110,1 ; n3431 t=183.173 B4
    db 144,0,232,3,64,110,9 ; n3432 t=183.173 E4
    db 144,0,232,3,76,110,1 ; n3433 t=183.317 E5
    db 0,0,232,3,78,110,1 ; n3434 t=183.462 F#5
    db 0,0,232,3,69,110,1 ; n3435 t=183.462 A4
    db 144,0,232,3,60,110,9 ; n3436 t=183.462 C4
    db 144,0,232,3,76,110,1 ; n3437 t=183.606 E5
    db 0,0,232,3,76,110,1 ; n3438 t=183.750 E5
    db 0,0,232,3,67,110,1 ; n3439 t=183.750 G4
    db 144,0,232,3,57,110,9 ; n3440 t=183.750 A3
    db 144,0,232,3,76,110,1 ; n3441 t=183.894 E5
    db 0,0,232,3,76,110,1 ; n3442 t=184.038 E5
    db 0,0,232,3,66,110,1 ; n3443 t=184.038 F#4
    db 144,0,232,3,59,110,9 ; n3444 t=184.038 B3
    db 144,0,232,3,76,110,1 ; n3445 t=184.183 E5
    db 0,0,232,3,74,110,1 ; n3446 t=184.327 D5
    db 0,0,232,3,66,110,1 ; n3447 t=184.327 F#4
    db 144,0,232,3,71,110,9 ; n3448 t=184.327 B4
    db 144,0,232,3,76,110,1 ; n3449 t=184.471 E5
    db 0,0,232,3,74,110,1 ; n3450 t=184.615 D5
    db 0,0,232,3,68,110,1 ; n3451 t=184.615 G#4
    db 144,0,232,3,64,110,9 ; n3452 t=184.615 E4
    db 144,0,232,3,76,110,1 ; n3453 t=184.760 E5
    db 0,0,232,3,72,110,1 ; n3454 t=184.904 C5
    db 0,0,232,3,69,110,1 ; n3455 t=184.904 A4
    db 144,0,232,3,65,110,9 ; n3456 t=184.904 F4
    db 144,0,232,3,76,110,1 ; n3457 t=185.048 E5
    db 0,0,232,3,71,110,1 ; n3458 t=185.192 B4
    db 0,0,232,3,69,110,1 ; n3459 t=185.192 A4
    db 144,0,232,3,62,110,9 ; n3460 t=185.192 D4
    db 144,0,232,3,76,110,1 ; n3461 t=185.337 E5
    db 0,0,232,3,76,110,1 ; n3462 t=185.481 E5
    db 0,0,232,3,67,110,1 ; n3463 t=185.481 G4
    db 144,0,232,3,64,110,9 ; n3464 t=185.481 E4
    db 144,0,232,3,76,110,1 ; n3465 t=185.625 E5
    db 0,0,232,3,76,110,1 ; n3466 t=185.769 E5
    db 0,0,232,3,65,110,1 ; n3467 t=185.769 F4
    db 144,0,232,3,57,110,9 ; n3468 t=185.769 A3
    db 144,0,232,3,76,110,1 ; n3469 t=185.913 E5
    db 0,0,232,3,74,110,1 ; n3470 t=186.058 D5
    db 0,0,232,3,65,110,1 ; n3471 t=186.058 F4
    db 144,0,232,3,59,110,9 ; n3472 t=186.058 B3
    db 144,0,232,3,76,110,1 ; n3473 t=186.202 E5
    db 0,0,232,3,74,110,1 ; n3474 t=186.346 D5
    db 0,0,232,3,64,110,1 ; n3475 t=186.346 E4
    db 144,0,232,3,60,110,9 ; n3476 t=186.346 C4
    db 144,0,232,3,76,110,1 ; n3477 t=186.490 E5
    db 0,0,232,3,72,110,1 ; n3478 t=186.635 C5
    db 0,0,232,3,64,110,1 ; n3479 t=186.635 E4
    db 144,0,232,3,57,110,9 ; n3480 t=186.635 A3
    db 144,0,232,3,76,110,1 ; n3481 t=186.779 E5
    db 0,0,232,3,72,110,1 ; n3482 t=186.923 C5
    db 0,0,232,3,62,110,1 ; n3483 t=186.923 D4
    db 144,0,232,3,53,110,9 ; n3484 t=186.923 F3
    db 144,0,232,3,77,110,1 ; n3485 t=187.067 F5
    db 0,0,232,3,69,110,1 ; n3486 t=187.212 A4
    db 0,0,232,3,62,110,1 ; n3487 t=187.212 D4
    db 144,0,232,3,62,110,9 ; n3488 t=187.212 D4
    db 144,0,232,3,77,110,1 ; n3489 t=187.356 F5
    db 0,0,232,3,71,110,1 ; n3490 t=187.500 B4
    db 0,0,232,3,62,110,1 ; n3491 t=187.500 D4
    db 144,0,232,3,59,110,9 ; n3492 t=187.500 B3
    db 144,0,232,3,77,110,1 ; n3493 t=187.644 F5
    db 0,0,232,3,71,110,1 ; n3494 t=187.788 B4
    db 0,0,232,3,67,110,1 ; n3495 t=187.788 G4
    db 144,0,232,3,55,110,9 ; n3496 t=187.788 G3
    db 144,0,232,3,77,110,1 ; n3497 t=187.933 F5
    db 0,0,232,3,72,110,1 ; n3498 t=188.077 C5
    db 0,0,232,3,67,110,1 ; n3499 t=188.077 G4
    db 144,0,232,3,60,110,9 ; n3500 t=188.077 C4
    db 144,0,232,3,76,110,1 ; n3501 t=188.221 E5
    db 0,0,232,3,72,110,1 ; n3502 t=188.365 C5
    db 0,0,232,3,70,110,1 ; n3503 t=188.365 A#4
    db 144,0,232,3,48,110,9 ; n3504 t=188.365 C3
    db 144,0,232,3,76,110,1 ; n3505 t=188.510 E5
    db 0,0,232,3,72,110,1 ; n3506 t=188.654 C5
    db 0,0,232,3,69,110,1 ; n3507 t=188.654 A4
    db 144,0,232,3,50,110,9 ; n3508 t=188.654 D3
    db 144,0,232,3,76,110,1 ; n3509 t=188.798 E5
    db 0,0,232,3,70,110,1 ; n3510 t=188.942 A#4
    db 0,0,232,3,67,110,1 ; n3511 t=188.942 G4
    db 144,0,232,3,52,110,9 ; n3512 t=188.942 E3
    db 144,0,232,3,76,110,1 ; n3513 t=189.087 E5
    db 0,0,232,3,65,110,1 ; n3514 t=189.231 F4
    db 0,0,232,3,69,110,1 ; n3515 t=189.231 A4
    db 144,0,232,3,53,110,9 ; n3516 t=189.231 F3
    db 144,0,232,3,71,110,1 ; n3517 t=189.375 B4
    db 0,0,232,3,72,110,1 ; n3518 t=189.519 C5
    db 144,0,232,3,52,110,9 ; n3519 t=189.519 E3
    db 144,0,232,3,76,110,1 ; n3520 t=189.663 E5
    db 0,0,232,3,81,110,1 ; n3521 t=189.808 A5
    db 144,0,232,3,53,110,9 ; n3522 t=189.808 F3
    db 144,0,232,3,76,110,1 ; n3523 t=189.952 E5
    db 0,0,232,3,77,110,1 ; n3524 t=190.096 F5
    db 144,0,232,3,55,110,9 ; n3525 t=190.096 G3
    db 144,0,232,3,74,110,1 ; n3526 t=190.240 D5
    db 0,0,232,3,65,110,1 ; n3527 t=190.385 F4
    db 0,0,232,3,69,110,1 ; n3528 t=190.385 A4
    db 144,0,232,3,57,110,9 ; n3529 t=190.385 A3
    db 144,0,232,3,71,110,1 ; n3530 t=190.529 B4
    db 0,0,232,3,72,110,1 ; n3531 t=190.673 C5
    db 144,0,232,3,55,110,9 ; n3532 t=190.673 G3
    db 144,0,232,3,76,110,1 ; n3533 t=190.817 E5
    db 0,0,232,3,81,110,1 ; n3534 t=190.962 A5
    db 144,0,232,3,53,110,9 ; n3535 t=190.962 F3
    db 144,0,232,3,76,110,1 ; n3536 t=191.106 E5
    db 0,0,232,3,77,110,1 ; n3537 t=191.250 F5
    db 144,0,232,3,50,110,9 ; n3538 t=191.250 D3
    db 144,0,232,3,74,110,1 ; n3539 t=191.394 D5
    db 0,0,232,3,65,110,1 ; n3540 t=191.538 F4
    db 0,0,232,3,71,110,1 ; n3541 t=191.538 B4
    db 144,0,232,3,55,110,9 ; n3542 t=191.538 G3
    db 144,0,232,3,72,110,1 ; n3543 t=191.683 C5
    db 0,0,232,3,74,110,1 ; n3544 t=191.827 D5
    db 144,0,232,3,55,110,9 ; n3545 t=191.827 G3
    db 144,0,232,3,77,110,1 ; n3546 t=191.971 F5
    db 0,0,232,3,79,110,1 ; n3547 t=192.115 G5
    db 144,0,232,3,55,110,9 ; n3548 t=192.115 G3
    db 144,0,232,3,74,110,1 ; n3549 t=192.260 D5
    db 0,0,232,3,76,110,1 ; n3550 t=192.404 E5
    db 144,0,232,3,55,110,9 ; n3551 t=192.404 G3
    db 144,0,232,3,72,110,1 ; n3552 t=192.548 C5
    db 0,0,232,3,71,110,1 ; n3553 t=192.692 B4
    db 0,0,232,3,65,110,1 ; n3554 t=192.692 F4
    db 144,0,232,3,55,110,9 ; n3555 t=192.692 G3
    db 144,0,232,3,72,110,1 ; n3556 t=192.837 C5
    db 0,0,232,3,74,110,1 ; n3557 t=192.981 D5
    db 144,0,232,3,55,110,9 ; n3558 t=192.981 G3
    db 144,0,232,3,77,110,1 ; n3559 t=193.125 F5
    db 0,0,232,3,79,110,1 ; n3560 t=193.269 G5
    db 144,0,232,3,55,110,9 ; n3561 t=193.269 G3
    db 144,0,232,3,74,110,1 ; n3562 t=193.413 D5
    db 0,0,232,3,76,110,1 ; n3563 t=193.558 E5
    db 144,0,232,3,55,110,9 ; n3564 t=193.558 G3
    db 144,0,232,3,72,110,1 ; n3565 t=193.702 C5
    db 0,0,232,3,69,110,1 ; n3566 t=193.846 A4
    db 0,0,232,3,63,110,1 ; n3567 t=193.846 D#4
    db 144,0,232,3,54,110,9 ; n3568 t=193.846 F#3
    db 144,0,232,3,71,110,1 ; n3569 t=193.990 B4
    db 0,0,232,3,72,110,1 ; n3570 t=194.135 C5
    db 144,0,232,3,54,110,9 ; n3571 t=194.135 F#3
    db 144,0,232,3,75,110,1 ; n3572 t=194.279 D#5
    db 0,0,232,3,81,110,1 ; n3573 t=194.423 A5
    db 144,0,232,3,54,110,9 ; n3574 t=194.423 F#3
    db 144,0,232,3,72,110,1 ; n3575 t=194.567 C5
    db 0,0,232,3,81,110,1 ; n3576 t=194.712 A5
    db 144,0,232,3,54,110,9 ; n3577 t=194.712 F#3
    db 144,0,232,3,72,110,1 ; n3578 t=194.856 C5
    db 0,0,232,3,69,110,1 ; n3579 t=195.000 A4
    db 0,0,232,3,63,110,1 ; n3580 t=195.000 D#4
    db 144,0,232,3,54,110,9 ; n3581 t=195.000 F#3
    db 144,0,232,3,71,110,1 ; n3582 t=195.144 B4
    db 0,0,232,3,72,110,1 ; n3583 t=195.288 C5
    db 144,0,232,3,54,110,9 ; n3584 t=195.288 F#3
    db 144,0,232,3,75,110,1 ; n3585 t=195.433 D#5
    db 0,0,232,3,81,110,1 ; n3586 t=195.577 A5
    db 144,0,232,3,54,110,9 ; n3587 t=195.577 F#3
    db 144,0,232,3,72,110,1 ; n3588 t=195.721 C5
    db 0,0,232,3,81,110,1 ; n3589 t=195.865 A5
    db 144,0,232,3,54,110,9 ; n3590 t=195.865 F#3
    db 144,0,232,3,72,110,1 ; n3591 t=196.010 C5
    db 0,0,232,3,71,110,1 ; n3592 t=196.154 B4
    db 0,0,232,3,62,110,1 ; n3593 t=196.154 D4
    db 144,0,232,3,55,110,9 ; n3594 t=196.154 G3
    db 144,0,232,3,72,110,1 ; n3595 t=196.298 C5
    db 0,0,232,3,74,110,1 ; n3596 t=196.442 D5
    db 144,0,232,3,55,110,9 ; n3597 t=196.442 G3
    db 144,0,232,3,77,110,1 ; n3598 t=196.587 F5
    db 0,0,232,3,80,110,1 ; n3599 t=196.731 G#5
    db 144,0,232,3,55,110,9 ; n3600 t=196.731 G3
    db 144,0,232,3,71,110,1 ; n3601 t=196.875 B4
    db 0,0,232,3,80,110,1 ; n3602 t=197.019 G#5
    db 144,0,232,3,55,110,9 ; n3603 t=197.019 G3
    db 144,0,232,3,71,110,1 ; n3604 t=197.163 B4
    db 0,0,232,3,71,110,1 ; n3605 t=197.308 B4
    db 0,0,232,3,62,110,1 ; n3606 t=197.308 D4
    db 144,0,232,3,55,110,9 ; n3607 t=197.308 G3
    db 144,0,232,3,72,110,1 ; n3608 t=197.452 C5
    db 0,0,232,3,74,110,1 ; n3609 t=197.596 D5
    db 144,0,232,3,55,110,9 ; n3610 t=197.596 G3
    db 144,0,232,3,77,110,1 ; n3611 t=197.740 F5
    db 0,0,232,3,80,110,1 ; n3612 t=197.885 G#5
    db 144,0,232,3,55,110,9 ; n3613 t=197.885 G3
    db 144,0,232,3,71,110,1 ; n3614 t=198.029 B4
    db 0,0,232,3,80,110,1 ; n3615 t=198.173 G#5
    db 144,0,232,3,55,110,9 ; n3616 t=198.173 G3
    db 144,0,232,3,71,110,1 ; n3617 t=198.317 B4
    db 0,0,232,3,66,110,1 ; n3618 t=198.462 F#4
    db 0,0,232,3,57,110,2 ; n3619 t=198.462 A3
    db 144,0,232,3,55,110,9 ; n3620 t=198.462 G3
    db 144,0,232,3,67,110,1 ; n3621 t=198.606 G4
    db 0,0,232,3,69,110,1 ; n3622 t=198.750 A4
    db 144,0,232,3,55,110,9 ; n3623 t=198.750 G3
    db 144,0,232,3,72,110,1 ; n3624 t=198.894 C5
    db 0,0,232,3,75,110,1 ; n3625 t=199.038 D#5
    db 144,0,232,3,55,110,9 ; n3626 t=199.038 G3
    db 144,0,232,3,66,110,1 ; n3627 t=199.183 F#4
    db 0,0,232,3,75,110,1 ; n3628 t=199.327 D#5
    db 144,0,232,3,55,110,9 ; n3629 t=199.327 G3
    db 144,0,232,3,66,110,1 ; n3630 t=199.471 F#4
    db 0,0,232,3,66,110,1 ; n3631 t=199.615 F#4
    db 0,0,232,3,57,110,2 ; n3632 t=199.615 A3
    db 144,0,232,3,55,110,9 ; n3633 t=199.615 G3
    db 144,0,232,3,67,110,1 ; n3634 t=199.760 G4
    db 0,0,232,3,69,110,1 ; n3635 t=199.904 A4
    db 144,0,232,3,55,110,9 ; n3636 t=199.904 G3
    db 144,0,232,3,72,110,1 ; n3637 t=200.048 C5
    db 0,0,232,3,75,110,1 ; n3638 t=200.192 D#5
    db 144,0,232,3,55,110,9 ; n3639 t=200.192 G3
    db 144,0,232,3,66,110,1 ; n3640 t=200.337 F#4
    db 0,0,232,3,75,110,1 ; n3641 t=200.481 D#5
    db 144,0,232,3,55,110,9 ; n3642 t=200.481 G3
    db 144,0,232,3,66,110,1 ; n3643 t=200.625 F#4
    db 0,0,232,3,65,110,1 ; n3644 t=200.769 F4
    db 0,0,232,3,55,110,2 ; n3645 t=200.769 G3
    db 144,0,232,3,55,110,9 ; n3646 t=200.769 G3
    db 144,0,232,3,67,110,1 ; n3647 t=200.913 G4
    db 0,0,232,3,68,110,1 ; n3648 t=201.058 G#4
    db 144,0,232,3,55,110,9 ; n3649 t=201.058 G3
    db 144,0,232,3,71,110,1 ; n3650 t=201.202 B4
    db 0,0,232,3,74,110,1 ; n3651 t=201.346 D5
    db 144,0,232,3,55,110,9 ; n3652 t=201.346 G3
    db 144,0,232,3,65,110,1 ; n3653 t=201.490 F4
    db 0,0,232,3,74,110,1 ; n3654 t=201.635 D5
    db 144,0,232,3,55,110,9 ; n3655 t=201.635 G3
    db 144,0,232,3,65,110,1 ; n3656 t=201.779 F4
    db 0,0,232,3,65,110,1 ; n3657 t=201.923 F4
    db 0,0,232,3,55,110,2 ; n3658 t=201.923 G3
    db 144,0,232,3,55,110,9 ; n3659 t=201.923 G3
    db 144,0,232,3,67,110,1 ; n3660 t=202.067 G4
    db 0,0,232,3,68,110,1 ; n3661 t=202.212 G#4
    db 144,0,232,3,55,110,9 ; n3662 t=202.212 G3
    db 144,0,232,3,71,110,1 ; n3663 t=202.356 B4
    db 0,0,232,3,74,110,1 ; n3664 t=202.500 D5
    db 144,0,232,3,55,110,9 ; n3665 t=202.500 G3
    db 144,0,232,3,65,110,1 ; n3666 t=202.644 F4
    db 0,0,232,3,74,110,1 ; n3667 t=202.788 D5
    db 144,0,232,3,55,110,9 ; n3668 t=202.788 G3
    db 144,0,232,3,65,110,1 ; n3669 t=202.933 F4
    db 0,0,232,3,63,110,1 ; n3670 t=203.077 D#4
    db 0,0,232,3,55,110,2 ; n3671 t=203.077 G3
    db 144,0,232,3,55,110,9 ; n3672 t=203.077 G3
    db 144,0,232,3,65,110,1 ; n3673 t=203.221 F4
    db 0,0,232,3,67,110,1 ; n3674 t=203.365 G4
    db 144,0,232,3,55,110,9 ; n3675 t=203.365 G3
    db 144,0,232,3,71,110,1 ; n3676 t=203.510 B4
    db 0,0,232,3,72,110,1 ; n3677 t=203.654 C5
    db 144,0,232,3,55,110,9 ; n3678 t=203.654 G3
    db 144,0,232,3,63,110,1 ; n3679 t=203.798 D#4
    db 0,0,232,3,72,110,1 ; n3680 t=203.942 C5
    db 144,0,232,3,55,110,9 ; n3681 t=203.942 G3
    db 144,0,232,3,63,110,1 ; n3682 t=204.087 D#4
    db 0,0,232,3,63,110,1 ; n3683 t=204.231 D#4
    db 0,0,232,3,55,110,2 ; n3684 t=204.231 G3
    db 144,0,232,3,55,110,9 ; n3685 t=204.231 G3
    db 144,0,232,3,65,110,1 ; n3686 t=204.375 F4
    db 0,0,232,3,67,110,1 ; n3687 t=204.519 G4
    db 144,0,232,3,55,110,9 ; n3688 t=204.519 G3
    db 144,0,232,3,71,110,1 ; n3689 t=204.663 B4
    db 0,0,232,3,72,110,1 ; n3690 t=204.808 C5
    db 144,0,232,3,55,110,9 ; n3691 t=204.808 G3
    db 144,0,232,3,63,110,1 ; n3692 t=204.952 D#4
    db 0,0,232,3,72,110,1 ; n3693 t=205.096 C5
    db 144,0,232,3,55,110,9 ; n3694 t=205.096 G3
    db 144,0,232,3,63,110,1 ; n3695 t=205.240 D#4
    db 0,0,232,3,62,110,1 ; n3696 t=205.385 D4
    db 0,0,232,3,55,110,2 ; n3697 t=205.385 G3
    db 144,0,232,3,55,110,9 ; n3698 t=205.385 G3
    db 144,0,232,3,63,110,1 ; n3699 t=205.529 D#4
    db 0,0,232,3,65,110,1 ; n3700 t=205.673 F4
    db 144,0,232,3,55,110,9 ; n3701 t=205.673 G3
    db 144,0,232,3,71,110,1 ; n3702 t=205.817 B4
    db 0,0,232,3,72,110,1 ; n3703 t=205.962 C5
    db 144,0,232,3,55,110,9 ; n3704 t=205.962 G3
    db 144,0,232,3,62,110,1 ; n3705 t=206.106 D4
    db 0,0,232,3,72,110,1 ; n3706 t=206.250 C5
    db 144,0,232,3,55,110,9 ; n3707 t=206.250 G3
    db 144,0,232,3,62,110,1 ; n3708 t=206.394 D4
    db 0,0,232,3,62,110,1 ; n3709 t=206.538 D4
    db 0,0,232,3,55,110,2 ; n3710 t=206.538 G3
    db 144,0,232,3,55,110,9 ; n3711 t=206.538 G3
    db 144,0,232,3,63,110,1 ; n3712 t=206.683 D#4
    db 0,0,232,3,65,110,1 ; n3713 t=206.827 F4
    db 144,0,232,3,55,110,9 ; n3714 t=206.827 G3
    db 144,0,232,3,71,110,1 ; n3715 t=206.971 B4
    db 0,0,232,3,72,110,1 ; n3716 t=207.115 C5
    db 144,0,232,3,55,110,9 ; n3717 t=207.115 G3
    db 144,0,232,3,62,110,1 ; n3718 t=207.260 D4
    db 0,0,232,3,72,110,1 ; n3719 t=207.404 C5
    db 144,0,232,3,55,110,9 ; n3720 t=207.404 G3
    db 144,0,232,3,62,110,1 ; n3721 t=207.548 D4
    db 0,0,232,3,62,110,1 ; n3722 t=207.692 D4
    db 0,0,232,3,55,110,2 ; n3723 t=207.692 G3
    db 144,0,232,3,55,110,9 ; n3724 t=207.692 G3
    db 144,0,232,3,63,110,1 ; n3725 t=207.837 D#4
    db 0,0,232,3,65,110,1 ; n3726 t=207.981 F4
    db 144,0,232,3,55,110,9 ; n3727 t=207.981 G3
    db 144,0,232,3,68,110,1 ; n3728 t=208.125 G#4
    db 0,0,232,3,71,110,1 ; n3729 t=208.269 B4
    db 144,0,232,3,55,110,9 ; n3730 t=208.269 G3
    db 144,0,232,3,62,110,1 ; n3731 t=208.413 D4
    db 0,0,232,3,71,110,1 ; n3732 t=208.558 B4
    db 144,0,232,3,55,110,9 ; n3733 t=208.558 G3
    db 144,0,232,3,62,110,1 ; n3734 t=208.702 D4
    db 0,0,232,3,62,110,1 ; n3735 t=208.846 D4
    db 0,0,232,3,55,110,2 ; n3736 t=208.846 G3
    db 144,0,232,3,55,110,9 ; n3737 t=208.846 G3
    db 144,0,232,3,63,110,1 ; n3738 t=208.990 D#4
    db 0,0,232,3,65,110,1 ; n3739 t=209.135 F4
    db 144,0,232,3,55,110,9 ; n3740 t=209.135 G3
    db 144,0,232,3,68,110,1 ; n3741 t=209.279 G#4
    db 0,0,232,3,71,110,1 ; n3742 t=209.423 B4
    db 144,0,232,3,55,110,9 ; n3743 t=209.423 G3
    db 144,0,232,3,62,110,1 ; n3744 t=209.567 D4
    db 0,0,232,3,71,110,1 ; n3745 t=209.712 B4
    db 144,0,232,3,55,110,9 ; n3746 t=209.712 G3
    db 144,0,232,3,62,110,1 ; n3747 t=209.856 D4
    db 0,0,232,3,60,110,1 ; n3748 t=210.000 C4
    db 0,0,232,3,48,110,2 ; n3749 t=210.000 C3
    db 0,0,232,3,72,110,7 ; n3750 t=210.000 C5
    db 0,0,232,3,67,110,8 ; n3751 t=210.000 G4
    db 0,0,232,3,64,110,9 ; n3752 t=210.000 E4
    db 144,0,232,3,36,110,11 ; n3753 t=210.000 C2
    db 144,0,232,3,62,110,1 ; n3754 t=210.144 D4
    db 0,0,232,3,64,110,1 ; n3755 t=210.288 E4
    db 32,1,232,3,36,110,11 ; n3756 t=210.288 C2
    db 0,0,232,3,62,110,1 ; n3757 t=210.577 D4
    db 32,1,232,3,36,110,11 ; n3758 t=210.577 C2
    db 0,0,232,3,60,110,1 ; n3759 t=210.865 C4
    db 32,1,232,3,36,110,11 ; n3760 t=210.865 C2
    db 0,0,232,3,67,110,1 ; n3761 t=211.154 G4
    db 0,0,232,3,52,110,2 ; n3762 t=211.154 E3
    db 144,0,232,3,36,110,11 ; n3763 t=211.154 C2
    db 144,0,232,3,53,110,2 ; n3764 t=211.298 F3
    db 0,0,232,3,76,110,1 ; n3765 t=211.442 E5
    db 0,0,232,3,55,110,2 ; n3766 t=211.442 G3
    db 144,0,232,3,36,110,11 ; n3767 t=211.442 C2
    db 144,0,232,3,53,110,2 ; n3768 t=211.587 F3
    db 0,0,232,3,57,110,2 ; n3769 t=211.731 A3
    db 144,0,232,3,36,110,11 ; n3770 t=211.731 C2
    db 144,0,232,3,55,110,2 ; n3771 t=211.875 G3
    db 0,0,232,3,67,110,1 ; n3772 t=212.019 G4
    db 0,0,232,3,53,110,2 ; n3773 t=212.019 F3
    db 144,0,232,3,36,110,11 ; n3774 t=212.019 C2
    db 144,0,232,3,52,110,2 ; n3775 t=212.163 E3
    db 0,0,232,3,59,110,1 ; n3776 t=212.308 B3
    db 0,0,232,3,50,110,2 ; n3777 t=212.308 D3
    db 0,0,232,3,74,110,7 ; n3778 t=212.308 D5
    db 0,0,232,3,65,110,8 ; n3779 t=212.308 F4
    db 0,0,232,3,59,110,9 ; n3780 t=212.308 B3
    db 144,0,232,3,36,110,11 ; n3781 t=212.308 C2
    db 0,0,232,3,60,110,1 ; n3782 t=212.452 C4
    db 144,0,232,3,52,110,2 ; n3783 t=212.452 E3
    db 0,0,232,3,62,110,1 ; n3784 t=212.596 D4
    db 0,0,232,3,53,110,2 ; n3785 t=212.596 F3
    db 144,0,232,3,36,110,11 ; n3786 t=212.596 C2
    db 144,0,232,3,52,110,2 ; n3787 t=212.740 E3
    db 0,0,232,3,60,110,1 ; n3788 t=212.885 C4
    db 0,0,232,3,53,110,2 ; n3789 t=212.885 F3
    db 144,0,232,3,36,110,11 ; n3790 t=212.885 C2
    db 144,0,232,3,52,110,2 ; n3791 t=213.029 E3
    db 0,0,232,3,59,110,1 ; n3792 t=213.173 B3
    db 0,0,232,3,50,110,2 ; n3793 t=213.173 D3
    db 144,0,232,3,36,110,11 ; n3794 t=213.173 C2
    db 144,0,232,3,48,110,2 ; n3795 t=213.317 C3
    db 0,0,232,3,65,110,1 ; n3796 t=213.462 F4
    db 0,0,232,3,47,110,2 ; n3797 t=213.462 B2
    db 0,0,232,3,71,110,7 ; n3798 t=213.462 B4
    db 0,0,232,3,62,110,9 ; n3799 t=213.462 D4
    db 144,0,232,3,36,110,11 ; n3800 t=213.462 C2
    db 144,0,232,3,48,110,2 ; n3801 t=213.606 C3
    db 0,0,232,3,74,110,1 ; n3802 t=213.750 D5
    db 0,0,232,3,47,110,2 ; n3803 t=213.750 B2
    db 144,0,232,3,36,110,11 ; n3804 t=213.750 C2
    db 144,0,232,3,45,110,2 ; n3805 t=213.894 A2
    db 0,0,232,3,43,110,2 ; n3806 t=214.038 G2
    db 144,0,232,3,36,110,11 ; n3807 t=214.038 C2
    db 144,0,232,3,41,110,2 ; n3808 t=214.183 F2
    db 0,0,232,3,65,110,1 ; n3809 t=214.327 F4
    db 0,0,232,3,40,110,2 ; n3810 t=214.327 E2
    db 144,0,232,3,36,110,11 ; n3811 t=214.327 C2
    db 144,0,232,3,38,110,2 ; n3812 t=214.471 D2
    db 0,0,232,3,64,110,1 ; n3813 t=214.615 E4
    db 0,0,232,3,36,110,2 ; n3814 t=214.615 C2
    db 0,0,232,3,72,110,7 ; n3815 t=214.615 C5
    db 0,0,232,3,67,110,8 ; n3816 t=214.615 G4
    db 0,0,232,3,64,110,9 ; n3817 t=214.615 E4
    db 144,0,232,3,36,110,11 ; n3818 t=214.615 C2
    db 144,0,232,3,65,110,1 ; n3819 t=214.760 F4
    db 0,0,232,3,67,110,1 ; n3820 t=214.904 G4
    db 32,1,232,3,60,110,3 ; n3821 t=214.904 C4
    db 0,0,232,3,67,110,1 ; n3822 t=215.192 G4
    db 144,0,232,3,64,110,3 ; n3823 t=215.192 E4
    db 144,0,232,3,69,110,1 ; n3824 t=215.337 A4
    db 0,0,232,3,70,110,1 ; n3825 t=215.481 A#4
    db 32,1,232,3,67,110,3 ; n3826 t=215.481 G4
    db 0,0,232,3,61,110,1 ; n3827 t=215.769 C#4
    db 32,1,232,3,57,110,3 ; n3828 t=215.769 A3
    db 0,0,232,3,76,110,1 ; n3829 t=216.058 E5
    db 0,0,232,3,61,110,2 ; n3830 t=216.058 C#4
    db 0,0,232,3,57,110,2 ; n3831 t=216.058 A3
    db 0,0,232,3,76,110,3 ; n3832 t=216.058 E5
    db 0,0,232,3,67,110,4 ; n3833 t=216.058 G4
    db 0,0,232,3,61,110,5 ; n3834 t=216.058 C#4
    db 144,0,232,3,45,110,6 ; n3835 t=216.058 A2
    db 0,0,232,3,74,110,1 ; n3836 t=216.202 D5
    db 144,0,232,3,74,110,3 ; n3837 t=216.202 D5
    db 0,0,232,3,73,110,1 ; n3838 t=216.346 C#5
    db 0,0,232,3,62,110,2 ; n3839 t=216.346 D4
    db 0,0,232,3,59,110,2 ; n3840 t=216.346 B3
    db 0,0,232,3,73,110,3 ; n3841 t=216.346 C#5
    db 0,0,232,3,65,110,4 ; n3842 t=216.346 F4
    db 0,0,232,3,62,110,5 ; n3843 t=216.346 D4
    db 144,0,232,3,47,110,6 ; n3844 t=216.346 B2
    db 0,0,232,3,71,110,1 ; n3845 t=216.490 B4
    db 144,0,232,3,71,110,3 ; n3846 t=216.490 B4
    db 0,0,232,3,69,110,1 ; n3847 t=216.635 A4
    db 0,0,232,3,64,110,2 ; n3848 t=216.635 E4
    db 0,0,232,3,61,110,2 ; n3849 t=216.635 C#4
    db 0,0,232,3,69,110,3 ; n3850 t=216.635 A4
    db 0,0,232,3,64,110,4 ; n3851 t=216.635 E4
    db 0,0,232,3,64,110,5 ; n3852 t=216.635 E4
    db 144,0,232,3,49,110,6 ; n3853 t=216.635 C#3
    db 0,0,232,3,67,110,1 ; n3854 t=216.779 G4
    db 144,0,232,3,67,110,3 ; n3855 t=216.779 G4
    db 0,0,232,3,65,110,1 ; n3856 t=216.923 F4
    db 0,0,232,3,62,110,2 ; n3857 t=216.923 D4
    db 0,0,232,3,65,110,3 ; n3858 t=216.923 F4
    db 0,0,232,3,62,110,4 ; n3859 t=216.923 D4
    db 0,0,232,3,57,110,5 ; n3860 t=216.923 A3
    db 144,0,232,3,50,110,6 ; n3861 t=216.923 D3
    db 144,0,232,3,62,110,1 ; n3862 t=217.067 D4
    db 0,0,232,3,65,110,1 ; n3863 t=217.212 F4
    db 144,0,232,3,62,110,3 ; n3864 t=217.212 D4
    db 144,0,232,3,69,110,1 ; n3865 t=217.356 A4
    db 0,0,232,3,72,110,1 ; n3866 t=217.500 C5
    db 144,0,232,3,66,110,3 ; n3867 t=217.500 F#4
    db 144,0,232,3,69,110,1 ; n3868 t=217.644 A4
    db 0,0,232,3,72,110,1 ; n3869 t=217.788 C5
    db 144,0,232,3,69,110,3 ; n3870 t=217.788 A4
    db 144,0,232,3,75,110,1 ; n3871 t=217.933 D#5
    db 0,0,232,3,66,110,1 ; n3872 t=218.077 F#4
    db 32,1,232,3,72,110,3 ; n3873 t=218.077 C5
    db 0,0,232,3,81,110,1 ; n3874 t=218.365 A5
    db 0,0,232,3,66,110,2 ; n3875 t=218.365 F#4
    db 0,0,232,3,62,110,2 ; n3876 t=218.365 D4
    db 0,0,232,3,81,110,3 ; n3877 t=218.365 A5
    db 0,0,232,3,72,110,4 ; n3878 t=218.365 C5
    db 0,0,232,3,66,110,5 ; n3879 t=218.365 F#4
    db 144,0,232,3,50,110,6 ; n3880 t=218.365 D3
    db 0,0,232,3,79,110,1 ; n3881 t=218.510 G5
    db 144,0,232,3,79,110,3 ; n3882 t=218.510 G5
    db 0,0,232,3,78,110,1 ; n3883 t=218.654 F#5
    db 0,0,232,3,67,110,2 ; n3884 t=218.654 G4
    db 0,0,232,3,64,110,2 ; n3885 t=218.654 E4
    db 0,0,232,3,78,110,3 ; n3886 t=218.654 F#5
    db 0,0,232,3,70,110,4 ; n3887 t=218.654 A#4
    db 0,0,232,3,67,110,5 ; n3888 t=218.654 G4
    db 144,0,232,3,52,110,6 ; n3889 t=218.654 E3
    db 0,0,232,3,76,110,1 ; n3890 t=218.798 E5
    db 144,0,232,3,76,110,3 ; n3891 t=218.798 E5
    db 0,0,232,3,74,110,1 ; n3892 t=218.942 D5
    db 0,0,232,3,69,110,2 ; n3893 t=218.942 A4
    db 0,0,232,3,66,110,2 ; n3894 t=218.942 F#4
    db 0,0,232,3,74,110,3 ; n3895 t=218.942 D5
    db 0,0,232,3,69,110,4 ; n3896 t=218.942 A4
    db 0,0,232,3,69,110,5 ; n3897 t=218.942 A4
    db 144,0,232,3,54,110,6 ; n3898 t=218.942 F#3
    db 0,0,232,3,72,110,1 ; n3899 t=219.087 C5
    db 144,0,232,3,72,110,3 ; n3900 t=219.087 C5
    db 0,0,232,3,70,110,1 ; n3901 t=219.231 A#4
    db 0,0,232,3,67,110,2 ; n3902 t=219.231 G4
    db 0,0,232,3,55,110,2 ; n3903 t=219.231 G3
    db 0,0,232,3,70,110,3 ; n3904 t=219.231 A#4
    db 0,0,232,3,67,110,4 ; n3905 t=219.231 G4
    db 0,0,232,3,62,110,5 ; n3906 t=219.231 D4
    db 144,0,232,3,55,110,6 ; n3907 t=219.231 G3
    db 144,0,232,3,66,110,2 ; n3908 t=219.375 F#4
    db 0,0,232,3,67,110,2 ; n3909 t=219.519 G4
    db 144,0,232,3,54,110,11 ; n3910 t=219.519 F#3
    db 144,0,232,3,69,110,1 ; n3911 t=219.663 A4
    db 0,0,232,3,70,110,1 ; n3912 t=219.808 A#4
    db 144,0,232,3,55,110,11 ; n3913 t=219.808 G3
    db 144,0,232,3,74,110,1 ; n3914 t=219.952 D5
    db 0,0,232,3,78,110,1 ; n3915 t=220.096 F#5
    db 144,0,232,3,57,110,11 ; n3916 t=220.096 A3
    db 144,0,232,3,79,110,1 ; n3917 t=220.240 G5
    db 0,0,232,3,70,110,1 ; n3918 t=220.385 A#4
    db 0,0,232,3,67,110,2 ; n3919 t=220.385 G4
    db 0,0,232,3,58,110,2 ; n3920 t=220.385 A#3
    db 144,0,232,3,58,110,11 ; n3921 t=220.385 A#3
    db 144,0,232,3,66,110,2 ; n3922 t=220.529 F#4
    db 0,0,232,3,67,110,2 ; n3923 t=220.673 G4
    db 0,0,232,3,74,110,7 ; n3924 t=220.673 D5
    db 0,0,232,3,70,110,8 ; n3925 t=220.673 A#4
    db 0,0,232,3,70,110,9 ; n3926 t=220.673 A#4
    db 144,0,232,3,62,110,11 ; n3927 t=220.673 D4
    db 144,0,232,3,69,110,1 ; n3928 t=220.817 A4
    db 0,0,232,3,70,110,1 ; n3929 t=220.962 A#4
    db 0,0,232,3,79,110,7 ; n3930 t=220.962 G5
    db 0,0,232,3,74,110,8 ; n3931 t=220.962 D5
    db 0,0,232,3,67,110,9 ; n3932 t=220.962 G4
    db 144,0,232,3,58,110,11 ; n3933 t=220.962 A#3
    db 144,0,232,3,74,110,1 ; n3934 t=221.106 D5
    db 0,0,232,3,78,110,1 ; n3935 t=221.250 F#5
    db 0,0,232,3,82,110,7 ; n3936 t=221.250 A#5
    db 0,0,232,3,70,110,8 ; n3937 t=221.250 A#4
    db 0,0,232,3,62,110,9 ; n3938 t=221.250 D4
    db 144,0,232,3,55,110,11 ; n3939 t=221.250 G3
    db 144,0,232,3,79,110,1 ; n3940 t=221.394 G5
    db 0,0,232,3,72,110,1 ; n3941 t=221.538 C5
    db 0,0,232,3,57,110,2 ; n3942 t=221.538 A3
    db 0,0,232,3,67,110,2 ; n3943 t=221.538 G4
    db 0,0,232,3,72,110,7 ; n3944 t=221.538 C5
    db 0,0,232,3,63,110,8 ; n3945 t=221.538 D#4
    db 0,0,232,3,69,110,9 ; n3946 t=221.538 A4
    db 144,0,232,3,57,110,11 ; n3947 t=221.538 A3
    db 144,0,232,3,70,110,1 ; n3948 t=221.683 A#4
    db 0,0,232,3,72,110,1 ; n3949 t=221.827 C5
    db 144,0,232,3,55,110,11 ; n3950 t=221.827 G3
    db 144,0,232,3,74,110,1 ; n3951 t=221.971 D5
    db 0,0,232,3,75,110,1 ; n3952 t=222.115 D#5
    db 144,0,232,3,57,110,11 ; n3953 t=222.115 A3
    db 144,0,232,3,78,110,1 ; n3954 t=222.260 F#5
    db 0,0,232,3,79,110,1 ; n3955 t=222.404 G5
    db 144,0,232,3,58,110,11 ; n3956 t=222.404 A#3
    db 144,0,232,3,81,110,1 ; n3957 t=222.548 A5
    db 0,0,232,3,72,110,1 ; n3958 t=222.692 C5
    db 0,0,232,3,60,110,2 ; n3959 t=222.692 C4
    db 0,0,232,3,67,110,2 ; n3960 t=222.692 G4
    db 144,0,232,3,60,110,11 ; n3961 t=222.692 C4
    db 144,0,232,3,70,110,1 ; n3962 t=222.837 A#4
    db 0,0,232,3,72,110,1 ; n3963 t=222.981 C5
    db 0,0,232,3,75,110,7 ; n3964 t=222.981 D#5
    db 0,0,232,3,72,110,8 ; n3965 t=222.981 C5
    db 0,0,232,3,72,110,9 ; n3966 t=222.981 C5
    db 144,0,232,3,63,110,11 ; n3967 t=222.981 D#4
    db 144,0,232,3,74,110,1 ; n3968 t=223.125 D5
    db 0,0,232,3,75,110,1 ; n3969 t=223.269 D#5
    db 0,0,232,3,81,110,7 ; n3970 t=223.269 A5
    db 0,0,232,3,75,110,8 ; n3971 t=223.269 D#5
    db 0,0,232,3,69,110,9 ; n3972 t=223.269 A4
    db 144,0,232,3,60,110,11 ; n3973 t=223.269 C4
    db 144,0,232,3,78,110,1 ; n3974 t=223.413 F#5
    db 0,0,232,3,79,110,1 ; n3975 t=223.558 G5
    db 0,0,232,3,84,110,7 ; n3976 t=223.558 C6
    db 0,0,232,3,72,110,8 ; n3977 t=223.558 C5
    db 0,0,232,3,60,110,9 ; n3978 t=223.558 C4
    db 144,0,232,3,57,110,11 ; n3979 t=223.558 A3
    db 144,0,232,3,81,110,1 ; n3980 t=223.702 A5
    db 0,0,232,3,74,110,1 ; n3981 t=223.846 D5
    db 0,0,232,3,67,110,2 ; n3982 t=223.846 G4
    db 0,0,232,3,58,110,2 ; n3983 t=223.846 A#3
    db 0,0,232,3,74,110,7 ; n3984 t=223.846 D5
    db 0,0,232,3,70,110,8 ; n3985 t=223.846 A#4
    db 0,0,232,3,67,110,9 ; n3986 t=223.846 G4
    db 144,0,232,3,58,110,11 ; n3987 t=223.846 A#3
    db 144,0,232,3,72,110,1 ; n3988 t=223.990 C5
    db 0,0,232,3,74,110,1 ; n3989 t=224.135 D5
    db 144,0,232,3,60,110,11 ; n3990 t=224.135 C4
    db 144,0,232,3,78,110,1 ; n3991 t=224.279 F#5
    db 0,0,232,3,79,110,1 ; n3992 t=224.423 G5
    db 144,0,232,3,58,110,11 ; n3993 t=224.423 A#3
    db 144,0,232,3,81,110,1 ; n3994 t=224.567 A5
    db 0,0,232,3,82,110,1 ; n3995 t=224.712 A#5
    db 144,0,232,3,57,110,11 ; n3996 t=224.712 A3
    db 144,0,232,3,79,110,1 ; n3997 t=224.856 G5
    db 0,0,232,3,74,110,1 ; n3998 t=225.000 D5
    db 0,0,232,3,67,110,2 ; n3999 t=225.000 G4
    db 0,0,232,3,58,110,2 ; n4000 t=225.000 A#3
    db 144,0,232,3,55,110,11 ; n4001 t=225.000 G3
    db 144,0,232,3,72,110,1 ; n4002 t=225.144 C5
    db 0,0,232,3,74,110,1 ; n4003 t=225.288 D5
    db 0,0,232,3,74,110,7 ; n4004 t=225.288 D5
    db 0,0,232,3,67,110,8 ; n4005 t=225.288 G4
    db 0,0,232,3,58,110,9 ; n4006 t=225.288 A#3
    db 144,0,232,3,58,110,11 ; n4007 t=225.288 A#3
    db 144,0,232,3,78,110,1 ; n4008 t=225.433 F#5
    db 0,0,232,3,79,110,1 ; n4009 t=225.577 G5
    db 0,0,232,3,70,110,7 ; n4010 t=225.577 A#4
    db 0,0,232,3,62,110,8 ; n4011 t=225.577 D4
    db 0,0,232,3,62,110,9 ; n4012 t=225.577 D4
    db 144,0,232,3,55,110,11 ; n4013 t=225.577 G3
    db 144,0,232,3,81,110,1 ; n4014 t=225.721 A5
    db 0,0,232,3,82,110,1 ; n4015 t=225.865 A#5
    db 0,0,232,3,67,110,7 ; n4016 t=225.865 G4
    db 0,0,232,3,70,110,8 ; n4017 t=225.865 A#4
    db 0,0,232,3,67,110,9 ; n4018 t=225.865 G4
    db 144,0,232,3,51,110,11 ; n4019 t=225.865 D#3
    db 144,0,232,3,79,110,1 ; n4020 t=226.010 G5
    db 0,0,232,3,75,110,1 ; n4021 t=226.154 D#5
    db 0,0,232,3,67,110,2 ; n4022 t=226.154 G4
    db 0,0,232,3,60,110,2 ; n4023 t=226.154 C4
    db 0,0,232,3,75,110,7 ; n4024 t=226.154 D#5
    db 0,0,232,3,72,110,8 ; n4025 t=226.154 C5
    db 0,0,232,3,67,110,9 ; n4026 t=226.154 G4
    db 144,0,232,3,48,110,11 ; n4027 t=226.154 C3
    db 144,0,232,3,66,110,2 ; n4028 t=226.298 F#4
    db 0,0,232,3,67,110,2 ; n4029 t=226.442 G4
    db 144,0,232,3,55,110,11 ; n4030 t=226.442 G3
    db 144,0,232,3,69,110,1 ; n4031 t=226.587 A4
    db 0,0,232,3,70,110,1 ; n4032 t=226.731 A#4
    db 144,0,232,3,51,110,11 ; n4033 t=226.731 D#3
    db 144,0,232,3,72,110,1 ; n4034 t=226.875 C5
    db 0,0,232,3,74,110,1 ; n4035 t=227.019 D5
    db 144,0,232,3,50,110,11 ; n4036 t=227.019 D3
    db 144,0,232,3,75,110,1 ; n4037 t=227.163 D#5
    db 0,0,232,3,75,110,1 ; n4038 t=227.308 D#5
    db 0,0,232,3,67,110,2 ; n4039 t=227.308 G4
    db 0,0,232,3,60,110,2 ; n4040 t=227.308 C4
    db 144,0,232,3,48,110,11 ; n4041 t=227.308 C3
    db 144,0,232,3,66,110,2 ; n4042 t=227.452 F#4
    db 0,0,232,3,67,110,2 ; n4043 t=227.596 G4
    db 0,0,232,3,75,110,7 ; n4044 t=227.596 D#5
    db 0,0,232,3,72,110,8 ; n4045 t=227.596 C5
    db 0,0,232,3,63,110,9 ; n4046 t=227.596 D#4
    db 144,0,232,3,43,110,11 ; n4047 t=227.596 G2
    db 144,0,232,3,69,110,1 ; n4048 t=227.740 A4
    db 0,0,232,3,70,110,1 ; n4049 t=227.885 A#4
    db 0,0,232,3,72,110,7 ; n4050 t=227.885 C5
    db 0,0,232,3,67,110,8 ; n4051 t=227.885 G4
    db 0,0,232,3,67,110,9 ; n4052 t=227.885 G4
    db 144,0,232,3,39,110,11 ; n4053 t=227.885 D#2
    db 144,0,232,3,72,110,1 ; n4054 t=228.029 C5
    db 0,0,232,3,74,110,1 ; n4055 t=228.173 D5
    db 0,0,232,3,69,110,7 ; n4056 t=228.173 A4
    db 0,0,232,3,63,110,8 ; n4057 t=228.173 D#4
    db 0,0,232,3,72,110,9 ; n4058 t=228.173 C5
    db 144,0,232,3,36,110,11 ; n4059 t=228.173 C2
    db 144,0,232,3,75,110,1 ; n4060 t=228.317 D#5
    db 0,0,232,3,74,110,1 ; n4061 t=228.462 D5
    db 0,0,232,3,60,110,2 ; n4062 t=228.462 C4
    db 0,0,232,3,66,110,2 ; n4063 t=228.462 F#4
    db 0,0,232,3,66,110,7 ; n4064 t=228.462 F#4
    db 0,0,232,3,57,110,8 ; n4065 t=228.462 A3
    db 0,0,232,3,74,110,9 ; n4066 t=228.462 D5
    db 144,0,232,3,48,110,11 ; n4067 t=228.462 C3
    db 144,0,232,3,64,110,2 ; n4068 t=228.606 E4
    db 0,0,232,3,66,110,2 ; n4069 t=228.750 F#4
    db 144,0,232,3,62,110,8 ; n4070 t=228.750 D4
    db 144,0,232,3,69,110,1 ; n4071 t=228.894 A4
    db 0,0,232,3,72,110,1 ; n4072 t=229.038 C5
    db 144,0,232,3,66,110,8 ; n4073 t=229.038 F#4
    db 144,0,232,3,69,110,1 ; n4074 t=229.183 A4
    db 0,0,232,3,66,110,1 ; n4075 t=229.327 F#4
    db 144,0,232,3,69,110,8 ; n4076 t=229.327 A4
    db 144,0,232,3,62,110,1 ; n4077 t=229.471 D4
    db 0,0,232,3,74,110,1 ; n4078 t=229.615 D5
    db 0,0,232,3,66,110,2 ; n4079 t=229.615 F#4
    db 0,0,232,3,60,110,2 ; n4080 t=229.615 C4
    db 0,0,232,3,72,110,8 ; n4081 t=229.615 C5
    db 0,0,232,3,69,110,9 ; n4082 t=229.615 A4
    db 144,0,232,3,48,110,11 ; n4083 t=229.615 C3
    db 144,0,232,3,64,110,2 ; n4084 t=229.760 E4
    db 0,0,232,3,66,110,2 ; n4085 t=229.904 F#4
    db 144,0,232,3,62,110,7 ; n4086 t=229.904 D4
    db 144,0,232,3,69,110,1 ; n4087 t=230.048 A4
    db 0,0,232,3,72,110,1 ; n4088 t=230.192 C5
    db 144,0,232,3,66,110,7 ; n4089 t=230.192 F#4
    db 144,0,232,3,69,110,1 ; n4090 t=230.337 A4
    db 0,0,232,3,66,110,1 ; n4091 t=230.481 F#4
    db 144,0,232,3,69,110,7 ; n4092 t=230.481 A4
    db 144,0,232,3,62,110,1 ; n4093 t=230.625 D4
    db 0,0,232,3,70,110,1 ; n4094 t=230.769 A#4
    db 0,0,232,3,61,110,2 ; n4095 t=230.769 C#4
    db 0,0,232,3,67,110,2 ; n4096 t=230.769 G4
    db 0,0,232,3,76,110,7 ; n4097 t=230.769 E5
    db 0,0,232,3,67,110,9 ; n4098 t=230.769 G4
    db 144,0,232,3,49,110,11 ; n4099 t=230.769 C#3
    db 0,0,232,3,69,110,1 ; n4100 t=230.913 A4
    db 144,0,232,3,66,110,2 ; n4101 t=230.913 F#4
    db 0,0,232,3,70,110,1 ; n4102 t=231.058 A#4
    db 0,0,232,3,67,110,2 ; n4103 t=231.058 G4
    db 144,0,232,3,70,110,8 ; n4104 t=231.058 A#4
    db 144,0,232,3,61,110,2 ; n4105 t=231.202 C#4
    db 0,0,232,3,64,110,2 ; n4106 t=231.346 E4
    db 144,0,232,3,67,110,8 ; n4107 t=231.346 G4
    db 144,0,232,3,67,110,2 ; n4108 t=231.490 G4
    db 0,0,232,3,70,110,1 ; n4109 t=231.635 A#4
    db 144,0,232,3,64,110,8 ; n4110 t=231.635 E4
    db 0,0,232,3,69,110,1 ; n4111 t=231.779 A4
    db 144,0,232,3,66,110,2 ; n4112 t=231.779 F#4
    db 0,0,232,3,70,110,1 ; n4113 t=231.923 A#4
    db 0,0,232,3,61,110,2 ; n4114 t=231.923 C#4
    db 0,0,232,3,67,110,2 ; n4115 t=231.923 G4
    db 0,0,232,3,60,110,8 ; n4116 t=231.923 C4
    db 0,0,232,3,64,110,9 ; n4117 t=231.923 E4
    db 144,0,232,3,49,110,11 ; n4118 t=231.923 C#3
    db 0,0,232,3,69,110,1 ; n4119 t=232.067 A4
    db 144,0,232,3,66,110,2 ; n4120 t=232.067 F#4
    db 0,0,232,3,70,110,1 ; n4121 t=232.212 A#4
    db 0,0,232,3,67,110,2 ; n4122 t=232.212 G4
    db 144,0,232,3,70,110,7 ; n4123 t=232.212 A#4
    db 144,0,232,3,61,110,2 ; n4124 t=232.356 C#4
    db 0,0,232,3,64,110,2 ; n4125 t=232.500 E4
    db 144,0,232,3,67,110,7 ; n4126 t=232.500 G4
    db 144,0,232,3,67,110,2 ; n4127 t=232.644 G4
    db 0,0,232,3,70,110,1 ; n4128 t=232.788 A#4
    db 72,0,232,3,64,110,7 ; n4129 t=232.788 E4
    db 72,0,232,3,69,110,1 ; n4130 t=232.861 A4
    db 144,0,232,3,67,110,1 ; n4131 t=232.933 G4
    db 0,0,232,3,72,110,1 ; n4132 t=233.077 C5
    db 0,0,232,3,63,110,2 ; n4133 t=233.077 D#4
    db 0,0,232,3,66,110,2 ; n4134 t=233.077 F#4
    db 0,0,232,3,57,110,7 ; n4135 t=233.077 A3
    db 0,0,232,3,60,110,9 ; n4136 t=233.077 C4
    db 144,0,232,3,51,110,11 ; n4137 t=233.077 D#3
    db 144,0,232,3,70,110,1 ; n4138 t=233.221 A#4
    db 0,0,232,3,72,110,1 ; n4139 t=233.365 C5
    db 144,0,232,3,69,110,8 ; n4140 t=233.365 A4
    db 144,0,232,3,57,110,2 ; n4141 t=233.510 A3
    db 0,0,232,3,60,110,2 ; n4142 t=233.654 C4
    db 144,0,232,3,66,110,8 ; n4143 t=233.654 F#4
    db 144,0,232,3,63,110,2 ; n4144 t=233.798 D#4
    db 0,0,232,3,66,110,1 ; n4145 t=233.942 F#4
    db 144,0,232,3,60,110,8 ; n4146 t=233.942 C4
    db 144,0,232,3,69,110,1 ; n4147 t=234.087 A4
    db 0,0,232,3,72,110,1 ; n4148 t=234.231 C5
    db 0,0,232,3,63,110,2 ; n4149 t=234.231 D#4
    db 0,0,232,3,66,110,2 ; n4150 t=234.231 F#4
    db 0,0,232,3,55,110,8 ; n4151 t=234.231 G3
    db 0,0,232,3,63,110,9 ; n4152 t=234.231 D#4
    db 144,0,232,3,51,110,11 ; n4153 t=234.231 D#3
    db 144,0,232,3,70,110,1 ; n4154 t=234.375 A#4
    db 0,0,232,3,72,110,1 ; n4155 t=234.519 C5
    db 144,0,232,3,72,110,7 ; n4156 t=234.519 C5
    db 144,0,232,3,57,110,2 ; n4157 t=234.663 A3
    db 0,0,232,3,60,110,2 ; n4158 t=234.808 C4
    db 144,0,232,3,69,110,7 ; n4159 t=234.808 A4
    db 144,0,232,3,66,110,2 ; n4160 t=234.952 F#4
    db 0,0,232,3,69,110,2 ; n4161 t=235.096 A4
    db 144,0,232,3,66,110,7 ; n4162 t=235.096 F#4
    db 144,0,232,3,72,110,1 ; n4163 t=235.240 C5
    db 0,0,232,3,78,110,1 ; n4164 t=235.385 F#5
    db 0,0,232,3,62,110,2 ; n4165 t=235.385 D4
    db 0,0,232,3,72,110,2 ; n4166 t=235.385 C5
    db 0,0,232,3,62,110,7 ; n4167 t=235.385 D4
    db 0,0,232,3,57,110,9 ; n4168 t=235.385 A3
    db 144,0,232,3,50,110,11 ; n4169 t=235.385 D3
    db 144,0,232,3,76,110,1 ; n4170 t=235.529 E5
    db 0,0,232,3,78,110,1 ; n4171 t=235.673 F#5
    db 144,0,232,3,78,110,8 ; n4172 t=235.673 F#5
    db 144,0,232,3,62,110,2 ; n4173 t=235.817 D4
    db 0,0,232,3,66,110,2 ; n4174 t=235.962 F#4
    db 144,0,232,3,72,110,8 ; n4175 t=235.962 C5
    db 144,0,232,3,69,110,2 ; n4176 t=236.106 A4
    db 0,0,232,3,72,110,2 ; n4177 t=236.250 C5
    db 144,0,232,3,69,110,8 ; n4178 t=236.250 A4
    db 144,0,232,3,78,110,1 ; n4179 t=236.394 F#5
    db 0,0,232,3,81,110,1 ; n4180 t=236.538 A5
    db 0,0,232,3,62,110,2 ; n4181 t=236.538 D4
    db 0,0,232,3,72,110,2 ; n4182 t=236.538 C5
    db 0,0,232,3,62,110,8 ; n4183 t=236.538 D4
    db 0,0,232,3,66,110,9 ; n4184 t=236.538 F#4
    db 144,0,232,3,50,110,11 ; n4185 t=236.538 D3
    db 144,0,232,3,79,110,1 ; n4186 t=236.683 G5
    db 0,0,232,3,81,110,1 ; n4187 t=236.827 A5
    db 144,0,232,3,81,110,7 ; n4188 t=236.827 A5
    db 144,0,232,3,62,110,2 ; n4189 t=236.971 D4
    db 0,0,232,3,69,110,2 ; n4190 t=237.115 A4
    db 144,0,232,3,78,110,7 ; n4191 t=237.115 F#5
    db 144,0,232,3,72,110,2 ; n4192 t=237.260 C5
    db 0,0,232,3,78,110,1 ; n4193 t=237.404 F#5
    db 144,0,232,3,74,110,7 ; n4194 t=237.404 D5
    db 144,0,232,3,81,110,1 ; n4195 t=237.548 A5
    db 0,0,232,3,84,110,1 ; n4196 t=237.692 C6
    db 144,0,232,3,66,110,7 ; n4197 t=237.692 F#4
    db 144,0,232,3,81,110,1 ; n4198 t=237.837 A5
    db 0,0,232,3,82,110,1 ; n4199 t=237.981 A#5
    db 0,0,232,3,74,110,2 ; n4200 t=237.981 D5
    db 144,0,232,3,62,110,11 ; n4201 t=237.981 D4
    db 0,0,232,3,78,110,1 ; n4202 t=238.125 F#5
    db 144,0,232,3,69,110,2 ; n4203 t=238.125 A4
    db 0,0,232,3,79,110,1 ; n4204 t=238.269 G5
    db 0,0,232,3,70,110,2 ; n4205 t=238.269 A#4
    db 144,0,232,3,58,110,11 ; n4206 t=238.269 A#3
    db 0,0,232,3,74,110,1 ; n4207 t=238.413 D5
    db 144,0,232,3,66,110,2 ; n4208 t=238.413 F#4
    db 0,0,232,3,75,110,1 ; n4209 t=238.558 D#5
    db 0,0,232,3,67,110,2 ; n4210 t=238.558 G4
    db 144,0,232,3,55,110,11 ; n4211 t=238.558 G3
    db 0,0,232,3,71,110,1 ; n4212 t=238.702 B4
    db 144,0,232,3,62,110,2 ; n4213 t=238.702 D4
    db 0,0,232,3,72,110,1 ; n4214 t=238.846 C5
    db 0,0,232,3,63,110,2 ; n4215 t=238.846 D#4
    db 144,0,232,3,51,110,11 ; n4216 t=238.846 D#3
    db 0,0,232,3,81,110,1 ; n4217 t=238.990 A5
    db 144,0,232,3,62,110,2 ; n4218 t=238.990 D4
    db 0,0,232,3,78,110,1 ; n4219 t=239.135 F#5
    db 0,0,232,3,63,110,2 ; n4220 t=239.135 D#4
    db 144,0,232,3,48,110,11 ; n4221 t=239.135 C3
    db 0,0,232,3,79,110,1 ; n4222 t=239.279 G5
    db 144,0,232,3,60,110,2 ; n4223 t=239.279 C4
    db 0,0,232,3,70,110,1 ; n4224 t=239.423 A#4
    db 0,0,232,3,62,110,2 ; n4225 t=239.423 D4
    db 144,0,232,3,50,110,11 ; n4226 t=239.423 D3
    db 144,0,232,3,79,110,1 ; n4227 t=239.567 G5
    db 0,0,232,3,69,110,1 ; n4228 t=239.712 A4
    db 0,0,232,3,50,110,2 ; n4229 t=239.712 D3
    db 144,0,232,3,38,110,11 ; n4230 t=239.712 D2
    db 144,0,232,3,78,110,1 ; n4231 t=239.856 F#5
    db 0,0,232,3,79,110,1 ; n4232 t=240.000 G5
    db 0,0,232,3,55,110,2 ; n4233 t=240.000 G3
    db 0,0,232,3,67,110,3 ; n4234 t=240.000 G4
    db 0,0,232,3,67,110,4 ; n4235 t=240.000 G4
    db 0,0,232,3,58,110,5 ; n4236 t=240.000 A#3
    db 144,0,232,3,43,110,11 ; n4237 t=240.000 G2
    db 0,0,232,3,69,110,3 ; n4238 t=240.144 A4
    db 0,0,232,3,69,110,4 ; n4239 t=240.144 A4
    db 144,0,232,3,60,110,5 ; n4240 t=240.144 C4
    db 0,0,232,3,70,110,3 ; n4241 t=240.288 A#4
    db 0,0,232,3,70,110,4 ; n4242 t=240.288 A#4
    db 32,1,232,3,62,110,5 ; n4243 t=240.288 D4
    db 0,0,232,3,69,110,3 ; n4244 t=240.577 A4
    db 0,0,232,3,69,110,4 ; n4245 t=240.577 A4
    db 32,1,232,3,60,110,5 ; n4246 t=240.577 C4
    db 0,0,232,3,67,110,3 ; n4247 t=240.865 G4
    db 0,0,232,3,67,110,4 ; n4248 t=240.865 G4
    db 32,1,232,3,58,110,5 ; n4249 t=240.865 A#3
    db 0,0,232,3,82,110,1 ; n4250 t=241.154 A#5
    db 0,0,232,3,55,110,2 ; n4251 t=241.154 G3
    db 0,0,232,3,74,110,3 ; n4252 t=241.154 D5
    db 0,0,232,3,74,110,4 ; n4253 t=241.154 D5
    db 0,0,232,3,67,110,5 ; n4254 t=241.154 G4
    db 144,0,232,3,55,110,6 ; n4255 t=241.154 G3
    db 0,0,232,3,84,110,1 ; n4256 t=241.298 C6
    db 0,0,232,3,57,110,2 ; n4257 t=241.298 A3
    db 0,0,232,3,66,110,5 ; n4258 t=241.298 F#4
    db 144,0,232,3,57,110,6 ; n4259 t=241.298 A3
    db 0,0,232,3,86,110,1 ; n4260 t=241.442 D6
    db 0,0,232,3,58,110,2 ; n4261 t=241.442 A#3
    db 0,0,232,3,79,110,3 ; n4262 t=241.442 G5
    db 0,0,232,3,79,110,4 ; n4263 t=241.442 G5
    db 0,0,232,3,67,110,5 ; n4264 t=241.442 G4
    db 32,1,232,3,58,110,6 ; n4265 t=241.442 A#3
    db 0,0,232,3,84,110,1 ; n4266 t=241.731 C6
    db 0,0,232,3,57,110,2 ; n4267 t=241.731 A3
    db 0,0,232,3,69,110,5 ; n4268 t=241.731 A4
    db 32,1,232,3,57,110,6 ; n4269 t=241.731 A3
    db 0,0,232,3,82,110,1 ; n4270 t=242.019 A#5
    db 0,0,232,3,55,110,2 ; n4271 t=242.019 G3
    db 0,0,232,3,74,110,3 ; n4272 t=242.019 D5
    db 0,0,232,3,74,110,4 ; n4273 t=242.019 D5
    db 0,0,232,3,70,110,5 ; n4274 t=242.019 A#4
    db 32,1,232,3,55,110,6 ; n4275 t=242.019 G3
    db 0,0,232,3,60,110,2 ; n4276 t=242.308 C4
    db 0,0,232,3,75,110,3 ; n4277 t=242.308 D#5
    db 0,0,232,3,75,110,4 ; n4278 t=242.308 D#5
    db 0,0,232,3,67,110,5 ; n4279 t=242.308 G4
    db 144,0,232,3,60,110,6 ; n4280 t=242.308 C4
    db 144,0,232,3,58,110,2 ; n4281 t=242.452 A#3
    db 0,0,232,3,81,110,1 ; n4282 t=242.596 A5
    db 0,0,232,3,60,110,2 ; n4283 t=242.596 C4
    db 0,0,232,3,72,110,3 ; n4284 t=242.596 C5
    db 0,0,232,3,72,110,4 ; n4285 t=242.596 C5
    db 144,0,232,3,63,110,5 ; n4286 t=242.596 D#4
    db 0,0,232,3,62,110,2 ; n4287 t=242.740 D4
    db 0,0,232,3,69,110,3 ; n4288 t=242.740 A4
    db 144,0,232,3,69,110,4 ; n4289 t=242.740 A4
    db 0,0,232,3,58,110,2 ; n4290 t=242.885 A#3
    db 0,0,232,3,74,110,3 ; n4291 t=242.885 D5
    db 0,0,232,3,74,110,4 ; n4292 t=242.885 D5
    db 0,0,232,3,62,110,5 ; n4293 t=242.885 D4
    db 144,0,232,3,58,110,6 ; n4294 t=242.885 A#3
    db 144,0,232,3,57,110,2 ; n4295 t=243.029 A3
    db 0,0,232,3,79,110,1 ; n4296 t=243.173 G5
    db 0,0,232,3,58,110,2 ; n4297 t=243.173 A#3
    db 0,0,232,3,70,110,3 ; n4298 t=243.173 A#4
    db 144,0,232,3,70,110,4 ; n4299 t=243.173 A#4
    db 0,0,232,3,60,110,2 ; n4300 t=243.317 C4
    db 0,0,232,3,67,110,3 ; n4301 t=243.317 G4
    db 144,0,232,3,67,110,4 ; n4302 t=243.317 G4
    db 0,0,232,3,57,110,2 ; n4303 t=243.462 A3
    db 0,0,232,3,72,110,3 ; n4304 t=243.462 C5
    db 0,0,232,3,72,110,4 ; n4305 t=243.462 C5
    db 0,0,232,3,63,110,5 ; n4306 t=243.462 D#4
    db 144,0,232,3,57,110,6 ; n4307 t=243.462 A3
    db 144,0,232,3,45,110,2 ; n4308 t=243.606 A2
    db 0,0,232,3,72,110,1 ; n4309 t=243.750 C5
    db 0,0,232,3,48,110,2 ; n4310 t=243.750 C3
    db 0,0,232,3,69,110,3 ; n4311 t=243.750 A4
    db 144,0,232,3,69,110,4 ; n4312 t=243.750 A4
    db 0,0,232,3,51,110,2 ; n4313 t=243.894 D#3
    db 0,0,232,3,66,110,3 ; n4314 t=243.894 F#4
    db 144,0,232,3,66,110,4 ; n4315 t=243.894 F#4
    db 0,0,232,3,55,110,2 ; n4316 t=244.038 G3
    db 0,0,232,3,62,110,3 ; n4317 t=244.038 D4
    db 0,0,232,3,62,110,4 ; n4318 t=244.038 D4
    db 0,0,232,3,67,110,5 ; n4319 t=244.038 G4
    db 144,0,232,3,55,110,6 ; n4320 t=244.038 G3
    db 144,0,232,3,43,110,2 ; n4321 t=244.183 G2
    db 0,0,232,3,69,110,1 ; n4322 t=244.327 A4
    db 0,0,232,3,48,110,2 ; n4323 t=244.327 C3
    db 0,0,232,3,75,110,3 ; n4324 t=244.327 D#5
    db 144,0,232,3,75,110,4 ; n4325 t=244.327 D#5
    db 0,0,232,3,66,110,1 ; n4326 t=244.471 F#4
    db 144,0,232,3,51,110,2 ; n4327 t=244.471 D#3
    db 0,0,232,3,60,110,1 ; n4328 t=244.615 C4
    db 0,0,232,3,42,110,2 ; n4329 t=244.615 F#2
    db 0,0,232,3,69,110,5 ; n4330 t=244.615 A4
    db 144,0,232,3,54,110,6 ; n4331 t=244.615 F#3
    db 144,0,232,3,57,110,2 ; n4332 t=244.760 A3
    db 0,0,232,3,75,110,1 ; n4333 t=244.904 D#5
    db 0,0,232,3,55,110,2 ; n4334 t=244.904 G3
    db 0,0,232,3,72,110,3 ; n4335 t=244.904 C5
    db 144,0,232,3,72,110,4 ; n4336 t=244.904 C5
    db 0,0,232,3,54,110,2 ; n4337 t=245.048 F#3
    db 0,0,232,3,69,110,3 ; n4338 t=245.048 A4
    db 144,0,232,3,69,110,4 ; n4339 t=245.048 A4
    db 0,0,232,3,43,110,2 ; n4340 t=245.192 G2
    db 0,0,232,3,62,110,3 ; n4341 t=245.192 D4
    db 0,0,232,3,62,110,4 ; n4342 t=245.192 D4
    db 0,0,232,3,70,110,5 ; n4343 t=245.192 A#4
    db 144,0,232,3,55,110,6 ; n4344 t=245.192 G3
    db 144,0,232,3,58,110,2 ; n4345 t=245.337 A#3
    db 0,0,232,3,72,110,1 ; n4346 t=245.481 C5
    db 0,0,232,3,57,110,2 ; n4347 t=245.481 A3
    db 0,0,232,3,78,110,3 ; n4348 t=245.481 F#5
    db 144,0,232,3,78,110,4 ; n4349 t=245.481 F#5
    db 0,0,232,3,69,110,1 ; n4350 t=245.625 A4
    db 144,0,232,3,55,110,2 ; n4351 t=245.625 G3
    db 0,0,232,3,60,110,1 ; n4352 t=245.769 C4
    db 0,0,232,3,45,110,2 ; n4353 t=245.769 A2
    db 0,0,232,3,72,110,5 ; n4354 t=245.769 C5
    db 144,0,232,3,57,110,6 ; n4355 t=245.769 A3
    db 144,0,232,3,60,110,2 ; n4356 t=245.913 C4
    db 0,0,232,3,78,110,1 ; n4357 t=246.058 F#5
    db 0,0,232,3,58,110,2 ; n4358 t=246.058 A#3
    db 0,0,232,3,75,110,3 ; n4359 t=246.058 D#5
    db 144,0,232,3,75,110,4 ; n4360 t=246.058 D#5
    db 0,0,232,3,57,110,2 ; n4361 t=246.202 A3
    db 0,0,232,3,72,110,3 ; n4362 t=246.202 C5
    db 144,0,232,3,72,110,4 ; n4363 t=246.202 C5
    db 0,0,232,3,46,110,2 ; n4364 t=246.346 A#2
    db 0,0,232,3,62,110,3 ; n4365 t=246.346 D4
    db 0,0,232,3,62,110,4 ; n4366 t=246.346 D4
    db 0,0,232,3,70,110,5 ; n4367 t=246.346 A#4
    db 144,0,232,3,58,110,6 ; n4368 t=246.346 A#3
    db 144,0,232,3,62,110,2 ; n4369 t=246.490 D4
    db 0,0,232,3,75,110,1 ; n4370 t=246.635 D#5
    db 0,0,232,3,60,110,2 ; n4371 t=246.635 C4
    db 0,0,232,3,81,110,3 ; n4372 t=246.635 A5
    db 144,0,232,3,81,110,4 ; n4373 t=246.635 A5
    db 0,0,232,3,72,110,1 ; n4374 t=246.779 C5
    db 144,0,232,3,58,110,2 ; n4375 t=246.779 A#3
    db 0,0,232,3,62,110,1 ; n4376 t=246.923 D4
    db 0,0,232,3,60,110,2 ; n4377 t=246.923 C4
    db 0,0,232,3,69,110,5 ; n4378 t=246.923 A4
    db 144,0,232,3,60,110,6 ; n4379 t=246.923 C4
    db 144,0,232,3,48,110,2 ; n4380 t=247.067 C3
    db 0,0,232,3,81,110,1 ; n4381 t=247.212 A5
    db 0,0,232,3,60,110,2 ; n4382 t=247.212 C4
    db 0,0,232,3,78,110,3 ; n4383 t=247.212 F#5
    db 0,0,232,3,78,110,4 ; n4384 t=247.212 F#5
    db 0,0,232,3,69,110,5 ; n4385 t=247.212 A4
    db 144,0,232,3,60,110,6 ; n4386 t=247.212 C4
    db 0,0,232,3,58,110,2 ; n4387 t=247.356 A#3
    db 0,0,232,3,74,110,3 ; n4388 t=247.356 D5
    db 144,0,232,3,74,110,4 ; n4389 t=247.356 D5
    db 0,0,232,3,60,110,2 ; n4390 t=247.500 C4
    db 0,0,232,3,75,110,3 ; n4391 t=247.500 D#5
    db 0,0,232,3,75,110,4 ; n4392 t=247.500 D#5
    db 0,0,232,3,69,110,5 ; n4393 t=247.500 A4
    db 144,0,232,3,60,110,6 ; n4394 t=247.500 C4
    db 0,0,232,3,72,110,3 ; n4395 t=247.644 C5
    db 144,0,232,3,72,110,4 ; n4396 t=247.644 C5
    db 0,0,232,3,78,110,1 ; n4397 t=247.788 F#5
    db 0,0,232,3,74,110,3 ; n4398 t=247.788 D5
    db 0,0,232,3,74,110,4 ; n4399 t=247.788 D5
    db 0,0,232,3,69,110,5 ; n4400 t=247.788 A4
    db 144,0,232,3,60,110,6 ; n4401 t=247.788 C4
    db 0,0,232,3,74,110,1 ; n4402 t=247.933 D5
    db 0,0,232,3,70,110,3 ; n4403 t=247.933 A#4
    db 144,0,232,3,70,110,4 ; n4404 t=247.933 A#4
    db 0,0,232,3,75,110,1 ; n4405 t=248.077 D#5
    db 0,0,232,3,72,110,3 ; n4406 t=248.077 C5
    db 0,0,232,3,72,110,4 ; n4407 t=248.077 C5
    db 0,0,232,3,69,110,5 ; n4408 t=248.077 A4
    db 144,0,232,3,60,110,6 ; n4409 t=248.077 C4
    db 0,0,232,3,72,110,1 ; n4410 t=248.221 C5
    db 0,0,232,3,51,110,2 ; n4411 t=248.221 D#3
    db 0,0,232,3,69,110,3 ; n4412 t=248.221 A4
    db 144,0,232,3,69,110,4 ; n4413 t=248.221 A4
    db 0,0,232,3,74,110,1 ; n4414 t=248.365 D5
    db 0,0,232,3,63,110,2 ; n4415 t=248.365 D#4
    db 0,0,232,3,70,110,3 ; n4416 t=248.365 A#4
    db 0,0,232,3,70,110,4 ; n4417 t=248.365 A#4
    db 144,0,232,3,60,110,6 ; n4418 t=248.365 C4
    db 0,0,232,3,70,110,1 ; n4419 t=248.510 A#4
    db 0,0,232,3,62,110,2 ; n4420 t=248.510 D4
    db 0,0,232,3,67,110,3 ; n4421 t=248.510 G4
    db 144,0,232,3,67,110,4 ; n4422 t=248.510 G4
    db 0,0,232,3,72,110,1 ; n4423 t=248.654 C5
    db 0,0,232,3,63,110,2 ; n4424 t=248.654 D#4
    db 0,0,232,3,69,110,3 ; n4425 t=248.654 A4
    db 0,0,232,3,69,110,4 ; n4426 t=248.654 A4
    db 0,0,232,3,69,110,5 ; n4427 t=248.654 A4
    db 144,0,232,3,60,110,6 ; n4428 t=248.654 C4
    db 0,0,232,3,69,110,1 ; n4429 t=248.798 A4
    db 0,0,232,3,66,110,3 ; n4430 t=248.798 F#4
    db 144,0,232,3,66,110,4 ; n4431 t=248.798 F#4
    db 0,0,232,3,70,110,1 ; n4432 t=248.942 A#4
    db 0,0,232,3,67,110,3 ; n4433 t=248.942 G4
    db 0,0,232,3,67,110,4 ; n4434 t=248.942 G4
    db 144,0,232,3,60,110,6 ; n4435 t=248.942 C4
    db 0,0,232,3,67,110,1 ; n4436 t=249.087 G4
    db 0,0,232,3,64,110,3 ; n4437 t=249.087 E4
    db 144,0,232,3,64,110,4 ; n4438 t=249.087 E4
    db 0,0,232,3,74,110,1 ; n4439 t=249.231 D5
    db 0,0,232,3,66,110,3 ; n4440 t=249.231 F#4
    db 0,0,232,3,66,110,4 ; n4441 t=249.231 F#4
    db 0,0,232,3,69,110,5 ; n4442 t=249.231 A4
    db 72,0,232,3,60,110,6 ; n4443 t=249.231 C4
    db 72,0,232,3,76,110,1 ; n4444 t=249.303 E5
    db 0,0,232,3,74,110,1 ; n4445 t=249.375 D5
    db 0,0,232,3,58,110,2 ; n4446 t=249.375 A#3
    db 0,0,232,3,62,110,3 ; n4447 t=249.375 D4
    db 72,0,232,3,62,110,4 ; n4448 t=249.375 D4
    db 72,0,232,3,76,110,1 ; n4449 t=249.447 E5
    db 0,0,232,3,74,110,1 ; n4450 t=249.519 D5
    db 0,0,232,3,57,110,2 ; n4451 t=249.519 A3
    db 0,0,232,3,64,110,3 ; n4452 t=249.519 E4
    db 72,0,232,3,64,110,4 ; n4453 t=249.519 E4
    db 72,0,232,3,76,110,1 ; n4454 t=249.591 E5
    db 0,0,232,3,74,110,1 ; n4455 t=249.663 D5
    db 0,0,232,3,55,110,2 ; n4456 t=249.663 G3
    db 0,0,232,3,66,110,3 ; n4457 t=249.663 F#4
    db 72,0,232,3,66,110,4 ; n4458 t=249.663 F#4
    db 72,0,232,3,76,110,1 ; n4459 t=249.736 E5
    db 0,0,232,3,74,110,1 ; n4460 t=249.808 D5
    db 0,0,232,3,54,110,2 ; n4461 t=249.808 F#3
    db 0,0,232,3,67,110,3 ; n4462 t=249.808 G4
    db 72,0,232,3,67,110,4 ; n4463 t=249.808 G4
    db 72,0,232,3,76,110,1 ; n4464 t=249.880 E5
    db 0,0,232,3,74,110,1 ; n4465 t=249.952 D5
    db 0,0,232,3,51,110,2 ; n4466 t=249.952 D#3
    db 0,0,232,3,69,110,3 ; n4467 t=249.952 A4
    db 72,0,232,3,69,110,4 ; n4468 t=249.952 A4
    db 72,0,232,3,76,110,1 ; n4469 t=250.024 E5
    db 0,0,232,3,74,110,1 ; n4470 t=250.096 D5
    db 0,0,232,3,50,110,2 ; n4471 t=250.096 D3
    db 0,0,232,3,70,110,3 ; n4472 t=250.096 A#4
    db 72,0,232,3,70,110,4 ; n4473 t=250.096 A#4
    db 72,0,232,3,76,110,1 ; n4474 t=250.168 E5
    db 0,0,232,3,74,110,1 ; n4475 t=250.240 D5
    db 0,0,232,3,48,110,2 ; n4476 t=250.240 C3
    db 0,0,232,3,72,110,3 ; n4477 t=250.240 C5
    db 72,0,232,3,72,110,4 ; n4478 t=250.240 C5
    db 72,0,232,3,76,110,1 ; n4479 t=250.312 E5
    db 0,0,232,3,74,110,1 ; n4480 t=250.385 D5
    db 0,0,232,3,47,110,2 ; n4481 t=250.385 B2
    db 0,0,232,3,74,110,3 ; n4482 t=250.385 D5
    db 0,0,232,3,74,110,4 ; n4483 t=250.385 D5
    db 0,0,232,3,67,110,5 ; n4484 t=250.385 G4
    db 72,0,232,3,47,110,6 ; n4485 t=250.385 B2
    db 72,0,232,3,76,110,1 ; n4486 t=250.457 E5
    db 0,0,232,3,74,110,1 ; n4487 t=250.529 D5
    db 0,0,232,3,48,110,2 ; n4488 t=250.529 C3
    db 0,0,232,3,75,110,3 ; n4489 t=250.529 D#5
    db 0,0,232,3,75,110,4 ; n4490 t=250.529 D#5
    db 72,0,232,3,48,110,6 ; n4491 t=250.529 C3
    db 72,0,232,3,76,110,1 ; n4492 t=250.601 E5
    db 0,0,232,3,74,110,1 ; n4493 t=250.673 D5
    db 0,0,232,3,50,110,2 ; n4494 t=250.673 D3
    db 0,0,232,3,77,110,3 ; n4495 t=250.673 F5
    db 0,0,232,3,77,110,4 ; n4496 t=250.673 F5
    db 72,0,232,3,50,110,6 ; n4497 t=250.673 D3
    db 72,0,232,3,76,110,1 ; n4498 t=250.745 E5
    db 0,0,232,3,74,110,1 ; n4499 t=250.817 D5
    db 72,0,232,3,51,110,2 ; n4500 t=250.817 D#3
    db 72,0,232,3,76,110,1 ; n4501 t=250.889 E5
    db 0,0,232,3,74,110,1 ; n4502 t=250.962 D5
    db 0,0,232,3,50,110,2 ; n4503 t=250.962 D3
    db 0,0,232,3,77,110,3 ; n4504 t=250.962 F5
    db 0,0,232,3,77,110,4 ; n4505 t=250.962 F5
    db 0,0,232,3,62,110,5 ; n4506 t=250.962 D4
    db 72,0,232,3,50,110,6 ; n4507 t=250.962 D3
    db 72,0,232,3,76,110,1 ; n4508 t=251.034 E5
    db 0,0,232,3,74,110,1 ; n4509 t=251.106 D5
    db 0,0,232,3,51,110,2 ; n4510 t=251.106 D#3
    db 0,0,232,3,79,110,3 ; n4511 t=251.106 G5
    db 0,0,232,3,79,110,4 ; n4512 t=251.106 G5
    db 72,0,232,3,51,110,6 ; n4513 t=251.106 D#3
    db 72,0,232,3,76,110,1 ; n4514 t=251.178 E5
    db 0,0,232,3,74,110,1 ; n4515 t=251.250 D5
    db 0,0,232,3,53,110,2 ; n4516 t=251.250 F3
    db 0,0,232,3,80,110,3 ; n4517 t=251.250 G#5
    db 0,0,232,3,80,110,4 ; n4518 t=251.250 G#5
    db 72,0,232,3,53,110,6 ; n4519 t=251.250 F3
    db 72,0,232,3,76,110,1 ; n4520 t=251.322 E5
    db 0,0,232,3,74,110,1 ; n4521 t=251.394 D5
    db 72,0,232,3,55,110,2 ; n4522 t=251.394 G3
    db 72,0,232,3,76,110,1 ; n4523 t=251.466 E5
    db 0,0,232,3,74,110,1 ; n4524 t=251.538 D5
    db 0,0,232,3,53,110,2 ; n4525 t=251.538 F3
    db 0,0,232,3,71,110,3 ; n4526 t=251.538 B4
    db 0,0,232,3,71,110,4 ; n4527 t=251.538 B4
    db 0,0,232,3,62,110,5 ; n4528 t=251.538 D4
    db 72,0,232,3,53,110,6 ; n4529 t=251.538 F3
    db 72,0,232,3,76,110,1 ; n4530 t=251.611 E5
    db 48,0,232,3,74,110,1 ; n4531 t=251.683 D5
    db 24,0,232,3,62,110,2 ; n4532 t=251.731 D4
    db 72,0,232,3,76,110,1 ; n4533 t=251.755 E5
    db 72,0,232,3,74,110,1 ; n4534 t=251.827 D5
    db 0,0,232,3,51,110,2 ; n4535 t=251.899 D#3
    db 0,0,232,3,72,110,3 ; n4536 t=251.899 C5
    db 0,0,232,3,72,110,4 ; n4537 t=251.899 C5
    db 0,0,232,3,67,110,5 ; n4538 t=251.899 G4
    db 216,0,232,3,51,110,6 ; n4539 t=251.899 D#3
    db 192,0,232,3,50,110,2 ; n4540 t=252.115 D3
    db 0,0,232,3,66,110,3 ; n4541 t=252.308 F#4
    db 0,0,232,3,66,110,4 ; n4542 t=252.308 F#4
    db 0,0,232,3,69,110,5 ; n4543 t=252.308 A4
    db 24,0,232,3,51,110,6 ; n4544 t=252.308 D#3
    db 216,0,232,3,51,110,2 ; n4545 t=252.332 D#3
    db 144,0,232,3,60,110,2 ; n4546 t=252.548 C4
    db 0,0,232,3,67,110,3 ; n4547 t=252.692 G4
    db 0,0,232,3,67,110,4 ; n4548 t=252.692 G4
    db 0,0,232,3,70,110,5 ; n4549 t=252.692 A#4
    db 72,0,232,3,50,110,6 ; n4550 t=252.692 D3
    db 216,0,232,3,50,110,2 ; n4551 t=252.764 D3
    db 216,0,232,3,58,110,2 ; n4552 t=252.981 A#3
    db 0,0,232,3,82,110,1 ; n4553 t=253.197 A#5
    db 0,0,232,3,55,110,2 ; n4554 t=253.197 G3
    db 0,0,232,3,49,110,2 ; n4555 t=253.197 C#3
    db 0,0,232,3,52,110,2 ; n4556 t=253.197 E3
    db 0,0,232,3,61,110,3 ; n4557 t=253.197 C#4
    db 0,0,232,3,61,110,4 ; n4558 t=253.197 C#4
    db 0,0,232,3,61,110,5 ; n4559 t=253.197 C#4
    db 249,1,232,3,49,110,6 ; n4560 t=253.197 C#3
    db 240,0,232,3,81,110,1 ; n4561 t=253.702 A5
    db 192,0,232,3,82,110,1 ; n4562 t=253.942 A#5
    db 144,0,232,3,81,110,1 ; n4563 t=254.135 A5
    db 72,0,232,3,82,110,1 ; n4564 t=254.279 A#5
    db 72,0,232,3,81,110,1 ; n4565 t=254.351 A5
    db 72,0,232,3,82,110,1 ; n4566 t=254.423 A#5
    db 72,0,232,3,81,110,1 ; n4567 t=254.495 A5
    db 72,0,232,3,82,110,1 ; n4568 t=254.567 A#5
    db 72,0,232,3,81,110,1 ; n4569 t=254.639 A5
    db 144,0,232,3,82,110,1 ; n4570 t=254.712 A#5
    db 144,0,232,3,81,110,1 ; n4571 t=254.856 A5
    db 242,3,232,3,82,110,1 ; n4572 t=255.000 A#5
    db 32,1,232,3,84,110,1 ; n4573 t=256.010 C6
    db 32,1,232,3,82,110,1 ; n4574 t=256.298 A#5
    db 192,0,232,3,81,110,1 ; n4575 t=256.587 A5
    db 96,0,232,3,79,110,1 ; n4576 t=256.779 G5
    db 72,0,232,3,81,110,1 ; n4577 t=256.875 A5
    db 72,0,232,3,82,110,1 ; n4578 t=256.947 A#5
    db 72,0,232,3,81,110,1 ; n4579 t=257.019 A5
    db 72,0,232,3,79,110,1 ; n4580 t=257.091 G5
    db 72,0,232,3,77,110,1 ; n4581 t=257.163 F5
    db 72,0,232,3,76,110,1 ; n4582 t=257.236 E5
    db 72,0,232,3,77,110,1 ; n4583 t=257.308 F5
    db 72,0,232,3,79,110,1 ; n4584 t=257.380 G5
    db 72,0,232,3,77,110,1 ; n4585 t=257.452 F5
    db 72,0,232,3,76,110,1 ; n4586 t=257.524 E5
    db 72,0,232,3,74,110,1 ; n4587 t=257.596 D5
    db 72,0,232,3,73,110,1 ; n4588 t=257.668 C#5
    db 72,0,232,3,74,110,1 ; n4589 t=257.740 D5
    db 72,0,232,3,76,110,1 ; n4590 t=257.812 E5
    db 72,0,232,3,74,110,1 ; n4591 t=257.885 D5
    db 72,0,232,3,72,110,1 ; n4592 t=257.957 C5
    db 72,0,232,3,71,110,1 ; n4593 t=258.029 B4
    db 72,0,232,3,69,110,1 ; n4594 t=258.101 A4
    db 72,0,232,3,71,110,1 ; n4595 t=258.173 B4
    db 72,0,232,3,72,110,1 ; n4596 t=258.245 C5
    db 72,0,232,3,71,110,1 ; n4597 t=258.317 B4
    db 72,0,232,3,69,110,1 ; n4598 t=258.389 A4
    db 72,0,232,3,67,110,1 ; n4599 t=258.462 G4
    db 72,0,232,3,70,110,1 ; n4600 t=258.534 A#4
    db 72,0,232,3,69,110,1 ; n4601 t=258.606 A4
    db 72,0,232,3,67,110,1 ; n4602 t=258.678 G4
    db 72,0,232,3,65,110,1 ; n4603 t=258.750 F4
    db 72,0,232,3,64,110,1 ; n4604 t=258.822 E4
    db 72,0,232,3,65,110,1 ; n4605 t=258.894 F4
    db 72,0,232,3,67,110,1 ; n4606 t=258.966 G4
    db 72,0,232,3,65,110,1 ; n4607 t=259.038 F4
    db 72,0,232,3,64,110,1 ; n4608 t=259.111 E4
    db 72,0,232,3,62,110,1 ; n4609 t=259.183 D4
    db 72,0,232,3,61,110,1 ; n4610 t=259.255 C#4
    db 72,0,232,3,62,110,1 ; n4611 t=259.327 D4
    db 72,0,232,3,64,110,1 ; n4612 t=259.399 E4
    db 72,0,232,3,62,110,1 ; n4613 t=259.471 D4
    db 72,0,232,3,61,110,1 ; n4614 t=259.543 C#4
    db 72,0,232,3,59,110,1 ; n4615 t=259.615 B3
    db 105,1,232,3,57,110,2 ; n4616 t=259.688 A3
    db 216,0,232,3,58,110,2 ; n4617 t=260.048 A#3
    db 144,0,232,3,57,110,2 ; n4618 t=260.264 A3
    db 168,0,232,3,58,110,2 ; n4619 t=260.409 A#3
    db 96,0,232,3,57,110,2 ; n4620 t=260.577 A3
    db 96,0,232,3,58,110,2 ; n4621 t=260.673 A#3
    db 96,0,232,3,57,110,2 ; n4622 t=260.769 A3
    db 96,0,232,3,58,110,2 ; n4623 t=260.865 A#3
    db 96,0,232,3,57,110,2 ; n4624 t=260.962 A3
    db 96,0,232,3,58,110,2 ; n4625 t=261.058 A#3
    db 178,4,232,3,57,110,2 ; n4626 t=261.154 A3
    db 32,1,232,3,59,110,2 ; n4627 t=262.356 B3
    db 32,1,232,3,61,110,2 ; n4628 t=262.644 C#4
    db 216,0,232,3,62,110,2 ; n4629 t=262.933 D4
    db 144,0,232,3,64,110,1 ; n4630 t=263.149 E4
    db 144,0,232,3,65,110,1 ; n4631 t=263.293 F4
    db 144,0,232,3,67,110,1 ; n4632 t=263.438 G4
    db 72,0,232,3,64,110,1 ; n4633 t=263.582 E4
    db 72,0,232,3,61,110,1 ; n4634 t=263.654 C#4
    db 72,0,232,3,62,110,1 ; n4635 t=263.726 D4
    db 72,0,232,3,64,110,1 ; n4636 t=263.798 E4
    db 72,0,232,3,65,110,1 ; n4637 t=263.870 F4
    db 72,0,232,3,67,110,1 ; n4638 t=263.942 G4
    db 72,0,232,3,69,110,1 ; n4639 t=264.014 A4
    db 72,0,232,3,70,110,1 ; n4640 t=264.087 A#4
    db 72,0,232,3,67,110,1 ; n4641 t=264.159 G4
    db 72,0,232,3,64,110,1 ; n4642 t=264.231 E4
    db 72,0,232,3,65,110,1 ; n4643 t=264.303 F4
    db 72,0,232,3,67,110,1 ; n4644 t=264.375 G4
    db 72,0,232,3,69,110,1 ; n4645 t=264.447 A4
    db 72,0,232,3,70,110,1 ; n4646 t=264.519 A#4
    db 72,0,232,3,73,110,1 ; n4647 t=264.591 C#5
    db 72,0,232,3,74,110,1 ; n4648 t=264.663 D5
    db 72,0,232,3,76,110,1 ; n4649 t=264.736 E5
    db 72,0,232,3,74,110,1 ; n4650 t=264.808 D5
    db 72,0,232,3,73,110,1 ; n4651 t=264.880 C#5
    db 72,0,232,3,70,110,1 ; n4652 t=264.952 A#4
    db 72,0,232,3,69,110,1 ; n4653 t=265.024 A4
    db 72,0,232,3,67,110,1 ; n4654 t=265.096 G4
    db 72,0,232,3,69,110,1 ; n4655 t=265.168 A4
    db 72,0,232,3,70,110,1 ; n4656 t=265.240 A#4
    db 72,0,232,3,73,110,1 ; n4657 t=265.312 C#5
    db 72,0,232,3,74,110,1 ; n4658 t=265.385 D5
    db 72,0,232,3,76,110,1 ; n4659 t=265.457 E5
    db 72,0,232,3,77,110,1 ; n4660 t=265.529 F5
    db 72,0,232,3,79,110,1 ; n4661 t=265.601 G5
    db 72,0,232,3,81,110,1 ; n4662 t=265.673 A5
    db 72,0,232,3,82,110,1 ; n4663 t=265.745 A#5
    db 72,0,232,3,81,110,1 ; n4664 t=265.817 A5
    db 72,0,232,3,79,110,1 ; n4665 t=265.889 G5
    db 72,0,232,3,77,110,1 ; n4666 t=265.962 F5
    db 72,0,232,3,76,110,1 ; n4667 t=266.034 E5
    db 72,0,232,3,74,110,1 ; n4668 t=266.106 D5
    db 72,0,232,3,73,110,1 ; n4669 t=266.178 C#5
    db 32,1,232,3,74,110,1 ; n4670 t=266.250 D5
    db 0,0,232,3,70,110,1 ; n4671 t=266.538 A#4
    db 0,0,232,3,75,110,1 ; n4672 t=266.538 D#5
    db 0,0,232,3,79,110,1 ; n4673 t=266.538 G5
    db 0,0,232,3,51,110,2 ; n4674 t=266.538 D#3
    db 0,0,232,3,79,110,3 ; n4675 t=266.538 G5
    db 0,0,232,3,70,110,4 ; n4676 t=266.538 A#4
    db 0,0,232,3,67,110,5 ; n4677 t=266.538 G4
    db 129,1,232,3,51,110,6 ; n4678 t=266.538 D#3
    db 0,0,232,3,72,110,1 ; n4679 t=266.923 C5
    db 0,0,232,3,75,110,1 ; n4680 t=266.923 D#5
    db 0,0,232,3,81,110,1 ; n4681 t=266.923 A5
    db 0,0,232,3,48,110,2 ; n4682 t=266.923 C3
    db 0,0,232,3,81,110,3 ; n4683 t=266.923 A5
    db 0,0,232,3,75,110,4 ; n4684 t=266.923 D#5
    db 0,0,232,3,72,110,5 ; n4685 t=266.923 C5
    db 129,1,232,3,48,110,6 ; n4686 t=266.923 C3
    db 0,0,232,3,69,110,1 ; n4687 t=267.308 A4
    db 0,0,232,3,74,110,1 ; n4688 t=267.308 D5
    db 0,0,232,3,78,110,1 ; n4689 t=267.308 F#5
    db 0,0,232,3,50,110,2 ; n4690 t=267.308 D3
    db 0,0,232,3,78,110,3 ; n4691 t=267.308 F#5
    db 0,0,232,3,74,110,4 ; n4692 t=267.308 D5
    db 0,0,232,3,69,110,5 ; n4693 t=267.308 A4
    db 129,1,232,3,50,110,6 ; n4694 t=267.308 D3
    db 0,0,232,3,79,110,1 ; n4695 t=267.692 G5
    db 0,0,232,3,74,110,1 ; n4696 t=267.692 D5
    db 0,0,232,3,70,110,1 ; n4697 t=267.692 A#4
    db 0,0,232,3,55,110,2 ; n4698 t=267.692 G3
    db 0,0,232,3,79,110,3 ; n4699 t=267.692 G5
    db 0,0,232,3,74,110,4 ; n4700 t=267.692 D5
    db 0,0,232,3,70,110,5 ; n4701 t=267.692 A#4
    db 144,0,232,3,43,110,6 ; n4702 t=267.692 G2
    db 0,0,232,3,57,110,2 ; n4703 t=267.837 A3
    db 0,0,232,3,72,110,4 ; n4704 t=267.837 C5
    db 144,0,232,3,45,110,6 ; n4705 t=267.837 A2
    db 0,0,232,3,58,110,2 ; n4706 t=267.981 A#3
    db 0,0,232,3,70,110,4 ; n4707 t=267.981 A#4
    db 144,0,232,3,46,110,6 ; n4708 t=267.981 A#2
    db 144,0,232,3,69,110,4 ; n4709 t=268.125 A4
    db 0,0,232,3,82,110,1 ; n4710 t=268.269 A#5
    db 0,0,232,3,57,110,2 ; n4711 t=268.269 A3
    db 0,0,232,3,67,110,4 ; n4712 t=268.269 G4
    db 72,0,232,3,45,110,6 ; n4713 t=268.269 A2
    db 72,0,232,3,81,110,1 ; n4714 t=268.341 A5
    db 0,0,232,3,79,110,1 ; n4715 t=268.413 G5
    db 72,0,232,3,65,110,4 ; n4716 t=268.413 F4
    db 72,0,232,3,81,110,1 ; n4717 t=268.486 A5
    db 0,0,232,3,82,110,1 ; n4718 t=268.558 A#5
    db 0,0,232,3,55,110,2 ; n4719 t=268.558 G3
    db 0,0,232,3,63,110,4 ; n4720 t=268.558 D#4
    db 72,0,232,3,43,110,6 ; n4721 t=268.558 G2
    db 72,0,232,3,81,110,1 ; n4722 t=268.630 A5
    db 0,0,232,3,82,110,1 ; n4723 t=268.702 A#5
    db 72,0,232,3,62,110,4 ; n4724 t=268.702 D4
    db 72,0,232,3,81,110,1 ; n4725 t=268.774 A5
    db 0,0,232,3,82,110,1 ; n4726 t=268.846 A#5
    db 0,0,232,3,60,110,2 ; n4727 t=268.846 C4
    db 0,0,232,3,79,110,3 ; n4728 t=268.846 G5
    db 0,0,232,3,60,110,4 ; n4729 t=268.846 C4
    db 0,0,232,3,60,110,5 ; n4730 t=268.846 C4
    db 72,0,232,3,48,110,6 ; n4731 t=268.846 C3
    db 72,0,232,3,81,110,1 ; n4732 t=268.918 A5
    db 0,0,232,3,82,110,1 ; n4733 t=268.990 A#5
    db 0,0,232,3,62,110,2 ; n4734 t=268.990 D4
    db 0,0,232,3,77,110,3 ; n4735 t=268.990 F5
    db 72,0,232,3,62,110,5 ; n4736 t=268.990 D4
    db 72,0,232,3,81,110,1 ; n4737 t=269.062 A5
    db 0,0,232,3,82,110,1 ; n4738 t=269.135 A#5
    db 0,0,232,3,64,110,2 ; n4739 t=269.135 E4
    db 0,0,232,3,76,110,3 ; n4740 t=269.135 E5
    db 0,0,232,3,72,110,4 ; n4741 t=269.135 C5
    db 0,0,232,3,64,110,5 ; n4742 t=269.135 E4
    db 72,0,232,3,57,110,6 ; n4743 t=269.135 A3
    db 72,0,232,3,81,110,1 ; n4744 t=269.207 A5
    db 0,0,232,3,82,110,1 ; n4745 t=269.279 A#5
    db 72,0,232,3,74,110,3 ; n4746 t=269.279 D5
    db 72,0,232,3,81,110,1 ; n4747 t=269.351 A5
    db 0,0,232,3,82,110,1 ; n4748 t=269.423 A#5
    db 0,0,232,3,62,110,2 ; n4749 t=269.423 D4
    db 0,0,232,3,72,110,3 ; n4750 t=269.423 C5
    db 72,0,232,3,62,110,5 ; n4751 t=269.423 D4
    db 72,0,232,3,81,110,1 ; n4752 t=269.495 A5
    db 0,0,232,3,82,110,1 ; n4753 t=269.567 A#5
    db 72,0,232,3,70,110,3 ; n4754 t=269.567 A#4
    db 72,0,232,3,81,110,1 ; n4755 t=269.639 A5
    db 0,0,232,3,82,110,1 ; n4756 t=269.712 A#5
    db 0,0,232,3,60,110,2 ; n4757 t=269.712 C4
    db 0,0,232,3,69,110,3 ; n4758 t=269.712 A4
    db 0,0,232,3,60,110,5 ; n4759 t=269.712 C4
    db 72,0,232,3,48,110,6 ; n4760 t=269.712 C3
    db 72,0,232,3,81,110,1 ; n4761 t=269.784 A5
    db 0,0,232,3,82,110,1 ; n4762 t=269.856 A#5
    db 72,0,232,3,67,110,3 ; n4763 t=269.856 G4
    db 72,0,232,3,81,110,1 ; n4764 t=269.928 A5
    db 0,0,232,3,79,110,1 ; n4765 t=270.000 G5
    db 0,0,232,3,53,110,2 ; n4766 t=270.000 F3
    db 0,0,232,3,65,110,3 ; n4767 t=270.000 F4
    db 0,0,232,3,72,110,4 ; n4768 t=270.000 C5
    db 0,0,232,3,65,110,5 ; n4769 t=270.000 F4
    db 72,0,232,3,41,110,6 ; n4770 t=270.000 F2
    db 72,0,232,3,81,110,1 ; n4771 t=270.072 A5
    db 0,0,232,3,79,110,1 ; n4772 t=270.144 G5
    db 0,0,232,3,55,110,2 ; n4773 t=270.144 G3
    db 0,0,232,3,70,110,4 ; n4774 t=270.144 A#4
    db 72,0,232,3,43,110,6 ; n4775 t=270.144 G2
    db 72,0,232,3,81,110,1 ; n4776 t=270.216 A5
    db 0,0,232,3,79,110,1 ; n4777 t=270.288 G5
    db 0,0,232,3,57,110,2 ; n4778 t=270.288 A3
    db 0,0,232,3,77,110,3 ; n4779 t=270.288 F5
    db 0,0,232,3,69,110,4 ; n4780 t=270.288 A4
    db 0,0,232,3,72,110,5 ; n4781 t=270.288 C5
    db 72,0,232,3,45,110,6 ; n4782 t=270.288 A2
    db 72,0,232,3,81,110,1 ; n4783 t=270.361 A5
    db 0,0,232,3,79,110,1 ; n4784 t=270.433 G5
    db 72,0,232,3,67,110,4 ; n4785 t=270.433 G4
    db 72,0,232,3,81,110,1 ; n4786 t=270.505 A5
    db 0,0,232,3,79,110,1 ; n4787 t=270.577 G5
    db 0,0,232,3,55,110,2 ; n4788 t=270.577 G3
    db 0,0,232,3,65,110,4 ; n4789 t=270.577 F4
    db 72,0,232,3,43,110,6 ; n4790 t=270.577 G2
    db 72,0,232,3,81,110,1 ; n4791 t=270.649 A5
    db 0,0,232,3,79,110,1 ; n4792 t=270.721 G5
    db 72,0,232,3,63,110,4 ; n4793 t=270.721 D#4
    db 72,0,232,3,81,110,1 ; n4794 t=270.793 A5
    db 0,0,232,3,79,110,1 ; n4795 t=270.865 G5
    db 0,0,232,3,53,110,2 ; n4796 t=270.865 F3
    db 0,0,232,3,62,110,4 ; n4797 t=270.865 D4
    db 0,0,232,3,65,110,5 ; n4798 t=270.865 F4
    db 72,0,232,3,41,110,6 ; n4799 t=270.865 F2
    db 72,0,232,3,81,110,1 ; n4800 t=270.938 A5
    db 0,0,232,3,79,110,1 ; n4801 t=271.010 G5
    db 72,0,232,3,60,110,4 ; n4802 t=271.010 C4
    db 72,0,232,3,81,110,1 ; n4803 t=271.082 A5
    db 0,0,232,3,79,110,1 ; n4804 t=271.154 G5
    db 0,0,232,3,58,110,2 ; n4805 t=271.154 A#3
    db 0,0,232,3,77,110,3 ; n4806 t=271.154 F5
    db 0,0,232,3,58,110,4 ; n4807 t=271.154 A#3
    db 0,0,232,3,58,110,5 ; n4808 t=271.154 A#3
    db 72,0,232,3,46,110,6 ; n4809 t=271.154 A#2
    db 72,0,232,3,81,110,1 ; n4810 t=271.226 A5
    db 0,0,232,3,79,110,1 ; n4811 t=271.298 G5
    db 0,0,232,3,60,110,2 ; n4812 t=271.298 C4
    db 0,0,232,3,76,110,3 ; n4813 t=271.298 E5
    db 72,0,232,3,60,110,5 ; n4814 t=271.298 C4
    db 72,0,232,3,81,110,1 ; n4815 t=271.370 A5
    db 0,0,232,3,79,110,1 ; n4816 t=271.442 G5
    db 0,0,232,3,62,110,2 ; n4817 t=271.442 D4
    db 0,0,232,3,74,110,3 ; n4818 t=271.442 D5
    db 0,0,232,3,70,110,4 ; n4819 t=271.442 A#4
    db 0,0,232,3,62,110,5 ; n4820 t=271.442 D4
    db 72,0,232,3,53,110,6 ; n4821 t=271.442 F3
    db 72,0,232,3,81,110,1 ; n4822 t=271.514 A5
    db 0,0,232,3,79,110,1 ; n4823 t=271.587 G5
    db 72,0,232,3,72,110,3 ; n4824 t=271.587 C5
    db 72,0,232,3,81,110,1 ; n4825 t=271.659 A5
    db 0,0,232,3,79,110,1 ; n4826 t=271.731 G5
    db 0,0,232,3,60,110,2 ; n4827 t=271.731 C4
    db 0,0,232,3,70,110,3 ; n4828 t=271.731 A#4
    db 72,0,232,3,60,110,5 ; n4829 t=271.731 C4
    db 72,0,232,3,81,110,1 ; n4830 t=271.803 A5
    db 0,0,232,3,79,110,1 ; n4831 t=271.875 G5
    db 72,0,232,3,69,110,3 ; n4832 t=271.875 A4
    db 72,0,232,3,81,110,1 ; n4833 t=271.947 A5
    db 0,0,232,3,79,110,1 ; n4834 t=272.019 G5
    db 0,0,232,3,58,110,2 ; n4835 t=272.019 A#3
    db 0,0,232,3,67,110,3 ; n4836 t=272.019 G4
    db 0,0,232,3,58,110,5 ; n4837 t=272.019 A#3
    db 72,0,232,3,46,110,6 ; n4838 t=272.019 A#2
    db 72,0,232,3,81,110,1 ; n4839 t=272.091 A5
    db 0,0,232,3,79,110,1 ; n4840 t=272.163 G5
    db 72,0,232,3,65,110,3 ; n4841 t=272.163 F4
    db 72,0,232,3,81,110,1 ; n4842 t=272.236 A5
    db 0,0,232,3,77,110,1 ; n4843 t=272.308 F5
    db 0,0,232,3,52,110,2 ; n4844 t=272.308 E3
    db 0,0,232,3,64,110,3 ; n4845 t=272.308 E4
    db 0,0,232,3,70,110,4 ; n4846 t=272.308 A#4
    db 0,0,232,3,64,110,5 ; n4847 t=272.308 E4
    db 72,0,232,3,40,110,6 ; n4848 t=272.308 E2
    db 72,0,232,3,79,110,1 ; n4849 t=272.380 G5
    db 0,0,232,3,77,110,1 ; n4850 t=272.452 F5
    db 0,0,232,3,53,110,2 ; n4851 t=272.452 F3
    db 0,0,232,3,69,110,4 ; n4852 t=272.452 A4
    db 72,0,232,3,41,110,6 ; n4853 t=272.452 F2
    db 72,0,232,3,79,110,1 ; n4854 t=272.524 G5
    db 0,0,232,3,77,110,1 ; n4855 t=272.596 F5
    db 0,0,232,3,55,110,2 ; n4856 t=272.596 G3
    db 0,0,232,3,76,110,3 ; n4857 t=272.596 E5
    db 0,0,232,3,67,110,4 ; n4858 t=272.596 G4
    db 0,0,232,3,70,110,5 ; n4859 t=272.596 A#4
    db 72,0,232,3,43,110,6 ; n4860 t=272.596 G2
    db 72,0,232,3,79,110,1 ; n4861 t=272.668 G5
    db 0,0,232,3,77,110,1 ; n4862 t=272.740 F5
    db 72,0,232,3,65,110,4 ; n4863 t=272.740 F4
    db 72,0,232,3,79,110,1 ; n4864 t=272.812 G5
    db 0,0,232,3,77,110,1 ; n4865 t=272.885 F5
    db 0,0,232,3,53,110,2 ; n4866 t=272.885 F3
    db 0,0,232,3,64,110,4 ; n4867 t=272.885 E4
    db 72,0,232,3,41,110,6 ; n4868 t=272.885 F2
    db 72,0,232,3,79,110,1 ; n4869 t=272.957 G5
    db 0,0,232,3,77,110,1 ; n4870 t=273.029 F5
    db 72,0,232,3,62,110,4 ; n4871 t=273.029 D4
    db 72,0,232,3,79,110,1 ; n4872 t=273.101 G5
    db 0,0,232,3,77,110,1 ; n4873 t=273.173 F5
    db 0,0,232,3,52,110,2 ; n4874 t=273.173 E3
    db 0,0,232,3,61,110,4 ; n4875 t=273.173 C#4
    db 0,0,232,3,64,110,5 ; n4876 t=273.173 E4
    db 72,0,232,3,40,110,6 ; n4877 t=273.173 E2
    db 72,0,232,3,79,110,1 ; n4878 t=273.245 G5
    db 0,0,232,3,77,110,1 ; n4879 t=273.317 F5
    db 72,0,232,3,59,110,4 ; n4880 t=273.317 B3
    db 72,0,232,3,79,110,1 ; n4881 t=273.389 G5
    db 0,0,232,3,77,110,1 ; n4882 t=273.462 F5
    db 0,0,232,3,57,110,2 ; n4883 t=273.462 A3
    db 0,0,232,3,76,110,3 ; n4884 t=273.462 E5
    db 0,0,232,3,57,110,4 ; n4885 t=273.462 A3
    db 0,0,232,3,57,110,5 ; n4886 t=273.462 A3
    db 72,0,232,3,45,110,6 ; n4887 t=273.462 A2
    db 72,0,232,3,79,110,1 ; n4888 t=273.534 G5
    db 0,0,232,3,77,110,1 ; n4889 t=273.606 F5
    db 0,0,232,3,59,110,2 ; n4890 t=273.606 B3
    db 0,0,232,3,74,110,3 ; n4891 t=273.606 D5
    db 72,0,232,3,59,110,5 ; n4892 t=273.606 B3
    db 72,0,232,3,79,110,1 ; n4893 t=273.678 G5
    db 0,0,232,3,77,110,1 ; n4894 t=273.750 F5
    db 0,0,232,3,61,110,2 ; n4895 t=273.750 C#4
    db 0,0,232,3,73,110,3 ; n4896 t=273.750 C#5
    db 0,0,232,3,69,110,4 ; n4897 t=273.750 A4
    db 0,0,232,3,61,110,5 ; n4898 t=273.750 C#4
    db 72,0,232,3,52,110,6 ; n4899 t=273.750 E3
    db 72,0,232,3,79,110,1 ; n4900 t=273.822 G5
    db 0,0,232,3,77,110,1 ; n4901 t=273.894 F5
    db 72,0,232,3,71,110,3 ; n4902 t=273.894 B4
    db 72,0,232,3,79,110,1 ; n4903 t=273.966 G5
    db 0,0,232,3,77,110,1 ; n4904 t=274.038 F5
    db 0,0,232,3,59,110,2 ; n4905 t=274.038 B3
    db 0,0,232,3,69,110,3 ; n4906 t=274.038 A4
    db 72,0,232,3,59,110,5 ; n4907 t=274.038 B3
    db 72,0,232,3,79,110,1 ; n4908 t=274.111 G5
    db 0,0,232,3,77,110,1 ; n4909 t=274.183 F5
    db 72,0,232,3,67,110,3 ; n4910 t=274.183 G4
    db 72,0,232,3,79,110,1 ; n4911 t=274.255 G5
    db 0,0,232,3,77,110,1 ; n4912 t=274.327 F5
    db 0,0,232,3,57,110,2 ; n4913 t=274.327 A3
    db 0,0,232,3,65,110,3 ; n4914 t=274.327 F4
    db 0,0,232,3,57,110,5 ; n4915 t=274.327 A3
    db 72,0,232,3,45,110,6 ; n4916 t=274.327 A2
    db 72,0,232,3,79,110,1 ; n4917 t=274.399 G5
    db 0,0,232,3,77,110,1 ; n4918 t=274.471 F5
    db 72,0,232,3,64,110,3 ; n4919 t=274.471 E4
    db 72,0,232,3,79,110,1 ; n4920 t=274.543 G5
    db 0,0,232,3,77,110,1 ; n4921 t=274.615 F5
    db 0,0,232,3,50,110,2 ; n4922 t=274.615 D3
    db 0,0,232,3,62,110,3 ; n4923 t=274.615 D4
    db 0,0,232,3,62,110,9 ; n4924 t=274.615 D4
    db 144,0,232,3,38,110,11 ; n4925 t=274.615 D2
    db 0,0,232,3,81,110,1 ; n4926 t=274.760 A5
    db 0,0,232,3,52,110,2 ; n4927 t=274.760 E3
    db 144,0,232,3,40,110,11 ; n4928 t=274.760 E2
    db 0,0,232,3,81,110,1 ; n4929 t=274.904 A5
    db 0,0,232,3,53,110,2 ; n4930 t=274.904 F3
    db 0,0,232,3,74,110,3 ; n4931 t=274.904 D5
    db 0,0,232,3,65,110,8 ; n4932 t=274.904 F4
    db 0,0,232,3,69,110,9 ; n4933 t=274.904 A4
    db 144,0,232,3,41,110,11 ; n4934 t=274.904 F2
    db 144,0,232,3,81,110,1 ; n4935 t=275.048 A5
    db 0,0,232,3,79,110,1 ; n4936 t=275.192 G5
    db 0,0,232,3,52,110,2 ; n4937 t=275.192 E3
    db 0,0,232,3,69,110,8 ; n4938 t=275.192 A4
    db 144,0,232,3,40,110,11 ; n4939 t=275.192 E2
    db 144,0,232,3,81,110,1 ; n4940 t=275.337 A5
    db 0,0,232,3,77,110,1 ; n4941 t=275.481 F5
    db 0,0,232,3,50,110,2 ; n4942 t=275.481 D3
    db 0,0,232,3,74,110,7 ; n4943 t=275.481 D5
    db 0,0,232,3,74,110,8 ; n4944 t=275.481 D5
    db 0,0,232,3,62,110,9 ; n4945 t=275.481 D4
    db 144,0,232,3,38,110,11 ; n4946 t=275.481 D2
    db 144,0,232,3,81,110,1 ; n4947 t=275.625 A5
    db 0,0,232,3,76,110,1 ; n4948 t=275.769 E5
    db 0,0,232,3,57,110,2 ; n4949 t=275.769 A3
    db 0,0,232,3,76,110,7 ; n4950 t=275.769 E5
    db 0,0,232,3,61,110,9 ; n4951 t=275.769 C#4
    db 144,0,232,3,45,110,11 ; n4952 t=275.769 A2
    db 0,0,232,3,81,110,1 ; n4953 t=275.913 A5
    db 144,0,232,3,47,110,11 ; n4954 t=275.913 B2
    db 0,0,232,3,79,110,1 ; n4955 t=276.058 G5
    db 0,0,232,3,45,110,2 ; n4956 t=276.058 A2
    db 0,0,232,3,79,110,7 ; n4957 t=276.058 G5
    db 0,0,232,3,69,110,8 ; n4958 t=276.058 A4
    db 0,0,232,3,67,110,9 ; n4959 t=276.058 G4
    db 144,0,232,3,49,110,11 ; n4960 t=276.058 C#3
    db 144,0,232,3,77,110,1 ; n4961 t=276.202 F5
    db 0,0,232,3,76,110,1 ; n4962 t=276.346 E5
    db 0,0,232,3,76,110,8 ; n4963 t=276.346 E5
    db 144,0,232,3,47,110,11 ; n4964 t=276.346 B2
    db 144,0,232,3,74,110,1 ; n4965 t=276.490 D5
    db 0,0,232,3,73,110,1 ; n4966 t=276.635 C#5
    db 0,0,232,3,76,110,7 ; n4967 t=276.635 E5
    db 0,0,232,3,79,110,8 ; n4968 t=276.635 G5
    db 0,0,232,3,61,110,9 ; n4969 t=276.635 C#4
    db 144,0,232,3,45,110,11 ; n4970 t=276.635 A2
    db 144,0,232,3,71,110,1 ; n4971 t=276.779 B4
    db 0,0,232,3,69,110,1 ; n4972 t=276.923 A4
    db 0,0,232,3,38,110,2 ; n4973 t=276.923 D2
    db 0,0,232,3,77,110,7 ; n4974 t=276.923 F5
    db 0,0,232,3,62,110,9 ; n4975 t=276.923 D4
    db 144,0,232,3,50,110,11 ; n4976 t=276.923 D3
    db 0,0,232,3,69,110,1 ; n4977 t=277.067 A4
    db 0,0,232,3,40,110,2 ; n4978 t=277.067 E2
    db 144,0,232,3,52,110,11 ; n4979 t=277.067 E3
    db 0,0,232,3,69,110,1 ; n4980 t=277.212 A4
    db 0,0,232,3,41,110,2 ; n4981 t=277.212 F2
    db 0,0,232,3,81,110,7 ; n4982 t=277.212 A5
    db 0,0,232,3,77,110,8 ; n4983 t=277.212 F5
    db 0,0,232,3,69,110,9 ; n4984 t=277.212 A4
    db 144,0,232,3,53,110,11 ; n4985 t=277.212 F3
    db 144,0,232,3,69,110,1 ; n4986 t=277.356 A4
    db 0,0,232,3,67,110,1 ; n4987 t=277.500 G4
    db 0,0,232,3,40,110,2 ; n4988 t=277.500 E2
    db 0,0,232,3,81,110,8 ; n4989 t=277.500 A5
    db 144,0,232,3,52,110,11 ; n4990 t=277.500 E3
    db 144,0,232,3,69,110,1 ; n4991 t=277.644 A4
    db 0,0,232,3,65,110,1 ; n4992 t=277.788 F4
    db 0,0,232,3,38,110,2 ; n4993 t=277.788 D2
    db 0,0,232,3,77,110,7 ; n4994 t=277.788 F5
    db 0,0,232,3,86,110,8 ; n4995 t=277.788 D6
    db 0,0,232,3,62,110,9 ; n4996 t=277.788 D4
    db 144,0,232,3,50,110,11 ; n4997 t=277.788 D3
    db 144,0,232,3,69,110,1 ; n4998 t=277.933 A4
    db 0,0,232,3,64,110,1 ; n4999 t=278.077 E4
    db 0,0,232,3,45,110,2 ; n5000 t=278.077 A2
    db 0,0,232,3,76,110,7 ; n5001 t=278.077 E5
    db 0,0,232,3,61,110,9 ; n5002 t=278.077 C#4
    db 144,0,232,3,57,110,11 ; n5003 t=278.077 A3
    db 0,0,232,3,69,110,1 ; n5004 t=278.221 A4
    db 144,0,232,3,59,110,11 ; n5005 t=278.221 B3
    db 0,0,232,3,67,110,1 ; n5006 t=278.365 G4
    db 0,0,232,3,33,110,2 ; n5007 t=278.365 A1
    db 0,0,232,3,79,110,7 ; n5008 t=278.365 G5
    db 0,0,232,3,69,110,8 ; n5009 t=278.365 A4
    db 0,0,232,3,69,110,9 ; n5010 t=278.365 A4
    db 144,0,232,3,61,110,11 ; n5011 t=278.365 C#4
    db 144,0,232,3,65,110,1 ; n5012 t=278.510 F4
    db 0,0,232,3,64,110,1 ; n5013 t=278.654 E4
    db 0,0,232,3,76,110,8 ; n5014 t=278.654 E5
    db 144,0,232,3,59,110,11 ; n5015 t=278.654 B3
    db 144,0,232,3,62,110,1 ; n5016 t=278.798 D4
    db 0,0,232,3,61,110,1 ; n5017 t=278.942 C#4
    db 0,0,232,3,76,110,7 ; n5018 t=278.942 E5
    db 0,0,232,3,79,110,8 ; n5019 t=278.942 G5
    db 0,0,232,3,61,110,9 ; n5020 t=278.942 C#4
    db 144,0,232,3,57,110,11 ; n5021 t=278.942 A3
    db 144,0,232,3,59,110,1 ; n5022 t=279.087 B3
    db 0,0,232,3,57,110,1 ; n5023 t=279.231 A3
    db 0,0,232,3,77,110,7 ; n5024 t=279.231 F5
    db 0,0,232,3,62,110,9 ; n5025 t=279.231 D4
    db 144,0,232,3,62,110,11 ; n5026 t=279.231 D4
    db 0,0,232,3,62,110,1 ; n5027 t=279.375 D4
    db 144,0,232,3,50,110,2 ; n5028 t=279.375 D3
    db 0,0,232,3,64,110,1 ; n5029 t=279.519 E4
    db 0,0,232,3,49,110,2 ; n5030 t=279.519 C#3
    db 0,0,232,3,81,110,7 ; n5031 t=279.519 A5
    db 0,0,232,3,81,110,8 ; n5032 t=279.519 A5
    db 144,0,232,3,62,110,9 ; n5033 t=279.519 D4
    db 0,0,232,3,65,110,1 ; n5034 t=279.663 F4
    db 0,0,232,3,50,110,2 ; n5035 t=279.663 D3
    db 144,0,232,3,77,110,7 ; n5036 t=279.663 F5
    db 0,0,232,3,67,110,1 ; n5037 t=279.808 G4
    db 0,0,232,3,38,110,2 ; n5038 t=279.808 D2
    db 0,0,232,3,74,110,7 ; n5039 t=279.808 D5
    db 144,0,232,3,62,110,9 ; n5040 t=279.808 D4
    db 144,0,232,3,64,110,1 ; n5041 t=279.952 E4
    db 0,0,232,3,65,110,1 ; n5042 t=280.096 F4
    db 0,0,232,3,81,110,7 ; n5043 t=280.096 A5
    db 0,0,232,3,81,110,8 ; n5044 t=280.096 A5
    db 144,0,232,3,62,110,9 ; n5045 t=280.096 D4
    db 0,0,232,3,62,110,1 ; n5046 t=280.240 D4
    db 144,0,232,3,77,110,8 ; n5047 t=280.240 F5
    db 0,0,232,3,57,110,1 ; n5048 t=280.385 A3
    db 0,0,232,3,74,110,8 ; n5049 t=280.385 D5
    db 144,0,232,3,62,110,9 ; n5050 t=280.385 D4
    db 0,0,232,3,62,110,1 ; n5051 t=280.529 D4
    db 144,0,232,3,50,110,2 ; n5052 t=280.529 D3
    db 0,0,232,3,64,110,1 ; n5053 t=280.673 E4
    db 0,0,232,3,48,110,2 ; n5054 t=280.673 C3
    db 0,0,232,3,81,110,7 ; n5055 t=280.673 A5
    db 0,0,232,3,82,110,8 ; n5056 t=280.673 A#5
    db 0,0,232,3,62,110,9 ; n5057 t=280.673 D4
    db 144,0,232,3,62,110,11 ; n5058 t=280.673 D4
    db 0,0,232,3,65,110,1 ; n5059 t=280.817 F4
    db 0,0,232,3,50,110,2 ; n5060 t=280.817 D3
    db 144,0,232,3,77,110,7 ; n5061 t=280.817 F5
    db 0,0,232,3,67,110,1 ; n5062 t=280.962 G4
    db 0,0,232,3,46,110,2 ; n5063 t=280.962 A#2
    db 0,0,232,3,74,110,7 ; n5064 t=280.962 D5
    db 0,0,232,3,62,110,9 ; n5065 t=280.962 D4
    db 144,0,232,3,58,110,11 ; n5066 t=280.962 A#3
    db 0,0,232,3,64,110,1 ; n5067 t=281.106 E4
    db 144,0,232,3,43,110,2 ; n5068 t=281.106 G2
    db 0,0,232,3,65,110,1 ; n5069 t=281.250 F4
    db 0,0,232,3,45,110,2 ; n5070 t=281.250 A2
    db 0,0,232,3,82,110,7 ; n5071 t=281.250 A#5
    db 0,0,232,3,74,110,8 ; n5072 t=281.250 D5
    db 0,0,232,3,62,110,9 ; n5073 t=281.250 D4
    db 144,0,232,3,55,110,11 ; n5074 t=281.250 G3
    db 0,0,232,3,62,110,1 ; n5075 t=281.394 D4
    db 0,0,232,3,46,110,2 ; n5076 t=281.394 A#2
    db 144,0,232,3,70,110,8 ; n5077 t=281.394 A#4
    db 0,0,232,3,64,110,1 ; n5078 t=281.538 E4
    db 0,0,232,3,48,110,2 ; n5079 t=281.538 C3
    db 0,0,232,3,64,110,8 ; n5080 t=281.538 E4
    db 0,0,232,3,60,110,9 ; n5081 t=281.538 C4
    db 144,0,232,3,60,110,11 ; n5082 t=281.538 C4
    db 0,0,232,3,69,110,1 ; n5083 t=281.683 A4
    db 144,0,232,3,57,110,2 ; n5084 t=281.683 A3
    db 0,0,232,3,71,110,1 ; n5085 t=281.827 B4
    db 0,0,232,3,56,110,2 ; n5086 t=281.827 G#3
    db 0,0,232,3,76,110,7 ; n5087 t=281.827 E5
    db 0,0,232,3,81,110,8 ; n5088 t=281.827 A5
    db 144,0,232,3,60,110,9 ; n5089 t=281.827 C4
    db 0,0,232,3,72,110,1 ; n5090 t=281.971 C5
    db 0,0,232,3,57,110,2 ; n5091 t=281.971 A3
    db 144,0,232,3,72,110,7 ; n5092 t=281.971 C5
    db 0,0,232,3,74,110,1 ; n5093 t=282.115 D5
    db 0,0,232,3,45,110,2 ; n5094 t=282.115 A2
    db 0,0,232,3,69,110,7 ; n5095 t=282.115 A4
    db 144,0,232,3,60,110,9 ; n5096 t=282.115 C4
    db 144,0,232,3,71,110,1 ; n5097 t=282.260 B4
    db 0,0,232,3,72,110,1 ; n5098 t=282.404 C5
    db 0,0,232,3,81,110,7 ; n5099 t=282.404 A5
    db 0,0,232,3,76,110,8 ; n5100 t=282.404 E5
    db 144,0,232,3,60,110,9 ; n5101 t=282.404 C4
    db 0,0,232,3,69,110,1 ; n5102 t=282.548 A4
    db 144,0,232,3,72,110,8 ; n5103 t=282.548 C5
    db 0,0,232,3,64,110,1 ; n5104 t=282.692 E4
    db 0,0,232,3,69,110,8 ; n5105 t=282.692 A4
    db 144,0,232,3,60,110,9 ; n5106 t=282.692 C4
    db 0,0,232,3,69,110,1 ; n5107 t=282.837 A4
    db 144,0,232,3,57,110,2 ; n5108 t=282.837 A3
    db 0,0,232,3,71,110,1 ; n5109 t=282.981 B4
    db 0,0,232,3,56,110,2 ; n5110 t=282.981 G#3
    db 0,0,232,3,76,110,7 ; n5111 t=282.981 E5
    db 0,0,232,3,81,110,8 ; n5112 t=282.981 A5
    db 0,0,232,3,60,110,9 ; n5113 t=282.981 C4
    db 144,0,232,3,48,110,11 ; n5114 t=282.981 C3
    db 0,0,232,3,72,110,1 ; n5115 t=283.125 C5
    db 0,0,232,3,57,110,2 ; n5116 t=283.125 A3
    db 144,0,232,3,72,110,7 ; n5117 t=283.125 C5
    db 0,0,232,3,74,110,1 ; n5118 t=283.269 D5
    db 0,0,232,3,53,110,2 ; n5119 t=283.269 F3
    db 0,0,232,3,69,110,7 ; n5120 t=283.269 A4
    db 0,0,232,3,60,110,9 ; n5121 t=283.269 C4
    db 144,0,232,3,53,110,11 ; n5122 t=283.269 F3
    db 0,0,232,3,71,110,1 ; n5123 t=283.413 B4
    db 144,0,232,3,50,110,2 ; n5124 t=283.413 D3
    db 0,0,232,3,72,110,1 ; n5125 t=283.558 C5
    db 0,0,232,3,52,110,2 ; n5126 t=283.558 E3
    db 0,0,232,3,81,110,7 ; n5127 t=283.558 A5
    db 0,0,232,3,76,110,8 ; n5128 t=283.558 E5
    db 0,0,232,3,60,110,9 ; n5129 t=283.558 C4
    db 144,0,232,3,57,110,11 ; n5130 t=283.558 A3
    db 0,0,232,3,69,110,1 ; n5131 t=283.702 A4
    db 0,0,232,3,53,110,2 ; n5132 t=283.702 F3
    db 144,0,232,3,72,110,8 ; n5133 t=283.702 C5
    db 0,0,232,3,62,110,1 ; n5134 t=283.846 D4
    db 0,0,232,3,46,110,2 ; n5135 t=283.846 A#2
    db 0,0,232,3,65,110,8 ; n5136 t=283.846 F4
    db 0,0,232,3,58,110,9 ; n5137 t=283.846 A#3
    db 144,0,232,3,46,110,11 ; n5138 t=283.846 A#2
    db 0,0,232,3,74,110,1 ; n5139 t=283.990 D5
    db 144,0,232,3,62,110,2 ; n5140 t=283.990 D4
    db 0,0,232,3,76,110,1 ; n5141 t=284.135 E5
    db 0,0,232,3,61,110,2 ; n5142 t=284.135 C#4
    db 0,0,232,3,81,110,7 ; n5143 t=284.135 A5
    db 0,0,232,3,81,110,8 ; n5144 t=284.135 A5
    db 144,0,232,3,58,110,9 ; n5145 t=284.135 A#3
    db 0,0,232,3,77,110,1 ; n5146 t=284.279 F5
    db 0,0,232,3,62,110,2 ; n5147 t=284.279 D4
    db 144,0,232,3,77,110,7 ; n5148 t=284.279 F5
    db 0,0,232,3,79,110,1 ; n5149 t=284.423 G5
    db 0,0,232,3,46,110,2 ; n5150 t=284.423 A#2
    db 0,0,232,3,74,110,7 ; n5151 t=284.423 D5
    db 144,0,232,3,58,110,9 ; n5152 t=284.423 A#3
    db 144,0,232,3,76,110,1 ; n5153 t=284.567 E5
    db 0,0,232,3,77,110,1 ; n5154 t=284.712 F5
    db 0,0,232,3,81,110,7 ; n5155 t=284.712 A5
    db 0,0,232,3,81,110,8 ; n5156 t=284.712 A5
    db 144,0,232,3,58,110,9 ; n5157 t=284.712 A#3
    db 0,0,232,3,74,110,1 ; n5158 t=284.856 D5
    db 144,0,232,3,77,110,8 ; n5159 t=284.856 F5
    db 0,0,232,3,62,110,1 ; n5160 t=285.000 D4
    db 0,0,232,3,74,110,8 ; n5161 t=285.000 D5
    db 144,0,232,3,58,110,9 ; n5162 t=285.000 A#3
    db 0,0,232,3,74,110,1 ; n5163 t=285.144 D5
    db 144,0,232,3,62,110,2 ; n5164 t=285.144 D4
    db 0,0,232,3,76,110,1 ; n5165 t=285.288 E5
    db 0,0,232,3,61,110,2 ; n5166 t=285.288 C#4
    db 0,0,232,3,81,110,7 ; n5167 t=285.288 A5
    db 0,0,232,3,82,110,8 ; n5168 t=285.288 A#5
    db 0,0,232,3,58,110,9 ; n5169 t=285.288 A#3
    db 144,0,232,3,46,110,11 ; n5170 t=285.288 A#2
    db 0,0,232,3,77,110,1 ; n5171 t=285.433 F5
    db 0,0,232,3,62,110,2 ; n5172 t=285.433 D4
    db 144,0,232,3,77,110,7 ; n5173 t=285.433 F5
    db 0,0,232,3,79,110,1 ; n5174 t=285.577 G5
    db 0,0,232,3,58,110,2 ; n5175 t=285.577 A#3
    db 0,0,232,3,74,110,7 ; n5176 t=285.577 D5
    db 0,0,232,3,58,110,9 ; n5177 t=285.577 A#3
    db 144,0,232,3,52,110,11 ; n5178 t=285.577 E3
    db 0,0,232,3,76,110,1 ; n5179 t=285.721 E5
    db 144,0,232,3,55,110,2 ; n5180 t=285.721 G3
    db 0,0,232,3,77,110,1 ; n5181 t=285.865 F5
    db 0,0,232,3,57,110,2 ; n5182 t=285.865 A3
    db 0,0,232,3,82,110,7 ; n5183 t=285.865 A#5
    db 0,0,232,3,82,110,8 ; n5184 t=285.865 A#5
    db 0,0,232,3,58,110,9 ; n5185 t=285.865 A#3
    db 144,0,232,3,55,110,11 ; n5186 t=285.865 G3
    db 0,0,232,3,74,110,1 ; n5187 t=286.010 D5
    db 0,0,232,3,58,110,2 ; n5188 t=286.010 A#3
    db 144,0,232,3,79,110,8 ; n5189 t=286.010 G5
    db 0,0,232,3,73,110,1 ; n5190 t=286.154 C#5
    db 0,0,232,3,45,110,2 ; n5191 t=286.154 A2
    db 0,0,232,3,76,110,8 ; n5192 t=286.154 E5
    db 0,0,232,3,57,110,9 ; n5193 t=286.154 A3
    db 144,0,232,3,45,110,11 ; n5194 t=286.154 A2
    db 0,0,232,3,76,110,1 ; n5195 t=286.298 E5
    db 144,0,232,3,64,110,2 ; n5196 t=286.298 E4
    db 0,0,232,3,77,110,1 ; n5197 t=286.442 F5
    db 0,0,232,3,62,110,2 ; n5198 t=286.442 D4
    db 0,0,232,3,82,110,7 ; n5199 t=286.442 A#5
    db 0,0,232,3,73,110,8 ; n5200 t=286.442 C#5
    db 144,0,232,3,57,110,9 ; n5201 t=286.442 A3
    db 0,0,232,3,79,110,1 ; n5202 t=286.587 G5
    db 0,0,232,3,64,110,2 ; n5203 t=286.587 E4
    db 144,0,232,3,79,110,7 ; n5204 t=286.587 G5
    db 0,0,232,3,81,110,1 ; n5205 t=286.731 A5
    db 0,0,232,3,61,110,2 ; n5206 t=286.731 C#4
    db 0,0,232,3,76,110,7 ; n5207 t=286.731 E5
    db 144,0,232,3,57,110,9 ; n5208 t=286.731 A3
    db 144,0,232,3,77,110,1 ; n5209 t=286.875 F5
    db 0,0,232,3,79,110,1 ; n5210 t=287.019 G5
    db 0,0,232,3,79,110,7 ; n5211 t=287.019 G5
    db 0,0,232,3,76,110,8 ; n5212 t=287.019 E5
    db 144,0,232,3,57,110,9 ; n5213 t=287.019 A3
    db 0,0,232,3,76,110,1 ; n5214 t=287.163 E5
    db 144,0,232,3,73,110,8 ; n5215 t=287.163 C#5
    db 0,0,232,3,73,110,1 ; n5216 t=287.308 C#5
    db 0,0,232,3,69,110,8 ; n5217 t=287.308 A4
    db 144,0,232,3,57,110,9 ; n5218 t=287.308 A3
    db 0,0,232,3,76,110,1 ; n5219 t=287.452 E5
    db 144,0,232,3,64,110,2 ; n5220 t=287.452 E4
    db 0,0,232,3,77,110,1 ; n5221 t=287.596 F5
    db 0,0,232,3,62,110,2 ; n5222 t=287.596 D4
    db 0,0,232,3,76,110,7 ; n5223 t=287.596 E5
    db 0,0,232,3,69,110,8 ; n5224 t=287.596 A4
    db 0,0,232,3,57,110,9 ; n5225 t=287.596 A3
    db 144,0,232,3,52,110,11 ; n5226 t=287.596 E3
    db 0,0,232,3,79,110,1 ; n5227 t=287.740 G5
    db 0,0,232,3,64,110,2 ; n5228 t=287.740 E4
    db 144,0,232,3,73,110,7 ; n5229 t=287.740 C#5
    db 0,0,232,3,81,110,1 ; n5230 t=287.885 A5
    db 0,0,232,3,61,110,2 ; n5231 t=287.885 C#4
    db 0,0,232,3,69,110,7 ; n5232 t=287.885 A4
    db 0,0,232,3,57,110,9 ; n5233 t=287.885 A3
    db 144,0,232,3,49,110,11 ; n5234 t=287.885 C#3
    db 0,0,232,3,77,110,1 ; n5235 t=288.029 F5
    db 144,0,232,3,62,110,2 ; n5236 t=288.029 D4
    db 0,0,232,3,79,110,1 ; n5237 t=288.173 G5
    db 0,0,232,3,64,110,2 ; n5238 t=288.173 E4
    db 0,0,232,3,73,110,7 ; n5239 t=288.173 C#5
    db 0,0,232,3,64,110,8 ; n5240 t=288.173 E4
    db 0,0,232,3,57,110,9 ; n5241 t=288.173 A3
    db 144,0,232,3,45,110,11 ; n5242 t=288.173 A2
    db 0,0,232,3,76,110,1 ; n5243 t=288.317 E5
    db 0,0,232,3,57,110,2 ; n5244 t=288.317 A3
    db 144,0,232,3,61,110,8 ; n5245 t=288.317 C#4
    db 0,0,232,3,77,110,1 ; n5246 t=288.462 F5
    db 0,0,232,3,62,110,2 ; n5247 t=288.462 D4
    db 0,0,232,3,77,110,7 ; n5248 t=288.462 F5
    db 0,0,232,3,62,110,8 ; n5249 t=288.462 D4
    db 0,0,232,3,57,110,9 ; n5250 t=288.462 A3
    db 144,0,232,3,50,110,11 ; n5251 t=288.462 D3
    db 0,0,232,3,74,110,1 ; n5252 t=288.606 D5
    db 144,0,232,3,64,110,8 ; n5253 t=288.606 E4
    db 0,0,232,3,77,110,1 ; n5254 t=288.750 F5
    db 0,0,232,3,50,110,2 ; n5255 t=288.750 D3
    db 0,0,232,3,65,110,8 ; n5256 t=288.750 F4
    db 144,0,232,3,50,110,11 ; n5257 t=288.750 D3
    db 144,0,232,3,81,110,1 ; n5258 t=288.894 A5
    db 0,0,232,3,86,110,1 ; n5259 t=289.038 D6
    db 0,0,232,3,50,110,2 ; n5260 t=289.038 D3
    db 0,0,232,3,81,110,7 ; n5261 t=289.038 A5
    db 0,0,232,3,64,110,8 ; n5262 t=289.038 E4
    db 0,0,232,3,62,110,9 ; n5263 t=289.038 D4
    db 144,0,232,3,50,110,11 ; n5264 t=289.038 D3
    db 144,0,232,3,74,110,1 ; n5265 t=289.183 D5
    db 0,0,232,3,77,110,1 ; n5266 t=289.327 F5
    db 0,0,232,3,62,110,2 ; n5267 t=289.327 D4
    db 0,0,232,3,62,110,8 ; n5268 t=289.327 D4
    db 144,0,232,3,50,110,11 ; n5269 t=289.327 D3
    db 144,0,232,3,81,110,1 ; n5270 t=289.471 A5
    db 0,0,232,3,86,110,1 ; n5271 t=289.615 D6
    db 0,0,232,3,60,110,2 ; n5272 t=289.615 C4
    db 0,0,232,3,78,110,7 ; n5273 t=289.615 F#5
    db 0,0,232,3,69,110,8 ; n5274 t=289.615 A4
    db 144,0,232,3,48,110,11 ; n5275 t=289.615 C3
    db 144,0,232,3,74,110,1 ; n5276 t=289.760 D5
    db 0,0,232,3,78,110,1 ; n5277 t=289.904 F#5
    db 0,0,232,3,48,110,2 ; n5278 t=289.904 C3
    db 0,0,232,3,74,110,8 ; n5279 t=289.904 D5
    db 144,0,232,3,48,110,11 ; n5280 t=289.904 C3
    db 144,0,232,3,81,110,1 ; n5281 t=290.048 A5
    db 0,0,232,3,86,110,1 ; n5282 t=290.192 D6
    db 0,0,232,3,48,110,2 ; n5283 t=290.192 C3
    db 0,0,232,3,74,110,7 ; n5284 t=290.192 D5
    db 0,0,232,3,60,110,9 ; n5285 t=290.192 C4
    db 144,0,232,3,48,110,11 ; n5286 t=290.192 C3
    db 144,0,232,3,74,110,1 ; n5287 t=290.337 D5
    db 0,0,232,3,78,110,1 ; n5288 t=290.481 F#5
    db 0,0,232,3,60,110,2 ; n5289 t=290.481 C4
    db 0,0,232,3,66,110,8 ; n5290 t=290.481 F#4
    db 144,0,232,3,48,110,11 ; n5291 t=290.481 C3
    db 144,0,232,3,81,110,1 ; n5292 t=290.625 A5
    db 0,0,232,3,86,110,1 ; n5293 t=290.769 D6
    db 0,0,232,3,58,110,2 ; n5294 t=290.769 A#3
    db 0,0,232,3,67,110,7 ; n5295 t=290.769 G4
    db 0,0,232,3,67,110,8 ; n5296 t=290.769 G4
    db 144,0,232,3,46,110,11 ; n5297 t=290.769 A#2
    db 0,0,232,3,74,110,1 ; n5298 t=290.913 D5
    db 144,0,232,3,69,110,7 ; n5299 t=290.913 A4
    db 0,0,232,3,79,110,1 ; n5300 t=291.058 G5
    db 0,0,232,3,46,110,2 ; n5301 t=291.058 A#2
    db 0,0,232,3,70,110,7 ; n5302 t=291.058 A#4
    db 144,0,232,3,46,110,11 ; n5303 t=291.058 A#2
    db 144,0,232,3,82,110,1 ; n5304 t=291.202 A#5
    db 0,0,232,3,86,110,1 ; n5305 t=291.346 D6
    db 0,0,232,3,46,110,2 ; n5306 t=291.346 A#2
    db 0,0,232,3,69,110,7 ; n5307 t=291.346 A4
    db 0,0,232,3,70,110,8 ; n5308 t=291.346 A#4
    db 0,0,232,3,58,110,9 ; n5309 t=291.346 A#3
    db 144,0,232,3,46,110,11 ; n5310 t=291.346 A#2
    db 144,0,232,3,74,110,1 ; n5311 t=291.490 D5
    db 0,0,232,3,79,110,1 ; n5312 t=291.635 G5
    db 0,0,232,3,58,110,2 ; n5313 t=291.635 A#3
    db 0,0,232,3,67,110,7 ; n5314 t=291.635 G4
    db 144,0,232,3,46,110,11 ; n5315 t=291.635 A#2
    db 144,0,232,3,82,110,1 ; n5316 t=291.779 A#5
    db 0,0,232,3,86,110,1 ; n5317 t=291.923 D6
    db 0,0,232,3,59,110,2 ; n5318 t=291.923 B3
    db 0,0,232,3,74,110,7 ; n5319 t=291.923 D5
    db 0,0,232,3,67,110,8 ; n5320 t=291.923 G4
    db 144,0,232,3,47,110,11 ; n5321 t=291.923 B2
    db 144,0,232,3,74,110,1 ; n5322 t=292.067 D5
    db 0,0,232,3,77,110,1 ; n5323 t=292.212 F5
    db 0,0,232,3,47,110,2 ; n5324 t=292.212 B2
    db 0,0,232,3,79,110,7 ; n5325 t=292.212 G5
    db 144,0,232,3,47,110,11 ; n5326 t=292.212 B2
    db 144,0,232,3,83,110,1 ; n5327 t=292.356 B5
    db 0,0,232,3,86,110,1 ; n5328 t=292.500 D6
    db 0,0,232,3,47,110,2 ; n5329 t=292.500 B2
    db 0,0,232,3,62,110,8 ; n5330 t=292.500 D4
    db 0,0,232,3,59,110,9 ; n5331 t=292.500 B3
    db 144,0,232,3,47,110,11 ; n5332 t=292.500 B2
    db 144,0,232,3,83,110,1 ; n5333 t=292.644 B5
    db 0,0,232,3,77,110,1 ; n5334 t=292.788 F5
    db 0,0,232,3,59,110,2 ; n5335 t=292.788 B3
    db 0,0,232,3,74,110,7 ; n5336 t=292.788 D5
    db 144,0,232,3,47,110,11 ; n5337 t=292.788 B2
    db 144,0,232,3,74,110,1 ; n5338 t=292.933 D5
    db 0,0,232,3,75,110,1 ; n5339 t=293.077 D#5
    db 0,0,232,3,60,110,2 ; n5340 t=293.077 C4
    db 0,0,232,3,67,110,7 ; n5341 t=293.077 G4
    db 0,0,232,3,60,110,8 ; n5342 t=293.077 C4
    db 144,0,232,3,48,110,11 ; n5343 t=293.077 C3
    db 0,0,232,3,72,110,1 ; n5344 t=293.221 C5
    db 144,0,232,3,62,110,8 ; n5345 t=293.221 D4
    db 0,0,232,3,75,110,1 ; n5346 t=293.365 D#5
    db 0,0,232,3,48,110,2 ; n5347 t=293.365 C3
    db 0,0,232,3,63,110,8 ; n5348 t=293.365 D#4
    db 144,0,232,3,48,110,11 ; n5349 t=293.365 C3
    db 144,0,232,3,79,110,1 ; n5350 t=293.510 G5
    db 0,0,232,3,84,110,1 ; n5351 t=293.654 C6
    db 0,0,232,3,48,110,2 ; n5352 t=293.654 C3
    db 0,0,232,3,79,110,7 ; n5353 t=293.654 G5
    db 0,0,232,3,62,110,8 ; n5354 t=293.654 D4
    db 0,0,232,3,60,110,9 ; n5355 t=293.654 C4
    db 144,0,232,3,48,110,11 ; n5356 t=293.654 C3
    db 144,0,232,3,72,110,1 ; n5357 t=293.798 C5
    db 0,0,232,3,75,110,1 ; n5358 t=293.942 D#5
    db 0,0,232,3,60,110,2 ; n5359 t=293.942 C4
    db 0,0,232,3,60,110,8 ; n5360 t=293.942 C4
    db 144,0,232,3,48,110,11 ; n5361 t=293.942 C3
    db 144,0,232,3,79,110,1 ; n5362 t=294.087 G5
    db 0,0,232,3,84,110,1 ; n5363 t=294.231 C6
    db 0,0,232,3,58,110,2 ; n5364 t=294.231 A#3
    db 0,0,232,3,76,110,7 ; n5365 t=294.231 E5
    db 0,0,232,3,67,110,8 ; n5366 t=294.231 G4
    db 144,0,232,3,46,110,11 ; n5367 t=294.231 A#2
    db 144,0,232,3,72,110,1 ; n5368 t=294.375 C5
    db 0,0,232,3,76,110,1 ; n5369 t=294.519 E5
    db 0,0,232,3,46,110,2 ; n5370 t=294.519 A#2
    db 0,0,232,3,72,110,8 ; n5371 t=294.519 C5
    db 144,0,232,3,46,110,11 ; n5372 t=294.519 A#2
    db 144,0,232,3,79,110,1 ; n5373 t=294.663 G5
    db 0,0,232,3,84,110,1 ; n5374 t=294.808 C6
    db 0,0,232,3,46,110,2 ; n5375 t=294.808 A#2
    db 0,0,232,3,72,110,7 ; n5376 t=294.808 C5
    db 0,0,232,3,58,110,9 ; n5377 t=294.808 A#3
    db 144,0,232,3,46,110,11 ; n5378 t=294.808 A#2
    db 144,0,232,3,72,110,1 ; n5379 t=294.952 C5
    db 0,0,232,3,76,110,1 ; n5380 t=295.096 E5
    db 0,0,232,3,58,110,2 ; n5381 t=295.096 A#3
    db 0,0,232,3,64,110,8 ; n5382 t=295.096 E4
    db 144,0,232,3,46,110,11 ; n5383 t=295.096 A#2
    db 144,0,232,3,79,110,1 ; n5384 t=295.240 G5
    db 0,0,232,3,84,110,1 ; n5385 t=295.385 C6
    db 0,0,232,3,57,110,2 ; n5386 t=295.385 A3
    db 0,0,232,3,65,110,7 ; n5387 t=295.385 F4
    db 0,0,232,3,65,110,8 ; n5388 t=295.385 F4
    db 144,0,232,3,45,110,11 ; n5389 t=295.385 A2
    db 0,0,232,3,72,110,1 ; n5390 t=295.529 C5
    db 144,0,232,3,67,110,7 ; n5391 t=295.529 G4
    db 0,0,232,3,77,110,1 ; n5392 t=295.673 F5
    db 0,0,232,3,45,110,2 ; n5393 t=295.673 A2
    db 0,0,232,3,69,110,7 ; n5394 t=295.673 A4
    db 144,0,232,3,45,110,11 ; n5395 t=295.673 A2
    db 144,0,232,3,81,110,1 ; n5396 t=295.817 A5
    db 0,0,232,3,84,110,1 ; n5397 t=295.962 C6
    db 0,0,232,3,45,110,2 ; n5398 t=295.962 A2
    db 0,0,232,3,67,110,7 ; n5399 t=295.962 G4
    db 0,0,232,3,69,110,8 ; n5400 t=295.962 A4
    db 0,0,232,3,57,110,9 ; n5401 t=295.962 A3
    db 144,0,232,3,45,110,11 ; n5402 t=295.962 A2
    db 144,0,232,3,72,110,1 ; n5403 t=296.106 C5
    db 0,0,232,3,77,110,1 ; n5404 t=296.250 F5
    db 0,0,232,3,57,110,2 ; n5405 t=296.250 A3
    db 0,0,232,3,65,110,7 ; n5406 t=296.250 F4
    db 144,0,232,3,45,110,11 ; n5407 t=296.250 A2
    db 144,0,232,3,81,110,1 ; n5408 t=296.394 A5
    db 0,0,232,3,84,110,1 ; n5409 t=296.538 C6
    db 0,0,232,3,57,110,2 ; n5410 t=296.538 A3
    db 0,0,232,3,72,110,7 ; n5411 t=296.538 C5
    db 0,0,232,3,65,110,8 ; n5412 t=296.538 F4
    db 144,0,232,3,45,110,11 ; n5413 t=296.538 A2
    db 144,0,232,3,72,110,1 ; n5414 t=296.683 C5
    db 0,0,232,3,75,110,1 ; n5415 t=296.827 D#5
    db 0,0,232,3,45,110,2 ; n5416 t=296.827 A2
    db 0,0,232,3,77,110,7 ; n5417 t=296.827 F5
    db 144,0,232,3,45,110,11 ; n5418 t=296.827 A2
    db 144,0,232,3,81,110,1 ; n5419 t=296.971 A5
    db 0,0,232,3,84,110,1 ; n5420 t=297.115 C6
    db 0,0,232,3,45,110,2 ; n5421 t=297.115 A2
    db 0,0,232,3,60,110,8 ; n5422 t=297.115 C4
    db 0,0,232,3,57,110,9 ; n5423 t=297.115 A3
    db 144,0,232,3,45,110,11 ; n5424 t=297.115 A2
    db 144,0,232,3,81,110,1 ; n5425 t=297.260 A5
    db 0,0,232,3,75,110,1 ; n5426 t=297.404 D#5
    db 0,0,232,3,57,110,2 ; n5427 t=297.404 A3
    db 0,0,232,3,72,110,7 ; n5428 t=297.404 C5
    db 144,0,232,3,45,110,11 ; n5429 t=297.404 A2
    db 144,0,232,3,72,110,1 ; n5430 t=297.548 C5
    db 0,0,232,3,74,110,1 ; n5431 t=297.692 D5
    db 0,0,232,3,58,110,2 ; n5432 t=297.692 A#3
    db 0,0,232,3,65,110,7 ; n5433 t=297.692 F4
    db 0,0,232,3,58,110,8 ; n5434 t=297.692 A#3
    db 144,0,232,3,46,110,11 ; n5435 t=297.692 A#2
    db 0,0,232,3,70,110,1 ; n5436 t=297.837 A#4
    db 144,0,232,3,60,110,8 ; n5437 t=297.837 C4
    db 0,0,232,3,74,110,1 ; n5438 t=297.981 D5
    db 0,0,232,3,46,110,2 ; n5439 t=297.981 A#2
    db 0,0,232,3,62,110,8 ; n5440 t=297.981 D4
    db 144,0,232,3,46,110,11 ; n5441 t=297.981 A#2
    db 144,0,232,3,77,110,1 ; n5442 t=298.125 F5
    db 0,0,232,3,82,110,1 ; n5443 t=298.269 A#5
    db 0,0,232,3,46,110,2 ; n5444 t=298.269 A#2
    db 0,0,232,3,77,110,7 ; n5445 t=298.269 F5
    db 0,0,232,3,60,110,8 ; n5446 t=298.269 C4
    db 0,0,232,3,58,110,9 ; n5447 t=298.269 A#3
    db 144,0,232,3,46,110,11 ; n5448 t=298.269 A#2
    db 144,0,232,3,70,110,1 ; n5449 t=298.413 A#4
    db 0,0,232,3,74,110,1 ; n5450 t=298.558 D5
    db 0,0,232,3,58,110,2 ; n5451 t=298.558 A#3
    db 0,0,232,3,58,110,8 ; n5452 t=298.558 A#3
    db 144,0,232,3,46,110,11 ; n5453 t=298.558 A#2
    db 144,0,232,3,77,110,1 ; n5454 t=298.702 F5
    db 0,0,232,3,82,110,1 ; n5455 t=298.846 A#5
    db 0,0,232,3,56,110,2 ; n5456 t=298.846 G#3
    db 0,0,232,3,74,110,7 ; n5457 t=298.846 D5
    db 0,0,232,3,65,110,8 ; n5458 t=298.846 F4
    db 144,0,232,3,44,110,11 ; n5459 t=298.846 G#2
    db 144,0,232,3,70,110,1 ; n5460 t=298.990 A#4
    db 0,0,232,3,74,110,1 ; n5461 t=299.135 D5
    db 0,0,232,3,44,110,2 ; n5462 t=299.135 G#2
    db 0,0,232,3,70,110,8 ; n5463 t=299.135 A#4
    db 144,0,232,3,44,110,11 ; n5464 t=299.135 G#2
    db 144,0,232,3,77,110,1 ; n5465 t=299.279 F5
    db 0,0,232,3,82,110,1 ; n5466 t=299.423 A#5
    db 0,0,232,3,44,110,2 ; n5467 t=299.423 G#2
    db 0,0,232,3,70,110,7 ; n5468 t=299.423 A#4
    db 0,0,232,3,56,110,9 ; n5469 t=299.423 G#3
    db 144,0,232,3,44,110,11 ; n5470 t=299.423 G#2
    db 144,0,232,3,70,110,1 ; n5471 t=299.567 A#4
    db 0,0,232,3,74,110,1 ; n5472 t=299.712 D5
    db 0,0,232,3,56,110,2 ; n5473 t=299.712 G#3
    db 0,0,232,3,62,110,8 ; n5474 t=299.712 D4
    db 144,0,232,3,44,110,11 ; n5475 t=299.712 G#2
    db 144,0,232,3,77,110,1 ; n5476 t=299.856 F5
    db 0,0,232,3,82,110,1 ; n5477 t=300.000 A#5
    db 0,0,232,3,55,110,2 ; n5478 t=300.000 G3
    db 0,0,232,3,63,110,7 ; n5479 t=300.000 D#4
    db 0,0,232,3,63,110,8 ; n5480 t=300.000 D#4
    db 144,0,232,3,43,110,11 ; n5481 t=300.000 G2
    db 0,0,232,3,70,110,1 ; n5482 t=300.144 A#4
    db 144,0,232,3,65,110,7 ; n5483 t=300.144 F4
    db 0,0,232,3,75,110,1 ; n5484 t=300.288 D#5
    db 0,0,232,3,43,110,2 ; n5485 t=300.288 G2
    db 0,0,232,3,67,110,7 ; n5486 t=300.288 G4
    db 144,0,232,3,43,110,11 ; n5487 t=300.288 G2
    db 144,0,232,3,79,110,1 ; n5488 t=300.433 G5
    db 0,0,232,3,82,110,1 ; n5489 t=300.577 A#5
    db 0,0,232,3,43,110,2 ; n5490 t=300.577 G2
    db 0,0,232,3,65,110,7 ; n5491 t=300.577 F4
    db 0,0,232,3,67,110,8 ; n5492 t=300.577 G4
    db 0,0,232,3,55,110,9 ; n5493 t=300.577 G3
    db 144,0,232,3,43,110,11 ; n5494 t=300.577 G2
    db 144,0,232,3,70,110,1 ; n5495 t=300.721 A#4
    db 0,0,232,3,75,110,1 ; n5496 t=300.865 D#5
    db 0,0,232,3,55,110,2 ; n5497 t=300.865 G3
    db 0,0,232,3,63,110,7 ; n5498 t=300.865 D#4
    db 144,0,232,3,43,110,11 ; n5499 t=300.865 G2
    db 144,0,232,3,79,110,1 ; n5500 t=301.010 G5
    db 0,0,232,3,82,110,1 ; n5501 t=301.154 A#5
    db 0,0,232,3,55,110,2 ; n5502 t=301.154 G3
    db 0,0,232,3,70,110,7 ; n5503 t=301.154 A#4
    db 0,0,232,3,63,110,8 ; n5504 t=301.154 D#4
    db 144,0,232,3,43,110,11 ; n5505 t=301.154 G2
    db 144,0,232,3,70,110,1 ; n5506 t=301.298 A#4
    db 0,0,232,3,75,110,1 ; n5507 t=301.442 D#5
    db 0,0,232,3,43,110,2 ; n5508 t=301.442 G2
    db 0,0,232,3,75,110,7 ; n5509 t=301.442 D#5
    db 144,0,232,3,43,110,11 ; n5510 t=301.442 G2
    db 144,0,232,3,79,110,1 ; n5511 t=301.587 G5
    db 0,0,232,3,82,110,1 ; n5512 t=301.731 A#5
    db 0,0,232,3,43,110,2 ; n5513 t=301.731 G2
    db 0,0,232,3,67,110,8 ; n5514 t=301.731 G4
    db 0,0,232,3,55,110,9 ; n5515 t=301.731 G3
    db 144,0,232,3,43,110,11 ; n5516 t=301.731 G2
    db 144,0,232,3,79,110,1 ; n5517 t=301.875 G5
    db 0,0,232,3,75,110,1 ; n5518 t=302.019 D#5
    db 0,0,232,3,55,110,2 ; n5519 t=302.019 G3
    db 0,0,232,3,70,110,7 ; n5520 t=302.019 A#4
    db 144,0,232,3,43,110,11 ; n5521 t=302.019 G2
    db 144,0,232,3,79,110,1 ; n5522 t=302.163 G5
    db 0,0,232,3,73,110,1 ; n5523 t=302.308 C#5
    db 0,0,232,3,55,110,2 ; n5524 t=302.308 G3
    db 0,0,232,3,69,110,7 ; n5525 t=302.308 A4
    db 0,0,232,3,64,110,8 ; n5526 t=302.308 E4
    db 0,0,232,3,57,110,9 ; n5527 t=302.308 A3
    db 144,0,232,3,43,110,11 ; n5528 t=302.308 G2
    db 0,0,232,3,69,110,1 ; n5529 t=302.452 A4
    db 144,0,232,3,67,110,2 ; n5530 t=302.452 G4
    db 0,0,232,3,73,110,1 ; n5531 t=302.596 C#5
    db 0,0,232,3,64,110,2 ; n5532 t=302.596 E4
    db 0,0,232,3,69,110,7 ; n5533 t=302.596 A4
    db 144,0,232,3,76,110,9 ; n5534 t=302.596 E5
    db 0,0,232,3,76,110,1 ; n5535 t=302.740 E5
    db 144,0,232,3,61,110,2 ; n5536 t=302.740 C#4
    db 0,0,232,3,81,110,1 ; n5537 t=302.885 A5
    db 0,0,232,3,57,110,2 ; n5538 t=302.885 A3
    db 0,0,232,3,73,110,7 ; n5539 t=302.885 C#5
    db 144,0,232,3,64,110,8 ; n5540 t=302.885 E4
    db 0,0,232,3,69,110,1 ; n5541 t=303.029 A4
    db 144,0,232,3,64,110,2 ; n5542 t=303.029 E4
    db 0,0,232,3,73,110,1 ; n5543 t=303.173 C#5
    db 0,0,232,3,61,110,2 ; n5544 t=303.173 C#4
    db 0,0,232,3,73,110,7 ; n5545 t=303.173 C#5
    db 144,0,232,3,69,110,9 ; n5546 t=303.173 A4
    db 0,0,232,3,76,110,1 ; n5547 t=303.317 E5
    db 144,0,232,3,57,110,2 ; n5548 t=303.317 A3
    db 0,0,232,3,81,110,1 ; n5549 t=303.462 A5
    db 0,0,232,3,53,110,2 ; n5550 t=303.462 F3
    db 0,0,232,3,74,110,7 ; n5551 t=303.462 D5
    db 0,0,232,3,65,110,8 ; n5552 t=303.462 F4
    db 144,0,232,3,41,110,11 ; n5553 t=303.462 F2
    db 144,0,232,3,69,110,1 ; n5554 t=303.606 A4
    db 0,0,232,3,74,110,1 ; n5555 t=303.750 D5
    db 0,0,232,3,65,110,2 ; n5556 t=303.750 F4
    db 0,0,232,3,74,110,7 ; n5557 t=303.750 D5
    db 144,0,232,3,65,110,9 ; n5558 t=303.750 F4
    db 144,0,232,3,77,110,1 ; n5559 t=303.894 F5
    db 0,0,232,3,81,110,1 ; n5560 t=304.038 A5
    db 0,0,232,3,77,110,7 ; n5561 t=304.038 F5
    db 144,0,232,3,69,110,8 ; n5562 t=304.038 A4
    db 144,0,232,3,77,110,1 ; n5563 t=304.183 F5
    db 0,0,232,3,74,110,1 ; n5564 t=304.327 D5
    db 0,0,232,3,77,110,7 ; n5565 t=304.327 F5
    db 144,0,232,3,62,110,9 ; n5566 t=304.327 D4
    db 144,0,232,3,77,110,1 ; n5567 t=304.471 F5
    db 0,0,232,3,71,110,1 ; n5568 t=304.615 B4
    db 0,0,232,3,67,110,7 ; n5569 t=304.615 G4
    db 0,0,232,3,71,110,8 ; n5570 t=304.615 B4
    db 144,0,232,3,41,110,11 ; n5571 t=304.615 F2
    db 0,0,232,3,67,110,1 ; n5572 t=304.760 G4
    db 144,0,232,3,65,110,2 ; n5573 t=304.760 F4
    db 0,0,232,3,71,110,1 ; n5574 t=304.904 B4
    db 0,0,232,3,62,110,2 ; n5575 t=304.904 D4
    db 0,0,232,3,67,110,7 ; n5576 t=304.904 G4
    db 144,0,232,3,74,110,9 ; n5577 t=304.904 D5
    db 0,0,232,3,74,110,1 ; n5578 t=305.048 D5
    db 144,0,232,3,59,110,2 ; n5579 t=305.048 B3
    db 0,0,232,3,79,110,1 ; n5580 t=305.192 G5
    db 0,0,232,3,55,110,2 ; n5581 t=305.192 G3
    db 0,0,232,3,71,110,7 ; n5582 t=305.192 B4
    db 144,0,232,3,62,110,8 ; n5583 t=305.192 D4
    db 0,0,232,3,67,110,1 ; n5584 t=305.337 G4
    db 144,0,232,3,62,110,2 ; n5585 t=305.337 D4
    db 0,0,232,3,71,110,1 ; n5586 t=305.481 B4
    db 0,0,232,3,59,110,2 ; n5587 t=305.481 B3
    db 0,0,232,3,71,110,7 ; n5588 t=305.481 B4
    db 144,0,232,3,67,110,9 ; n5589 t=305.481 G4
    db 0,0,232,3,74,110,1 ; n5590 t=305.625 D5
    db 144,0,232,3,55,110,2 ; n5591 t=305.625 G3
    db 0,0,232,3,79,110,1 ; n5592 t=305.769 G5
    db 0,0,232,3,51,110,2 ; n5593 t=305.769 D#3
    db 0,0,232,3,72,110,7 ; n5594 t=305.769 C5
    db 0,0,232,3,63,110,8 ; n5595 t=305.769 D#4
    db 144,0,232,3,39,110,11 ; n5596 t=305.769 D#2
    db 144,0,232,3,67,110,1 ; n5597 t=305.913 G4
    db 0,0,232,3,72,110,1 ; n5598 t=306.058 C5
    db 0,0,232,3,63,110,2 ; n5599 t=306.058 D#4
    db 0,0,232,3,72,110,7 ; n5600 t=306.058 C5
    db 144,0,232,3,63,110,9 ; n5601 t=306.058 D#4
    db 144,0,232,3,75,110,1 ; n5602 t=306.202 D#5
    db 0,0,232,3,79,110,1 ; n5603 t=306.346 G5
    db 0,0,232,3,75,110,7 ; n5604 t=306.346 D#5
    db 144,0,232,3,67,110,8 ; n5605 t=306.346 G4
    db 144,0,232,3,75,110,1 ; n5606 t=306.490 D#5
    db 0,0,232,3,72,110,1 ; n5607 t=306.635 C5
    db 0,0,232,3,75,110,7 ; n5608 t=306.635 D#5
    db 144,0,232,3,60,110,9 ; n5609 t=306.635 C4
    db 144,0,232,3,75,110,1 ; n5610 t=306.779 D#5
    db 0,0,232,3,69,110,1 ; n5611 t=306.923 A4
    db 0,0,232,3,65,110,7 ; n5612 t=306.923 F4
    db 0,0,232,3,69,110,8 ; n5613 t=306.923 A4
    db 144,0,232,3,39,110,11 ; n5614 t=306.923 D#2
    db 0,0,232,3,65,110,1 ; n5615 t=307.067 F4
    db 144,0,232,3,63,110,2 ; n5616 t=307.067 D#4
    db 0,0,232,3,69,110,1 ; n5617 t=307.212 A4
    db 0,0,232,3,60,110,2 ; n5618 t=307.212 C4
    db 0,0,232,3,65,110,7 ; n5619 t=307.212 F4
    db 144,0,232,3,72,110,9 ; n5620 t=307.212 C5
    db 0,0,232,3,72,110,1 ; n5621 t=307.356 C5
    db 144,0,232,3,57,110,2 ; n5622 t=307.356 A3
    db 0,0,232,3,77,110,1 ; n5623 t=307.500 F5
    db 0,0,232,3,53,110,2 ; n5624 t=307.500 F3
    db 0,0,232,3,69,110,7 ; n5625 t=307.500 A4
    db 144,0,232,3,60,110,8 ; n5626 t=307.500 C4
    db 0,0,232,3,65,110,1 ; n5627 t=307.644 F4
    db 144,0,232,3,60,110,2 ; n5628 t=307.644 C4
    db 0,0,232,3,69,110,1 ; n5629 t=307.788 A4
    db 0,0,232,3,57,110,2 ; n5630 t=307.788 A3
    db 0,0,232,3,69,110,7 ; n5631 t=307.788 A4
    db 144,0,232,3,65,110,9 ; n5632 t=307.788 F4
    db 0,0,232,3,72,110,1 ; n5633 t=307.933 C5
    db 144,0,232,3,53,110,2 ; n5634 t=307.933 F3
    db 0,0,232,3,77,110,1 ; n5635 t=308.077 F5
    db 0,0,232,3,50,110,2 ; n5636 t=308.077 D3
    db 0,0,232,3,70,110,7 ; n5637 t=308.077 A#4
    db 0,0,232,3,62,110,8 ; n5638 t=308.077 D4
    db 144,0,232,3,38,110,11 ; n5639 t=308.077 D2
    db 144,0,232,3,65,110,1 ; n5640 t=308.221 F4
    db 0,0,232,3,70,110,1 ; n5641 t=308.365 A#4
    db 0,0,232,3,62,110,2 ; n5642 t=308.365 D4
    db 0,0,232,3,70,110,7 ; n5643 t=308.365 A#4
    db 144,0,232,3,62,110,9 ; n5644 t=308.365 D4
    db 144,0,232,3,74,110,1 ; n5645 t=308.510 D5
    db 0,0,232,3,77,110,1 ; n5646 t=308.654 F5
    db 0,0,232,3,74,110,7 ; n5647 t=308.654 D5
    db 0,0,232,3,65,110,8 ; n5648 t=308.654 F4
    db 144,0,232,3,50,110,11 ; n5649 t=308.654 D3
    db 0,0,232,3,74,110,1 ; n5650 t=308.798 D5
    db 144,0,232,3,62,110,2 ; n5651 t=308.798 D4
    db 0,0,232,3,70,110,1 ; n5652 t=308.942 A#4
    db 0,0,232,3,65,110,2 ; n5653 t=308.942 F4
    db 0,0,232,3,74,110,7 ; n5654 t=308.942 D5
    db 144,0,232,3,58,110,9 ; n5655 t=308.942 A#3
    db 0,0,232,3,74,110,1 ; n5656 t=309.087 D5
    db 144,0,232,3,62,110,2 ; n5657 t=309.087 D4
    db 0,0,232,3,67,110,1 ; n5658 t=309.231 G4
    db 0,0,232,3,50,110,2 ; n5659 t=309.231 D3
    db 0,0,232,3,75,110,7 ; n5660 t=309.231 D#5
    db 144,0,232,3,67,110,8 ; n5661 t=309.231 G4
    db 0,0,232,3,63,110,1 ; n5662 t=309.375 D#4
    db 144,0,232,3,55,110,2 ; n5663 t=309.375 G3
    db 0,0,232,3,67,110,1 ; n5664 t=309.519 G4
    db 0,0,232,3,58,110,2 ; n5665 t=309.519 A#3
    db 144,0,232,3,63,110,9 ; n5666 t=309.519 D#4
    db 0,0,232,3,70,110,1 ; n5667 t=309.663 A#4
    db 144,0,232,3,62,110,2 ; n5668 t=309.663 D4
    db 0,0,232,3,75,110,1 ; n5669 t=309.808 D#5
    db 0,0,232,3,48,110,2 ; n5670 t=309.808 C3
    db 0,0,232,3,69,110,8 ; n5671 t=309.808 A4
    db 144,0,232,3,48,110,11 ; n5672 t=309.808 C3
    db 0,0,232,3,72,110,1 ; n5673 t=309.952 C5
    db 144,0,232,3,60,110,2 ; n5674 t=309.952 C4
    db 0,0,232,3,69,110,1 ; n5675 t=310.096 A4
    db 0,0,232,3,63,110,2 ; n5676 t=310.096 D#4
    db 144,0,232,3,60,110,9 ; n5677 t=310.096 C4
    db 0,0,232,3,72,110,1 ; n5678 t=310.240 C5
    db 144,0,232,3,60,110,2 ; n5679 t=310.240 C4
    db 0,0,232,3,65,110,1 ; n5680 t=310.385 F4
    db 0,0,232,3,48,110,2 ; n5681 t=310.385 C3
    db 0,0,232,3,74,110,7 ; n5682 t=310.385 D5
    db 0,0,232,3,69,110,8 ; n5683 t=310.385 A4
    db 144,0,232,3,57,110,9 ; n5684 t=310.385 A3
    db 0,0,232,3,62,110,1 ; n5685 t=310.529 D4
    db 144,0,232,3,53,110,2 ; n5686 t=310.529 F3
    db 0,0,232,3,65,110,1 ; n5687 t=310.673 F4
    db 0,0,232,3,57,110,2 ; n5688 t=310.673 A3
    db 144,0,232,3,62,110,9 ; n5689 t=310.673 D4
    db 0,0,232,3,69,110,1 ; n5690 t=310.817 A4
    db 144,0,232,3,60,110,2 ; n5691 t=310.817 C4
    db 0,0,232,3,74,110,1 ; n5692 t=310.962 D5
    db 0,0,232,3,46,110,2 ; n5693 t=310.962 A#2
    db 0,0,232,3,67,110,8 ; n5694 t=310.962 G4
    db 144,0,232,3,46,110,11 ; n5695 t=310.962 A#2
    db 0,0,232,3,70,110,1 ; n5696 t=311.106 A#4
    db 144,0,232,3,58,110,2 ; n5697 t=311.106 A#3
    db 0,0,232,3,67,110,1 ; n5698 t=311.250 G4
    db 0,0,232,3,62,110,2 ; n5699 t=311.250 D4
    db 144,0,232,3,58,110,9 ; n5700 t=311.250 A#3
    db 0,0,232,3,70,110,1 ; n5701 t=311.394 A#4
    db 144,0,232,3,58,110,2 ; n5702 t=311.394 A#3
    db 0,0,232,3,63,110,1 ; n5703 t=311.538 D#4
    db 0,0,232,3,46,110,2 ; n5704 t=311.538 A#2
    db 0,0,232,3,72,110,7 ; n5705 t=311.538 C5
    db 0,0,232,3,67,110,8 ; n5706 t=311.538 G4
    db 144,0,232,3,55,110,9 ; n5707 t=311.538 G3
    db 0,0,232,3,60,110,1 ; n5708 t=311.683 C4
    db 144,0,232,3,51,110,2 ; n5709 t=311.683 D#3
    db 0,0,232,3,63,110,1 ; n5710 t=311.827 D#4
    db 0,0,232,3,55,110,2 ; n5711 t=311.827 G3
    db 144,0,232,3,60,110,9 ; n5712 t=311.827 C4
    db 0,0,232,3,67,110,1 ; n5713 t=311.971 G4
    db 144,0,232,3,58,110,2 ; n5714 t=311.971 A#3
    db 0,0,232,3,72,110,1 ; n5715 t=312.115 C5
    db 0,0,232,3,45,110,2 ; n5716 t=312.115 A2
    db 0,0,232,3,65,110,8 ; n5717 t=312.115 F4
    db 144,0,232,3,45,110,11 ; n5718 t=312.115 A2
    db 0,0,232,3,69,110,1 ; n5719 t=312.260 A4
    db 144,0,232,3,57,110,2 ; n5720 t=312.260 A3
    db 0,0,232,3,65,110,1 ; n5721 t=312.404 F4
    db 0,0,232,3,60,110,2 ; n5722 t=312.404 C4
    db 144,0,232,3,57,110,9 ; n5723 t=312.404 A3
    db 0,0,232,3,69,110,1 ; n5724 t=312.548 A4
    db 144,0,232,3,57,110,2 ; n5725 t=312.548 A3
    db 0,0,232,3,62,110,1 ; n5726 t=312.692 D4
    db 0,0,232,3,46,110,2 ; n5727 t=312.692 A#2
    db 0,0,232,3,70,110,7 ; n5728 t=312.692 A#4
    db 0,0,232,3,70,110,8 ; n5729 t=312.692 A#4
    db 0,0,232,3,53,110,9 ; n5730 t=312.692 F3
    db 144,0,232,3,46,110,11 ; n5731 t=312.692 A#2
    db 0,0,232,3,58,110,1 ; n5732 t=312.837 A#3
    db 144,0,232,3,50,110,2 ; n5733 t=312.837 D3
    db 0,0,232,3,60,110,1 ; n5734 t=312.981 C4
    db 144,0,232,3,51,110,2 ; n5735 t=312.981 D#3
    db 0,0,232,3,62,110,1 ; n5736 t=313.125 D4
    db 144,0,232,3,53,110,2 ; n5737 t=313.125 F3
    db 0,0,232,3,63,110,1 ; n5738 t=313.269 D#4
    db 144,0,232,3,55,110,2 ; n5739 t=313.269 G3
    db 0,0,232,3,65,110,1 ; n5740 t=313.413 F4
    db 144,0,232,3,57,110,2 ; n5741 t=313.413 A3
    db 0,0,232,3,67,110,1 ; n5742 t=313.558 G4
    db 0,0,232,3,58,110,2 ; n5743 t=313.558 A#3
    db 0,0,232,3,72,110,7 ; n5744 t=313.558 C5
    db 0,0,232,3,65,110,8 ; n5745 t=313.558 F4
    db 0,0,232,3,60,110,9 ; n5746 t=313.558 C4
    db 144,0,232,3,45,110,11 ; n5747 t=313.558 A2
    db 0,0,232,3,69,110,1 ; n5748 t=313.702 A4
    db 144,0,232,3,57,110,2 ; n5749 t=313.702 A3
    db 0,0,232,3,70,110,1 ; n5750 t=313.846 A#4
    db 0,0,232,3,55,110,2 ; n5751 t=313.846 G3
    db 0,0,232,3,74,110,3 ; n5752 t=313.846 D5
    db 0,0,232,3,62,110,4 ; n5753 t=313.846 D4
    db 0,0,232,3,67,110,9 ; n5754 t=313.846 G4
    db 144,0,232,3,43,110,11 ; n5755 t=313.846 G2
    db 0,0,232,3,65,110,1 ; n5756 t=313.990 F4
    db 0,0,232,3,57,110,2 ; n5757 t=313.990 A3
    db 0,0,232,3,65,110,3 ; n5758 t=313.990 F4
    db 144,0,232,3,65,110,4 ; n5759 t=313.990 F4
    db 0,0,232,3,67,110,1 ; n5760 t=314.135 G4
    db 0,0,232,3,58,110,2 ; n5761 t=314.135 A#3
    db 0,0,232,3,67,110,3 ; n5762 t=314.135 G4
    db 144,0,232,3,67,110,4 ; n5763 t=314.135 G4
    db 0,0,232,3,69,110,1 ; n5764 t=314.279 A4
    db 0,0,232,3,60,110,2 ; n5765 t=314.279 C4
    db 0,0,232,3,69,110,3 ; n5766 t=314.279 A4
    db 144,0,232,3,69,110,4 ; n5767 t=314.279 A4
    db 0,0,232,3,70,110,1 ; n5768 t=314.423 A#4
    db 0,0,232,3,62,110,2 ; n5769 t=314.423 D4
    db 0,0,232,3,70,110,3 ; n5770 t=314.423 A#4
    db 144,0,232,3,70,110,4 ; n5771 t=314.423 A#4
    db 0,0,232,3,72,110,1 ; n5772 t=314.567 C5
    db 0,0,232,3,63,110,2 ; n5773 t=314.567 D#4
    db 0,0,232,3,72,110,3 ; n5774 t=314.567 C5
    db 144,0,232,3,72,110,4 ; n5775 t=314.567 C5
    db 0,0,232,3,74,110,1 ; n5776 t=314.712 D5
    db 0,0,232,3,65,110,2 ; n5777 t=314.712 F4
    db 0,0,232,3,74,110,3 ; n5778 t=314.712 D5
    db 0,0,232,3,74,110,4 ; n5779 t=314.712 D5
    db 0,0,232,3,58,110,5 ; n5780 t=314.712 A#3
    db 144,0,232,3,41,110,6 ; n5781 t=314.712 F2
    db 0,0,232,3,75,110,1 ; n5782 t=314.856 D#5
    db 0,0,232,3,63,110,2 ; n5783 t=314.856 D#4
    db 0,0,232,3,75,110,3 ; n5784 t=314.856 D#5
    db 0,0,232,3,75,110,4 ; n5785 t=314.856 D#5
    db 0,0,232,3,60,110,5 ; n5786 t=314.856 C4
    db 144,0,232,3,39,110,6 ; n5787 t=314.856 D#2
    db 0,0,232,3,77,110,1 ; n5788 t=315.000 F5
    db 0,0,232,3,62,110,2 ; n5789 t=315.000 D4
    db 0,0,232,3,77,110,3 ; n5790 t=315.000 F5
    db 0,0,232,3,77,110,4 ; n5791 t=315.000 F5
    db 0,0,232,3,62,110,5 ; n5792 t=315.000 D4
    db 32,1,232,3,38,110,6 ; n5793 t=315.000 D2
    db 0,0,232,3,70,110,1 ; n5794 t=315.288 A#4
    db 0,0,232,3,62,110,1 ; n5795 t=315.288 D4
    db 0,0,232,3,57,110,2 ; n5796 t=315.288 A3
    db 0,0,232,3,51,110,2 ; n5797 t=315.288 D#3
    db 0,0,232,3,70,110,3 ; n5798 t=315.288 A#4
    db 0,0,232,3,70,110,4 ; n5799 t=315.288 A#4
    db 0,0,232,3,67,110,5 ; n5800 t=315.288 G4
    db 32,1,232,3,39,110,6 ; n5801 t=315.288 D#2
    db 0,0,232,3,65,110,1 ; n5802 t=315.577 F4
    db 0,0,232,3,60,110,1 ; n5803 t=315.577 C4
    db 0,0,232,3,53,110,2 ; n5804 t=315.577 F3
    db 0,0,232,3,58,110,2 ; n5805 t=315.577 A#3
    db 0,0,232,3,65,110,3 ; n5806 t=315.577 F4
    db 0,0,232,3,65,110,4 ; n5807 t=315.577 F4
    db 0,0,232,3,65,110,5 ; n5808 t=315.577 F4
    db 32,1,232,3,41,110,6 ; n5809 t=315.577 F2
    db 0,0,232,3,69,110,1 ; n5810 t=315.865 A4
    db 0,0,232,3,41,110,2 ; n5811 t=315.865 F2
    db 0,0,232,3,69,110,3 ; n5812 t=315.865 A4
    db 0,0,232,3,69,110,4 ; n5813 t=315.865 A4
    db 0,0,232,3,63,110,5 ; n5814 t=315.865 D#4
    db 32,1,232,3,41,110,6 ; n5815 t=315.865 F2
    db 0,0,232,3,58,110,1 ; n5816 t=316.154 A#3
    db 0,0,232,3,34,110,2 ; n5817 t=316.154 A#1
    db 0,0,232,3,70,110,3 ; n5818 t=316.154 A#4
    db 0,0,232,3,70,110,4 ; n5819 t=316.154 A#4
    db 0,0,232,3,62,110,9 ; n5820 t=316.154 D4
    db 72,0,232,3,46,110,11 ; n5821 t=316.154 A#2
    db 72,0,232,3,60,110,1 ; n5822 t=316.226 C4
    db 0,0,232,3,58,110,1 ; n5823 t=316.298 A#3
    db 0,0,232,3,36,110,2 ; n5824 t=316.298 C2
    db 0,0,232,3,63,110,9 ; n5825 t=316.298 D#4
    db 72,0,232,3,48,110,11 ; n5826 t=316.298 C3
    db 72,0,232,3,60,110,1 ; n5827 t=316.370 C4
    db 0,0,232,3,58,110,1 ; n5828 t=316.442 A#3
    db 0,0,232,3,38,110,2 ; n5829 t=316.442 D2
    db 0,0,232,3,65,110,9 ; n5830 t=316.442 F4
    db 72,0,232,3,50,110,11 ; n5831 t=316.442 D3
    db 72,0,232,3,60,110,1 ; n5832 t=316.514 C4
    db 72,0,232,3,58,110,1 ; n5833 t=316.587 A#3
    db 72,0,232,3,60,110,1 ; n5834 t=316.659 C4
    db 0,0,232,3,58,110,1 ; n5835 t=316.731 A#3
    db 0,0,232,3,36,110,2 ; n5836 t=316.731 C2
    db 0,0,232,3,63,110,9 ; n5837 t=316.731 D#4
    db 72,0,232,3,48,110,11 ; n5838 t=316.731 C3
    db 72,0,232,3,60,110,1 ; n5839 t=316.803 C4
    db 72,0,232,3,58,110,1 ; n5840 t=316.875 A#3
    db 72,0,232,3,60,110,1 ; n5841 t=316.947 C4
    db 0,0,232,3,58,110,1 ; n5842 t=317.019 A#3
    db 0,0,232,3,34,110,2 ; n5843 t=317.019 A#1
    db 0,0,232,3,65,110,7 ; n5844 t=317.019 F4
    db 0,0,232,3,62,110,8 ; n5845 t=317.019 D4
    db 0,0,232,3,62,110,9 ; n5846 t=317.019 D4
    db 72,0,232,3,46,110,11 ; n5847 t=317.019 A#2
    db 72,0,232,3,60,110,1 ; n5848 t=317.091 C4
    db 72,0,232,3,58,110,1 ; n5849 t=317.163 A#3
    db 72,0,232,3,60,110,1 ; n5850 t=317.236 C4
    db 0,0,232,3,58,110,1 ; n5851 t=317.308 A#3
    db 0,0,232,3,39,110,2 ; n5852 t=317.308 D#2
    db 0,0,232,3,67,110,7 ; n5853 t=317.308 G4
    db 0,0,232,3,63,110,8 ; n5854 t=317.308 D#4
    db 0,0,232,3,70,110,9 ; n5855 t=317.308 A#4
    db 72,0,232,3,51,110,11 ; n5856 t=317.308 D#3
    db 72,0,232,3,60,110,1 ; n5857 t=317.380 C4
    db 72,0,232,3,58,110,1 ; n5858 t=317.452 A#3
    db 72,0,232,3,60,110,1 ; n5859 t=317.524 C4
    db 0,0,232,3,58,110,1 ; n5860 t=317.596 A#3
    db 0,0,232,3,46,110,2 ; n5861 t=317.596 A#2
    db 0,0,232,3,65,110,7 ; n5862 t=317.596 F4
    db 0,0,232,3,62,110,8 ; n5863 t=317.596 D4
    db 0,0,232,3,58,110,9 ; n5864 t=317.596 A#3
    db 72,0,232,3,58,110,11 ; n5865 t=317.596 A#3
    db 72,0,232,3,60,110,1 ; n5866 t=317.668 C4
    db 72,0,232,3,58,110,1 ; n5867 t=317.740 A#3
    db 72,0,232,3,60,110,1 ; n5868 t=317.812 C4
    db 0,0,232,3,58,110,1 ; n5869 t=317.885 A#3
    db 0,0,232,3,68,110,7 ; n5870 t=317.885 G#4
    db 0,0,232,3,65,110,8 ; n5871 t=317.885 F4
    db 72,0,232,3,62,110,9 ; n5872 t=317.885 D4
    db 72,0,232,3,60,110,1 ; n5873 t=317.957 C4
    db 72,0,232,3,58,110,1 ; n5874 t=318.029 A#3
    db 72,0,232,3,60,110,1 ; n5875 t=318.101 C4
    db 0,0,232,3,58,110,1 ; n5876 t=318.173 A#3
    db 0,0,232,3,39,110,2 ; n5877 t=318.173 D#2
    db 0,0,232,3,67,110,7 ; n5878 t=318.173 G4
    db 0,0,232,3,63,110,8 ; n5879 t=318.173 D#4
    db 0,0,232,3,63,110,9 ; n5880 t=318.173 D#4
    db 72,0,232,3,51,110,11 ; n5881 t=318.173 D#3
    db 72,0,232,3,60,110,1 ; n5882 t=318.245 C4
    db 72,0,232,3,58,110,1 ; n5883 t=318.317 A#3
    db 72,0,232,3,60,110,1 ; n5884 t=318.389 C4
    db 0,0,232,3,58,110,1 ; n5885 t=318.462 A#3
    db 0,0,232,3,34,110,2 ; n5886 t=318.462 A#1
    db 0,0,232,3,65,110,7 ; n5887 t=318.462 F4
    db 0,0,232,3,62,110,8 ; n5888 t=318.462 D4
    db 0,0,232,3,65,110,9 ; n5889 t=318.462 F4
    db 72,0,232,3,46,110,11 ; n5890 t=318.462 A#2
    db 72,0,232,3,60,110,1 ; n5891 t=318.534 C4
    db 0,0,232,3,58,110,1 ; n5892 t=318.606 A#3
    db 0,0,232,3,36,110,2 ; n5893 t=318.606 C2
    db 0,0,232,3,63,110,8 ; n5894 t=318.606 D#4
    db 72,0,232,3,48,110,11 ; n5895 t=318.606 C3
    db 72,0,232,3,60,110,1 ; n5896 t=318.678 C4
    db 0,0,232,3,58,110,1 ; n5897 t=318.750 A#3
    db 0,0,232,3,38,110,2 ; n5898 t=318.750 D2
    db 0,0,232,3,65,110,8 ; n5899 t=318.750 F4
    db 72,0,232,3,50,110,11 ; n5900 t=318.750 D3
    db 72,0,232,3,60,110,1 ; n5901 t=318.822 C4
    db 72,0,232,3,58,110,1 ; n5902 t=318.894 A#3
    db 72,0,232,3,60,110,1 ; n5903 t=318.966 C4
    db 0,0,232,3,58,110,1 ; n5904 t=319.038 A#3
    db 0,0,232,3,36,110,2 ; n5905 t=319.038 C2
    db 0,0,232,3,63,110,8 ; n5906 t=319.038 D#4
    db 72,0,232,3,48,110,11 ; n5907 t=319.038 C3
    db 72,0,232,3,60,110,1 ; n5908 t=319.111 C4
    db 72,0,232,3,58,110,1 ; n5909 t=319.183 A#3
    db 72,0,232,3,60,110,1 ; n5910 t=319.255 C4
    db 0,0,232,3,58,110,1 ; n5911 t=319.327 A#3
    db 0,0,232,3,34,110,2 ; n5912 t=319.327 A#1
    db 0,0,232,3,62,110,7 ; n5913 t=319.327 D4
    db 0,0,232,3,62,110,8 ; n5914 t=319.327 D4
    db 0,0,232,3,53,110,9 ; n5915 t=319.327 F3
    db 72,0,232,3,46,110,11 ; n5916 t=319.327 A#2
    db 72,0,232,3,60,110,1 ; n5917 t=319.399 C4
    db 72,0,232,3,58,110,1 ; n5918 t=319.471 A#3
    db 72,0,232,3,60,110,1 ; n5919 t=319.543 C4
    db 0,0,232,3,58,110,1 ; n5920 t=319.615 A#3
    db 0,0,232,3,39,110,2 ; n5921 t=319.615 D#2
    db 0,0,232,3,63,110,7 ; n5922 t=319.615 D#4
    db 0,0,232,3,70,110,8 ; n5923 t=319.615 A#4
    db 0,0,232,3,55,110,9 ; n5924 t=319.615 G3
    db 72,0,232,3,51,110,11 ; n5925 t=319.615 D#3
    db 72,0,232,3,60,110,1 ; n5926 t=319.688 C4
    db 72,0,232,3,58,110,1 ; n5927 t=319.760 A#3
    db 72,0,232,3,60,110,1 ; n5928 t=319.832 C4
    db 0,0,232,3,58,110,1 ; n5929 t=319.904 A#3
    db 0,0,232,3,46,110,2 ; n5930 t=319.904 A#2
    db 0,0,232,3,62,110,7 ; n5931 t=319.904 D4
    db 0,0,232,3,58,110,8 ; n5932 t=319.904 A#3
    db 0,0,232,3,53,110,9 ; n5933 t=319.904 F3
    db 72,0,232,3,58,110,11 ; n5934 t=319.904 A#3
    db 72,0,232,3,60,110,1 ; n5935 t=319.976 C4
    db 72,0,232,3,58,110,1 ; n5936 t=320.048 A#3
    db 72,0,232,3,60,110,1 ; n5937 t=320.120 C4
    db 0,0,232,3,58,110,1 ; n5938 t=320.192 A#3
    db 0,0,232,3,65,110,7 ; n5939 t=320.192 F4
    db 0,0,232,3,62,110,8 ; n5940 t=320.192 D4
    db 72,0,232,3,56,110,9 ; n5941 t=320.192 G#3
    db 72,0,232,3,60,110,1 ; n5942 t=320.264 C4
    db 72,0,232,3,58,110,1 ; n5943 t=320.337 A#3
    db 72,0,232,3,60,110,1 ; n5944 t=320.409 C4
    db 0,0,232,3,58,110,1 ; n5945 t=320.481 A#3
    db 0,0,232,3,39,110,2 ; n5946 t=320.481 D#2
    db 0,0,232,3,63,110,7 ; n5947 t=320.481 D#4
    db 0,0,232,3,63,110,8 ; n5948 t=320.481 D#4
    db 0,0,232,3,55,110,9 ; n5949 t=320.481 G3
    db 72,0,232,3,51,110,11 ; n5950 t=320.481 D#3
    db 72,0,232,3,60,110,1 ; n5951 t=320.553 C4
    db 72,0,232,3,58,110,1 ; n5952 t=320.625 A#3
    db 72,0,232,3,60,110,1 ; n5953 t=320.697 C4
    db 0,0,232,3,58,110,1 ; n5954 t=320.769 A#3
    db 0,0,232,3,34,110,2 ; n5955 t=320.769 A#1
    db 0,0,232,3,62,110,7 ; n5956 t=320.769 D4
    db 0,0,232,3,65,110,8 ; n5957 t=320.769 F4
    db 0,0,232,3,53,110,9 ; n5958 t=320.769 F3
    db 72,0,232,3,46,110,11 ; n5959 t=320.769 A#2
    db 72,0,232,3,60,110,1 ; n5960 t=320.841 C4
    db 144,0,232,3,45,110,1 ; n5961 t=320.913 A2
    db 144,0,232,3,46,110,1 ; n5962 t=321.058 A#2
    db 144,0,232,3,48,110,1 ; n5963 t=321.202 C3
    db 144,0,232,3,50,110,1 ; n5964 t=321.346 D3
    db 144,0,232,3,51,110,1 ; n5965 t=321.490 D#3
    db 144,0,232,3,53,110,1 ; n5966 t=321.635 F3
    db 144,0,232,3,55,110,1 ; n5967 t=321.779 G3
    db 144,0,232,3,56,110,1 ; n5968 t=321.923 G#3
    db 144,0,232,3,59,110,1 ; n5969 t=322.067 B3
    db 0,0,232,3,60,110,1 ; n5970 t=322.212 C4
    db 0,0,232,3,31,110,2 ; n5971 t=322.212 G1
    db 0,0,232,3,43,110,2 ; n5972 t=322.212 G2
    db 0,0,232,3,71,110,3 ; n5973 t=322.212 B4
    db 0,0,232,3,67,110,4 ; n5974 t=322.212 G4
    db 0,0,232,3,62,110,5 ; n5975 t=322.212 D4
    db 144,0,232,3,43,110,6 ; n5976 t=322.212 G2
    db 144,0,232,3,62,110,1 ; n5977 t=322.356 D4
    db 0,0,232,3,60,110,1 ; n5978 t=322.500 C4
    db 0,0,232,3,31,110,2 ; n5979 t=322.500 G1
    db 0,0,232,3,43,110,2 ; n5980 t=322.500 G2
    db 0,0,232,3,71,110,3 ; n5981 t=322.500 B4
    db 0,0,232,3,67,110,4 ; n5982 t=322.500 G4
    db 0,0,232,3,62,110,5 ; n5983 t=322.500 D4
    db 144,0,232,3,43,110,6 ; n5984 t=322.500 G2
    db 144,0,232,3,59,110,1 ; n5985 t=322.644 B3
    db 0,0,232,3,57,110,1 ; n5986 t=322.788 A3
    db 0,0,232,3,31,110,2 ; n5987 t=322.788 G1
    db 0,0,232,3,43,110,2 ; n5988 t=322.788 G2
    db 0,0,232,3,71,110,3 ; n5989 t=322.788 B4
    db 0,0,232,3,67,110,4 ; n5990 t=322.788 G4
    db 0,0,232,3,62,110,5 ; n5991 t=322.788 D4
    db 144,0,232,3,43,110,6 ; n5992 t=322.788 G2
    db 144,0,232,3,55,110,1 ; n5993 t=322.933 G3
    db 0,0,232,3,63,110,1 ; n5994 t=323.077 D#4
    db 0,0,232,3,48,110,2 ; n5995 t=323.077 C3
    db 0,0,232,3,36,110,2 ; n5996 t=323.077 C2
    db 0,0,232,3,72,110,3 ; n5997 t=323.077 C5
    db 0,0,232,3,67,110,4 ; n5998 t=323.077 G4
    db 0,0,232,3,60,110,5 ; n5999 t=323.077 C4
    db 144,0,232,3,48,110,6 ; n6000 t=323.077 C3
    db 144,0,232,3,60,110,1 ; n6001 t=323.221 C4
    db 144,0,232,3,59,110,1 ; n6002 t=323.365 B3
    db 144,0,232,3,60,110,1 ; n6003 t=323.510 C4
    db 144,0,232,3,55,110,1 ; n6004 t=323.654 G3
    db 144,0,232,3,60,110,1 ; n6005 t=323.798 C4
    db 144,0,232,3,51,110,1 ; n6006 t=323.942 D#3
    db 144,0,232,3,55,110,1 ; n6007 t=324.087 G3
    db 144,0,232,3,48,110,1 ; n6008 t=324.231 C3
    db 144,0,232,3,47,110,1 ; n6009 t=324.375 B2
    db 144,0,232,3,48,110,1 ; n6010 t=324.519 C3
    db 144,0,232,3,50,110,1 ; n6011 t=324.663 D3
    db 144,0,232,3,51,110,1 ; n6012 t=324.808 D#3
    db 144,0,232,3,53,110,1 ; n6013 t=324.952 F3
    db 144,0,232,3,55,110,1 ; n6014 t=325.096 G3
    db 144,0,232,3,57,110,1 ; n6015 t=325.240 A3
    db 144,0,232,3,58,110,1 ; n6016 t=325.385 A#3
    db 144,0,232,3,61,110,1 ; n6017 t=325.529 C#4
    db 0,0,232,3,62,110,1 ; n6018 t=325.673 D4
    db 0,0,232,3,33,110,2 ; n6019 t=325.673 A1
    db 0,0,232,3,45,110,2 ; n6020 t=325.673 A2
    db 0,0,232,3,73,110,3 ; n6021 t=325.673 C#5
    db 0,0,232,3,69,110,4 ; n6022 t=325.673 A4
    db 0,0,232,3,64,110,5 ; n6023 t=325.673 E4
    db 144,0,232,3,45,110,6 ; n6024 t=325.673 A2
    db 144,0,232,3,64,110,1 ; n6025 t=325.817 E4
    db 0,0,232,3,62,110,1 ; n6026 t=325.962 D4
    db 0,0,232,3,33,110,2 ; n6027 t=325.962 A1
    db 0,0,232,3,45,110,2 ; n6028 t=325.962 A2
    db 0,0,232,3,73,110,3 ; n6029 t=325.962 C#5
    db 0,0,232,3,69,110,4 ; n6030 t=325.962 A4
    db 0,0,232,3,64,110,5 ; n6031 t=325.962 E4
    db 144,0,232,3,45,110,6 ; n6032 t=325.962 A2
    db 144,0,232,3,61,110,1 ; n6033 t=326.106 C#4
    db 0,0,232,3,59,110,1 ; n6034 t=326.250 B3
    db 0,0,232,3,33,110,2 ; n6035 t=326.250 A1
    db 0,0,232,3,45,110,2 ; n6036 t=326.250 A2
    db 0,0,232,3,73,110,3 ; n6037 t=326.250 C#5
    db 0,0,232,3,69,110,4 ; n6038 t=326.250 A4
    db 0,0,232,3,64,110,5 ; n6039 t=326.250 E4
    db 144,0,232,3,45,110,6 ; n6040 t=326.250 A2
    db 144,0,232,3,57,110,1 ; n6041 t=326.394 A3
    db 0,0,232,3,65,110,1 ; n6042 t=326.538 F4
    db 0,0,232,3,38,110,2 ; n6043 t=326.538 D2
    db 0,0,232,3,50,110,2 ; n6044 t=326.538 D3
    db 0,0,232,3,74,110,3 ; n6045 t=326.538 D5
    db 0,0,232,3,69,110,4 ; n6046 t=326.538 A4
    db 0,0,232,3,62,110,5 ; n6047 t=326.538 D4
    db 144,0,232,3,50,110,6 ; n6048 t=326.538 D3
    db 144,0,232,3,62,110,1 ; n6049 t=326.683 D4
    db 144,0,232,3,60,110,1 ; n6050 t=326.827 C4
    db 144,0,232,3,62,110,1 ; n6051 t=326.971 D4
    db 144,0,232,3,57,110,1 ; n6052 t=327.115 A3
    db 72,0,232,3,62,110,1 ; n6053 t=327.260 D4
    db 72,0,232,3,57,110,1 ; n6054 t=327.332 A3
    db 144,0,232,3,53,110,1 ; n6055 t=327.404 F3
    db 72,0,232,3,57,110,1 ; n6056 t=327.548 A3
    db 72,0,232,3,53,110,1 ; n6057 t=327.620 F3
    db 144,0,232,3,50,110,1 ; n6058 t=327.692 D3
    db 144,0,232,3,52,110,1 ; n6059 t=327.837 E3
    db 144,0,232,3,53,110,1 ; n6060 t=327.981 F3
    db 144,0,232,3,55,110,1 ; n6061 t=328.125 G3
    db 144,0,232,3,57,110,1 ; n6062 t=328.269 A3
    db 144,0,232,3,58,110,1 ; n6063 t=328.413 A#3
    db 144,0,232,3,60,110,1 ; n6064 t=328.558 C4
    db 144,0,232,3,62,110,1 ; n6065 t=328.702 D4
    db 144,0,232,3,63,110,1 ; n6066 t=328.846 D#4
    db 144,0,232,3,66,110,1 ; n6067 t=328.990 F#4
    db 0,0,232,3,67,110,1 ; n6068 t=329.135 G4
    db 0,0,232,3,38,110,2 ; n6069 t=329.135 D2
    db 0,0,232,3,50,110,2 ; n6070 t=329.135 D3
    db 0,0,232,3,78,110,3 ; n6071 t=329.135 F#5
    db 0,0,232,3,74,110,4 ; n6072 t=329.135 D5
    db 0,0,232,3,69,110,5 ; n6073 t=329.135 A4
    db 144,0,232,3,50,110,6 ; n6074 t=329.135 D3
    db 144,0,232,3,69,110,1 ; n6075 t=329.279 A4
    db 0,0,232,3,67,110,1 ; n6076 t=329.423 G4
    db 0,0,232,3,38,110,2 ; n6077 t=329.423 D2
    db 0,0,232,3,50,110,2 ; n6078 t=329.423 D3
    db 0,0,232,3,78,110,3 ; n6079 t=329.423 F#5
    db 0,0,232,3,74,110,4 ; n6080 t=329.423 D5
    db 0,0,232,3,69,110,5 ; n6081 t=329.423 A4
    db 144,0,232,3,50,110,6 ; n6082 t=329.423 D3
    db 144,0,232,3,66,110,1 ; n6083 t=329.567 F#4
    db 0,0,232,3,64,110,1 ; n6084 t=329.712 E4
    db 0,0,232,3,38,110,2 ; n6085 t=329.712 D2
    db 0,0,232,3,50,110,2 ; n6086 t=329.712 D3
    db 0,0,232,3,78,110,3 ; n6087 t=329.712 F#5
    db 0,0,232,3,74,110,4 ; n6088 t=329.712 D5
    db 0,0,232,3,69,110,5 ; n6089 t=329.712 A4
    db 144,0,232,3,50,110,6 ; n6090 t=329.712 D3
    db 144,0,232,3,62,110,1 ; n6091 t=329.856 D4
    db 0,0,232,3,70,110,1 ; n6092 t=330.000 A#4
    db 0,0,232,3,43,110,2 ; n6093 t=330.000 G2
    db 0,0,232,3,55,110,2 ; n6094 t=330.000 G3
    db 0,0,232,3,79,110,3 ; n6095 t=330.000 G5
    db 0,0,232,3,74,110,4 ; n6096 t=330.000 D5
    db 0,0,232,3,67,110,5 ; n6097 t=330.000 G4
    db 144,0,232,3,55,110,6 ; n6098 t=330.000 G3
    db 0,0,232,3,67,110,1 ; n6099 t=330.144 G4
    db 144,0,232,3,58,110,2 ; n6100 t=330.144 A#3
    db 0,0,232,3,69,110,1 ; n6101 t=330.288 A4
    db 0,0,232,3,60,110,2 ; n6102 t=330.288 C4
    db 144,0,232,3,70,110,8 ; n6103 t=330.288 A#4
    db 0,0,232,3,70,110,1 ; n6104 t=330.433 A#4
    db 144,0,232,3,62,110,2 ; n6105 t=330.433 D4
    db 0,0,232,3,69,110,1 ; n6106 t=330.577 A4
    db 0,0,232,3,60,110,2 ; n6107 t=330.577 C4
    db 144,0,232,3,75,110,8 ; n6108 t=330.577 D#5
    db 0,0,232,3,67,110,1 ; n6109 t=330.721 G4
    db 144,0,232,3,58,110,2 ; n6110 t=330.721 A#3
    db 0,0,232,3,66,110,1 ; n6111 t=330.865 F#4
    db 0,0,232,3,57,110,2 ; n6112 t=330.865 A3
    db 0,0,232,3,82,110,7 ; n6113 t=330.865 A#5
    db 0,0,232,3,70,110,9 ; n6114 t=330.865 A#4
    db 144,0,232,3,55,110,11 ; n6115 t=330.865 G3
    db 0,0,232,3,64,110,1 ; n6116 t=331.010 E4
    db 144,0,232,3,55,110,2 ; n6117 t=331.010 G3
    db 0,0,232,3,72,110,1 ; n6118 t=331.154 C5
    db 0,0,232,3,57,110,2 ; n6119 t=331.154 A3
    db 0,0,232,3,84,110,7 ; n6120 t=331.154 C6
    db 0,0,232,3,66,110,9 ; n6121 t=331.154 F#4
    db 144,0,232,3,57,110,11 ; n6122 t=331.154 A3
    db 0,0,232,3,69,110,1 ; n6123 t=331.298 A4
    db 144,0,232,3,60,110,2 ; n6124 t=331.298 C4
    db 0,0,232,3,70,110,1 ; n6125 t=331.442 A#4
    db 0,0,232,3,62,110,2 ; n6126 t=331.442 D4
    db 144,0,232,3,72,110,8 ; n6127 t=331.442 C5
    db 0,0,232,3,72,110,1 ; n6128 t=331.587 C5
    db 144,0,232,3,63,110,2 ; n6129 t=331.587 D#4
    db 0,0,232,3,70,110,1 ; n6130 t=331.731 A#4
    db 0,0,232,3,62,110,2 ; n6131 t=331.731 D4
    db 144,0,232,3,78,110,8 ; n6132 t=331.731 F#5
    db 0,0,232,3,69,110,1 ; n6133 t=331.875 A4
    db 144,0,232,3,60,110,2 ; n6134 t=331.875 C4
    db 0,0,232,3,67,110,1 ; n6135 t=332.019 G4
    db 0,0,232,3,58,110,2 ; n6136 t=332.019 A#3
    db 0,0,232,3,84,110,7 ; n6137 t=332.019 C6
    db 0,0,232,3,69,110,9 ; n6138 t=332.019 A4
    db 144,0,232,3,57,110,11 ; n6139 t=332.019 A3
    db 0,0,232,3,66,110,1 ; n6140 t=332.163 F#4
    db 144,0,232,3,57,110,2 ; n6141 t=332.163 A3
    db 0,0,232,3,74,110,1 ; n6142 t=332.308 D5
    db 0,0,232,3,58,110,2 ; n6143 t=332.308 A#3
    db 0,0,232,3,86,110,7 ; n6144 t=332.308 D6
    db 0,0,232,3,62,110,9 ; n6145 t=332.308 D4
    db 144,0,232,3,58,110,11 ; n6146 t=332.308 A#3
    db 0,0,232,3,70,110,1 ; n6147 t=332.452 A#4
    db 144,0,232,3,55,110,2 ; n6148 t=332.452 G3
    db 0,0,232,3,72,110,1 ; n6149 t=332.596 C5
    db 0,0,232,3,57,110,2 ; n6150 t=332.596 A3
    db 144,0,232,3,74,110,8 ; n6151 t=332.596 D5
    db 0,0,232,3,74,110,1 ; n6152 t=332.740 D5
    db 144,0,232,3,58,110,2 ; n6153 t=332.740 A#3
    db 0,0,232,3,72,110,1 ; n6154 t=332.885 C5
    db 0,0,232,3,57,110,2 ; n6155 t=332.885 A3
    db 144,0,232,3,79,110,8 ; n6156 t=332.885 G5
    db 0,0,232,3,70,110,1 ; n6157 t=333.029 A#4
    db 144,0,232,3,55,110,2 ; n6158 t=333.029 G3
    db 0,0,232,3,69,110,1 ; n6159 t=333.173 A4
    db 0,0,232,3,54,110,2 ; n6160 t=333.173 F#3
    db 0,0,232,3,74,110,7 ; n6161 t=333.173 D5
    db 0,0,232,3,62,110,9 ; n6162 t=333.173 D4
    db 144,0,232,3,58,110,11 ; n6163 t=333.173 A#3
    db 0,0,232,3,67,110,1 ; n6164 t=333.317 G4
    db 144,0,232,3,55,110,2 ; n6165 t=333.317 G3
    db 0,0,232,3,76,110,1 ; n6166 t=333.462 E5
    db 0,0,232,3,49,110,2 ; n6167 t=333.462 C#3
    db 0,0,232,3,81,110,7 ; n6168 t=333.462 A5
    db 0,0,232,3,64,110,9 ; n6169 t=333.462 E4
    db 144,0,232,3,49,110,11 ; n6170 t=333.462 C#3
    db 0,0,232,3,73,110,1 ; n6171 t=333.606 C#5
    db 144,0,232,3,52,110,2 ; n6172 t=333.606 E3
    db 0,0,232,3,74,110,1 ; n6173 t=333.750 D5
    db 0,0,232,3,53,110,2 ; n6174 t=333.750 F3
    db 0,0,232,3,79,110,7 ; n6175 t=333.750 G5
    db 144,0,232,3,76,110,8 ; n6176 t=333.750 E5
    db 0,0,232,3,76,110,1 ; n6177 t=333.894 E5
    db 144,0,232,3,55,110,2 ; n6178 t=333.894 G3
    db 0,0,232,3,74,110,1 ; n6179 t=334.038 D5
    db 0,0,232,3,45,110,2 ; n6180 t=334.038 A2
    db 0,0,232,3,77,110,7 ; n6181 t=334.038 F5
    db 144,0,232,3,81,110,8 ; n6182 t=334.038 A5
    db 144,0,232,3,73,110,1 ; n6183 t=334.183 C#5
    db 0,0,232,3,71,110,1 ; n6184 t=334.327 B4
    db 0,0,232,3,49,110,2 ; n6185 t=334.327 C#3
    db 0,0,232,3,76,110,7 ; n6186 t=334.327 E5
    db 0,0,232,3,64,110,9 ; n6187 t=334.327 E4
    db 144,0,232,3,49,110,11 ; n6188 t=334.327 C#3
    db 144,0,232,3,69,110,1 ; n6189 t=334.471 A4
    db 0,0,232,3,77,110,1 ; n6190 t=334.615 F5
    db 0,0,232,3,50,110,2 ; n6191 t=334.615 D3
    db 0,0,232,3,74,110,7 ; n6192 t=334.615 D5
    db 0,0,232,3,57,110,9 ; n6193 t=334.615 A3
    db 144,0,232,3,50,110,11 ; n6194 t=334.615 D3
    db 144,0,232,3,74,110,1 ; n6195 t=334.760 D5
    db 0,0,232,3,72,110,1 ; n6196 t=334.904 C5
    db 0,0,232,3,54,110,2 ; n6197 t=334.904 F#3
    db 0,0,232,3,75,110,7 ; n6198 t=334.904 D#5
    db 144,0,232,3,81,110,8 ; n6199 t=334.904 A5
    db 144,0,232,3,74,110,1 ; n6200 t=335.048 D5
    db 0,0,232,3,70,110,1 ; n6201 t=335.192 A#4
    db 0,0,232,3,55,110,2 ; n6202 t=335.192 G3
    db 0,0,232,3,74,110,7 ; n6203 t=335.192 D5
    db 144,0,232,3,79,110,8 ; n6204 t=335.192 G5
    db 144,0,232,3,74,110,1 ; n6205 t=335.337 D5
    db 0,0,232,3,69,110,1 ; n6206 t=335.481 A4
    db 0,0,232,3,57,110,2 ; n6207 t=335.481 A3
    db 0,0,232,3,72,110,7 ; n6208 t=335.481 C5
    db 144,0,232,3,78,110,8 ; n6209 t=335.481 F#5
    db 144,0,232,3,74,110,1 ; n6210 t=335.625 D5
    db 0,0,232,3,67,110,1 ; n6211 t=335.769 G4
    db 0,0,232,3,58,110,2 ; n6212 t=335.769 A#3
    db 0,0,232,3,70,110,7 ; n6213 t=335.769 A#4
    db 144,0,232,3,79,110,8 ; n6214 t=335.769 G5
    db 144,0,232,3,74,110,1 ; n6215 t=335.913 D5
    db 0,0,232,3,76,110,1 ; n6216 t=336.058 E5
    db 0,0,232,3,55,110,2 ; n6217 t=336.058 G3
    db 0,0,232,3,74,110,7 ; n6218 t=336.058 D5
    db 0,0,232,3,71,110,8 ; n6219 t=336.058 B4
    db 0,0,232,3,67,110,9 ; n6220 t=336.058 G4
    db 144,0,232,3,55,110,11 ; n6221 t=336.058 G3
    db 144,0,232,3,77,110,1 ; n6222 t=336.202 F5
    db 0,0,232,3,76,110,1 ; n6223 t=336.346 E5
    db 0,0,232,3,57,110,2 ; n6224 t=336.346 A3
    db 0,0,232,3,79,110,7 ; n6225 t=336.346 G5
    db 0,0,232,3,72,110,8 ; n6226 t=336.346 C5
    db 0,0,232,3,60,110,9 ; n6227 t=336.346 C4
    db 144,0,232,3,57,110,11 ; n6228 t=336.346 A3
    db 144,0,232,3,74,110,1 ; n6229 t=336.490 D5
    db 0,0,232,3,72,110,1 ; n6230 t=336.635 C5
    db 0,0,232,3,59,110,2 ; n6231 t=336.635 B3
    db 0,0,232,3,74,110,8 ; n6232 t=336.635 D5
    db 0,0,232,3,55,110,9 ; n6233 t=336.635 G3
    db 144,0,232,3,59,110,11 ; n6234 t=336.635 B3
    db 144,0,232,3,71,110,1 ; n6235 t=336.779 B4
    db 0,0,232,3,76,110,1 ; n6236 t=336.923 E5
    db 0,0,232,3,48,110,2 ; n6237 t=336.923 C3
    db 0,0,232,3,72,110,8 ; n6238 t=336.923 C5
    db 0,0,232,3,60,110,9 ; n6239 t=336.923 C4
    db 144,0,232,3,60,110,11 ; n6240 t=336.923 C4
    db 144,0,232,3,72,110,1 ; n6241 t=337.067 C5
    db 0,0,232,3,70,110,1 ; n6242 t=337.212 A#4
    db 0,0,232,3,52,110,2 ; n6243 t=337.212 E3
    db 0,0,232,3,79,110,7 ; n6244 t=337.212 G5
    db 144,0,232,3,74,110,8 ; n6245 t=337.212 D5
    db 144,0,232,3,72,110,1 ; n6246 t=337.356 C5
    db 0,0,232,3,69,110,1 ; n6247 t=337.500 A4
    db 0,0,232,3,53,110,2 ; n6248 t=337.500 F3
    db 0,0,232,3,77,110,7 ; n6249 t=337.500 F5
    db 144,0,232,3,72,110,8 ; n6250 t=337.500 C5
    db 144,0,232,3,72,110,1 ; n6251 t=337.644 C5
    db 0,0,232,3,67,110,1 ; n6252 t=337.788 G4
    db 0,0,232,3,55,110,2 ; n6253 t=337.788 G3
    db 0,0,232,3,76,110,7 ; n6254 t=337.788 E5
    db 144,0,232,3,70,110,8 ; n6255 t=337.788 A#4
    db 144,0,232,3,72,110,1 ; n6256 t=337.933 C5
    db 0,0,232,3,65,110,1 ; n6257 t=338.077 F4
    db 0,0,232,3,57,110,2 ; n6258 t=338.077 A3
    db 0,0,232,3,77,110,7 ; n6259 t=338.077 F5
    db 144,0,232,3,69,110,8 ; n6260 t=338.077 A4
    db 144,0,232,3,72,110,1 ; n6261 t=338.221 C5
    db 0,0,232,3,74,110,1 ; n6262 t=338.365 D5
    db 0,0,232,3,53,110,2 ; n6263 t=338.365 F3
    db 0,0,232,3,69,110,7 ; n6264 t=338.365 A4
    db 0,0,232,3,72,110,8 ; n6265 t=338.365 C5
    db 0,0,232,3,65,110,9 ; n6266 t=338.365 F4
    db 144,0,232,3,53,110,11 ; n6267 t=338.365 F3
    db 144,0,232,3,75,110,1 ; n6268 t=338.510 D#5
    db 0,0,232,3,74,110,1 ; n6269 t=338.654 D5
    db 0,0,232,3,55,110,2 ; n6270 t=338.654 G3
    db 0,0,232,3,70,110,7 ; n6271 t=338.654 A#4
    db 0,0,232,3,77,110,8 ; n6272 t=338.654 F5
    db 0,0,232,3,58,110,9 ; n6273 t=338.654 A#3
    db 144,0,232,3,55,110,11 ; n6274 t=338.654 G3
    db 144,0,232,3,72,110,1 ; n6275 t=338.798 C5
    db 0,0,232,3,70,110,1 ; n6276 t=338.942 A#4
    db 0,0,232,3,57,110,2 ; n6277 t=338.942 A3
    db 0,0,232,3,72,110,7 ; n6278 t=338.942 C5
    db 0,0,232,3,53,110,9 ; n6279 t=338.942 F3
    db 144,0,232,3,57,110,11 ; n6280 t=338.942 A3
    db 144,0,232,3,69,110,1 ; n6281 t=339.087 A4
    db 0,0,232,3,74,110,1 ; n6282 t=339.231 D5
    db 0,0,232,3,46,110,2 ; n6283 t=339.231 A#2
    db 0,0,232,3,70,110,7 ; n6284 t=339.231 A#4
    db 0,0,232,3,58,110,9 ; n6285 t=339.231 A#3
    db 144,0,232,3,58,110,11 ; n6286 t=339.231 A#3
    db 144,0,232,3,70,110,1 ; n6287 t=339.375 A#4
    db 0,0,232,3,69,110,1 ; n6288 t=339.519 A4
    db 0,0,232,3,60,110,2 ; n6289 t=339.519 C4
    db 0,0,232,3,77,110,8 ; n6290 t=339.519 F5
    db 0,0,232,3,62,110,9 ; n6291 t=339.519 D4
    db 144,0,232,3,60,110,11 ; n6292 t=339.519 C4
    db 144,0,232,3,70,110,1 ; n6293 t=339.663 A#4
    db 0,0,232,3,67,110,1 ; n6294 t=339.808 G4
    db 0,0,232,3,58,110,2 ; n6295 t=339.808 A#3
    db 0,0,232,3,76,110,8 ; n6296 t=339.808 E5
    db 0,0,232,3,67,110,9 ; n6297 t=339.808 G4
    db 144,0,232,3,58,110,11 ; n6298 t=339.808 A#3
    db 144,0,232,3,70,110,1 ; n6299 t=339.952 A#4
    db 0,0,232,3,65,110,1 ; n6300 t=340.096 F4
    db 0,0,232,3,57,110,2 ; n6301 t=340.096 A3
    db 0,0,232,3,74,110,7 ; n6302 t=340.096 D5
    db 0,0,232,3,74,110,8 ; n6303 t=340.096 D5
    db 0,0,232,3,69,110,9 ; n6304 t=340.096 A4
    db 144,0,232,3,57,110,11 ; n6305 t=340.096 A3
    db 144,0,232,3,70,110,1 ; n6306 t=340.240 A#4
    db 0,0,232,3,64,110,1 ; n6307 t=340.385 E4
    db 0,0,232,3,58,110,2 ; n6308 t=340.385 A#3
    db 0,0,232,3,76,110,7 ; n6309 t=340.385 E5
    db 0,0,232,3,73,110,8 ; n6310 t=340.385 C#5
    db 0,0,232,3,70,110,9 ; n6311 t=340.385 A#4
    db 144,0,232,3,55,110,11 ; n6312 t=340.385 G3
    db 144,0,232,3,67,110,1 ; n6313 t=340.529 G4
    db 0,0,232,3,65,110,1 ; n6314 t=340.673 F4
    db 0,0,232,3,57,110,2 ; n6315 t=340.673 A3
    db 0,0,232,3,74,110,8 ; n6316 t=340.673 D5
    db 0,0,232,3,69,110,9 ; n6317 t=340.673 A4
    db 144,0,232,3,57,110,11 ; n6318 t=340.673 A3
    db 144,0,232,3,67,110,1 ; n6319 t=340.817 G4
    db 0,0,232,3,64,110,1 ; n6320 t=340.962 E4
    db 0,0,232,3,55,110,2 ; n6321 t=340.962 G3
    db 0,0,232,3,73,110,8 ; n6322 t=340.962 C#5
    db 0,0,232,3,70,110,9 ; n6323 t=340.962 A#4
    db 144,0,232,3,55,110,11 ; n6324 t=340.962 G3
    db 144,0,232,3,67,110,1 ; n6325 t=341.106 G4
    db 0,0,232,3,62,110,1 ; n6326 t=341.250 D4
    db 0,0,232,3,53,110,2 ; n6327 t=341.250 F3
    db 0,0,232,3,77,110,7 ; n6328 t=341.250 F5
    db 0,0,232,3,74,110,8 ; n6329 t=341.250 D5
    db 0,0,232,3,62,110,9 ; n6330 t=341.250 D4
    db 144,0,232,3,53,110,11 ; n6331 t=341.250 F3
    db 144,0,232,3,67,110,1 ; n6332 t=341.394 G4
    db 0,0,232,3,61,110,1 ; n6333 t=341.538 C#4
    db 0,0,232,3,52,110,2 ; n6334 t=341.538 E3
    db 0,0,232,3,79,110,7 ; n6335 t=341.538 G5
    db 0,0,232,3,67,110,8 ; n6336 t=341.538 G4
    db 0,0,232,3,64,110,9 ; n6337 t=341.538 E4
    db 144,0,232,3,52,110,11 ; n6338 t=341.538 E3
    db 144,0,232,3,67,110,1 ; n6339 t=341.683 G4
    db 0,0,232,3,62,110,1 ; n6340 t=341.827 D4
    db 0,0,232,3,53,110,2 ; n6341 t=341.827 F3
    db 0,0,232,3,69,110,8 ; n6342 t=341.827 A4
    db 0,0,232,3,62,110,9 ; n6343 t=341.827 D4
    db 144,0,232,3,53,110,11 ; n6344 t=341.827 F3
    db 144,0,232,3,67,110,1 ; n6345 t=341.971 G4
    db 0,0,232,3,61,110,1 ; n6346 t=342.115 C#4
    db 0,0,232,3,52,110,2 ; n6347 t=342.115 E3
    db 0,0,232,3,67,110,8 ; n6348 t=342.115 G4
    db 0,0,232,3,64,110,9 ; n6349 t=342.115 E4
    db 144,0,232,3,52,110,11 ; n6350 t=342.115 E3
    db 144,0,232,3,67,110,1 ; n6351 t=342.260 G4
    db 0,0,232,3,59,110,1 ; n6352 t=342.404 B3
    db 0,0,232,3,50,110,2 ; n6353 t=342.404 D3
    db 0,0,232,3,74,110,7 ; n6354 t=342.404 D5
    db 0,0,232,3,65,110,8 ; n6355 t=342.404 F4
    db 0,0,232,3,65,110,9 ; n6356 t=342.404 F4
    db 144,0,232,3,50,110,11 ; n6357 t=342.404 D3
    db 144,0,232,3,67,110,1 ; n6358 t=342.548 G4
    db 0,0,232,3,57,110,1 ; n6359 t=342.692 A3
    db 0,0,232,3,49,110,2 ; n6360 t=342.692 C#3
    db 0,0,232,3,76,110,7 ; n6361 t=342.692 E5
    db 0,0,232,3,64,110,8 ; n6362 t=342.692 E4
    db 0,0,232,3,67,110,9 ; n6363 t=342.692 G4
    db 144,0,232,3,49,110,11 ; n6364 t=342.692 C#3
    db 144,0,232,3,67,110,1 ; n6365 t=342.837 G4
    db 0,0,232,3,61,110,1 ; n6366 t=342.981 C#4
    db 0,0,232,3,52,110,2 ; n6367 t=342.981 E3
    db 0,0,232,3,64,110,9 ; n6368 t=342.981 E4
    db 144,0,232,3,47,110,11 ; n6369 t=342.981 B2
    db 144,0,232,3,67,110,1 ; n6370 t=343.125 G4
    db 0,0,232,3,64,110,1 ; n6371 t=343.269 E4
    db 0,0,232,3,57,110,2 ; n6372 t=343.269 A3
    db 0,0,232,3,61,110,9 ; n6373 t=343.269 C#4
    db 144,0,232,3,45,110,11 ; n6374 t=343.269 A2
    db 144,0,232,3,67,110,1 ; n6375 t=343.413 G4
    db 0,0,232,3,61,110,1 ; n6376 t=343.558 C#4
    db 0,0,232,3,55,110,2 ; n6377 t=343.558 G3
    db 0,0,232,3,76,110,7 ; n6378 t=343.558 E5
    db 0,0,232,3,64,110,8 ; n6379 t=343.558 E4
    db 0,0,232,3,57,110,9 ; n6380 t=343.558 A3
    db 144,0,232,3,43,110,11 ; n6381 t=343.558 G2
    db 144,0,232,3,64,110,1 ; n6382 t=343.702 E4
    db 0,0,232,3,62,110,1 ; n6383 t=343.846 D4
    db 0,0,232,3,69,110,1 ; n6384 t=343.846 A4
    db 0,0,232,3,53,110,2 ; n6385 t=343.846 F3
    db 0,0,232,3,77,110,7 ; n6386 t=343.846 F5
    db 0,0,232,3,62,110,8 ; n6387 t=343.846 D4
    db 0,0,232,3,62,110,9 ; n6388 t=343.846 D4
    db 144,0,232,3,41,110,11 ; n6389 t=343.846 F2
    db 144,0,232,3,41,110,2 ; n6390 t=343.990 F2
    db 0,0,232,3,62,110,1 ; n6391 t=344.135 D4
    db 0,0,232,3,65,110,1 ; n6392 t=344.135 F4
    db 144,0,232,3,62,110,8 ; n6393 t=344.135 D4
    db 144,0,232,3,50,110,2 ; n6394 t=344.279 D3
    db 0,0,232,3,61,110,1 ; n6395 t=344.423 C#4
    db 0,0,232,3,64,110,1 ; n6396 t=344.423 E4
    db 0,0,232,3,46,110,2 ; n6397 t=344.423 A#2
    db 0,0,232,3,64,110,8 ; n6398 t=344.423 E4
    db 144,0,232,3,46,110,11 ; n6399 t=344.423 A#2
    db 144,0,232,3,50,110,2 ; n6400 t=344.567 D3
    db 0,0,232,3,62,110,1 ; n6401 t=344.712 D4
    db 0,0,232,3,65,110,1 ; n6402 t=344.712 F4
    db 0,0,232,3,45,110,2 ; n6403 t=344.712 A2
    db 0,0,232,3,77,110,7 ; n6404 t=344.712 F5
    db 0,0,232,3,65,110,8 ; n6405 t=344.712 F4
    db 144,0,232,3,62,110,9 ; n6406 t=344.712 D4
    db 144,0,232,3,50,110,2 ; n6407 t=344.856 D3
    db 0,0,232,3,63,110,1 ; n6408 t=345.000 D#4
    db 0,0,232,3,67,110,1 ; n6409 t=345.000 G4
    db 0,0,232,3,43,110,2 ; n6410 t=345.000 G2
    db 0,0,232,3,75,110,7 ; n6411 t=345.000 D#5
    db 0,0,232,3,67,110,8 ; n6412 t=345.000 G4
    db 0,0,232,3,69,110,9 ; n6413 t=345.000 A4
    db 144,0,232,3,43,110,11 ; n6414 t=345.000 G2
    db 144,0,232,3,50,110,2 ; n6415 t=345.144 D3
    db 0,0,232,3,62,110,1 ; n6416 t=345.288 D4
    db 0,0,232,3,70,110,1 ; n6417 t=345.288 A#4
    db 0,0,232,3,40,110,2 ; n6418 t=345.288 E2
    db 144,0,232,3,70,110,8 ; n6419 t=345.288 A#4
    db 144,0,232,3,50,110,2 ; n6420 t=345.433 D3
    db 0,0,232,3,61,110,1 ; n6421 t=345.577 C#4
    db 0,0,232,3,69,110,1 ; n6422 t=345.577 A4
    db 0,0,232,3,45,110,2 ; n6423 t=345.577 A2
    db 0,0,232,3,73,110,7 ; n6424 t=345.577 C#5
    db 0,0,232,3,69,110,8 ; n6425 t=345.577 A4
    db 0,0,232,3,64,110,9 ; n6426 t=345.577 E4
    db 144,0,232,3,45,110,11 ; n6427 t=345.577 A2
    db 144,0,232,3,49,110,2 ; n6428 t=345.721 C#3
    db 0,0,232,3,64,110,1 ; n6429 t=345.865 E4
    db 0,0,232,3,67,110,1 ; n6430 t=345.865 G4
    db 0,0,232,3,45,110,2 ; n6431 t=345.865 A2
    db 144,0,232,3,67,110,8 ; n6432 t=345.865 G4
    db 144,0,232,3,49,110,2 ; n6433 t=346.010 C#3
    db 0,0,232,3,62,110,1 ; n6434 t=346.154 D4
    db 0,0,232,3,65,110,1 ; n6435 t=346.154 F4
    db 0,0,232,3,46,110,2 ; n6436 t=346.154 A#2
    db 0,0,232,3,74,110,7 ; n6437 t=346.154 D5
    db 0,0,232,3,65,110,8 ; n6438 t=346.154 F4
    db 0,0,232,3,62,110,9 ; n6439 t=346.154 D4
    db 144,0,232,3,46,110,11 ; n6440 t=346.154 A#2
    db 144,0,232,3,50,110,2 ; n6441 t=346.298 D3
    db 0,0,232,3,62,110,1 ; n6442 t=346.442 D4
    db 0,0,232,3,67,110,1 ; n6443 t=346.442 G4
    db 0,0,232,3,46,110,2 ; n6444 t=346.442 A#2
    db 144,0,232,3,67,110,8 ; n6445 t=346.442 G4
    db 144,0,232,3,50,110,2 ; n6446 t=346.587 D3
    db 0,0,232,3,61,110,1 ; n6447 t=346.731 C#4
    db 0,0,232,3,69,110,1 ; n6448 t=346.731 A4
    db 0,0,232,3,41,110,2 ; n6449 t=346.731 F2
    db 0,0,232,3,69,110,8 ; n6450 t=346.731 A4
    db 144,0,232,3,41,110,11 ; n6451 t=346.731 F2
    db 144,0,232,3,50,110,2 ; n6452 t=346.875 D3
    db 0,0,232,3,62,110,1 ; n6453 t=347.019 D4
    db 0,0,232,3,65,110,1 ; n6454 t=347.019 F4
    db 0,0,232,3,41,110,2 ; n6455 t=347.019 F2
    db 0,0,232,3,69,110,7 ; n6456 t=347.019 A4
    db 0,0,232,3,65,110,8 ; n6457 t=347.019 F4
    db 144,0,232,3,62,110,9 ; n6458 t=347.019 D4
    db 144,0,232,3,50,110,2 ; n6459 t=347.163 D3
    db 0,0,232,3,63,110,1 ; n6460 t=347.308 D#4
    db 0,0,232,3,70,110,1 ; n6461 t=347.308 A#4
    db 0,0,232,3,43,110,2 ; n6462 t=347.308 G2
    db 0,0,232,3,67,110,7 ; n6463 t=347.308 G4
    db 0,0,232,3,70,110,8 ; n6464 t=347.308 A#4
    db 0,0,232,3,58,110,9 ; n6465 t=347.308 A#3
    db 144,0,232,3,43,110,11 ; n6466 t=347.308 G2
    db 144,0,232,3,50,110,2 ; n6467 t=347.452 D3
    db 0,0,232,3,62,110,1 ; n6468 t=347.596 D4
    db 0,0,232,3,67,110,1 ; n6469 t=347.596 G4
    db 0,0,232,3,43,110,2 ; n6470 t=347.596 G2
    db 144,0,232,3,67,110,8 ; n6471 t=347.596 G4
    db 144,0,232,3,50,110,2 ; n6472 t=347.740 D3
    db 0,0,232,3,61,110,1 ; n6473 t=347.885 C#4
    db 0,0,232,3,64,110,1 ; n6474 t=347.885 E4
    db 0,0,232,3,45,110,2 ; n6475 t=347.885 A2
    db 0,0,232,3,64,110,7 ; n6476 t=347.885 E4
    db 0,0,232,3,61,110,8 ; n6477 t=347.885 C#4
    db 0,0,232,3,57,110,9 ; n6478 t=347.885 A3
    db 144,0,232,3,45,110,11 ; n6479 t=347.885 A2
    db 144,0,232,3,49,110,2 ; n6480 t=348.029 C#3
    db 0,0,232,3,61,110,1 ; n6481 t=348.173 C#4
    db 0,0,232,3,69,110,1 ; n6482 t=348.173 A4
    db 0,0,232,3,45,110,2 ; n6483 t=348.173 A2
    db 144,0,232,3,69,110,8 ; n6484 t=348.173 A4
    db 144,0,232,3,49,110,2 ; n6485 t=348.317 C#3
    db 0,0,232,3,62,110,1 ; n6486 t=348.462 D4
    db 0,0,232,3,65,110,1 ; n6487 t=348.462 F4
    db 0,0,232,3,38,110,2 ; n6488 t=348.462 D2
    db 0,0,232,3,65,110,7 ; n6489 t=348.462 F4
    db 0,0,232,3,69,110,8 ; n6490 t=348.462 A4
    db 0,0,232,3,57,110,9 ; n6491 t=348.462 A3
    db 144,0,232,3,38,110,11 ; n6492 t=348.462 D2
    db 144,0,232,3,50,110,2 ; n6493 t=348.606 D3
    db 0,0,232,3,62,110,1 ; n6494 t=348.750 D4
    db 0,0,232,3,65,110,1 ; n6495 t=348.750 F4
    db 0,0,232,3,69,110,7 ; n6496 t=348.750 A4
    db 144,0,232,3,62,110,9 ; n6497 t=348.750 D4
    db 0,0,232,3,38,110,2 ; n6498 t=348.894 D2
    db 144,0,232,3,50,110,2 ; n6499 t=348.894 D3
    db 0,0,232,3,61,110,1 ; n6500 t=349.038 C#4
    db 0,0,232,3,64,110,1 ; n6501 t=349.038 E4
    db 0,0,232,3,67,110,7 ; n6502 t=349.038 G4
    db 144,0,232,3,62,110,9 ; n6503 t=349.038 D4
    db 0,0,232,3,38,110,2 ; n6504 t=349.183 D2
    db 144,0,232,3,50,110,2 ; n6505 t=349.183 D3
    db 0,0,232,3,62,110,1 ; n6506 t=349.327 D4
    db 0,0,232,3,65,110,1 ; n6507 t=349.327 F4
    db 0,0,232,3,69,110,7 ; n6508 t=349.327 A4
    db 144,0,232,3,62,110,9 ; n6509 t=349.327 D4
    db 0,0,232,3,38,110,2 ; n6510 t=349.471 D2
    db 144,0,232,3,50,110,2 ; n6511 t=349.471 D3
    db 0,0,232,3,64,110,1 ; n6512 t=349.615 E4
    db 0,0,232,3,67,110,1 ; n6513 t=349.615 G4
    db 0,0,232,3,70,110,7 ; n6514 t=349.615 A#4
    db 0,0,232,3,73,110,8 ; n6515 t=349.615 C#5
    db 144,0,232,3,62,110,9 ; n6516 t=349.615 D4
    db 0,0,232,3,38,110,2 ; n6517 t=349.760 D2
    db 144,0,232,3,50,110,2 ; n6518 t=349.760 D3
    db 0,0,232,3,62,110,1 ; n6519 t=349.904 D4
    db 0,0,232,3,65,110,1 ; n6520 t=349.904 F4
    db 0,0,232,3,69,110,7 ; n6521 t=349.904 A4
    db 144,0,232,3,62,110,9 ; n6522 t=349.904 D4
    db 0,0,232,3,38,110,2 ; n6523 t=350.048 D2
    db 144,0,232,3,50,110,2 ; n6524 t=350.048 D3
    db 0,0,232,3,64,110,1 ; n6525 t=350.192 E4
    db 0,0,232,3,67,110,1 ; n6526 t=350.192 G4
    db 0,0,232,3,70,110,7 ; n6527 t=350.192 A#4
    db 144,0,232,3,62,110,9 ; n6528 t=350.192 D4
    db 0,0,232,3,38,110,2 ; n6529 t=350.337 D2
    db 144,0,232,3,50,110,2 ; n6530 t=350.337 D3
    db 0,0,232,3,61,110,1 ; n6531 t=350.481 C#4
    db 0,0,232,3,64,110,1 ; n6532 t=350.481 E4
    db 0,0,232,3,67,110,7 ; n6533 t=350.481 G4
    db 144,0,232,3,62,110,9 ; n6534 t=350.481 D4
    db 0,0,232,3,38,110,2 ; n6535 t=350.625 D2
    db 144,0,232,3,50,110,2 ; n6536 t=350.625 D3
    db 0,0,232,3,62,110,1 ; n6537 t=350.769 D4
    db 0,0,232,3,65,110,1 ; n6538 t=350.769 F4
    db 0,0,232,3,69,110,7 ; n6539 t=350.769 A4
    db 0,0,232,3,74,110,8 ; n6540 t=350.769 D5
    db 0,0,232,3,62,110,9 ; n6541 t=350.769 D4
    db 144,0,232,3,38,110,11 ; n6542 t=350.769 D2
    db 0,0,232,3,50,110,2 ; n6543 t=350.913 D3
    db 144,0,232,3,38,110,2 ; n6544 t=350.913 D2
    db 0,0,232,3,62,110,1 ; n6545 t=351.058 D4
    db 0,0,232,3,65,110,1 ; n6546 t=351.058 F4
    db 0,0,232,3,62,110,7 ; n6547 t=351.058 D4
    db 144,0,232,3,62,110,9 ; n6548 t=351.058 D4
    db 0,0,232,3,50,110,2 ; n6549 t=351.202 D3
    db 144,0,232,3,38,110,2 ; n6550 t=351.202 D2
    db 0,0,232,3,61,110,1 ; n6551 t=351.346 C#4
    db 0,0,232,3,64,110,1 ; n6552 t=351.346 E4
    db 0,0,232,3,67,110,7 ; n6553 t=351.346 G4
    db 144,0,232,3,62,110,9 ; n6554 t=351.346 D4
    db 0,0,232,3,50,110,2 ; n6555 t=351.490 D3
    db 144,0,232,3,38,110,2 ; n6556 t=351.490 D2
    db 0,0,232,3,62,110,1 ; n6557 t=351.635 D4
    db 0,0,232,3,65,110,1 ; n6558 t=351.635 F4
    db 0,0,232,3,69,110,7 ; n6559 t=351.635 A4
    db 144,0,232,3,62,110,9 ; n6560 t=351.635 D4
    db 0,0,232,3,38,110,2 ; n6561 t=351.779 D2
    db 144,0,232,3,50,110,2 ; n6562 t=351.779 D3
    db 0,0,232,3,64,110,1 ; n6563 t=351.923 E4
    db 0,0,232,3,67,110,1 ; n6564 t=351.923 G4
    db 0,0,232,3,70,110,7 ; n6565 t=351.923 A#4
    db 0,0,232,3,73,110,8 ; n6566 t=351.923 C#5
    db 144,0,232,3,62,110,9 ; n6567 t=351.923 D4
    db 0,0,232,3,38,110,2 ; n6568 t=352.067 D2
    db 144,0,232,3,50,110,2 ; n6569 t=352.067 D3
    db 0,0,232,3,62,110,1 ; n6570 t=352.212 D4
    db 0,0,232,3,65,110,1 ; n6571 t=352.212 F4
    db 0,0,232,3,69,110,7 ; n6572 t=352.212 A4
    db 144,0,232,3,62,110,9 ; n6573 t=352.212 D4
    db 0,0,232,3,38,110,2 ; n6574 t=352.356 D2
    db 144,0,232,3,50,110,2 ; n6575 t=352.356 D3
    db 0,0,232,3,64,110,1 ; n6576 t=352.500 E4
    db 0,0,232,3,67,110,1 ; n6577 t=352.500 G4
    db 0,0,232,3,70,110,7 ; n6578 t=352.500 A#4
    db 144,0,232,3,62,110,9 ; n6579 t=352.500 D4
    db 0,0,232,3,38,110,2 ; n6580 t=352.644 D2
    db 144,0,232,3,50,110,2 ; n6581 t=352.644 D3
    db 0,0,232,3,61,110,1 ; n6582 t=352.788 C#4
    db 0,0,232,3,64,110,1 ; n6583 t=352.788 E4
    db 0,0,232,3,67,110,7 ; n6584 t=352.788 G4
    db 144,0,232,3,62,110,9 ; n6585 t=352.788 D4
    db 0,0,232,3,38,110,2 ; n6586 t=352.933 D2
    db 144,0,232,3,50,110,2 ; n6587 t=352.933 D3
    db 0,0,232,3,62,110,1 ; n6588 t=353.077 D4
    db 0,0,232,3,65,110,1 ; n6589 t=353.077 F4
    db 0,0,232,3,69,110,7 ; n6590 t=353.077 A4
    db 0,0,232,3,74,110,8 ; n6591 t=353.077 D5
    db 0,0,232,3,62,110,9 ; n6592 t=353.077 D4
    db 144,0,232,3,38,110,11 ; n6593 t=353.077 D2
    db 0,0,232,3,50,110,2 ; n6594 t=353.221 D3
    db 144,0,232,3,38,110,2 ; n6595 t=353.221 D2
    db 0,0,232,3,65,110,1 ; n6596 t=353.365 F4
    db 0,0,232,3,69,110,1 ; n6597 t=353.365 A4
    db 0,0,232,3,74,110,7 ; n6598 t=353.365 D5
    db 144,0,232,3,62,110,9 ; n6599 t=353.365 D4
    db 0,0,232,3,50,110,2 ; n6600 t=353.510 D3
    db 144,0,232,3,38,110,2 ; n6601 t=353.510 D2
    db 0,0,232,3,67,110,1 ; n6602 t=353.654 G4
    db 0,0,232,3,70,110,1 ; n6603 t=353.654 A#4
    db 144,0,232,3,62,110,9 ; n6604 t=353.654 D4
    db 0,0,232,3,50,110,2 ; n6605 t=353.798 D3
    db 144,0,232,3,38,110,2 ; n6606 t=353.798 D2
    db 0,0,232,3,64,110,1 ; n6607 t=353.942 E4
    db 0,0,232,3,67,110,1 ; n6608 t=353.942 G4
    db 0,0,232,3,73,110,7 ; n6609 t=353.942 C#5
    db 144,0,232,3,62,110,9 ; n6610 t=353.942 D4
    db 0,0,232,3,50,110,2 ; n6611 t=354.087 D3
    db 144,0,232,3,38,110,2 ; n6612 t=354.087 D2
    db 0,0,232,3,65,110,1 ; n6613 t=354.231 F4
    db 0,0,232,3,69,110,1 ; n6614 t=354.231 A4
    db 0,0,232,3,74,110,7 ; n6615 t=354.231 D5
    db 144,0,232,3,62,110,9 ; n6616 t=354.231 D4
    db 0,0,232,3,50,110,2 ; n6617 t=354.375 D3
    db 144,0,232,3,38,110,2 ; n6618 t=354.375 D2
    db 0,0,232,3,62,110,1 ; n6619 t=354.519 D4
    db 0,0,232,3,65,110,1 ; n6620 t=354.519 F4
    db 0,0,232,3,69,110,7 ; n6621 t=354.519 A4
    db 0,0,232,3,74,110,8 ; n6622 t=354.519 D5
    db 144,0,232,3,62,110,9 ; n6623 t=354.519 D4
    db 0,0,232,3,38,110,2 ; n6624 t=354.663 D2
    db 144,0,232,3,50,110,2 ; n6625 t=354.663 D3
    db 0,0,232,3,64,110,1 ; n6626 t=354.808 E4
    db 0,0,232,3,67,110,1 ; n6627 t=354.808 G4
    db 0,0,232,3,70,110,7 ; n6628 t=354.808 A#4
    db 0,0,232,3,73,110,8 ; n6629 t=354.808 C#5
    db 144,0,232,3,62,110,9 ; n6630 t=354.808 D4
    db 0,0,232,3,38,110,2 ; n6631 t=354.952 D2
    db 144,0,232,3,50,110,2 ; n6632 t=354.952 D3
    db 0,0,232,3,61,110,1 ; n6633 t=355.096 C#4
    db 0,0,232,3,64,110,1 ; n6634 t=355.096 E4
    db 0,0,232,3,67,110,7 ; n6635 t=355.096 G4
    db 0,0,232,3,76,110,8 ; n6636 t=355.096 E5
    db 144,0,232,3,62,110,9 ; n6637 t=355.096 D4
    db 0,0,232,3,38,110,2 ; n6638 t=355.240 D2
    db 144,0,232,3,50,110,2 ; n6639 t=355.240 D3
    db 0,0,232,3,62,110,1 ; n6640 t=355.385 D4
    db 0,0,232,3,65,110,1 ; n6641 t=355.385 F4
    db 0,0,232,3,69,110,7 ; n6642 t=355.385 A4
    db 0,0,232,3,74,110,8 ; n6643 t=355.385 D5
    db 0,0,232,3,62,110,9 ; n6644 t=355.385 D4
    db 144,0,232,3,38,110,11 ; n6645 t=355.385 D2
    db 0,0,232,3,50,110,2 ; n6646 t=355.529 D3
    db 144,0,232,3,38,110,2 ; n6647 t=355.529 D2
    db 0,0,232,3,65,110,1 ; n6648 t=355.673 F4
    db 0,0,232,3,69,110,1 ; n6649 t=355.673 A4
    db 0,0,232,3,65,110,7 ; n6650 t=355.673 F4
    db 144,0,232,3,62,110,9 ; n6651 t=355.673 D4
    db 0,0,232,3,50,110,2 ; n6652 t=355.817 D3
    db 144,0,232,3,38,110,2 ; n6653 t=355.817 D2
    db 0,0,232,3,67,110,1 ; n6654 t=355.962 G4
    db 0,0,232,3,71,110,1 ; n6655 t=355.962 B4
    db 0,0,232,3,64,110,7 ; n6656 t=355.962 E4
    db 144,0,232,3,62,110,9 ; n6657 t=355.962 D4
    db 0,0,232,3,50,110,2 ; n6658 t=356.106 D3
    db 144,0,232,3,38,110,2 ; n6659 t=356.106 D2
    db 0,0,232,3,64,110,1 ; n6660 t=356.250 E4
    db 0,0,232,3,73,110,1 ; n6661 t=356.250 C#5
    db 0,0,232,3,64,110,7 ; n6662 t=356.250 E4
    db 144,0,232,3,62,110,9 ; n6663 t=356.250 D4
    db 0,0,232,3,50,110,2 ; n6664 t=356.394 D3
    db 144,0,232,3,38,110,2 ; n6665 t=356.394 D2
    db 0,0,232,3,65,110,1 ; n6666 t=356.538 F4
    db 0,0,232,3,74,110,1 ; n6667 t=356.538 D5
    db 0,0,232,3,62,110,7 ; n6668 t=356.538 D4
    db 144,0,232,3,62,110,9 ; n6669 t=356.538 D4
    db 0,0,232,3,50,110,2 ; n6670 t=356.683 D3
    db 144,0,232,3,38,110,2 ; n6671 t=356.683 D2
    db 0,0,232,3,57,110,1 ; n6672 t=356.827 A3
    db 0,0,232,3,65,110,1 ; n6673 t=356.827 F4
    db 0,0,232,3,74,110,7 ; n6674 t=356.827 D5
    db 0,0,232,3,65,110,8 ; n6675 t=356.827 F4
    db 144,0,232,3,62,110,9 ; n6676 t=356.827 D4
    db 0,0,232,3,38,110,2 ; n6677 t=356.971 D2
    db 144,0,232,3,50,110,2 ; n6678 t=356.971 D3
    db 0,0,232,3,59,110,1 ; n6679 t=357.115 B3
    db 0,0,232,3,67,110,1 ; n6680 t=357.115 G4
    db 0,0,232,3,76,110,7 ; n6681 t=357.115 E5
    db 0,0,232,3,64,110,8 ; n6682 t=357.115 E4
    db 144,0,232,3,62,110,9 ; n6683 t=357.115 D4
    db 0,0,232,3,38,110,2 ; n6684 t=357.260 D2
    db 144,0,232,3,50,110,2 ; n6685 t=357.260 D3
    db 0,0,232,3,61,110,1 ; n6686 t=357.404 C#4
    db 0,0,232,3,64,110,1 ; n6687 t=357.404 E4
    db 0,0,232,3,76,110,7 ; n6688 t=357.404 E5
    db 0,0,232,3,64,110,8 ; n6689 t=357.404 E4
    db 144,0,232,3,62,110,9 ; n6690 t=357.404 D4
    db 0,0,232,3,38,110,2 ; n6691 t=357.548 D2
    db 144,0,232,3,50,110,2 ; n6692 t=357.548 D3
    db 0,0,232,3,62,110,1 ; n6693 t=357.692 D4
    db 0,0,232,3,65,110,1 ; n6694 t=357.692 F4
    db 0,0,232,3,69,110,7 ; n6695 t=357.692 A4
    db 0,0,232,3,62,110,8 ; n6696 t=357.692 D4
    db 0,0,232,3,62,110,9 ; n6697 t=357.692 D4
    db 144,0,232,3,38,110,11 ; n6698 t=357.692 D2
    db 0,0,232,3,50,110,2 ; n6699 t=357.837 D3
    db 144,0,232,3,38,110,2 ; n6700 t=357.837 D2
    db 0,0,232,3,62,110,1 ; n6701 t=357.981 D4
    db 144,0,232,3,65,110,1 ; n6702 t=357.981 F4
    db 0,0,232,3,50,110,2 ; n6703 t=358.125 D3
    db 144,0,232,3,38,110,2 ; n6704 t=358.125 D2
    db 0,0,232,3,64,110,1 ; n6705 t=358.269 E4
    db 144,0,232,3,67,110,1 ; n6706 t=358.269 G4
    db 0,0,232,3,50,110,2 ; n6707 t=358.413 D3
    db 144,0,232,3,38,110,2 ; n6708 t=358.413 D2
    db 0,0,232,3,65,110,1 ; n6709 t=358.558 F4
    db 144,0,232,3,69,110,1 ; n6710 t=358.558 A4
    db 0,0,232,3,50,110,2 ; n6711 t=358.702 D3
    db 144,0,232,3,38,110,2 ; n6712 t=358.702 D2
    db 0,0,232,3,67,110,1 ; n6713 t=358.846 G4
    db 144,0,232,3,71,110,1 ; n6714 t=358.846 B4
    db 0,0,232,3,50,110,2 ; n6715 t=358.990 D3
    db 144,0,232,3,38,110,2 ; n6716 t=358.990 D2
    db 0,0,232,3,69,110,1 ; n6717 t=359.135 A4
    db 144,0,232,3,73,110,1 ; n6718 t=359.135 C#5
    db 0,0,232,3,38,110,2 ; n6719 t=359.279 D2
    db 144,0,232,3,50,110,2 ; n6720 t=359.279 D3
    db 0,0,232,3,71,110,1 ; n6721 t=359.423 B4
    db 144,0,232,3,74,110,1 ; n6722 t=359.423 D5
    db 0,0,232,3,38,110,2 ; n6723 t=359.567 D2
    db 144,0,232,3,50,110,2 ; n6724 t=359.567 D3
    db 0,0,232,3,73,110,1 ; n6725 t=359.712 C#5
    db 144,0,232,3,76,110,1 ; n6726 t=359.712 E5
    db 0,0,232,3,38,110,2 ; n6727 t=359.856 D2
    db 144,0,232,3,50,110,2 ; n6728 t=359.856 D3
    db 0,0,232,3,77,110,1 ; n6729 t=360.000 F5
    db 0,0,232,3,74,110,1 ; n6730 t=360.000 D5
    db 0,0,232,3,69,110,7 ; n6731 t=360.000 A4
    db 0,0,232,3,65,110,8 ; n6732 t=360.000 F4
    db 0,0,232,3,62,110,9 ; n6733 t=360.000 D4
    db 144,0,232,3,50,110,11 ; n6734 t=360.000 D3
    db 0,0,232,3,38,110,2 ; n6735 t=360.144 D2
    db 144,0,232,3,50,110,2 ; n6736 t=360.144 D3
    db 0,0,232,3,77,110,1 ; n6737 t=360.288 F5
    db 144,0,232,3,74,110,1 ; n6738 t=360.288 D5
    db 0,0,232,3,38,110,2 ; n6739 t=360.433 D2
    db 144,0,232,3,50,110,2 ; n6740 t=360.433 D3
    db 0,0,232,3,81,110,1 ; n6741 t=360.577 A5
    db 144,0,232,3,72,110,1 ; n6742 t=360.577 C5
    db 0,0,232,3,38,110,2 ; n6743 t=360.721 D2
    db 144,0,232,3,50,110,2 ; n6744 t=360.721 D3
    db 0,0,232,3,81,110,1 ; n6745 t=360.865 A5
    db 144,0,232,3,72,110,1 ; n6746 t=360.865 C5
    db 0,0,232,3,38,110,2 ; n6747 t=361.010 D2
    db 144,0,232,3,50,110,2 ; n6748 t=361.010 D3
    db 0,0,232,3,81,110,1 ; n6749 t=361.154 A5
    db 144,0,232,3,71,110,1 ; n6750 t=361.154 B4
    db 0,0,232,3,38,110,2 ; n6751 t=361.298 D2
    db 144,0,232,3,50,110,2 ; n6752 t=361.298 D3
    db 0,0,232,3,81,110,1 ; n6753 t=361.442 A5
    db 144,0,232,3,71,110,1 ; n6754 t=361.442 B4
    db 0,0,232,3,38,110,2 ; n6755 t=361.587 D2
    db 144,0,232,3,50,110,2 ; n6756 t=361.587 D3
    db 0,0,232,3,79,110,1 ; n6757 t=361.731 G5
    db 144,0,232,3,70,110,1 ; n6758 t=361.731 A#4
    db 0,0,232,3,38,110,2 ; n6759 t=361.875 D2
    db 144,0,232,3,50,110,2 ; n6760 t=361.875 D3
    db 0,0,232,3,79,110,1 ; n6761 t=362.019 G5
    db 144,0,232,3,70,110,1 ; n6762 t=362.019 A#4
    db 0,0,232,3,38,110,2 ; n6763 t=362.163 D2
    db 144,0,232,3,50,110,2 ; n6764 t=362.163 D3
    db 0,0,232,3,79,110,1 ; n6765 t=362.308 G5
    db 144,0,232,3,69,110,1 ; n6766 t=362.308 A4
    db 0,0,232,3,38,110,2 ; n6767 t=362.452 D2
    db 144,0,232,3,50,110,2 ; n6768 t=362.452 D3
    db 0,0,232,3,79,110,1 ; n6769 t=362.596 G5
    db 144,0,232,3,69,110,1 ; n6770 t=362.596 A4
    db 0,0,232,3,38,110,2 ; n6771 t=362.740 D2
    db 144,0,232,3,50,110,2 ; n6772 t=362.740 D3
    db 0,0,232,3,77,110,1 ; n6773 t=362.885 F5
    db 144,0,232,3,69,110,1 ; n6774 t=362.885 A4
    db 0,0,232,3,38,110,2 ; n6775 t=363.029 D2
    db 144,0,232,3,50,110,2 ; n6776 t=363.029 D3
    db 0,0,232,3,77,110,1 ; n6777 t=363.173 F5
    db 144,0,232,3,69,110,1 ; n6778 t=363.173 A4
    db 0,0,232,3,38,110,2 ; n6779 t=363.317 D2
    db 144,0,232,3,50,110,2 ; n6780 t=363.317 D3
    db 0,0,232,3,77,110,1 ; n6781 t=363.462 F5
    db 144,0,232,3,68,110,1 ; n6782 t=363.462 G#4
    db 0,0,232,3,38,110,2 ; n6783 t=363.606 D2
    db 144,0,232,3,50,110,2 ; n6784 t=363.606 D3
    db 0,0,232,3,77,110,1 ; n6785 t=363.750 F5
    db 144,0,232,3,68,110,1 ; n6786 t=363.750 G#4
    db 0,0,232,3,38,110,2 ; n6787 t=363.894 D2
    db 144,0,232,3,50,110,2 ; n6788 t=363.894 D3
    db 0,0,232,3,76,110,1 ; n6789 t=364.038 E5
    db 144,0,232,3,67,110,1 ; n6790 t=364.038 G4
    db 0,0,232,3,38,110,2 ; n6791 t=364.183 D2
    db 144,0,232,3,50,110,2 ; n6792 t=364.183 D3
    db 0,0,232,3,76,110,1 ; n6793 t=364.327 E5
    db 144,0,232,3,67,110,1 ; n6794 t=364.327 G4
    db 0,0,232,3,38,110,2 ; n6795 t=364.471 D2
    db 144,0,232,3,50,110,2 ; n6796 t=364.471 D3
    db 0,0,232,3,76,110,1 ; n6797 t=364.615 E5
    db 144,0,232,3,66,110,1 ; n6798 t=364.615 F#4
    db 0,0,232,3,38,110,2 ; n6799 t=364.760 D2
    db 144,0,232,3,50,110,2 ; n6800 t=364.760 D3
    db 0,0,232,3,76,110,1 ; n6801 t=364.904 E5
    db 144,0,232,3,66,110,1 ; n6802 t=364.904 F#4
    db 0,0,232,3,38,110,2 ; n6803 t=365.048 D2
    db 144,0,232,3,50,110,2 ; n6804 t=365.048 D3
    db 0,0,232,3,74,110,1 ; n6805 t=365.192 D5
    db 144,0,232,3,65,110,1 ; n6806 t=365.192 F4
    db 0,0,232,3,38,110,2 ; n6807 t=365.337 D2
    db 144,0,232,3,50,110,2 ; n6808 t=365.337 D3
    db 0,0,232,3,74,110,1 ; n6809 t=365.481 D5
    db 144,0,232,3,65,110,1 ; n6810 t=365.481 F4
    db 0,0,232,3,38,110,2 ; n6811 t=365.625 D2
    db 144,0,232,3,50,110,2 ; n6812 t=365.625 D3
    db 0,0,232,3,74,110,1 ; n6813 t=365.769 D5
    db 144,0,232,3,64,110,1 ; n6814 t=365.769 E4
    db 0,0,232,3,38,110,2 ; n6815 t=365.913 D2
    db 144,0,232,3,50,110,2 ; n6816 t=365.913 D3
    db 0,0,232,3,74,110,1 ; n6817 t=366.058 D5
    db 144,0,232,3,64,110,1 ; n6818 t=366.058 E4
    db 0,0,232,3,38,110,2 ; n6819 t=366.202 D2
    db 144,0,232,3,50,110,2 ; n6820 t=366.202 D3
    db 0,0,232,3,72,110,1 ; n6821 t=366.346 C5
    db 144,0,232,3,63,110,1 ; n6822 t=366.346 D#4
    db 0,0,232,3,38,110,2 ; n6823 t=366.490 D2
    db 144,0,232,3,50,110,2 ; n6824 t=366.490 D3
    db 0,0,232,3,72,110,1 ; n6825 t=366.635 C5
    db 144,0,232,3,63,110,1 ; n6826 t=366.635 D#4
    db 0,0,232,3,38,110,2 ; n6827 t=366.779 D2
    db 144,0,232,3,50,110,2 ; n6828 t=366.779 D3
    db 0,0,232,3,72,110,1 ; n6829 t=366.923 C5
    db 144,0,232,3,62,110,1 ; n6830 t=366.923 D4
    db 0,0,232,3,38,110,2 ; n6831 t=367.067 D2
    db 144,0,232,3,50,110,2 ; n6832 t=367.067 D3
    db 0,0,232,3,72,110,1 ; n6833 t=367.212 C5
    db 144,0,232,3,62,110,1 ; n6834 t=367.212 D4
    db 0,0,232,3,38,110,2 ; n6835 t=367.356 D2
    db 144,0,232,3,50,110,2 ; n6836 t=367.356 D3
    db 0,0,232,3,70,110,1 ; n6837 t=367.500 A#4
    db 144,0,232,3,67,110,1 ; n6838 t=367.500 G4
    db 0,0,232,3,38,110,2 ; n6839 t=367.644 D2
    db 144,0,232,3,50,110,2 ; n6840 t=367.644 D3
    db 0,0,232,3,70,110,1 ; n6841 t=367.788 A#4
    db 144,0,232,3,67,110,1 ; n6842 t=367.788 G4
    db 0,0,232,3,38,110,2 ; n6843 t=367.933 D2
    db 144,0,232,3,50,110,2 ; n6844 t=367.933 D3
    db 0,0,232,3,69,110,1 ; n6845 t=368.077 A4
    db 144,0,232,3,67,110,1 ; n6846 t=368.077 G4
    db 0,0,232,3,38,110,2 ; n6847 t=368.221 D2
    db 144,0,232,3,50,110,2 ; n6848 t=368.221 D3
    db 0,0,232,3,69,110,1 ; n6849 t=368.365 A4
    db 144,0,232,3,67,110,1 ; n6850 t=368.365 G4
    db 0,0,232,3,38,110,2 ; n6851 t=368.510 D2
    db 144,0,232,3,50,110,2 ; n6852 t=368.510 D3
    db 0,0,232,3,74,110,1 ; n6853 t=368.654 D5
    db 144,0,232,3,65,110,1 ; n6854 t=368.654 F4
    db 0,0,232,3,38,110,2 ; n6855 t=368.798 D2
    db 144,0,232,3,50,110,2 ; n6856 t=368.798 D3
    db 0,0,232,3,74,110,1 ; n6857 t=368.942 D5
    db 144,0,232,3,65,110,1 ; n6858 t=368.942 F4
    db 0,0,232,3,38,110,2 ; n6859 t=369.087 D2
    db 144,0,232,3,50,110,2 ; n6860 t=369.087 D3
    db 0,0,232,3,74,110,1 ; n6861 t=369.231 D5
    db 144,0,232,3,64,110,1 ; n6862 t=369.231 E4
    db 0,0,232,3,38,110,2 ; n6863 t=369.375 D2
    db 144,0,232,3,50,110,2 ; n6864 t=369.375 D3
    db 0,0,232,3,74,110,1 ; n6865 t=369.519 D5
    db 144,0,232,3,64,110,1 ; n6866 t=369.519 E4
    db 0,0,232,3,38,110,2 ; n6867 t=369.663 D2
    db 144,0,232,3,50,110,2 ; n6868 t=369.663 D3
    db 0,0,232,3,72,110,1 ; n6869 t=369.808 C5
    db 144,0,232,3,69,110,1 ; n6870 t=369.808 A4
    db 0,0,232,3,38,110,2 ; n6871 t=369.952 D2
    db 144,0,232,3,50,110,2 ; n6872 t=369.952 D3
    db 0,0,232,3,72,110,1 ; n6873 t=370.096 C5
    db 144,0,232,3,69,110,1 ; n6874 t=370.096 A4
    db 0,0,232,3,38,110,2 ; n6875 t=370.240 D2
    db 144,0,232,3,50,110,2 ; n6876 t=370.240 D3
    db 0,0,232,3,70,110,1 ; n6877 t=370.385 A#4
    db 144,0,232,3,69,110,1 ; n6878 t=370.385 A4
    db 0,0,232,3,38,110,2 ; n6879 t=370.529 D2
    db 144,0,232,3,50,110,2 ; n6880 t=370.529 D3
    db 0,0,232,3,70,110,1 ; n6881 t=370.673 A#4
    db 144,0,232,3,69,110,1 ; n6882 t=370.673 A4
    db 0,0,232,3,38,110,2 ; n6883 t=370.817 D2
    db 144,0,232,3,50,110,2 ; n6884 t=370.817 D3
    db 0,0,232,3,70,110,1 ; n6885 t=370.962 A#4
    db 144,0,232,3,67,110,1 ; n6886 t=370.962 G4
    db 0,0,232,3,38,110,2 ; n6887 t=371.106 D2
    db 144,0,232,3,50,110,2 ; n6888 t=371.106 D3
    db 0,0,232,3,70,110,1 ; n6889 t=371.250 A#4
    db 144,0,232,3,67,110,1 ; n6890 t=371.250 G4
    db 0,0,232,3,38,110,2 ; n6891 t=371.394 D2
    db 144,0,232,3,50,110,2 ; n6892 t=371.394 D3
    db 0,0,232,3,69,110,1 ; n6893 t=371.538 A4
    db 144,0,232,3,67,110,1 ; n6894 t=371.538 G4
    db 0,0,232,3,38,110,2 ; n6895 t=371.683 D2
    db 144,0,232,3,50,110,2 ; n6896 t=371.683 D3
    db 0,0,232,3,69,110,1 ; n6897 t=371.827 A4
    db 144,0,232,3,67,110,1 ; n6898 t=371.827 G4
    db 0,0,232,3,38,110,2 ; n6899 t=371.971 D2
    db 144,0,232,3,50,110,2 ; n6900 t=371.971 D3
    db 0,0,232,3,69,110,1 ; n6901 t=372.115 A4
    db 144,0,232,3,65,110,1 ; n6902 t=372.115 F4
    db 0,0,232,3,38,110,2 ; n6903 t=372.260 D2
    db 144,0,232,3,50,110,2 ; n6904 t=372.260 D3
    db 0,0,232,3,69,110,1 ; n6905 t=372.404 A4
    db 144,0,232,3,65,110,1 ; n6906 t=372.404 F4
    db 0,0,232,3,38,110,2 ; n6907 t=372.548 D2
    db 144,0,232,3,50,110,2 ; n6908 t=372.548 D3
    db 0,0,232,3,67,110,1 ; n6909 t=372.692 G4
    db 144,0,232,3,65,110,1 ; n6910 t=372.692 F4
    db 0,0,232,3,38,110,2 ; n6911 t=372.837 D2
    db 144,0,232,3,50,110,2 ; n6912 t=372.837 D3
    db 0,0,232,3,67,110,1 ; n6913 t=372.981 G4
    db 144,0,232,3,65,110,1 ; n6914 t=372.981 F4
    db 0,0,232,3,38,110,2 ; n6915 t=373.125 D2
    db 144,0,232,3,50,110,2 ; n6916 t=373.125 D3
    db 0,0,232,3,67,110,1 ; n6917 t=373.269 G4
    db 144,0,232,3,64,110,1 ; n6918 t=373.269 E4
    db 0,0,232,3,38,110,2 ; n6919 t=373.413 D2
    db 144,0,232,3,50,110,2 ; n6920 t=373.413 D3
    db 0,0,232,3,67,110,1 ; n6921 t=373.558 G4
    db 144,0,232,3,64,110,1 ; n6922 t=373.558 E4
    db 0,0,232,3,38,110,2 ; n6923 t=373.702 D2
    db 144,0,232,3,50,110,2 ; n6924 t=373.702 D3
    db 0,0,232,3,65,110,1 ; n6925 t=373.846 F4
    db 144,0,232,3,64,110,1 ; n6926 t=373.846 E4
    db 0,0,232,3,38,110,2 ; n6927 t=373.990 D2
    db 144,0,232,3,50,110,2 ; n6928 t=373.990 D3
    db 0,0,232,3,65,110,1 ; n6929 t=374.135 F4
    db 144,0,232,3,64,110,1 ; n6930 t=374.135 E4
    db 0,0,232,3,38,110,2 ; n6931 t=374.279 D2
    db 144,0,232,3,50,110,2 ; n6932 t=374.279 D3
    db 0,0,232,3,65,110,1 ; n6933 t=374.423 F4
    db 144,0,232,3,62,110,1 ; n6934 t=374.423 D4
    db 0,0,232,3,38,110,2 ; n6935 t=374.567 D2
    db 144,0,232,3,50,110,2 ; n6936 t=374.567 D3
    db 0,0,232,3,65,110,1 ; n6937 t=374.712 F4
    db 144,0,232,3,62,110,1 ; n6938 t=374.712 D4
    db 0,0,232,3,38,110,2 ; n6939 t=374.856 D2
    db 144,0,232,3,50,110,2 ; n6940 t=374.856 D3
    db 0,0,232,3,64,110,1 ; n6941 t=375.000 E4
    db 144,0,232,3,62,110,1 ; n6942 t=375.000 D4
    db 0,0,232,3,38,110,2 ; n6943 t=375.144 D2
    db 144,0,232,3,50,110,2 ; n6944 t=375.144 D3
    db 0,0,232,3,64,110,1 ; n6945 t=375.288 E4
    db 144,0,232,3,62,110,1 ; n6946 t=375.288 D4
    db 0,0,232,3,38,110,2 ; n6947 t=375.433 D2
    db 144,0,232,3,50,110,2 ; n6948 t=375.433 D3
    db 0,0,232,3,64,110,1 ; n6949 t=375.577 E4
    db 144,0,232,3,61,110,1 ; n6950 t=375.577 C#4
    db 0,0,232,3,38,110,2 ; n6951 t=375.721 D2
    db 144,0,232,3,50,110,2 ; n6952 t=375.721 D3
    db 0,0,232,3,64,110,1 ; n6953 t=375.865 E4
    db 144,0,232,3,61,110,1 ; n6954 t=375.865 C#4
    db 0,0,232,3,38,110,2 ; n6955 t=376.010 D2
    db 144,0,232,3,50,110,2 ; n6956 t=376.010 D3
    db 0,0,232,3,66,110,1 ; n6957 t=376.154 F#4
    db 144,0,232,3,60,110,1 ; n6958 t=376.154 C4
    db 0,0,232,3,38,110,2 ; n6959 t=376.298 D2
    db 144,0,232,3,50,110,2 ; n6960 t=376.298 D3
    db 0,0,232,3,66,110,1 ; n6961 t=376.442 F#4
    db 144,0,232,3,60,110,1 ; n6962 t=376.442 C4
    db 0,0,232,3,38,110,2 ; n6963 t=376.587 D2
    db 144,0,232,3,50,110,2 ; n6964 t=376.587 D3
    db 0,0,232,3,67,110,1 ; n6965 t=376.731 G4
    db 144,0,232,3,59,110,1 ; n6966 t=376.731 B3
    db 0,0,232,3,38,110,2 ; n6967 t=376.875 D2
    db 144,0,232,3,50,110,2 ; n6968 t=376.875 D3
    db 0,0,232,3,67,110,1 ; n6969 t=377.019 G4
    db 144,0,232,3,59,110,1 ; n6970 t=377.019 B3
    db 0,0,232,3,38,110,2 ; n6971 t=377.163 D2
    db 144,0,232,3,50,110,2 ; n6972 t=377.163 D3
    db 0,0,232,3,64,110,1 ; n6973 t=377.308 E4
    db 144,0,232,3,58,110,1 ; n6974 t=377.308 A#3
    db 0,0,232,3,38,110,2 ; n6975 t=377.452 D2
    db 144,0,232,3,50,110,2 ; n6976 t=377.452 D3
    db 0,0,232,3,64,110,1 ; n6977 t=377.596 E4
    db 144,0,232,3,58,110,1 ; n6978 t=377.596 A#3
    db 0,0,232,3,38,110,2 ; n6979 t=377.740 D2
    db 144,0,232,3,50,110,2 ; n6980 t=377.740 D3
    db 0,0,232,3,65,110,1 ; n6981 t=377.885 F4
    db 144,0,232,3,57,110,1 ; n6982 t=377.885 A3
    db 0,0,232,3,38,110,2 ; n6983 t=378.029 D2
    db 144,0,232,3,50,110,2 ; n6984 t=378.029 D3
    db 0,0,232,3,65,110,1 ; n6985 t=378.173 F4
    db 144,0,232,3,57,110,1 ; n6986 t=378.173 A3
    db 0,0,232,3,38,110,2 ; n6987 t=378.317 D2
    db 144,0,232,3,50,110,2 ; n6988 t=378.317 D3
    db 0,0,232,3,62,110,1 ; n6989 t=378.462 D4
    db 144,0,232,3,56,110,2 ; n6990 t=378.462 G#3
    db 0,0,232,3,50,110,2 ; n6991 t=378.606 D3
    db 144,0,232,3,38,110,2 ; n6992 t=378.606 D2
    db 0,0,232,3,62,110,1 ; n6993 t=378.750 D4
    db 144,0,232,3,56,110,2 ; n6994 t=378.750 G#3
    db 0,0,232,3,50,110,2 ; n6995 t=378.894 D3
    db 144,0,232,3,38,110,2 ; n6996 t=378.894 D2
    db 0,0,232,3,63,110,1 ; n6997 t=379.038 D#4
    db 144,0,232,3,55,110,2 ; n6998 t=379.038 G3
    db 0,0,232,3,50,110,2 ; n6999 t=379.183 D3
    db 144,0,232,3,38,110,2 ; n7000 t=379.183 D2
    db 0,0,232,3,63,110,1 ; n7001 t=379.327 D#4
    db 144,0,232,3,55,110,2 ; n7002 t=379.327 G3
    db 0,0,232,3,50,110,2 ; n7003 t=379.471 D3
    db 144,0,232,3,38,110,2 ; n7004 t=379.471 D2
    db 0,0,232,3,61,110,1 ; n7005 t=379.615 C#4
    db 144,0,232,3,55,110,2 ; n7006 t=379.615 G3
    db 0,0,232,3,50,110,2 ; n7007 t=379.760 D3
    db 144,0,232,3,38,110,2 ; n7008 t=379.760 D2
    db 0,0,232,3,61,110,1 ; n7009 t=379.904 C#4
    db 144,0,232,3,55,110,2 ; n7010 t=379.904 G3
    db 0,0,232,3,50,110,2 ; n7011 t=380.048 D3
    db 144,0,232,3,38,110,2 ; n7012 t=380.048 D2
    db 0,0,232,3,62,110,1 ; n7013 t=380.192 D4
    db 144,0,232,3,53,110,2 ; n7014 t=380.192 F3
    db 0,0,232,3,50,110,2 ; n7015 t=380.337 D3
    db 144,0,232,3,38,110,2 ; n7016 t=380.337 D2
    db 0,0,232,3,62,110,1 ; n7017 t=380.481 D4
    db 144,0,232,3,53,110,2 ; n7018 t=380.481 F3
    db 0,0,232,3,50,110,2 ; n7019 t=380.625 D3
    db 144,0,232,3,38,110,2 ; n7020 t=380.625 D2
    db 0,0,232,3,50,110,2 ; n7021 t=380.769 D3
    db 144,0,232,3,44,110,2 ; n7022 t=380.769 G#2
    db 144,0,232,3,52,110,2 ; n7023 t=380.913 E3
    db 0,0,232,3,53,110,2 ; n7024 t=381.058 F3
    db 144,0,232,3,44,110,11 ; n7025 t=381.058 G#2
    db 144,0,232,3,59,110,2 ; n7026 t=381.202 B3
    db 0,0,232,3,62,110,2 ; n7027 t=381.346 D4
    db 144,0,232,3,44,110,11 ; n7028 t=381.346 G#2
    db 144,0,232,3,57,110,2 ; n7029 t=381.490 A3
    db 0,0,232,3,59,110,2 ; n7030 t=381.635 B3
    db 0,0,232,3,74,110,7 ; n7031 t=381.635 D5
    db 0,0,232,3,65,110,8 ; n7032 t=381.635 F4
    db 144,0,232,3,59,110,9 ; n7033 t=381.635 B3
    db 144,0,232,3,56,110,2 ; n7034 t=381.779 G#3
    db 0,0,232,3,44,110,2 ; n7035 t=381.923 G#2
    db 0,0,232,3,50,110,2 ; n7036 t=381.923 D3
    db 0,0,232,3,74,110,7 ; n7037 t=381.923 D5
    db 0,0,232,3,65,110,8 ; n7038 t=381.923 F4
    db 144,0,232,3,59,110,9 ; n7039 t=381.923 B3
    db 144,0,232,3,52,110,2 ; n7040 t=382.067 E3
    db 0,0,232,3,53,110,2 ; n7041 t=382.212 F3
    db 144,0,232,3,44,110,11 ; n7042 t=382.212 G#2
    db 144,0,232,3,59,110,2 ; n7043 t=382.356 B3
    db 0,0,232,3,62,110,2 ; n7044 t=382.500 D4
    db 144,0,232,3,44,110,11 ; n7045 t=382.500 G#2
    db 144,0,232,3,58,110,2 ; n7046 t=382.644 A#3
    db 0,0,232,3,56,110,2 ; n7047 t=382.788 G#3
    db 0,0,232,3,74,110,7 ; n7048 t=382.788 D5
    db 0,0,232,3,64,110,8 ; n7049 t=382.788 E4
    db 144,0,232,3,59,110,9 ; n7050 t=382.788 B3
    db 144,0,232,3,52,110,2 ; n7051 t=382.933 E3
    db 0,0,232,3,53,110,2 ; n7052 t=383.077 F3
    db 0,0,232,3,45,110,2 ; n7053 t=383.077 A2
    db 0,0,232,3,74,110,7 ; n7054 t=383.077 D5
    db 0,0,232,3,57,110,8 ; n7055 t=383.077 A3
    db 144,0,232,3,65,110,9 ; n7056 t=383.077 F4
    db 144,0,232,3,55,110,2 ; n7057 t=383.221 G3
    db 0,0,232,3,57,110,2 ; n7058 t=383.365 A3
    db 144,0,232,3,45,110,11 ; n7059 t=383.365 A2
    db 144,0,232,3,61,110,2 ; n7060 t=383.510 C#4
    db 0,0,232,3,62,110,2 ; n7061 t=383.654 D4
    db 144,0,232,3,45,110,11 ; n7062 t=383.654 A2
    db 144,0,232,3,57,110,2 ; n7063 t=383.798 A3
    db 0,0,232,3,58,110,2 ; n7064 t=383.942 A#3
    db 0,0,232,3,74,110,7 ; n7065 t=383.942 D5
    db 0,0,232,3,65,110,8 ; n7066 t=383.942 F4
    db 144,0,232,3,62,110,9 ; n7067 t=383.942 D4
    db 144,0,232,3,55,110,2 ; n7068 t=384.087 G3
    db 0,0,232,3,45,110,2 ; n7069 t=384.231 A2
    db 0,0,232,3,53,110,2 ; n7070 t=384.231 F3
    db 0,0,232,3,74,110,7 ; n7071 t=384.231 D5
    db 0,0,232,3,65,110,8 ; n7072 t=384.231 F4
    db 144,0,232,3,62,110,9 ; n7073 t=384.231 D4
    db 144,0,232,3,55,110,2 ; n7074 t=384.375 G3
    db 0,0,232,3,57,110,2 ; n7075 t=384.519 A3
    db 144,0,232,3,45,110,11 ; n7076 t=384.519 A2
    db 144,0,232,3,61,110,2 ; n7077 t=384.663 C#4
    db 0,0,232,3,62,110,2 ; n7078 t=384.808 D4
    db 144,0,232,3,45,110,11 ; n7079 t=384.808 A2
    db 144,0,232,3,57,110,2 ; n7080 t=384.952 A3
    db 0,0,232,3,53,110,2 ; n7081 t=385.096 F3
    db 0,0,232,3,74,110,7 ; n7082 t=385.096 D5
    db 0,0,232,3,65,110,8 ; n7083 t=385.096 F4
    db 144,0,232,3,57,110,9 ; n7084 t=385.096 A3
    db 144,0,232,3,50,110,2 ; n7085 t=385.240 D3
    db 0,0,232,3,46,110,2 ; n7086 t=385.385 A#2
    db 0,0,232,3,52,110,2 ; n7087 t=385.385 E3
    db 0,0,232,3,74,110,7 ; n7088 t=385.385 D5
    db 0,0,232,3,67,110,8 ; n7089 t=385.385 G4
    db 144,0,232,3,64,110,9 ; n7090 t=385.385 E4
    db 144,0,232,3,53,110,2 ; n7091 t=385.529 F3
    db 0,0,232,3,55,110,2 ; n7092 t=385.673 G3
    db 144,0,232,3,46,110,11 ; n7093 t=385.673 A#2
    db 144,0,232,3,61,110,2 ; n7094 t=385.817 C#4
    db 0,0,232,3,62,110,2 ; n7095 t=385.962 D4
    db 144,0,232,3,46,110,11 ; n7096 t=385.962 A#2
    db 144,0,232,3,57,110,2 ; n7097 t=386.106 A3
    db 0,0,232,3,58,110,2 ; n7098 t=386.250 A#3
    db 0,0,232,3,74,110,7 ; n7099 t=386.250 D5
    db 0,0,232,3,64,110,8 ; n7100 t=386.250 E4
    db 144,0,232,3,55,110,9 ; n7101 t=386.250 G3
    db 144,0,232,3,55,110,2 ; n7102 t=386.394 G3
    db 0,0,232,3,46,110,2 ; n7103 t=386.538 A#2
    db 0,0,232,3,52,110,2 ; n7104 t=386.538 E3
    db 0,0,232,3,74,110,7 ; n7105 t=386.538 D5
    db 0,0,232,3,64,110,8 ; n7106 t=386.538 E4
    db 144,0,232,3,55,110,9 ; n7107 t=386.538 G3
    db 144,0,232,3,53,110,2 ; n7108 t=386.683 F3
    db 0,0,232,3,55,110,2 ; n7109 t=386.827 G3
    db 144,0,232,3,46,110,11 ; n7110 t=386.827 A#2
    db 144,0,232,3,61,110,2 ; n7111 t=386.971 C#4
    db 0,0,232,3,62,110,2 ; n7112 t=387.115 D4
    db 144,0,232,3,46,110,11 ; n7113 t=387.115 A#2
    db 144,0,232,3,58,110,2 ; n7114 t=387.260 A#3
    db 0,0,232,3,55,110,2 ; n7115 t=387.404 G3
    db 0,0,232,3,74,110,7 ; n7116 t=387.404 D5
    db 0,0,232,3,67,110,8 ; n7117 t=387.404 G4
    db 144,0,232,3,52,110,9 ; n7118 t=387.404 E3
    db 144,0,232,3,52,110,2 ; n7119 t=387.548 E3
    db 0,0,232,3,45,110,2 ; n7120 t=387.692 A2
    db 0,0,232,3,53,110,2 ; n7121 t=387.692 F3
    db 0,0,232,3,74,110,7 ; n7122 t=387.692 D5
    db 0,0,232,3,69,110,8 ; n7123 t=387.692 A4
    db 144,0,232,3,53,110,9 ; n7124 t=387.692 F3
    db 144,0,232,3,52,110,2 ; n7125 t=387.837 E3
    db 0,0,232,3,53,110,2 ; n7126 t=387.981 F3
    db 144,0,232,3,45,110,11 ; n7127 t=387.981 A2
    db 144,0,232,3,57,110,2 ; n7128 t=388.125 A3
    db 0,0,232,3,62,110,2 ; n7129 t=388.269 D4
    db 144,0,232,3,45,110,11 ; n7130 t=388.269 A2
    db 144,0,232,3,57,110,2 ; n7131 t=388.413 A3
    db 0,0,232,3,58,110,2 ; n7132 t=388.558 A#3
    db 0,0,232,3,74,110,7 ; n7133 t=388.558 D5
    db 0,0,232,3,67,110,8 ; n7134 t=388.558 G4
    db 144,0,232,3,64,110,9 ; n7135 t=388.558 E4
    db 144,0,232,3,55,110,2 ; n7136 t=388.702 G3
    db 0,0,232,3,45,110,2 ; n7137 t=388.846 A2
    db 0,0,232,3,53,110,2 ; n7138 t=388.846 F3
    db 0,0,232,3,74,110,7 ; n7139 t=388.846 D5
    db 0,0,232,3,69,110,8 ; n7140 t=388.846 A4
    db 144,0,232,3,65,110,9 ; n7141 t=388.846 F4
    db 144,0,232,3,52,110,2 ; n7142 t=388.990 E3
    db 0,0,232,3,53,110,2 ; n7143 t=389.135 F3
    db 144,0,232,3,45,110,11 ; n7144 t=389.135 A2
    db 144,0,232,3,57,110,2 ; n7145 t=389.279 A3
    db 0,0,232,3,62,110,2 ; n7146 t=389.423 D4
    db 144,0,232,3,45,110,11 ; n7147 t=389.423 A2
    db 144,0,232,3,57,110,2 ; n7148 t=389.567 A3
    db 0,0,232,3,65,110,1 ; n7149 t=389.712 F4
    db 0,0,232,3,74,110,7 ; n7150 t=389.712 D5
    db 0,0,232,3,69,110,8 ; n7151 t=389.712 A4
    db 144,0,232,3,65,110,9 ; n7152 t=389.712 F4
    db 144,0,232,3,62,110,1 ; n7153 t=389.856 D4
    db 0,0,232,3,56,110,2 ; n7154 t=390.000 G#3
    db 0,0,232,3,74,110,7 ; n7155 t=390.000 D5
    db 0,0,232,3,71,110,8 ; n7156 t=390.000 B4
    db 0,0,232,3,65,110,9 ; n7157 t=390.000 F4
    db 72,0,232,3,44,110,11 ; n7158 t=390.000 G#2
    db 72,0,232,3,62,110,2 ; n7159 t=390.072 D4
    db 72,0,232,3,64,110,1 ; n7160 t=390.144 E4
    db 72,0,232,3,65,110,1 ; n7161 t=390.216 F4
    db 72,0,232,3,71,110,1 ; n7162 t=390.288 B4
    db 72,0,232,3,65,110,1 ; n7163 t=390.361 F4
    db 72,0,232,3,64,110,1 ; n7164 t=390.433 E4
    db 72,0,232,3,62,110,2 ; n7165 t=390.505 D4
    db 72,0,232,3,56,110,2 ; n7166 t=390.577 G#3
    db 72,0,232,3,62,110,2 ; n7167 t=390.649 D4
    db 72,0,232,3,64,110,1 ; n7168 t=390.721 E4
    db 72,0,232,3,65,110,1 ; n7169 t=390.793 F4
    db 72,0,232,3,71,110,1 ; n7170 t=390.865 B4
    db 72,0,232,3,65,110,1 ; n7171 t=390.937 F4
    db 72,0,232,3,64,110,1 ; n7172 t=391.010 E4
    db 72,0,232,3,62,110,2 ; n7173 t=391.082 D4
    db 0,0,232,3,56,110,2 ; n7174 t=391.154 G#3
    db 72,0,232,3,64,110,9 ; n7175 t=391.154 E4
    db 72,0,232,3,62,110,2 ; n7176 t=391.226 D4
    db 72,0,232,3,59,110,2 ; n7177 t=391.298 B3
    db 72,0,232,3,64,110,1 ; n7178 t=391.370 E4
    db 72,0,232,3,71,110,1 ; n7179 t=391.442 B4
    db 72,0,232,3,64,110,1 ; n7180 t=391.514 E4
    db 72,0,232,3,59,110,2 ; n7181 t=391.587 B3
    db 72,0,232,3,62,110,2 ; n7182 t=391.659 D4
    db 72,0,232,3,55,110,2 ; n7183 t=391.731 G3
    db 72,0,232,3,62,110,2 ; n7184 t=391.803 D4
    db 72,0,232,3,59,110,2 ; n7185 t=391.875 B3
    db 72,0,232,3,64,110,1 ; n7186 t=391.947 E4
    db 72,0,232,3,71,110,1 ; n7187 t=392.019 B4
    db 72,0,232,3,64,110,1 ; n7188 t=392.091 E4
    db 72,0,232,3,59,110,2 ; n7189 t=392.163 B3
    db 72,0,232,3,62,110,2 ; n7190 t=392.236 D4
    db 0,0,232,3,55,110,2 ; n7191 t=392.308 G3
    db 0,0,232,3,73,110,7 ; n7192 t=392.308 C#5
    db 0,0,232,3,70,110,8 ; n7193 t=392.308 A#4
    db 72,0,232,3,45,110,11 ; n7194 t=392.308 A2
    db 72,0,232,3,61,110,2 ; n7195 t=392.380 C#4
    db 72,0,232,3,62,110,1 ; n7196 t=392.452 D4
    db 72,0,232,3,64,110,1 ; n7197 t=392.524 E4
    db 72,0,232,3,70,110,1 ; n7198 t=392.596 A#4
    db 72,0,232,3,64,110,1 ; n7199 t=392.668 E4
    db 72,0,232,3,62,110,1 ; n7200 t=392.740 D4
    db 72,0,232,3,60,110,2 ; n7201 t=392.812 C4
    db 72,0,232,3,55,110,2 ; n7202 t=392.885 G3
    db 72,0,232,3,60,110,2 ; n7203 t=392.957 C4
    db 72,0,232,3,62,110,1 ; n7204 t=393.029 D4
    db 72,0,232,3,64,110,1 ; n7205 t=393.101 E4
    db 72,0,232,3,70,110,1 ; n7206 t=393.173 A#4
    db 72,0,232,3,64,110,1 ; n7207 t=393.245 E4
    db 72,0,232,3,62,110,1 ; n7208 t=393.317 D4
    db 72,0,232,3,60,110,2 ; n7209 t=393.389 C4
    db 0,0,232,3,55,110,2 ; n7210 t=393.462 G3
    db 72,0,232,3,69,110,8 ; n7211 t=393.462 A4
    db 72,0,232,3,60,110,2 ; n7212 t=393.534 C4
    db 72,0,232,3,57,110,2 ; n7213 t=393.606 A3
    db 72,0,232,3,64,110,1 ; n7214 t=393.678 E4
    db 72,0,232,3,69,110,1 ; n7215 t=393.750 A4
    db 72,0,232,3,64,110,1 ; n7216 t=393.822 E4
    db 72,0,232,3,57,110,2 ; n7217 t=393.894 A3
    db 72,0,232,3,60,110,2 ; n7218 t=393.966 C4
    db 72,0,232,3,55,110,2 ; n7219 t=394.038 G3
    db 72,0,232,3,60,110,2 ; n7220 t=394.111 C4
    db 72,0,232,3,57,110,2 ; n7221 t=394.183 A3
    db 72,0,232,3,64,110,1 ; n7222 t=394.255 E4
    db 72,0,232,3,69,110,1 ; n7223 t=394.327 A4
    db 72,0,232,3,64,110,1 ; n7224 t=394.399 E4
    db 72,0,232,3,57,110,2 ; n7225 t=394.471 A3
    db 72,0,232,3,60,110,2 ; n7226 t=394.543 C4
    db 0,0,232,3,54,110,2 ; n7227 t=394.615 F#3
    db 0,0,232,3,74,110,7 ; n7228 t=394.615 D5
    db 0,0,232,3,69,110,8 ; n7229 t=394.615 A4
    db 72,0,232,3,62,110,9 ; n7230 t=394.615 D4
    db 72,0,232,3,60,110,2 ; n7231 t=394.687 C4
    db 72,0,232,3,57,110,2 ; n7232 t=394.760 A3
    db 72,0,232,3,62,110,1 ; n7233 t=394.832 D4
    db 72,0,232,3,69,110,1 ; n7234 t=394.904 A4
    db 72,0,232,3,62,110,1 ; n7235 t=394.976 D4
    db 72,0,232,3,57,110,2 ; n7236 t=395.048 A3
    db 72,0,232,3,60,110,2 ; n7237 t=395.120 C4
    db 72,0,232,3,53,110,2 ; n7238 t=395.192 F3
    db 72,0,232,3,60,110,2 ; n7239 t=395.264 C4
    db 72,0,232,3,57,110,2 ; n7240 t=395.337 A3
    db 72,0,232,3,62,110,1 ; n7241 t=395.409 D4
    db 72,0,232,3,69,110,1 ; n7242 t=395.481 A4
    db 72,0,232,3,62,110,1 ; n7243 t=395.553 D4
    db 72,0,232,3,57,110,2 ; n7244 t=395.625 A3
    db 72,0,232,3,60,110,2 ; n7245 t=395.697 C4
    db 0,0,232,3,53,110,2 ; n7246 t=395.769 F3
    db 72,0,232,3,71,110,8 ; n7247 t=395.769 B4
    db 72,0,232,3,62,110,1 ; n7248 t=395.841 D4
    db 72,0,232,3,61,110,1 ; n7249 t=395.913 C#4
    db 72,0,232,3,69,110,1 ; n7250 t=395.986 A4
    db 72,0,232,3,71,110,1 ; n7251 t=396.058 B4
    db 72,0,232,3,69,110,1 ; n7252 t=396.130 A4
    db 72,0,232,3,61,110,1 ; n7253 t=396.202 C#4
    db 72,0,232,3,62,110,1 ; n7254 t=396.274 D4
    db 72,0,232,3,53,110,2 ; n7255 t=396.346 F3
    db 72,0,232,3,62,110,1 ; n7256 t=396.418 D4
    db 72,0,232,3,61,110,1 ; n7257 t=396.490 C#4
    db 72,0,232,3,69,110,1 ; n7258 t=396.562 A4
    db 72,0,232,3,71,110,1 ; n7259 t=396.635 B4
    db 72,0,232,3,69,110,1 ; n7260 t=396.707 A4
    db 72,0,232,3,61,110,1 ; n7261 t=396.779 C#4
    db 72,0,232,3,62,110,1 ; n7262 t=396.851 D4
    db 0,0,232,3,58,110,2 ; n7263 t=396.923 A#3
    db 0,0,232,3,76,110,7 ; n7264 t=396.923 E5
    db 0,0,232,3,73,110,8 ; n7265 t=396.923 C#5
    db 72,0,232,3,67,110,9 ; n7266 t=396.923 G4
    db 72,0,232,3,64,110,1 ; n7267 t=396.995 E4
    db 72,0,232,3,65,110,1 ; n7268 t=397.067 F4
    db 72,0,232,3,67,110,1 ; n7269 t=397.139 G4
    db 72,0,232,3,73,110,1 ; n7270 t=397.212 C#5
    db 72,0,232,3,67,110,1 ; n7271 t=397.284 G4
    db 72,0,232,3,65,110,1 ; n7272 t=397.356 F4
    db 72,0,232,3,64,110,1 ; n7273 t=397.428 E4
    db 72,0,232,3,58,110,2 ; n7274 t=397.500 A#3
    db 72,0,232,3,64,110,1 ; n7275 t=397.572 E4
    db 72,0,232,3,65,110,1 ; n7276 t=397.644 F4
    db 72,0,232,3,67,110,1 ; n7277 t=397.716 G4
    db 72,0,232,3,73,110,1 ; n7278 t=397.788 C#5
    db 72,0,232,3,67,110,1 ; n7279 t=397.861 G4
    db 72,0,232,3,65,110,1 ; n7280 t=397.933 F4
    db 72,0,232,3,64,110,1 ; n7281 t=398.005 E4
    db 0,0,232,3,57,110,2 ; n7282 t=398.077 A3
    db 0,0,232,3,77,110,7 ; n7283 t=398.077 F5
    db 0,0,232,3,74,110,8 ; n7284 t=398.077 D5
    db 72,0,232,3,65,110,9 ; n7285 t=398.077 F4
    db 72,0,232,3,65,110,1 ; n7286 t=398.149 F4
    db 72,0,232,3,69,110,1 ; n7287 t=398.221 A4
    db 72,0,232,3,73,110,1 ; n7288 t=398.293 C#5
    db 72,0,232,3,74,110,1 ; n7289 t=398.365 D5
    db 72,0,232,3,73,110,1 ; n7290 t=398.437 C#5
    db 72,0,232,3,69,110,1 ; n7291 t=398.510 A4
    db 72,0,232,3,65,110,1 ; n7292 t=398.582 F4
    db 72,0,232,3,57,110,2 ; n7293 t=398.654 A3
    db 72,0,232,3,65,110,1 ; n7294 t=398.726 F4
    db 72,0,232,3,69,110,1 ; n7295 t=398.798 A4
    db 72,0,232,3,73,110,1 ; n7296 t=398.870 C#5
    db 72,0,232,3,74,110,1 ; n7297 t=398.942 D5
    db 72,0,232,3,73,110,1 ; n7298 t=399.014 C#5
    db 72,0,232,3,69,110,1 ; n7299 t=399.087 A4
    db 72,0,232,3,65,110,1 ; n7300 t=399.159 F4
    db 0,0,232,3,56,110,2 ; n7301 t=399.231 G#3
    db 72,0,232,3,59,110,9 ; n7302 t=399.231 B3
    db 72,0,232,3,65,110,1 ; n7303 t=399.303 F4
    db 72,0,232,3,71,110,1 ; n7304 t=399.375 B4
    db 72,0,232,3,73,110,1 ; n7305 t=399.447 C#5
    db 72,0,232,3,74,110,1 ; n7306 t=399.519 D5
    db 72,0,232,3,73,110,1 ; n7307 t=399.591 C#5
    db 72,0,232,3,71,110,1 ; n7308 t=399.663 B4
    db 72,0,232,3,65,110,1 ; n7309 t=399.736 F4
    db 72,0,232,3,56,110,2 ; n7310 t=399.808 G#3
    db 72,0,232,3,65,110,1 ; n7311 t=399.880 F4
    db 72,0,232,3,71,110,1 ; n7312 t=399.952 B4
    db 72,0,232,3,73,110,1 ; n7313 t=400.024 C#5
    db 72,0,232,3,74,110,1 ; n7314 t=400.096 D5
    db 72,0,232,3,73,110,1 ; n7315 t=400.168 C#5
    db 72,0,232,3,71,110,1 ; n7316 t=400.240 B4
    db 72,0,232,3,65,110,1 ; n7317 t=400.312 F4
    db 0,0,232,3,56,110,2 ; n7318 t=400.385 G#3
    db 0,0,232,3,76,110,7 ; n7319 t=400.385 E5
    db 72,0,232,3,71,110,9 ; n7320 t=400.385 B4
    db 72,0,232,3,65,110,1 ; n7321 t=400.457 F4
    db 72,0,232,3,71,110,1 ; n7322 t=400.529 B4
    db 72,0,232,3,73,110,1 ; n7323 t=400.601 C#5
    db 72,0,232,3,74,110,1 ; n7324 t=400.673 D5
    db 72,0,232,3,73,110,1 ; n7325 t=400.745 C#5
    db 72,0,232,3,71,110,1 ; n7326 t=400.817 B4
    db 72,0,232,3,65,110,1 ; n7327 t=400.889 F4
    db 72,0,232,3,56,110,2 ; n7328 t=400.962 G#3
    db 72,0,232,3,65,110,1 ; n7329 t=401.034 F4
    db 72,0,232,3,71,110,1 ; n7330 t=401.106 B4
    db 72,0,232,3,73,110,1 ; n7331 t=401.178 C#5
    db 72,0,232,3,74,110,1 ; n7332 t=401.250 D5
    db 72,0,232,3,73,110,1 ; n7333 t=401.322 C#5
    db 72,0,232,3,71,110,1 ; n7334 t=401.394 B4
    db 72,0,232,3,65,110,1 ; n7335 t=401.466 F4
    db 0,0,232,3,57,110,2 ; n7336 t=401.538 A3
    db 72,0,232,3,64,110,9 ; n7337 t=401.538 E4
    db 72,0,232,3,67,110,1 ; n7338 t=401.611 G4
    db 72,0,232,3,64,110,1 ; n7339 t=401.683 E4
    db 72,0,232,3,70,110,1 ; n7340 t=401.755 A#4
    db 72,0,232,3,74,110,1 ; n7341 t=401.827 D5
    db 72,0,232,3,70,110,1 ; n7342 t=401.899 A#4
    db 72,0,232,3,64,110,1 ; n7343 t=401.971 E4
    db 72,0,232,3,67,110,1 ; n7344 t=402.043 G4
    db 72,0,232,3,57,110,2 ; n7345 t=402.115 A3
    db 72,0,232,3,67,110,1 ; n7346 t=402.187 G4
    db 72,0,232,3,64,110,1 ; n7347 t=402.260 E4
    db 72,0,232,3,70,110,1 ; n7348 t=402.332 A#4
    db 72,0,232,3,74,110,1 ; n7349 t=402.404 D5
    db 72,0,232,3,70,110,1 ; n7350 t=402.476 A#4
    db 72,0,232,3,64,110,1 ; n7351 t=402.548 E4
    db 72,0,232,3,67,110,1 ; n7352 t=402.620 G4
    db 0,0,232,3,57,110,2 ; n7353 t=402.692 A3
    db 0,0,232,3,73,110,8 ; n7354 t=402.692 C#5
    db 72,0,232,3,67,110,9 ; n7355 t=402.692 G4
    db 72,0,232,3,67,110,1 ; n7356 t=402.764 G4
    db 72,0,232,3,64,110,1 ; n7357 t=402.837 E4
    db 72,0,232,3,69,110,1 ; n7358 t=402.909 A4
    db 72,0,232,3,73,110,1 ; n7359 t=402.981 C#5
    db 72,0,232,3,69,110,1 ; n7360 t=403.053 A4
    db 72,0,232,3,64,110,1 ; n7361 t=403.125 E4
    db 72,0,232,3,67,110,1 ; n7362 t=403.197 G4
    db 72,0,232,3,57,110,2 ; n7363 t=403.269 A3
    db 72,0,232,3,67,110,1 ; n7364 t=403.341 G4
    db 72,0,232,3,64,110,1 ; n7365 t=403.413 E4
    db 72,0,232,3,69,110,1 ; n7366 t=403.486 A4
    db 72,0,232,3,73,110,1 ; n7367 t=403.558 C#5
    db 72,0,232,3,69,110,1 ; n7368 t=403.630 A4
    db 72,0,232,3,64,110,1 ; n7369 t=403.702 E4
    db 72,0,232,3,57,110,2 ; n7370 t=403.774 A3
    db 0,0,232,3,62,110,1 ; n7371 t=403.846 D4
    db 0,0,232,3,50,110,2 ; n7372 t=403.846 D3
    db 0,0,232,3,62,110,3 ; n7373 t=403.846 D4
    db 0,0,232,3,62,110,4 ; n7374 t=403.846 D4
    db 0,0,232,3,65,110,5 ; n7375 t=403.846 F4
    db 144,0,232,3,50,110,6 ; n7376 t=403.846 D3
    db 0,0,232,3,64,110,1 ; n7377 t=403.990 E4
    db 0,0,232,3,52,110,2 ; n7378 t=403.990 E3
    db 0,0,232,3,64,110,3 ; n7379 t=403.990 E4
    db 0,0,232,3,64,110,4 ; n7380 t=403.990 E4
    db 0,0,232,3,64,110,5 ; n7381 t=403.990 E4
    db 144,0,232,3,52,110,6 ; n7382 t=403.990 E3
    db 0,0,232,3,65,110,1 ; n7383 t=404.135 F4
    db 0,0,232,3,53,110,2 ; n7384 t=404.135 F3
    db 0,0,232,3,65,110,3 ; n7385 t=404.135 F4
    db 0,0,232,3,65,110,4 ; n7386 t=404.135 F4
    db 0,0,232,3,65,110,5 ; n7387 t=404.135 F4
    db 32,1,232,3,53,110,6 ; n7388 t=404.135 F3
    db 0,0,232,3,64,110,1 ; n7389 t=404.423 E4
    db 0,0,232,3,52,110,2 ; n7390 t=404.423 E3
    db 0,0,232,3,64,110,3 ; n7391 t=404.423 E4
    db 0,0,232,3,64,110,4 ; n7392 t=404.423 E4
    db 0,0,232,3,64,110,5 ; n7393 t=404.423 E4
    db 32,1,232,3,52,110,6 ; n7394 t=404.423 E3
    db 0,0,232,3,62,110,1 ; n7395 t=404.712 D4
    db 0,0,232,3,50,110,2 ; n7396 t=404.712 D3
    db 0,0,232,3,62,110,3 ; n7397 t=404.712 D4
    db 0,0,232,3,62,110,4 ; n7398 t=404.712 D4
    db 0,0,232,3,62,110,5 ; n7399 t=404.712 D4
    db 32,1,232,3,50,110,6 ; n7400 t=404.712 D3
    db 0,0,232,3,69,110,1 ; n7401 t=405.000 A4
    db 0,0,232,3,57,110,2 ; n7402 t=405.000 A3
    db 0,0,232,3,69,110,3 ; n7403 t=405.000 A4
    db 0,0,232,3,69,110,4 ; n7404 t=405.000 A4
    db 0,0,232,3,69,110,5 ; n7405 t=405.000 A4
    db 32,1,232,3,57,110,6 ; n7406 t=405.000 A3
    db 0,0,232,3,74,110,1 ; n7407 t=405.288 D5
    db 0,0,232,3,62,110,2 ; n7408 t=405.288 D4
    db 0,0,232,3,74,110,3 ; n7409 t=405.288 D5
    db 0,0,232,3,74,110,4 ; n7410 t=405.288 D5
    db 0,0,232,3,74,110,5 ; n7411 t=405.288 D5
    db 65,2,232,3,62,110,6 ; n7412 t=405.288 D4
    db 0,0,232,3,69,110,1 ; n7413 t=405.865 A4
    db 0,0,232,3,57,110,2 ; n7414 t=405.865 A3
    db 0,0,232,3,69,110,3 ; n7415 t=405.865 A4
    db 0,0,232,3,69,110,4 ; n7416 t=405.865 A4
    db 0,0,232,3,69,110,5 ; n7417 t=405.865 A4
    db 32,1,232,3,57,110,6 ; n7418 t=405.865 A3
    db 0,0,232,3,70,110,1 ; n7419 t=406.154 A#4
    db 0,0,232,3,58,110,2 ; n7420 t=406.154 A#3
    db 0,0,232,3,70,110,3 ; n7421 t=406.154 A#4
    db 0,0,232,3,70,110,4 ; n7422 t=406.154 A#4
    db 0,0,232,3,70,110,5 ; n7423 t=406.154 A#4
    db 32,1,232,3,58,110,6 ; n7424 t=406.154 A#3
    db 0,0,232,3,67,110,1 ; n7425 t=406.442 G4
    db 0,0,232,3,55,110,2 ; n7426 t=406.442 G3
    db 0,0,232,3,67,110,3 ; n7427 t=406.442 G4
    db 0,0,232,3,67,110,4 ; n7428 t=406.442 G4
    db 0,0,232,3,67,110,5 ; n7429 t=406.442 G4
    db 144,0,232,3,55,110,6 ; n7430 t=406.442 G3
    db 0,0,232,3,64,110,1 ; n7431 t=406.587 E4
    db 0,0,232,3,52,110,2 ; n7432 t=406.587 E3
    db 0,0,232,3,64,110,3 ; n7433 t=406.587 E4
    db 0,0,232,3,64,110,4 ; n7434 t=406.587 E4
    db 0,0,232,3,64,110,5 ; n7435 t=406.587 E4
    db 144,0,232,3,52,110,6 ; n7436 t=406.587 E3
    db 0,0,232,3,69,110,1 ; n7437 t=406.731 A4
    db 0,0,232,3,57,110,2 ; n7438 t=406.731 A3
    db 0,0,232,3,69,110,3 ; n7439 t=406.731 A4
    db 0,0,232,3,69,110,4 ; n7440 t=406.731 A4
    db 0,0,232,3,69,110,5 ; n7441 t=406.731 A4
    db 32,1,232,3,57,110,6 ; n7442 t=406.731 A3
    db 0,0,232,3,65,110,1 ; n7443 t=407.019 F4
    db 0,0,232,3,53,110,2 ; n7444 t=407.019 F3
    db 0,0,232,3,65,110,3 ; n7445 t=407.019 F4
    db 0,0,232,3,65,110,4 ; n7446 t=407.019 F4
    db 0,0,232,3,65,110,5 ; n7447 t=407.019 F4
    db 144,0,232,3,53,110,6 ; n7448 t=407.019 F3
    db 0,0,232,3,62,110,1 ; n7449 t=407.163 D4
    db 0,0,232,3,50,110,2 ; n7450 t=407.163 D3
    db 0,0,232,3,62,110,3 ; n7451 t=407.163 D4
    db 0,0,232,3,62,110,4 ; n7452 t=407.163 D4
    db 0,0,232,3,62,110,5 ; n7453 t=407.163 D4
    db 144,0,232,3,50,110,6 ; n7454 t=407.163 D3
    db 0,0,232,3,67,110,1 ; n7455 t=407.308 G4
    db 0,0,232,3,55,110,2 ; n7456 t=407.308 G3
    db 0,0,232,3,67,110,3 ; n7457 t=407.308 G4
    db 0,0,232,3,67,110,4 ; n7458 t=407.308 G4
    db 0,0,232,3,67,110,5 ; n7459 t=407.308 G4
    db 32,1,232,3,55,110,6 ; n7460 t=407.308 G3
    db 0,0,232,3,64,110,1 ; n7461 t=407.596 E4
    db 0,0,232,3,52,110,2 ; n7462 t=407.596 E3
    db 0,0,232,3,64,110,3 ; n7463 t=407.596 E4
    db 0,0,232,3,64,110,4 ; n7464 t=407.596 E4
    db 0,0,232,3,64,110,5 ; n7465 t=407.596 E4
    db 144,0,232,3,52,110,6 ; n7466 t=407.596 E3
    db 0,0,232,3,61,110,1 ; n7467 t=407.740 C#4
    db 0,0,232,3,49,110,2 ; n7468 t=407.740 C#3
    db 0,0,232,3,61,110,3 ; n7469 t=407.740 C#4
    db 0,0,232,3,61,110,4 ; n7470 t=407.740 C#4
    db 0,0,232,3,61,110,5 ; n7471 t=407.740 C#4
    db 144,0,232,3,49,110,6 ; n7472 t=407.740 C#3
    db 0,0,232,3,57,110,1 ; n7473 t=407.885 A3
    db 0,0,232,3,45,110,2 ; n7474 t=407.885 A2
    db 0,0,232,3,57,110,3 ; n7475 t=407.885 A3
    db 0,0,232,3,57,110,4 ; n7476 t=407.885 A3
    db 0,0,232,3,57,110,5 ; n7477 t=407.885 A3
    db 144,0,232,3,45,110,6 ; n7478 t=407.885 A2
    db 144,0,232,3,53,110,2 ; n7479 t=408.029 F3
    db 0,0,232,3,70,110,1 ; n7480 t=408.173 A#4
    db 0,0,232,3,52,110,2 ; n7481 t=408.173 E3
    db 0,0,232,3,76,110,3 ; n7482 t=408.173 E5
    db 0,0,232,3,70,110,4 ; n7483 t=408.173 A#4
    db 0,0,232,3,67,110,5 ; n7484 t=408.173 G4
    db 144,0,232,3,49,110,6 ; n7485 t=408.173 C#3
    db 144,0,232,3,50,110,2 ; n7486 t=408.317 D3
    db 0,0,232,3,49,110,2 ; n7487 t=408.462 C#3
    db 0,0,232,3,67,110,9 ; n7488 t=408.462 G4
    db 144,0,232,3,52,110,11 ; n7489 t=408.462 E3
    db 144,0,232,3,58,110,2 ; n7490 t=408.606 A#3
    db 0,0,232,3,64,110,2 ; n7491 t=408.750 E4
    db 0,0,232,3,70,110,7 ; n7492 t=408.750 A#4
    db 0,0,232,3,79,110,8 ; n7493 t=408.750 G5
    db 0,0,232,3,67,110,9 ; n7494 t=408.750 G4
    db 144,0,232,3,55,110,11 ; n7495 t=408.750 G3
    db 0,0,232,3,62,110,2 ; n7496 t=408.894 D4
    db 144,0,232,3,67,110,7 ; n7497 t=408.894 G4
    db 0,0,232,3,64,110,2 ; n7498 t=409.038 E4
    db 0,0,232,3,61,110,7 ; n7499 t=409.038 C#4
    db 0,0,232,3,67,110,9 ; n7500 t=409.038 G4
    db 144,0,232,3,58,110,11 ; n7501 t=409.038 A#3
    db 144,0,232,3,58,110,2 ; n7502 t=409.183 A#3
    db 0,0,232,3,57,110,2 ; n7503 t=409.327 A3
    db 0,0,232,3,76,110,7 ; n7504 t=409.327 E5
    db 0,0,232,3,76,110,8 ; n7505 t=409.327 E5
    db 0,0,232,3,67,110,9 ; n7506 t=409.327 G4
    db 144,0,232,3,55,110,11 ; n7507 t=409.327 G3
    db 0,0,232,3,55,110,2 ; n7508 t=409.471 G3
    db 144,0,232,3,73,110,8 ; n7509 t=409.471 C#5
    db 0,0,232,3,49,110,2 ; n7510 t=409.615 C#3
    db 0,0,232,3,64,110,8 ; n7511 t=409.615 E4
    db 0,0,232,3,67,110,9 ; n7512 t=409.615 G4
    db 144,0,232,3,52,110,11 ; n7513 t=409.615 E3
    db 144,0,232,3,58,110,2 ; n7514 t=409.760 A#3
    db 0,0,232,3,64,110,2 ; n7515 t=409.904 E4
    db 0,0,232,3,70,110,7 ; n7516 t=409.904 A#4
    db 0,0,232,3,79,110,8 ; n7517 t=409.904 G5
    db 0,0,232,3,67,110,9 ; n7518 t=409.904 G4
    db 144,0,232,3,49,110,11 ; n7519 t=409.904 C#3
    db 0,0,232,3,62,110,2 ; n7520 t=410.048 D4
    db 144,0,232,3,67,110,7 ; n7521 t=410.048 G4
    db 0,0,232,3,64,110,2 ; n7522 t=410.192 E4
    db 0,0,232,3,61,110,7 ; n7523 t=410.192 C#4
    db 0,0,232,3,69,110,9 ; n7524 t=410.192 A4
    db 144,0,232,3,45,110,11 ; n7525 t=410.192 A2
    db 144,0,232,3,58,110,2 ; n7526 t=410.337 A#3
    db 0,0,232,3,57,110,2 ; n7527 t=410.481 A3
    db 0,0,232,3,73,110,7 ; n7528 t=410.481 C#5
    db 0,0,232,3,76,110,8 ; n7529 t=410.481 E5
    db 0,0,232,3,69,110,9 ; n7530 t=410.481 A4
    db 144,0,232,3,57,110,11 ; n7531 t=410.481 A3
    db 0,0,232,3,55,110,2 ; n7532 t=410.625 G3
    db 144,0,232,3,73,110,8 ; n7533 t=410.625 C#5
    db 0,0,232,3,50,110,2 ; n7534 t=410.769 D3
    db 0,0,232,3,53,110,2 ; n7535 t=410.769 F3
    db 0,0,232,3,74,110,7 ; n7536 t=410.769 D5
    db 0,0,232,3,69,110,8 ; n7537 t=410.769 A4
    db 0,0,232,3,69,110,9 ; n7538 t=410.769 A4
    db 144,0,232,3,50,110,11 ; n7539 t=410.769 D3
    db 144,0,232,3,58,110,2 ; n7540 t=410.913 A#3
    db 0,0,232,3,62,110,2 ; n7541 t=411.058 D4
    db 0,0,232,3,69,110,7 ; n7542 t=411.058 A4
    db 144,0,232,3,65,110,8 ; n7543 t=411.058 F4
    db 144,0,232,3,61,110,2 ; n7544 t=411.202 C#4
    db 0,0,232,3,62,110,2 ; n7545 t=411.346 D4
    db 0,0,232,3,65,110,7 ; n7546 t=411.346 F4
    db 0,0,232,3,62,110,8 ; n7547 t=411.346 D4
    db 144,0,232,3,62,110,9 ; n7548 t=411.346 D4
    db 144,0,232,3,58,110,2 ; n7549 t=411.490 A#3
    db 0,0,232,3,57,110,2 ; n7550 t=411.635 A3
    db 0,0,232,3,69,110,7 ; n7551 t=411.635 A4
    db 144,0,232,3,65,110,8 ; n7552 t=411.635 F4
    db 144,0,232,3,55,110,2 ; n7553 t=411.779 G3
    db 0,0,232,3,50,110,2 ; n7554 t=411.923 D3
    db 0,0,232,3,53,110,2 ; n7555 t=411.923 F3
    db 0,0,232,3,74,110,7 ; n7556 t=411.923 D5
    db 0,0,232,3,69,110,8 ; n7557 t=411.923 A4
    db 144,0,232,3,50,110,11 ; n7558 t=411.923 D3
    db 144,0,232,3,58,110,2 ; n7559 t=412.067 A#3
    db 0,0,232,3,62,110,2 ; n7560 t=412.212 D4
    db 0,0,232,3,69,110,7 ; n7561 t=412.212 A4
    db 144,0,232,3,65,110,8 ; n7562 t=412.212 F4
    db 144,0,232,3,61,110,2 ; n7563 t=412.356 C#4
    db 0,0,232,3,62,110,2 ; n7564 t=412.500 D4
    db 0,0,232,3,65,110,7 ; n7565 t=412.500 F4
    db 0,0,232,3,62,110,8 ; n7566 t=412.500 D4
    db 144,0,232,3,62,110,9 ; n7567 t=412.500 D4
    db 144,0,232,3,58,110,2 ; n7568 t=412.644 A#3
    db 0,0,232,3,57,110,2 ; n7569 t=412.788 A3
    db 0,0,232,3,84,110,7 ; n7570 t=412.788 C6
    db 144,0,232,3,66,110,8 ; n7571 t=412.788 F#4
    db 144,0,232,3,55,110,2 ; n7572 t=412.933 G3
    db 0,0,232,3,54,110,2 ; n7573 t=413.077 F#3
    db 0,0,232,3,75,110,8 ; n7574 t=413.077 D#5
    db 0,0,232,3,60,110,9 ; n7575 t=413.077 C4
    db 144,0,232,3,45,110,11 ; n7576 t=413.077 A2
    db 144,0,232,3,63,110,1 ; n7577 t=413.221 D#4
    db 0,0,232,3,69,110,1 ; n7578 t=413.365 A4
    db 0,0,232,3,75,110,7 ; n7579 t=413.365 D#5
    db 0,0,232,3,84,110,8 ; n7580 t=413.365 C6
    db 0,0,232,3,60,110,9 ; n7581 t=413.365 C4
    db 144,0,232,3,48,110,11 ; n7582 t=413.365 C3
    db 0,0,232,3,67,110,1 ; n7583 t=413.510 G4
    db 144,0,232,3,72,110,7 ; n7584 t=413.510 C5
    db 0,0,232,3,69,110,1 ; n7585 t=413.654 A4
    db 0,0,232,3,66,110,7 ; n7586 t=413.654 F#4
    db 0,0,232,3,60,110,9 ; n7587 t=413.654 C4
    db 144,0,232,3,51,110,11 ; n7588 t=413.654 D#3
    db 144,0,232,3,63,110,1 ; n7589 t=413.798 D#4
    db 0,0,232,3,62,110,1 ; n7590 t=413.942 D4
    db 0,0,232,3,84,110,7 ; n7591 t=413.942 C6
    db 0,0,232,3,81,110,8 ; n7592 t=413.942 A5
    db 0,0,232,3,60,110,9 ; n7593 t=413.942 C4
    db 144,0,232,3,48,110,11 ; n7594 t=413.942 C3
    db 0,0,232,3,60,110,1 ; n7595 t=414.087 C4
    db 144,0,232,3,78,110,8 ; n7596 t=414.087 F#5
    db 0,0,232,3,54,110,2 ; n7597 t=414.231 F#3
    db 0,0,232,3,69,110,8 ; n7598 t=414.231 A4
    db 0,0,232,3,60,110,9 ; n7599 t=414.231 C4
    db 144,0,232,3,45,110,11 ; n7600 t=414.231 A2
    db 144,0,232,3,63,110,1 ; n7601 t=414.375 D#4
    db 0,0,232,3,69,110,1 ; n7602 t=414.519 A4
    db 0,0,232,3,75,110,7 ; n7603 t=414.519 D#5
    db 0,0,232,3,84,110,8 ; n7604 t=414.519 C6
    db 0,0,232,3,60,110,9 ; n7605 t=414.519 C4
    db 144,0,232,3,42,110,11 ; n7606 t=414.519 F#2
    db 0,0,232,3,67,110,1 ; n7607 t=414.663 G4
    db 144,0,232,3,72,110,7 ; n7608 t=414.663 C5
    db 0,0,232,3,69,110,1 ; n7609 t=414.808 A4
    db 0,0,232,3,66,110,7 ; n7610 t=414.808 F#4
    db 0,0,232,3,62,110,9 ; n7611 t=414.808 D4
    db 144,0,232,3,38,110,11 ; n7612 t=414.808 D2
    db 144,0,232,3,63,110,1 ; n7613 t=414.952 D#4
    db 0,0,232,3,62,110,1 ; n7614 t=415.096 D4
    db 0,0,232,3,78,110,7 ; n7615 t=415.096 F#5
    db 0,0,232,3,81,110,8 ; n7616 t=415.096 A5
    db 0,0,232,3,62,110,9 ; n7617 t=415.096 D4
    db 144,0,232,3,50,110,11 ; n7618 t=415.096 D3
    db 0,0,232,3,60,110,1 ; n7619 t=415.240 C4
    db 144,0,232,3,78,110,8 ; n7620 t=415.240 F#5
    db 0,0,232,3,55,110,2 ; n7621 t=415.385 G3
    db 0,0,232,3,58,110,2 ; n7622 t=415.385 A#3
    db 0,0,232,3,79,110,7 ; n7623 t=415.385 G5
    db 0,0,232,3,74,110,8 ; n7624 t=415.385 D5
    db 0,0,232,3,62,110,9 ; n7625 t=415.385 D4
    db 144,0,232,3,43,110,11 ; n7626 t=415.385 G2
    db 144,0,232,3,62,110,1 ; n7627 t=415.529 D4
    db 0,0,232,3,67,110,1 ; n7628 t=415.673 G4
    db 0,0,232,3,74,110,7 ; n7629 t=415.673 D5
    db 144,0,232,3,70,110,8 ; n7630 t=415.673 A#4
    db 144,0,232,3,66,110,1 ; n7631 t=415.817 F#4
    db 0,0,232,3,67,110,1 ; n7632 t=415.962 G4
    db 0,0,232,3,70,110,7 ; n7633 t=415.962 A#4
    db 0,0,232,3,67,110,8 ; n7634 t=415.962 G4
    db 144,0,232,3,55,110,9 ; n7635 t=415.962 G3
    db 144,0,232,3,63,110,1 ; n7636 t=416.106 D#4
    db 0,0,232,3,62,110,1 ; n7637 t=416.250 D4
    db 0,0,232,3,74,110,7 ; n7638 t=416.250 D5
    db 144,0,232,3,70,110,8 ; n7639 t=416.250 A#4
    db 144,0,232,3,60,110,1 ; n7640 t=416.394 C4
    db 0,0,232,3,55,110,2 ; n7641 t=416.538 G3
    db 0,0,232,3,58,110,2 ; n7642 t=416.538 A#3
    db 0,0,232,3,79,110,7 ; n7643 t=416.538 G5
    db 0,0,232,3,74,110,8 ; n7644 t=416.538 D5
    db 144,0,232,3,43,110,11 ; n7645 t=416.538 G2
    db 144,0,232,3,62,110,1 ; n7646 t=416.683 D4
    db 0,0,232,3,67,110,1 ; n7647 t=416.827 G4
    db 0,0,232,3,74,110,7 ; n7648 t=416.827 D5
    db 144,0,232,3,70,110,8 ; n7649 t=416.827 A#4
    db 144,0,232,3,66,110,1 ; n7650 t=416.971 F#4
    db 0,0,232,3,67,110,1 ; n7651 t=417.115 G4
    db 0,0,232,3,70,110,7 ; n7652 t=417.115 A#4
    db 0,0,232,3,67,110,8 ; n7653 t=417.115 G4
    db 144,0,232,3,55,110,9 ; n7654 t=417.115 G3
    db 144,0,232,3,60,110,1 ; n7655 t=417.260 C4
    db 0,0,232,3,58,110,1 ; n7656 t=417.404 A#3
    db 0,0,232,3,74,110,7 ; n7657 t=417.404 D5
    db 144,0,232,3,70,110,8 ; n7658 t=417.404 A#4
    db 144,0,232,3,57,110,1 ; n7659 t=417.548 A3
    db 0,0,232,3,56,110,2 ; n7660 t=417.692 G#3
    db 0,0,232,3,77,110,8 ; n7661 t=417.692 F5
    db 0,0,232,3,62,110,9 ; n7662 t=417.692 D4
    db 144,0,232,3,47,110,11 ; n7663 t=417.692 B2
    db 144,0,232,3,65,110,1 ; n7664 t=417.837 F4
    db 0,0,232,3,71,110,1 ; n7665 t=417.981 B4
    db 0,0,232,3,65,110,7 ; n7666 t=417.981 F4
    db 0,0,232,3,74,110,8 ; n7667 t=417.981 D5
    db 0,0,232,3,62,110,9 ; n7668 t=417.981 D4
    db 144,0,232,3,50,110,11 ; n7669 t=417.981 D3
    db 0,0,232,3,69,110,1 ; n7670 t=418.125 A4
    db 144,0,232,3,62,110,7 ; n7671 t=418.125 D4
    db 0,0,232,3,71,110,1 ; n7672 t=418.269 B4
    db 0,0,232,3,56,110,7 ; n7673 t=418.269 G#3
    db 0,0,232,3,62,110,9 ; n7674 t=418.269 D4
    db 144,0,232,3,53,110,11 ; n7675 t=418.269 F3
    db 144,0,232,3,65,110,1 ; n7676 t=418.413 F4
    db 0,0,232,3,64,110,1 ; n7677 t=418.558 E4
    db 0,0,232,3,74,110,7 ; n7678 t=418.558 D5
    db 0,0,232,3,70,110,8 ; n7679 t=418.558 A#4
    db 0,0,232,3,62,110,9 ; n7680 t=418.558 D4
    db 144,0,232,3,50,110,11 ; n7681 t=418.558 D3
    db 0,0,232,3,62,110,1 ; n7682 t=418.702 D4
    db 144,0,232,3,68,110,8 ; n7683 t=418.702 G#4
    db 0,0,232,3,56,110,2 ; n7684 t=418.846 G#3
    db 0,0,232,3,56,110,8 ; n7685 t=418.846 G#3
    db 0,0,232,3,62,110,9 ; n7686 t=418.846 D4
    db 144,0,232,3,47,110,11 ; n7687 t=418.846 B2
    db 144,0,232,3,65,110,1 ; n7688 t=418.990 F4
    db 0,0,232,3,71,110,1 ; n7689 t=419.135 B4
    db 0,0,232,3,65,110,7 ; n7690 t=419.135 F4
    db 0,0,232,3,74,110,8 ; n7691 t=419.135 D5
    db 0,0,232,3,62,110,9 ; n7692 t=419.135 D4
    db 144,0,232,3,44,110,11 ; n7693 t=419.135 G#2
    db 0,0,232,3,69,110,1 ; n7694 t=419.279 A4
    db 144,0,232,3,62,110,7 ; n7695 t=419.279 D4
    db 0,0,232,3,71,110,1 ; n7696 t=419.423 B4
    db 0,0,232,3,56,110,7 ; n7697 t=419.423 G#3
    db 0,0,232,3,64,110,9 ; n7698 t=419.423 E4
    db 144,0,232,3,40,110,11 ; n7699 t=419.423 E2
    db 144,0,232,3,65,110,1 ; n7700 t=419.567 F4
    db 0,0,232,3,64,110,1 ; n7701 t=419.712 E4
    db 0,0,232,3,76,110,7 ; n7702 t=419.712 E5
    db 0,0,232,3,70,110,8 ; n7703 t=419.712 A#4
    db 0,0,232,3,64,110,9 ; n7704 t=419.712 E4
    db 144,0,232,3,52,110,11 ; n7705 t=419.712 E3
    db 0,0,232,3,62,110,1 ; n7706 t=419.856 D4
    db 144,0,232,3,68,110,8 ; n7707 t=419.856 G#4
    db 0,0,232,3,61,110,2 ; n7708 t=420.000 C#4
    db 0,0,232,3,57,110,2 ; n7709 t=420.000 A3
    db 0,0,232,3,69,110,8 ; n7710 t=420.000 A4
    db 0,0,232,3,64,110,9 ; n7711 t=420.000 E4
    db 144,0,232,3,45,110,11 ; n7712 t=420.000 A2
    db 144,0,232,3,70,110,1 ; n7713 t=420.144 A#4
    db 0,0,232,3,76,110,1 ; n7714 t=420.288 E5
    db 0,0,232,3,70,110,7 ; n7715 t=420.288 A#4
    db 0,0,232,3,67,110,8 ; n7716 t=420.288 G4
    db 0,0,232,3,64,110,9 ; n7717 t=420.288 E4
    db 144,0,232,3,55,110,11 ; n7718 t=420.288 G3
    db 0,0,232,3,74,110,1 ; n7719 t=420.433 D5
    db 144,0,232,3,67,110,7 ; n7720 t=420.433 G4
    db 0,0,232,3,76,110,1 ; n7721 t=420.577 E5
    db 0,0,232,3,61,110,7 ; n7722 t=420.577 C#4
    db 0,0,232,3,67,110,9 ; n7723 t=420.577 G4
    db 144,0,232,3,58,110,11 ; n7724 t=420.577 A#3
    db 144,0,232,3,70,110,1 ; n7725 t=420.721 A#4
    db 0,0,232,3,69,110,1 ; n7726 t=420.865 A4
    db 0,0,232,3,76,110,7 ; n7727 t=420.865 E5
    db 0,0,232,3,64,110,8 ; n7728 t=420.865 E4
    db 0,0,232,3,67,110,9 ; n7729 t=420.865 G4
    db 144,0,232,3,55,110,11 ; n7730 t=420.865 G3
    db 0,0,232,3,67,110,1 ; n7731 t=421.010 G4
    db 144,0,232,3,61,110,8 ; n7732 t=421.010 C#4
    db 0,0,232,3,61,110,2 ; n7733 t=421.154 C#4
    db 0,0,232,3,57,110,2 ; n7734 t=421.154 A3
    db 0,0,232,3,56,110,8 ; n7735 t=421.154 G#3
    db 0,0,232,3,67,110,9 ; n7736 t=421.154 G4
    db 144,0,232,3,52,110,11 ; n7737 t=421.154 E3
    db 144,0,232,3,70,110,1 ; n7738 t=421.298 A#4
    db 0,0,232,3,76,110,1 ; n7739 t=421.442 E5
    db 0,0,232,3,70,110,7 ; n7740 t=421.442 A#4
    db 0,0,232,3,67,110,8 ; n7741 t=421.442 G4
    db 0,0,232,3,67,110,9 ; n7742 t=421.442 G4
    db 144,0,232,3,49,110,11 ; n7743 t=421.442 C#3
    db 0,0,232,3,74,110,1 ; n7744 t=421.587 D5
    db 144,0,232,3,67,110,7 ; n7745 t=421.587 G4
    db 0,0,232,3,76,110,1 ; n7746 t=421.731 E5
    db 0,0,232,3,61,110,7 ; n7747 t=421.731 C#4
    db 0,0,232,3,69,110,9 ; n7748 t=421.731 A4
    db 144,0,232,3,45,110,11 ; n7749 t=421.731 A2
    db 144,0,232,3,70,110,1 ; n7750 t=421.875 A#4
    db 0,0,232,3,69,110,1 ; n7751 t=422.019 A4
    db 0,0,232,3,81,110,7 ; n7752 t=422.019 A5
    db 0,0,232,3,64,110,8 ; n7753 t=422.019 E4
    db 0,0,232,3,69,110,9 ; n7754 t=422.019 A4
    db 144,0,232,3,57,110,11 ; n7755 t=422.019 A3
    db 0,0,232,3,67,110,1 ; n7756 t=422.163 G4
    db 144,0,232,3,61,110,8 ; n7757 t=422.163 C#4
    db 0,0,232,3,65,110,2 ; n7758 t=422.308 F4
    db 0,0,232,3,62,110,2 ; n7759 t=422.308 D4
    db 0,0,232,3,81,110,7 ; n7760 t=422.308 A5
    db 0,0,232,3,74,110,8 ; n7761 t=422.308 D5
    db 0,0,232,3,69,110,9 ; n7762 t=422.308 A4
    db 144,0,232,3,50,110,11 ; n7763 t=422.308 D3
    db 144,0,232,3,69,110,1 ; n7764 t=422.452 A4
    db 0,0,232,3,74,110,1 ; n7765 t=422.596 D5
    db 0,0,232,3,77,110,7 ; n7766 t=422.596 F5
    db 144,0,232,3,69,110,8 ; n7767 t=422.596 A4
    db 144,0,232,3,73,110,1 ; n7768 t=422.740 C#5
    db 0,0,232,3,74,110,1 ; n7769 t=422.885 D5
    db 0,0,232,3,74,110,7 ; n7770 t=422.885 D5
    db 0,0,232,3,65,110,8 ; n7771 t=422.885 F4
    db 144,0,232,3,62,110,9 ; n7772 t=422.885 D4
    db 144,0,232,3,67,110,1 ; n7773 t=423.029 G4
    db 0,0,232,3,65,110,1 ; n7774 t=423.173 F4
    db 0,0,232,3,77,110,7 ; n7775 t=423.173 F5
    db 144,0,232,3,69,110,8 ; n7776 t=423.173 A4
    db 144,0,232,3,64,110,1 ; n7777 t=423.317 E4
    db 0,0,232,3,53,110,2 ; n7778 t=423.462 F3
    db 0,0,232,3,62,110,2 ; n7779 t=423.462 D4
    db 0,0,232,3,81,110,7 ; n7780 t=423.462 A5
    db 0,0,232,3,74,110,8 ; n7781 t=423.462 D5
    db 144,0,232,3,48,110,11 ; n7782 t=423.462 C3
    db 144,0,232,3,69,110,1 ; n7783 t=423.606 A4
    db 0,0,232,3,74,110,1 ; n7784 t=423.750 D5
    db 0,0,232,3,77,110,7 ; n7785 t=423.750 F5
    db 144,0,232,3,69,110,8 ; n7786 t=423.750 A4
    db 144,0,232,3,73,110,1 ; n7787 t=423.894 C#5
    db 0,0,232,3,74,110,1 ; n7788 t=424.038 D5
    db 0,0,232,3,74,110,7 ; n7789 t=424.038 D5
    db 0,0,232,3,65,110,8 ; n7790 t=424.038 F4
    db 144,0,232,3,60,110,9 ; n7791 t=424.038 C4
    db 144,0,232,3,64,110,2 ; n7792 t=424.183 E4
    db 0,0,232,3,62,110,2 ; n7793 t=424.327 D4
    db 0,0,232,3,77,110,7 ; n7794 t=424.327 F5
    db 144,0,232,3,69,110,8 ; n7795 t=424.327 A4
    db 144,0,232,3,60,110,2 ; n7796 t=424.471 C4
    db 0,0,232,3,46,110,2 ; n7797 t=424.615 A#2
    db 0,0,232,3,58,110,2 ; n7798 t=424.615 A#3
    db 0,0,232,3,82,110,7 ; n7799 t=424.615 A#5
    db 0,0,232,3,74,110,8 ; n7800 t=424.615 D5
    db 144,0,232,3,46,110,11 ; n7801 t=424.615 A#2
    db 144,0,232,3,65,110,1 ; n7802 t=424.760 F4
    db 0,0,232,3,74,110,1 ; n7803 t=424.904 D5
    db 0,0,232,3,77,110,7 ; n7804 t=424.904 F5
    db 144,0,232,3,70,110,8 ; n7805 t=424.904 A#4
    db 144,0,232,3,73,110,1 ; n7806 t=425.048 C#5
    db 0,0,232,3,74,110,1 ; n7807 t=425.192 D5
    db 0,0,232,3,74,110,7 ; n7808 t=425.192 D5
    db 0,0,232,3,65,110,8 ; n7809 t=425.192 F4
    db 144,0,232,3,58,110,9 ; n7810 t=425.192 A#3
    db 144,0,232,3,58,110,2 ; n7811 t=425.337 A#3
    db 0,0,232,3,57,110,2 ; n7812 t=425.481 A3
    db 0,0,232,3,77,110,7 ; n7813 t=425.481 F5
    db 144,0,232,3,74,110,8 ; n7814 t=425.481 D5
    db 144,0,232,3,55,110,2 ; n7815 t=425.625 G3
    db 0,0,232,3,45,110,2 ; n7816 t=425.769 A2
    db 0,0,232,3,53,110,2 ; n7817 t=425.769 F3
    db 0,0,232,3,81,110,7 ; n7818 t=425.769 A5
    db 0,0,232,3,74,110,8 ; n7819 t=425.769 D5
    db 144,0,232,3,45,110,11 ; n7820 t=425.769 A2
    db 144,0,232,3,69,110,1 ; n7821 t=425.913 A4
    db 0,0,232,3,74,110,1 ; n7822 t=426.058 D5
    db 0,0,232,3,77,110,7 ; n7823 t=426.058 F5
    db 144,0,232,3,69,110,8 ; n7824 t=426.058 A4
    db 144,0,232,3,73,110,1 ; n7825 t=426.202 C#5
    db 0,0,232,3,74,110,1 ; n7826 t=426.346 D5
    db 0,0,232,3,74,110,7 ; n7827 t=426.346 D5
    db 0,0,232,3,65,110,8 ; n7828 t=426.346 F4
    db 144,0,232,3,57,110,9 ; n7829 t=426.346 A3
    db 144,0,232,3,69,110,1 ; n7830 t=426.490 A4
    db 0,0,232,3,67,110,1 ; n7831 t=426.635 G4
    db 0,0,232,3,77,110,7 ; n7832 t=426.635 F5
    db 144,0,232,3,69,110,8 ; n7833 t=426.635 A4
    db 144,0,232,3,65,110,1 ; n7834 t=426.779 F4
    db 0,0,232,3,70,110,1 ; n7835 t=426.923 A#4
    db 0,0,232,3,43,110,2 ; n7836 t=426.923 G2
    db 0,0,232,3,55,110,2 ; n7837 t=426.923 G3
    db 0,0,232,3,76,110,7 ; n7838 t=426.923 E5
    db 0,0,232,3,58,110,8 ; n7839 t=426.923 A#3
    db 144,0,232,3,43,110,11 ; n7840 t=426.923 G2
    db 144,0,232,3,67,110,1 ; n7841 t=427.067 G4
    db 0,0,232,3,65,110,1 ; n7842 t=427.212 F4
    db 0,0,232,3,74,110,7 ; n7843 t=427.212 D5
    db 144,0,232,3,62,110,8 ; n7844 t=427.212 D4
    db 144,0,232,3,64,110,1 ; n7845 t=427.356 E4
    db 0,0,232,3,67,110,1 ; n7846 t=427.500 G4
    db 0,0,232,3,73,110,7 ; n7847 t=427.500 C#5
    db 0,0,232,3,64,110,8 ; n7848 t=427.500 E4
    db 144,0,232,3,55,110,9 ; n7849 t=427.500 G3
    db 144,0,232,3,64,110,1 ; n7850 t=427.644 E4
    db 0,0,232,3,62,110,1 ; n7851 t=427.788 D4
    db 0,0,232,3,74,110,7 ; n7852 t=427.788 D5
    db 144,0,232,3,65,110,8 ; n7853 t=427.788 F4
    db 144,0,232,3,61,110,1 ; n7854 t=427.933 C#4
    db 0,0,232,3,64,110,1 ; n7855 t=428.077 E4
    db 0,0,232,3,55,110,2 ; n7856 t=428.077 G3
    db 0,0,232,3,49,110,2 ; n7857 t=428.077 C#3
    db 0,0,232,3,70,110,7 ; n7858 t=428.077 A#4
    db 0,0,232,3,64,110,8 ; n7859 t=428.077 E4
    db 144,0,232,3,37,110,11 ; n7860 t=428.077 C#2
    db 144,0,232,3,61,110,1 ; n7861 t=428.221 C#4
    db 0,0,232,3,59,110,2 ; n7862 t=428.365 B3
    db 0,0,232,3,76,110,7 ; n7863 t=428.365 E5
    db 144,0,232,3,67,110,8 ; n7864 t=428.365 G4
    db 144,0,232,3,57,110,2 ; n7865 t=428.510 A3
    db 0,0,232,3,58,110,2 ; n7866 t=428.654 A#3
    db 0,0,232,3,79,110,7 ; n7867 t=428.654 G5
    db 0,0,232,3,61,110,8 ; n7868 t=428.654 C#4
    db 144,0,232,3,52,110,9 ; n7869 t=428.654 E3
    db 144,0,232,3,55,110,2 ; n7870 t=428.798 G3
    db 0,0,232,3,53,110,2 ; n7871 t=428.942 F3
    db 0,0,232,3,70,110,7 ; n7872 t=428.942 A#4
    db 0,0,232,3,67,110,8 ; n7873 t=428.942 G4
    db 144,0,232,3,61,110,9 ; n7874 t=428.942 C#4
    db 144,0,232,3,52,110,2 ; n7875 t=429.087 E3
    db 0,0,232,3,53,110,2 ; n7876 t=429.231 F3
    db 0,0,232,3,50,110,2 ; n7877 t=429.231 D3
    db 0,0,232,3,69,110,7 ; n7878 t=429.231 A4
    db 0,0,232,3,65,110,8 ; n7879 t=429.231 F4
    db 0,0,232,3,62,110,9 ; n7880 t=429.231 D4
    db 144,0,232,3,38,110,11 ; n7881 t=429.231 D2
    db 144,0,232,3,57,110,2 ; n7882 t=429.375 A3
    db 144,0,232,3,62,110,2 ; n7883 t=429.519 D4
    db 144,0,232,3,61,110,2 ; n7884 t=429.663 C#4
    db 144,0,232,3,62,110,2 ; n7885 t=429.808 D4
    db 144,0,232,3,57,110,2 ; n7886 t=429.952 A3
    db 0,0,232,3,65,110,1 ; n7887 t=430.096 F4
    db 0,0,232,3,38,110,2 ; n7888 t=430.096 D2
    db 144,0,232,3,50,110,11 ; n7889 t=430.096 D3
    db 0,0,232,3,62,110,1 ; n7890 t=430.240 D4
    db 0,0,232,3,40,110,2 ; n7891 t=430.240 E2
    db 144,0,232,3,52,110,11 ; n7892 t=430.240 E3
    db 0,0,232,3,69,110,1 ; n7893 t=430.385 A4
    db 0,0,232,3,41,110,2 ; n7894 t=430.385 F2
    db 32,1,232,3,53,110,11 ; n7895 t=430.385 F3
    db 0,0,232,3,62,110,1 ; n7896 t=430.673 D4
    db 0,0,232,3,45,110,2 ; n7897 t=430.673 A2
    db 72,0,232,3,55,110,11 ; n7898 t=430.673 G3
    db 72,0,232,3,43,110,2 ; n7899 t=430.745 G2
    db 72,0,232,3,41,110,2 ; n7900 t=430.817 F2
    db 72,0,232,3,43,110,2 ; n7901 t=430.889 G2
    db 0,0,232,3,57,110,1 ; n7902 t=430.962 A3
    db 0,0,232,3,45,110,2 ; n7903 t=430.962 A2
    db 32,1,232,3,57,110,11 ; n7904 t=430.962 A3
    db 0,0,232,3,61,110,1 ; n7905 t=431.250 C#4
    db 0,0,232,3,34,110,2 ; n7906 t=431.250 A#1
    db 32,1,232,3,45,110,11 ; n7907 t=431.250 A2
    db 0,0,232,3,62,110,1 ; n7908 t=431.538 D4
    db 0,0,232,3,50,110,2 ; n7909 t=431.538 D3
    db 0,0,232,3,38,110,2 ; n7910 t=431.538 D2
    db 0,0,232,3,62,110,3 ; n7911 t=431.538 D4
    db 0,0,232,3,62,110,4 ; n7912 t=431.538 D4
    db 0,0,232,3,62,110,5 ; n7913 t=431.538 D4
    db 144,0,232,3,50,110,6 ; n7914 t=431.538 D3
    db 0,0,232,3,64,110,1 ; n7915 t=431.683 E4
    db 0,0,232,3,52,110,2 ; n7916 t=431.683 E3
    db 0,0,232,3,64,110,3 ; n7917 t=431.683 E4
    db 0,0,232,3,64,110,4 ; n7918 t=431.683 E4
    db 0,0,232,3,64,110,5 ; n7919 t=431.683 E4
    db 144,0,232,3,52,110,6 ; n7920 t=431.683 E3
    db 0,0,232,3,65,110,1 ; n7921 t=431.827 F4
    db 0,0,232,3,53,110,2 ; n7922 t=431.827 F3
    db 0,0,232,3,65,110,3 ; n7923 t=431.827 F4
    db 0,0,232,3,65,110,4 ; n7924 t=431.827 F4
    db 0,0,232,3,65,110,5 ; n7925 t=431.827 F4
    db 32,1,232,3,53,110,6 ; n7926 t=431.827 F3
    db 0,0,232,3,64,110,1 ; n7927 t=432.115 E4
    db 0,0,232,3,52,110,2 ; n7928 t=432.115 E3
    db 0,0,232,3,64,110,3 ; n7929 t=432.115 E4
    db 0,0,232,3,64,110,4 ; n7930 t=432.115 E4
    db 0,0,232,3,64,110,5 ; n7931 t=432.115 E4
    db 32,1,232,3,52,110,6 ; n7932 t=432.115 E3
    db 0,0,232,3,62,110,1 ; n7933 t=432.404 D4
    db 0,0,232,3,50,110,2 ; n7934 t=432.404 D3
    db 0,0,232,3,62,110,3 ; n7935 t=432.404 D4
    db 0,0,232,3,62,110,4 ; n7936 t=432.404 D4
    db 0,0,232,3,62,110,5 ; n7937 t=432.404 D4
    db 32,1,232,3,50,110,6 ; n7938 t=432.404 D3
    db 0,0,232,3,69,110,1 ; n7939 t=432.692 A4
    db 0,0,232,3,57,110,2 ; n7940 t=432.692 A3
    db 0,0,232,3,69,110,3 ; n7941 t=432.692 A4
    db 0,0,232,3,69,110,4 ; n7942 t=432.692 A4
    db 0,0,232,3,69,110,5 ; n7943 t=432.692 A4
    db 32,1,232,3,57,110,6 ; n7944 t=432.692 A3
    db 0,0,232,3,74,110,1 ; n7945 t=432.981 D5
    db 0,0,232,3,62,110,2 ; n7946 t=432.981 D4
    db 0,0,232,3,74,110,3 ; n7947 t=432.981 D5
    db 0,0,232,3,74,110,4 ; n7948 t=432.981 D5
    db 0,0,232,3,74,110,5 ; n7949 t=432.981 D5
    db 65,2,232,3,62,110,6 ; n7950 t=432.981 D4
    db 0,0,232,3,69,110,1 ; n7951 t=433.558 A4
    db 0,0,232,3,57,110,2 ; n7952 t=433.558 A3
    db 0,0,232,3,69,110,3 ; n7953 t=433.558 A4
    db 0,0,232,3,69,110,4 ; n7954 t=433.558 A4
    db 0,0,232,3,69,110,5 ; n7955 t=433.558 A4
    db 32,1,232,3,57,110,6 ; n7956 t=433.558 A3
    db 0,0,232,3,70,110,1 ; n7957 t=433.846 A#4
    db 0,0,232,3,58,110,2 ; n7958 t=433.846 A#3
    db 0,0,232,3,70,110,3 ; n7959 t=433.846 A#4
    db 0,0,232,3,70,110,4 ; n7960 t=433.846 A#4
    db 0,0,232,3,70,110,5 ; n7961 t=433.846 A#4
    db 32,1,232,3,58,110,6 ; n7962 t=433.846 A#3
    db 0,0,232,3,67,110,1 ; n7963 t=434.135 G4
    db 0,0,232,3,55,110,2 ; n7964 t=434.135 G3
    db 0,0,232,3,67,110,3 ; n7965 t=434.135 G4
    db 0,0,232,3,67,110,4 ; n7966 t=434.135 G4
    db 0,0,232,3,67,110,5 ; n7967 t=434.135 G4
    db 144,0,232,3,55,110,6 ; n7968 t=434.135 G3
    db 0,0,232,3,64,110,1 ; n7969 t=434.279 E4
    db 0,0,232,3,52,110,2 ; n7970 t=434.279 E3
    db 0,0,232,3,64,110,3 ; n7971 t=434.279 E4
    db 0,0,232,3,64,110,4 ; n7972 t=434.279 E4
    db 0,0,232,3,64,110,5 ; n7973 t=434.279 E4
    db 144,0,232,3,52,110,6 ; n7974 t=434.279 E3
    db 0,0,232,3,69,110,1 ; n7975 t=434.423 A4
    db 0,0,232,3,57,110,2 ; n7976 t=434.423 A3
    db 0,0,232,3,69,110,3 ; n7977 t=434.423 A4
    db 0,0,232,3,69,110,4 ; n7978 t=434.423 A4
    db 0,0,232,3,69,110,5 ; n7979 t=434.423 A4
    db 32,1,232,3,57,110,6 ; n7980 t=434.423 A3
    db 0,0,232,3,65,110,1 ; n7981 t=434.712 F4
    db 0,0,232,3,53,110,2 ; n7982 t=434.712 F3
    db 0,0,232,3,65,110,3 ; n7983 t=434.712 F4
    db 0,0,232,3,65,110,4 ; n7984 t=434.712 F4
    db 0,0,232,3,65,110,5 ; n7985 t=434.712 F4
    db 144,0,232,3,53,110,6 ; n7986 t=434.712 F3
    db 0,0,232,3,62,110,1 ; n7987 t=434.856 D4
    db 0,0,232,3,50,110,2 ; n7988 t=434.856 D3
    db 0,0,232,3,62,110,3 ; n7989 t=434.856 D4
    db 0,0,232,3,62,110,4 ; n7990 t=434.856 D4
    db 0,0,232,3,62,110,5 ; n7991 t=434.856 D4
    db 144,0,232,3,50,110,6 ; n7992 t=434.856 D3
    db 0,0,232,3,67,110,1 ; n7993 t=435.000 G4
    db 0,0,232,3,55,110,2 ; n7994 t=435.000 G3
    db 0,0,232,3,67,110,3 ; n7995 t=435.000 G4
    db 0,0,232,3,67,110,4 ; n7996 t=435.000 G4
    db 0,0,232,3,67,110,5 ; n7997 t=435.000 G4
    db 32,1,232,3,55,110,6 ; n7998 t=435.000 G3
    db 0,0,232,3,64,110,1 ; n7999 t=435.288 E4
    db 0,0,232,3,52,110,2 ; n8000 t=435.288 E3
    db 0,0,232,3,64,110,3 ; n8001 t=435.288 E4
    db 0,0,232,3,64,110,4 ; n8002 t=435.288 E4
    db 0,0,232,3,64,110,5 ; n8003 t=435.288 E4
    db 144,0,232,3,52,110,6 ; n8004 t=435.288 E3
    db 0,0,232,3,61,110,1 ; n8005 t=435.433 C#4
    db 0,0,232,3,49,110,2 ; n8006 t=435.433 C#3
    db 0,0,232,3,61,110,3 ; n8007 t=435.433 C#4
    db 0,0,232,3,61,110,4 ; n8008 t=435.433 C#4
    db 0,0,232,3,61,110,5 ; n8009 t=435.433 C#4
    db 144,0,232,3,49,110,6 ; n8010 t=435.433 C#3
    db 0,0,232,3,57,110,1 ; n8011 t=435.577 A3
    db 0,0,232,3,45,110,2 ; n8012 t=435.577 A2
    db 0,0,232,3,57,110,3 ; n8013 t=435.577 A3
    db 0,0,232,3,57,110,4 ; n8014 t=435.577 A3
    db 0,0,232,3,57,110,5 ; n8015 t=435.577 A3
    db 32,1,232,3,45,110,6 ; n8016 t=435.577 A2
    db 0,0,232,3,70,110,1 ; n8017 t=435.865 A#4
    db 0,0,232,3,58,110,2 ; n8018 t=435.865 A#3
    db 0,0,232,3,70,110,3 ; n8019 t=435.865 A#4
    db 0,0,232,3,70,110,4 ; n8020 t=435.865 A#4
    db 0,0,232,3,70,110,5 ; n8021 t=435.865 A#4
    db 65,2,232,3,58,110,6 ; n8022 t=435.865 A#3
    db 0,0,232,3,67,110,1 ; n8023 t=436.442 G4
    db 0,0,232,3,55,110,2 ; n8024 t=436.442 G3
    db 0,0,232,3,67,110,3 ; n8025 t=436.442 G4
    db 0,0,232,3,67,110,4 ; n8026 t=436.442 G4
    db 0,0,232,3,67,110,5 ; n8027 t=436.442 G4
    db 144,0,232,3,55,110,6 ; n8028 t=436.442 G3
    db 0,0,232,3,64,110,1 ; n8029 t=436.587 E4
    db 0,0,232,3,52,110,2 ; n8030 t=436.587 E3
    db 0,0,232,3,64,110,3 ; n8031 t=436.587 E4
    db 0,0,232,3,64,110,4 ; n8032 t=436.587 E4
    db 0,0,232,3,64,110,5 ; n8033 t=436.587 E4
    db 144,0,232,3,52,110,6 ; n8034 t=436.587 E3
    db 0,0,232,3,57,110,1 ; n8035 t=436.731 A3
    db 0,0,232,3,45,110,2 ; n8036 t=436.731 A2
    db 0,0,232,3,57,110,3 ; n8037 t=436.731 A3
    db 0,0,232,3,57,110,4 ; n8038 t=436.731 A3
    db 0,0,232,3,57,110,5 ; n8039 t=436.731 A3
    db 32,1,232,3,45,110,6 ; n8040 t=436.731 A2
    db 0,0,232,3,73,110,1 ; n8041 t=437.019 C#5
    db 0,0,232,3,61,110,2 ; n8042 t=437.019 C#4
    db 0,0,232,3,73,110,3 ; n8043 t=437.019 C#5
    db 0,0,232,3,73,110,4 ; n8044 t=437.019 C#5
    db 0,0,232,3,73,110,5 ; n8045 t=437.019 C#5
    db 65,2,232,3,61,110,6 ; n8046 t=437.019 C#4
    db 0,0,232,3,70,110,1 ; n8047 t=437.596 A#4
    db 0,0,232,3,58,110,2 ; n8048 t=437.596 A#3
    db 0,0,232,3,70,110,3 ; n8049 t=437.596 A#4
    db 0,0,232,3,70,110,4 ; n8050 t=437.596 A#4
    db 0,0,232,3,70,110,5 ; n8051 t=437.596 A#4
    db 144,0,232,3,58,110,6 ; n8052 t=437.596 A#3
    db 0,0,232,3,67,110,1 ; n8053 t=437.740 G4
    db 0,0,232,3,55,110,2 ; n8054 t=437.740 G3
    db 0,0,232,3,67,110,3 ; n8055 t=437.740 G4
    db 0,0,232,3,67,110,4 ; n8056 t=437.740 G4
    db 0,0,232,3,67,110,5 ; n8057 t=437.740 G4
    db 144,0,232,3,55,110,6 ; n8058 t=437.740 G3
    db 0,0,232,3,57,110,1 ; n8059 t=437.885 A3
    db 0,0,232,3,45,110,2 ; n8060 t=437.885 A2
    db 0,0,232,3,57,110,3 ; n8061 t=437.885 A3
    db 0,0,232,3,57,110,4 ; n8062 t=437.885 A3
    db 0,0,232,3,57,110,5 ; n8063 t=437.885 A3
    db 32,1,232,3,45,110,6 ; n8064 t=437.885 A2
    db 0,0,232,3,76,110,1 ; n8065 t=438.173 E5
    db 0,0,232,3,64,110,2 ; n8066 t=438.173 E4
    db 0,0,232,3,76,110,3 ; n8067 t=438.173 E5
    db 0,0,232,3,76,110,4 ; n8068 t=438.173 E5
    db 0,0,232,3,76,110,5 ; n8069 t=438.173 E5
    db 65,2,232,3,64,110,6 ; n8070 t=438.173 E4
    db 0,0,232,3,73,110,1 ; n8071 t=438.750 C#5
    db 0,0,232,3,61,110,2 ; n8072 t=438.750 C#4
    db 0,0,232,3,73,110,3 ; n8073 t=438.750 C#5
    db 0,0,232,3,73,110,4 ; n8074 t=438.750 C#5
    db 0,0,232,3,73,110,5 ; n8075 t=438.750 C#5
    db 144,0,232,3,61,110,6 ; n8076 t=438.750 C#4
    db 0,0,232,3,69,110,1 ; n8077 t=438.894 A4
    db 0,0,232,3,57,110,2 ; n8078 t=438.894 A3
    db 0,0,232,3,69,110,3 ; n8079 t=438.894 A4
    db 0,0,232,3,69,110,4 ; n8080 t=438.894 A4
    db 0,0,232,3,69,110,5 ; n8081 t=438.894 A4
    db 144,0,232,3,57,110,6 ; n8082 t=438.894 A3
    db 0,0,232,3,70,110,1 ; n8083 t=439.038 A#4
    db 0,0,232,3,58,110,2 ; n8084 t=439.038 A#3
    db 0,0,232,3,70,110,3 ; n8085 t=439.038 A#4
    db 0,0,232,3,70,110,4 ; n8086 t=439.038 A#4
    db 0,0,232,3,70,110,5 ; n8087 t=439.038 A#4
    db 144,0,232,3,58,110,6 ; n8088 t=439.038 A#3
    db 0,0,232,3,67,110,1 ; n8089 t=439.183 G4
    db 0,0,232,3,55,110,2 ; n8090 t=439.183 G3
    db 0,0,232,3,67,110,3 ; n8091 t=439.183 G4
    db 0,0,232,3,67,110,4 ; n8092 t=439.183 G4
    db 0,0,232,3,67,110,5 ; n8093 t=439.183 G4
    db 144,0,232,3,55,110,6 ; n8094 t=439.183 G3
    db 0,0,232,3,69,110,1 ; n8095 t=439.327 A4
    db 0,0,232,3,57,110,2 ; n8096 t=439.327 A3
    db 0,0,232,3,69,110,3 ; n8097 t=439.327 A4
    db 0,0,232,3,69,110,4 ; n8098 t=439.327 A4
    db 0,0,232,3,69,110,5 ; n8099 t=439.327 A4
    db 144,0,232,3,57,110,6 ; n8100 t=439.327 A3
    db 0,0,232,3,65,110,1 ; n8101 t=439.471 F4
    db 0,0,232,3,53,110,2 ; n8102 t=439.471 F3
    db 0,0,232,3,65,110,3 ; n8103 t=439.471 F4
    db 0,0,232,3,65,110,4 ; n8104 t=439.471 F4
    db 0,0,232,3,65,110,5 ; n8105 t=439.471 F4
    db 144,0,232,3,53,110,6 ; n8106 t=439.471 F3
    db 0,0,232,3,67,110,1 ; n8107 t=439.615 G4
    db 0,0,232,3,55,110,2 ; n8108 t=439.615 G3
    db 0,0,232,3,67,110,3 ; n8109 t=439.615 G4
    db 0,0,232,3,67,110,4 ; n8110 t=439.615 G4
    db 0,0,232,3,67,110,5 ; n8111 t=439.615 G4
    db 144,0,232,3,55,110,6 ; n8112 t=439.615 G3
    db 0,0,232,3,64,110,1 ; n8113 t=439.760 E4
    db 0,0,232,3,52,110,2 ; n8114 t=439.760 E3
    db 0,0,232,3,64,110,3 ; n8115 t=439.760 E4
    db 0,0,232,3,64,110,4 ; n8116 t=439.760 E4
    db 0,0,232,3,64,110,5 ; n8117 t=439.760 E4
    db 144,0,232,3,52,110,6 ; n8118 t=439.760 E3
    db 0,0,232,3,65,110,1 ; n8119 t=439.904 F4
    db 0,0,232,3,53,110,2 ; n8120 t=439.904 F3
    db 0,0,232,3,65,110,3 ; n8121 t=439.904 F4
    db 0,0,232,3,65,110,4 ; n8122 t=439.904 F4
    db 0,0,232,3,65,110,5 ; n8123 t=439.904 F4
    db 144,0,232,3,53,110,6 ; n8124 t=439.904 F3
    db 0,0,232,3,62,110,1 ; n8125 t=440.048 D4
    db 0,0,232,3,50,110,2 ; n8126 t=440.048 D3
    db 0,0,232,3,62,110,3 ; n8127 t=440.048 D4
    db 0,0,232,3,62,110,4 ; n8128 t=440.048 D4
    db 0,0,232,3,62,110,5 ; n8129 t=440.048 D4
    db 144,0,232,3,50,110,6 ; n8130 t=440.048 D3
    db 0,0,232,3,64,110,1 ; n8131 t=440.192 E4
    db 0,0,232,3,52,110,2 ; n8132 t=440.192 E3
    db 0,0,232,3,64,110,3 ; n8133 t=440.192 E4
    db 0,0,232,3,64,110,4 ; n8134 t=440.192 E4
    db 0,0,232,3,64,110,5 ; n8135 t=440.192 E4
    db 144,0,232,3,52,110,6 ; n8136 t=440.192 E3
    db 0,0,232,3,61,110,1 ; n8137 t=440.337 C#4
    db 0,0,232,3,49,110,2 ; n8138 t=440.337 C#3
    db 0,0,232,3,61,110,3 ; n8139 t=440.337 C#4
    db 0,0,232,3,61,110,4 ; n8140 t=440.337 C#4
    db 0,0,232,3,61,110,5 ; n8141 t=440.337 C#4
    db 144,0,232,3,49,110,6 ; n8142 t=440.337 C#3
    db 0,0,232,3,62,110,1 ; n8143 t=440.481 D4
    db 0,0,232,3,50,110,2 ; n8144 t=440.481 D3
    db 0,0,232,3,62,110,3 ; n8145 t=440.481 D4
    db 0,0,232,3,62,110,4 ; n8146 t=440.481 D4
    db 0,0,232,3,62,110,5 ; n8147 t=440.481 D4
    db 144,0,232,3,50,110,6 ; n8148 t=440.481 D3
    db 0,0,232,3,59,110,1 ; n8149 t=440.625 B3
    db 0,0,232,3,47,110,2 ; n8150 t=440.625 B2
    db 0,0,232,3,59,110,3 ; n8151 t=440.625 B3
    db 0,0,232,3,59,110,4 ; n8152 t=440.625 B3
    db 0,0,232,3,59,110,5 ; n8153 t=440.625 B3
    db 144,0,232,3,47,110,6 ; n8154 t=440.625 B2
    db 0,0,232,3,61,110,1 ; n8155 t=440.769 C#4
    db 0,0,232,3,49,110,2 ; n8156 t=440.769 C#3
    db 0,0,232,3,61,110,3 ; n8157 t=440.769 C#4
    db 0,0,232,3,61,110,4 ; n8158 t=440.769 C#4
    db 0,0,232,3,61,110,5 ; n8159 t=440.769 C#4
    db 144,0,232,3,49,110,6 ; n8160 t=440.769 C#3
    db 0,0,232,3,57,110,1 ; n8161 t=440.913 A3
    db 0,0,232,3,45,110,2 ; n8162 t=440.913 A2
    db 0,0,232,3,57,110,3 ; n8163 t=440.913 A3
    db 0,0,232,3,57,110,4 ; n8164 t=440.913 A3
    db 0,0,232,3,57,110,5 ; n8165 t=440.913 A3
    db 144,0,232,3,45,110,6 ; n8166 t=440.913 A2
    db 0,0,232,3,59,110,1 ; n8167 t=441.058 B3
    db 0,0,232,3,47,110,2 ; n8168 t=441.058 B2
    db 0,0,232,3,59,110,3 ; n8169 t=441.058 B3
    db 0,0,232,3,59,110,4 ; n8170 t=441.058 B3
    db 0,0,232,3,59,110,5 ; n8171 t=441.058 B3
    db 144,0,232,3,47,110,6 ; n8172 t=441.058 B2
    db 0,0,232,3,61,110,1 ; n8173 t=441.202 C#4
    db 0,0,232,3,49,110,2 ; n8174 t=441.202 C#3
    db 0,0,232,3,61,110,3 ; n8175 t=441.202 C#4
    db 0,0,232,3,61,110,4 ; n8176 t=441.202 C#4
    db 0,0,232,3,61,110,5 ; n8177 t=441.202 C#4
    db 144,0,232,3,49,110,6 ; n8178 t=441.202 C#3
    db 0,0,232,3,62,110,1 ; n8179 t=441.346 D4
    db 0,0,232,3,50,110,2 ; n8180 t=441.346 D3
    db 0,0,232,3,62,110,3 ; n8181 t=441.346 D4
    db 0,0,232,3,62,110,4 ; n8182 t=441.346 D4
    db 0,0,232,3,62,110,5 ; n8183 t=441.346 D4
    db 144,0,232,3,50,110,6 ; n8184 t=441.346 D3
    db 0,0,232,3,64,110,1 ; n8185 t=441.490 E4
    db 0,0,232,3,52,110,2 ; n8186 t=441.490 E3
    db 0,0,232,3,64,110,3 ; n8187 t=441.490 E4
    db 0,0,232,3,64,110,4 ; n8188 t=441.490 E4
    db 0,0,232,3,64,110,5 ; n8189 t=441.490 E4
    db 144,0,232,3,52,110,6 ; n8190 t=441.490 E3
    db 0,0,232,3,65,110,1 ; n8191 t=441.635 F4
    db 0,0,232,3,53,110,2 ; n8192 t=441.635 F3
    db 0,0,232,3,65,110,3 ; n8193 t=441.635 F4
    db 0,0,232,3,65,110,4 ; n8194 t=441.635 F4
    db 0,0,232,3,65,110,5 ; n8195 t=441.635 F4
    db 144,0,232,3,53,110,6 ; n8196 t=441.635 F3
    db 0,0,232,3,67,110,1 ; n8197 t=441.779 G4
    db 0,0,232,3,55,110,2 ; n8198 t=441.779 G3
    db 0,0,232,3,67,110,3 ; n8199 t=441.779 G4
    db 0,0,232,3,67,110,4 ; n8200 t=441.779 G4
    db 0,0,232,3,67,110,5 ; n8201 t=441.779 G4
    db 144,0,232,3,55,110,6 ; n8202 t=441.779 G3
    db 0,0,232,3,69,110,1 ; n8203 t=441.923 A4
    db 0,0,232,3,57,110,2 ; n8204 t=441.923 A3
    db 0,0,232,3,69,110,3 ; n8205 t=441.923 A4
    db 0,0,232,3,69,110,4 ; n8206 t=441.923 A4
    db 0,0,232,3,69,110,5 ; n8207 t=441.923 A4
    db 144,0,232,3,57,110,6 ; n8208 t=441.923 A3
    db 0,0,232,3,70,110,1 ; n8209 t=442.067 A#4
    db 0,0,232,3,58,110,2 ; n8210 t=442.067 A#3
    db 0,0,232,3,70,110,3 ; n8211 t=442.067 A#4
    db 0,0,232,3,70,110,4 ; n8212 t=442.067 A#4
    db 0,0,232,3,70,110,5 ; n8213 t=442.067 A#4
    db 144,0,232,3,58,110,6 ; n8214 t=442.067 A#3
    db 0,0,232,3,72,110,1 ; n8215 t=442.212 C5
    db 0,0,232,3,60,110,2 ; n8216 t=442.212 C4
    db 0,0,232,3,72,110,3 ; n8217 t=442.212 C5
    db 0,0,232,3,72,110,4 ; n8218 t=442.212 C5
    db 0,0,232,3,72,110,5 ; n8219 t=442.212 C5
    db 32,1,232,3,60,110,6 ; n8220 t=442.212 C4
    db 0,0,232,3,72,110,1 ; n8221 t=442.500 C5
    db 0,0,232,3,60,110,2 ; n8222 t=442.500 C4
    db 0,0,232,3,72,110,3 ; n8223 t=442.500 C5
    db 0,0,232,3,72,110,4 ; n8224 t=442.500 C5
    db 0,0,232,3,72,110,5 ; n8225 t=442.500 C5
    db 144,0,232,3,60,110,6 ; n8226 t=442.500 C4
    db 0,0,232,3,74,110,1 ; n8227 t=442.644 D5
    db 0,0,232,3,62,110,2 ; n8228 t=442.644 D4
    db 0,0,232,3,74,110,3 ; n8229 t=442.644 D5
    db 0,0,232,3,74,110,4 ; n8230 t=442.644 D5
    db 0,0,232,3,74,110,5 ; n8231 t=442.644 D5
    db 144,0,232,3,62,110,6 ; n8232 t=442.644 D4
    db 0,0,232,3,75,110,1 ; n8233 t=442.788 D#5
    db 0,0,232,3,63,110,2 ; n8234 t=442.788 D#4
    db 0,0,232,3,75,110,3 ; n8235 t=442.788 D#5
    db 0,0,232,3,75,110,4 ; n8236 t=442.788 D#5
    db 0,0,232,3,75,110,5 ; n8237 t=442.788 D#5
    db 32,1,232,3,63,110,6 ; n8238 t=442.788 D#4
    db 0,0,232,3,66,110,1 ; n8239 t=443.077 F#4
    db 0,0,232,3,54,110,2 ; n8240 t=443.077 F#3
    db 0,0,232,3,66,110,3 ; n8241 t=443.077 F#4
    db 0,0,232,3,66,110,4 ; n8242 t=443.077 F#4
    db 0,0,232,3,66,110,5 ; n8243 t=443.077 F#4
    db 32,1,232,3,54,110,6 ; n8244 t=443.077 F#3
    db 0,0,232,3,67,110,1 ; n8245 t=443.365 G4
    db 0,0,232,3,55,110,2 ; n8246 t=443.365 G3
    db 0,0,232,3,67,110,3 ; n8247 t=443.365 G4
    db 0,0,232,3,67,110,4 ; n8248 t=443.365 G4
    db 0,0,232,3,67,110,5 ; n8249 t=443.365 G4
    db 32,1,232,3,55,110,6 ; n8250 t=443.365 G3
    db 0,0,232,3,61,110,1 ; n8251 t=443.654 C#4
    db 0,0,232,3,49,110,2 ; n8252 t=443.654 C#3
    db 0,0,232,3,61,110,3 ; n8253 t=443.654 C#4
    db 0,0,232,3,61,110,4 ; n8254 t=443.654 C#4
    db 0,0,232,3,61,110,5 ; n8255 t=443.654 C#4
    db 32,1,232,3,49,110,6 ; n8256 t=443.654 C#3
    db 0,0,232,3,62,110,1 ; n8257 t=443.942 D4
    db 0,0,232,3,50,110,2 ; n8258 t=443.942 D3
    db 0,0,232,3,62,110,3 ; n8259 t=443.942 D4
    db 0,0,232,3,62,110,4 ; n8260 t=443.942 D4
    db 0,0,232,3,62,110,5 ; n8261 t=443.942 D4
    db 32,1,232,3,50,110,6 ; n8262 t=443.942 D3
    db 0,0,232,3,56,110,1 ; n8263 t=444.231 G#3
    db 0,0,232,3,44,110,2 ; n8264 t=444.231 G#2
    db 0,0,232,3,56,110,3 ; n8265 t=444.231 G#3
    db 0,0,232,3,56,110,4 ; n8266 t=444.231 G#3
    db 0,0,232,3,56,110,5 ; n8267 t=444.231 G#3
    db 137,2,232,3,44,110,6 ; n8268 t=444.231 G#2
    db 0,0,232,3,64,110,1 ; n8269 t=444.880 E4
    db 0,0,232,3,67,110,1 ; n8270 t=444.880 G4
    db 0,0,232,3,69,110,1 ; n8271 t=444.880 A4
    db 0,0,232,3,73,110,1 ; n8272 t=444.880 C#5
    db 0,0,232,3,45,110,2 ; n8273 t=444.880 A2
    db 0,0,232,3,57,110,2 ; n8274 t=444.880 A3
    db 0,0,232,3,57,110,3 ; n8275 t=444.880 A3
    db 0,0,232,3,57,110,4 ; n8276 t=444.880 A3
    db 0,0,232,3,57,110,5 ; n8277 t=444.880 A3
    db 137,2,232,3,45,110,6 ; n8278 t=444.880 A2
    db 0,0,232,3,74,110,1 ; n8279 t=445.529 D5
    db 0,0,232,3,69,110,1 ; n8280 t=445.529 A4
    db 0,0,232,3,65,110,1 ; n8281 t=445.529 F4
    db 0,0,232,3,62,110,1 ; n8282 t=445.529 D4
    db 0,0,232,3,50,110,2 ; n8283 t=445.529 D3
    db 0,0,232,3,38,110,2 ; n8284 t=445.529 D2
    db 0,0,232,3,62,110,3 ; n8285 t=445.529 D4
    db 0,0,232,3,62,110,4 ; n8286 t=445.529 D4
    db 0,0,232,3,50,110,5 ; n8287 t=445.529 D3
    db 97,3,232,3,38,110,6 ; n8288 t=445.529 D2
    db 0,0,232,3,21,110,10 ; n8289 t=446.394 A0
    db 255,255,255,255,255,255,255  ; end
