; Harpsichord note data with dynamic channel assignment

; Field offsets:
;   tnext_lo    equ 0
;   tnext_hi    equ 1
;   duration_lo equ 2
;   duration_hi equ 3
;   pitch       equ 4
;   velocity    equ 5
;   instrument  equ 6
;   channel     equ 7

; Total notes: 347

midi_data:
    db 180,0,232,3,62,127,1,0 ; n1 t=0.000 D4
    db 44,1,232,3,62,127,1,0 ; n2 t=0.180 D4
    db 0,0,232,3,67,127,1,1 ; n3 t=0.480 G4
    db 0,0,232,3,62,127,2,0 ; n4 t=0.480 D4
    db 0,0,232,3,59,127,3,2 ; n5 t=0.480 B3
    db 88,2,232,3,55,127,4,3 ; n6 t=0.480 G3
    db 88,2,232,3,54,127,4,0 ; n7 t=1.080 F#3
    db 0,0,232,3,74,127,1,1 ; n8 t=1.680 D5
    db 0,0,232,3,71,127,2,2 ; n9 t=1.680 B4
    db 0,0,232,3,67,127,3,4 ; n10 t=1.680 G4
    db 88,2,232,3,52,127,4,3 ; n11 t=1.680 E3
    db 88,2,232,3,50,127,4,0 ; n12 t=2.280 D3
    db 0,0,232,3,72,127,1,1 ; n13 t=2.880 C5
    db 0,0,232,3,67,127,2,4 ; n14 t=2.880 G4
    db 0,0,232,3,64,127,3,2 ; n15 t=2.880 E4
    db 180,0,232,3,48,127,4,5 ; n16 t=2.880 C3
    db 180,0,232,3,71,127,1,6 ; n17 t=3.060 B4
    db 120,0,232,3,69,127,1,3 ; n18 t=3.240 A4
    db 0,0,232,3,79,127,1,7 ; n19 t=3.360 G5
    db 0,0,232,3,74,127,2,8 ; n20 t=3.360 D5
    db 0,0,232,3,71,127,3,6 ; n21 t=3.360 B4
    db 88,2,232,3,59,127,4,0 ; n22 t=3.360 B3
    db 88,2,232,3,57,127,4,1 ; n23 t=3.960 A3
    db 0,0,232,3,74,127,1,8 ; n24 t=4.560 D5
    db 0,0,232,3,71,127,2,6 ; n25 t=4.560 B4
    db 0,0,232,3,67,127,3,4 ; n26 t=4.560 G4
    db 88,2,232,3,55,127,4,0 ; n27 t=4.560 G3
    db 0,0,232,3,72,127,1,2 ; n28 t=5.160 C5
    db 0,0,232,3,67,127,2,4 ; n29 t=5.160 G4
    db 0,0,232,3,64,127,3,3 ; n30 t=5.160 E4
    db 180,0,232,3,48,127,4,5 ; n31 t=5.160 C3
    db 180,0,232,3,71,127,1,6 ; n32 t=5.340 B4
    db 120,0,232,3,69,127,1,1 ; n33 t=5.520 A4
    db 0,0,232,3,79,127,1,7 ; n34 t=5.640 G5
    db 0,0,232,3,74,127,2,8 ; n35 t=5.640 D5
    db 0,0,232,3,71,127,3,6 ; n36 t=5.640 B4
    db 88,2,232,3,59,127,4,0 ; n37 t=5.640 B3
    db 88,2,232,3,57,127,4,1 ; n38 t=6.240 A3
    db 0,0,232,3,74,127,1,8 ; n39 t=6.840 D5
    db 0,0,232,3,71,127,2,6 ; n40 t=6.840 B4
    db 0,0,232,3,67,127,3,4 ; n41 t=6.840 G4
    db 88,2,232,3,55,127,4,0 ; n42 t=6.840 G3
    db 0,0,232,3,72,127,1,2 ; n43 t=7.440 C5
    db 0,0,232,3,69,127,2,3 ; n44 t=7.440 A4
    db 0,0,232,3,65,127,3,5 ; n45 t=7.440 F4
    db 180,0,232,3,53,127,4,7 ; n46 t=7.440 F3
    db 180,0,232,3,71,127,1,6 ; n47 t=7.620 B4
    db 180,0,232,3,72,127,1,2 ; n48 t=7.800 C5
    db 0,0,232,3,69,127,1,3 ; n49 t=7.980 A4
    db 0,0,232,3,66,127,2,1 ; n50 t=7.980 F#4
    db 0,0,232,3,62,127,3,4 ; n51 t=7.980 D4
    db 176,4,232,3,50,127,4,0 ; n52 t=7.980 D3
    db 104,1,232,3,62,127,1,4 ; n53 t=9.180 D4
    db 180,0,232,3,62,127,1,4 ; n54 t=9.540 D4
    db 0,0,232,3,67,127,1,1 ; n55 t=9.720 G4
    db 0,0,232,3,62,127,2,4 ; n56 t=9.720 D4
    db 0,0,232,3,59,127,3,2 ; n57 t=9.720 B3
    db 88,2,232,3,55,127,4,0 ; n58 t=9.720 G3
    db 88,2,232,3,54,127,4,1 ; n59 t=10.320 F#3
    db 0,0,232,3,74,127,1,8 ; n60 t=10.920 D5
    db 0,0,232,3,71,127,2,6 ; n61 t=10.920 B4
    db 0,0,232,3,67,127,3,2 ; n62 t=10.920 G4
    db 88,2,232,3,52,127,4,0 ; n63 t=10.920 E3
    db 88,2,232,3,50,127,4,1 ; n64 t=11.520 D3
    db 0,0,232,3,72,127,1,2 ; n65 t=12.120 C5
    db 0,0,232,3,67,127,2,3 ; n66 t=12.120 G4
    db 0,0,232,3,64,127,3,4 ; n67 t=12.120 E4
    db 180,0,232,3,48,127,4,5 ; n68 t=12.120 C3
    db 180,0,232,3,71,127,1,6 ; n69 t=12.300 B4
    db 120,0,232,3,69,127,1,0 ; n70 t=12.480 A4
    db 0,0,232,3,79,127,1,7 ; n71 t=12.600 G5
    db 0,0,232,3,74,127,2,8 ; n72 t=12.600 D5
    db 0,0,232,3,71,127,3,6 ; n73 t=12.600 B4
    db 88,2,232,3,59,127,4,1 ; n74 t=12.600 B3
    db 88,2,232,3,57,127,4,0 ; n75 t=13.200 A3
    db 0,0,232,3,74,127,1,8 ; n76 t=13.800 D5
    db 0,0,232,3,71,127,2,6 ; n77 t=13.800 B4
    db 0,0,232,3,67,127,3,3 ; n78 t=13.800 G4
    db 88,2,232,3,55,127,4,1 ; n79 t=13.800 G3
    db 0,0,232,3,72,127,1,2 ; n80 t=14.400 C5
    db 0,0,232,3,67,127,2,3 ; n81 t=14.400 G4
    db 0,0,232,3,64,127,3,4 ; n82 t=14.400 E4
    db 180,0,232,3,48,127,4,5 ; n83 t=14.400 C3
    db 180,0,232,3,71,127,1,6 ; n84 t=14.580 B4
    db 120,0,232,3,69,127,1,0 ; n85 t=14.760 A4
    db 0,0,232,3,79,127,1,7 ; n86 t=14.880 G5
    db 0,0,232,3,74,127,2,8 ; n87 t=14.880 D5
    db 0,0,232,3,71,127,3,6 ; n88 t=14.880 B4
    db 88,2,232,3,59,127,4,1 ; n89 t=14.880 B3
    db 88,2,232,3,57,127,4,0 ; n90 t=15.480 A3
    db 0,0,232,3,74,127,1,8 ; n91 t=16.080 D5
    db 0,0,232,3,71,127,2,6 ; n92 t=16.080 B4
    db 0,0,232,3,67,127,3,3 ; n93 t=16.080 G4
    db 88,2,232,3,55,127,4,1 ; n94 t=16.080 G3
    db 0,0,232,3,72,127,1,2 ; n95 t=16.680 C5
    db 0,0,232,3,69,127,2,4 ; n96 t=16.680 A4
    db 0,0,232,3,65,127,3,5 ; n97 t=16.680 F4
    db 180,0,232,3,53,127,4,7 ; n98 t=16.680 F3
    db 180,0,232,3,71,127,1,6 ; n99 t=16.860 B4
    db 180,0,232,3,72,127,1,2 ; n100 t=17.040 C5
    db 0,0,232,3,69,127,1,4 ; n101 t=17.220 A4
    db 0,0,232,3,66,127,2,0 ; n102 t=17.220 F#4
    db 0,0,232,3,62,127,3,3 ; n103 t=17.220 D4
    db 88,2,232,3,50,127,4,1 ; n104 t=17.220 D3
    db 104,1,232,3,62,127,1,3 ; n105 t=17.820 D4
    db 180,0,232,3,62,127,1,3 ; n106 t=18.180 D4
    db 0,0,232,3,64,127,1,0 ; n107 t=18.360 E4
    db 0,0,232,3,60,127,2,2 ; n108 t=18.360 C4
    db 132,3,232,3,55,127,3,1 ; n109 t=18.360 G3
    db 0,0,232,3,64,127,1,0 ; n110 t=19.260 E4
    db 44,1,232,3,50,127,4,2 ; n111 t=19.260 D3
    db 0,0,232,3,72,127,1,3 ; n112 t=19.560 C5
    db 0,0,232,3,67,127,2,4 ; n113 t=19.560 G4
    db 44,1,232,3,64,127,3,0 ; n114 t=19.560 E4
    db 44,1,232,3,71,127,1,6 ; n115 t=19.860 B4
    db 44,1,232,3,69,127,1,1 ; n116 t=20.160 A4
    db 44,1,232,3,67,127,1,4 ; n117 t=20.460 G4
    db 180,0,232,3,64,127,2,0 ; n118 t=20.760 E4
    db 180,0,232,3,69,127,1,1 ; n119 t=20.940 A4
    db 180,0,232,3,71,127,1,6 ; n120 t=21.120 B4
    db 88,2,232,3,69,127,1,1 ; n121 t=21.300 A4
    db 120,0,232,3,64,127,1,0 ; n122 t=21.900 E4
    db 0,0,232,3,66,127,1,2 ; n123 t=22.020 F#4
    db 0,0,232,3,62,127,2,3 ; n124 t=22.020 D4
    db 88,2,232,3,57,127,3,4 ; n125 t=22.020 A3
    db 104,1,232,3,62,127,1,3 ; n126 t=22.620 D4
    db 180,0,232,3,62,127,1,3 ; n127 t=22.980 D4
    db 0,0,232,3,64,127,1,0 ; n128 t=23.160 E4
    db 0,0,232,3,60,127,2,1 ; n129 t=23.160 C4
    db 0,0,232,3,55,127,3,2 ; n130 t=23.160 G3
    db 132,3,232,3,50,127,4,4 ; n131 t=23.160 D3
    db 0,0,232,3,64,127,1,0 ; n132 t=24.060 E4
    db 0,0,232,3,60,127,2,1 ; n133 t=24.060 C4
    db 0,0,232,3,55,127,3,2 ; n134 t=24.060 G3
    db 44,1,232,3,50,127,4,4 ; n135 t=24.060 D3
    db 0,0,232,3,72,127,1,3 ; n136 t=24.360 C5
    db 0,0,232,3,67,127,2,5 ; n137 t=24.360 G4
    db 44,1,232,3,60,127,3,1 ; n138 t=24.360 C4
    db 44,1,232,3,71,127,1,6 ; n139 t=24.660 B4
    db 88,2,232,3,69,127,1,0 ; n140 t=24.960 A4
    db 0,0,232,3,74,127,1,8 ; n141 t=25.560 D5
    db 0,0,232,3,70,127,2,2 ; n142 t=25.560 A#4
    db 0,0,232,3,65,127,3,3 ; n143 t=25.560 F4
    db 164,1,232,3,58,127,4,1 ; n144 t=25.560 A#3
    db 120,0,232,3,69,127,1,0 ; n145 t=25.980 A4
    db 0,0,232,3,66,127,2,4 ; n146 t=26.100 F#4
    db 0,0,232,3,62,127,3,5 ; n147 t=26.100 D4
    db 176,4,232,3,50,127,4,0 ; n148 t=26.100 D3
    db 104,1,232,3,62,127,1,5 ; n149 t=27.300 D4
    db 180,0,232,3,62,127,1,5 ; n150 t=27.660 D4
    db 0,0,232,3,64,127,1,1 ; n151 t=27.840 E4
    db 0,0,232,3,60,127,2,2 ; n152 t=27.840 C4
    db 132,3,232,3,55,127,3,0 ; n153 t=27.840 G3
    db 0,0,232,3,64,127,1,1 ; n154 t=28.740 E4
    db 44,1,232,3,50,127,4,2 ; n155 t=28.740 D3
    db 0,0,232,3,72,127,1,3 ; n156 t=29.040 C5
    db 0,0,232,3,67,127,2,4 ; n157 t=29.040 G4
    db 44,1,232,3,64,127,3,1 ; n158 t=29.040 E4
    db 44,1,232,3,71,127,1,6 ; n159 t=29.340 B4
    db 0,0,232,3,69,127,1,5 ; n160 t=29.640 A4
    db 88,2,232,3,50,127,4,2 ; n161 t=29.640 D3
    db 0,0,232,3,67,127,1,4 ; n162 t=30.240 G4
    db 0,0,232,3,64,127,2,1 ; n163 t=30.240 E4
    db 0,0,232,3,60,127,3,0 ; n164 t=30.240 C4
    db 180,0,232,3,50,127,4,2 ; n165 t=30.240 D3
    db 180,0,232,3,69,127,1,5 ; n166 t=30.420 A4
    db 180,0,232,3,71,127,1,6 ; n167 t=30.600 B4
    db 0,0,232,3,69,127,1,5 ; n168 t=30.780 A4
    db 28,2,232,3,50,127,4,2 ; n169 t=30.780 D3
    db 88,2,232,3,66,127,1,0 ; n170 t=31.320 F#4
    db 0,0,232,3,74,127,1,8 ; n171 t=31.920 D5
    db 104,1,232,3,50,127,4,2 ; n172 t=31.920 D3
    db 180,0,232,3,74,127,1,8 ; n173 t=32.280 D5
    db 0,0,232,3,79,127,1,1 ; n174 t=32.460 G5
    db 0,0,232,3,75,127,2,3 ; n175 t=32.460 D#5
    db 0,0,232,3,72,127,3,4 ; n176 t=32.460 C5
    db 104,1,232,3,67,127,4,5 ; n177 t=32.460 G4
    db 0,0,232,3,77,127,1,6 ; n178 t=32.820 F5
    db 0,0,232,3,72,127,2,4 ; n179 t=32.820 C5
    db 0,0,232,3,67,127,3,5 ; n180 t=32.820 G4
    db 180,0,232,3,59,127,4,0 ; n181 t=32.820 B3
    db 0,0,232,3,75,127,1,3 ; n182 t=33.000 D#5
    db 104,1,232,3,48,127,4,2 ; n183 t=33.000 C3
    db 0,0,232,3,74,127,1,8 ; n184 t=33.360 D5
    db 180,0,232,3,50,127,4,1 ; n185 t=33.360 D3
    db 0,0,232,3,72,127,1,4 ; n186 t=33.540 C5
    db 104,1,232,3,51,127,4,5 ; n187 t=33.540 D#3
    db 0,0,232,3,70,127,1,6 ; n188 t=33.900 A#4
    db 180,0,232,3,53,127,4,7 ; n189 t=33.900 F3
    db 0,0,232,3,69,127,1,0 ; n190 t=34.080 A4
    db 104,1,232,3,55,127,4,2 ; n191 t=34.080 G3
    db 0,0,232,3,67,127,1,3 ; n192 t=34.440 G4
    db 180,0,232,3,57,127,4,1 ; n193 t=34.440 A3
    db 88,2,232,3,74,127,1,8 ; n194 t=34.620 D5
    db 0,0,232,3,69,127,1,0 ; n195 t=35.220 A4
    db 0,0,232,3,66,127,2,4 ; n196 t=35.220 F#4
    db 0,0,232,3,60,127,3,5 ; n197 t=35.220 C4
    db 60,0,232,3,50,127,4,6 ; n198 t=35.220 D3
    db 0,0,232,3,69,127,1,0 ; n199 t=35.280 A4
    db 0,0,232,3,66,127,2,4 ; n200 t=35.280 F#4
    db 0,0,232,3,60,127,3,5 ; n201 t=35.280 C4
    db 60,0,232,3,50,127,4,6 ; n202 t=35.280 D3
    db 0,0,232,3,69,127,1,0 ; n203 t=35.340 A4
    db 0,0,232,3,66,127,2,4 ; n204 t=35.340 F#4
    db 0,0,232,3,60,127,3,5 ; n205 t=35.340 C4
    db 60,0,232,3,50,127,4,6 ; n206 t=35.340 D3
    db 0,0,232,3,69,127,1,0 ; n207 t=35.400 A4
    db 0,0,232,3,66,127,2,4 ; n208 t=35.400 F#4
    db 0,0,232,3,60,127,3,5 ; n209 t=35.400 C4
    db 44,1,232,3,50,127,4,6 ; n210 t=35.400 D3
    db 180,0,232,3,62,127,3,1 ; n211 t=35.700 D4
    db 180,0,232,3,62,127,3,1 ; n212 t=35.880 D4
    db 180,0,232,3,62,127,3,1 ; n213 t=36.060 D4
    db 0,0,232,3,67,127,1,3 ; n214 t=36.240 G4
    db 0,0,232,3,62,127,2,1 ; n215 t=36.240 D4
    db 0,0,232,3,59,127,3,2 ; n216 t=36.240 B3
    db 88,2,232,3,55,127,4,0 ; n217 t=36.240 G3
    db 88,2,232,3,54,127,4,1 ; n218 t=36.840 F#3
    db 0,0,232,3,74,127,1,8 ; n219 t=37.440 D5
    db 0,0,232,3,71,127,2,2 ; n220 t=37.440 B4
    db 0,0,232,3,67,127,3,3 ; n221 t=37.440 G4
    db 88,2,232,3,52,127,4,0 ; n222 t=37.440 E3
    db 88,2,232,3,50,127,4,6 ; n223 t=38.040 D3
    db 0,0,232,3,72,127,1,1 ; n224 t=38.640 C5
    db 0,0,232,3,67,127,2,3 ; n225 t=38.640 G4
    db 0,0,232,3,64,127,3,2 ; n226 t=38.640 E4
    db 180,0,232,3,48,127,4,4 ; n227 t=38.640 C3
    db 180,0,232,3,71,127,1,5 ; n228 t=38.820 B4
    db 120,0,232,3,69,127,1,0 ; n229 t=39.000 A4
    db 0,0,232,3,79,127,1,7 ; n230 t=39.120 G5
    db 0,0,232,3,74,127,2,8 ; n231 t=39.120 D5
    db 0,0,232,3,71,127,3,5 ; n232 t=39.120 B4
    db 88,2,232,3,59,127,4,1 ; n233 t=39.120 B3
    db 88,2,232,3,57,127,4,0 ; n234 t=39.720 A3
    db 0,0,232,3,74,127,1,8 ; n235 t=40.320 D5
    db 0,0,232,3,71,127,2,5 ; n236 t=40.320 B4
    db 0,0,232,3,67,127,3,3 ; n237 t=40.320 G4
    db 88,2,232,3,55,127,4,1 ; n238 t=40.320 G3
    db 0,0,232,3,72,127,1,2 ; n239 t=40.920 C5
    db 0,0,232,3,67,127,2,3 ; n240 t=40.920 G4
    db 0,0,232,3,64,127,3,4 ; n241 t=40.920 E4
    db 180,0,232,3,48,127,4,6 ; n242 t=40.920 C3
    db 180,0,232,3,71,127,1,5 ; n243 t=41.100 B4
    db 120,0,232,3,69,127,1,0 ; n244 t=41.280 A4
    db 0,0,232,3,79,127,1,7 ; n245 t=41.400 G5
    db 0,0,232,3,74,127,2,8 ; n246 t=41.400 D5
    db 0,0,232,3,71,127,3,5 ; n247 t=41.400 B4
    db 88,2,232,3,59,127,4,1 ; n248 t=41.400 B3
    db 88,2,232,3,57,127,4,0 ; n249 t=42.000 A3
    db 0,0,232,3,74,127,1,8 ; n250 t=42.600 D5
    db 0,0,232,3,71,127,2,5 ; n251 t=42.600 B4
    db 0,0,232,3,67,127,3,3 ; n252 t=42.600 G4
    db 88,2,232,3,55,127,4,1 ; n253 t=42.600 G3
    db 0,0,232,3,72,127,1,2 ; n254 t=43.200 C5
    db 0,0,232,3,69,127,2,4 ; n255 t=43.200 A4
    db 0,0,232,3,65,127,3,6 ; n256 t=43.200 F4
    db 180,0,232,3,53,127,4,7 ; n257 t=43.200 F3
    db 180,0,232,3,71,127,1,5 ; n258 t=43.380 B4
    db 180,0,232,3,72,127,1,2 ; n259 t=43.560 C5
    db 0,0,232,3,69,127,1,4 ; n260 t=43.740 A4
    db 0,0,232,3,66,127,2,0 ; n261 t=43.740 F#4
    db 0,0,232,3,62,127,3,3 ; n262 t=43.740 D4
    db 176,4,232,3,50,127,4,0 ; n263 t=43.740 D3
    db 104,1,232,3,62,127,1,3 ; n264 t=44.940 D4
    db 180,0,232,3,62,127,1,3 ; n265 t=45.300 D4
    db 0,0,232,3,67,127,1,1 ; n266 t=45.480 G4
    db 0,0,232,3,62,127,2,3 ; n267 t=45.480 D4
    db 0,0,232,3,59,127,3,2 ; n268 t=45.480 B3
    db 88,2,232,3,55,127,4,0 ; n269 t=45.480 G3
    db 88,2,232,3,54,127,4,1 ; n270 t=46.080 F#3
    db 0,0,232,3,74,127,1,8 ; n271 t=46.680 D5
    db 0,0,232,3,71,127,2,5 ; n272 t=46.680 B4
    db 0,0,232,3,67,127,3,2 ; n273 t=46.680 G4
    db 88,2,232,3,52,127,4,0 ; n274 t=46.680 E3
    db 88,2,232,3,50,127,4,1 ; n275 t=47.280 D3
    db 0,0,232,3,72,127,1,2 ; n276 t=47.880 C5
    db 0,0,232,3,67,127,2,3 ; n277 t=47.880 G4
    db 0,0,232,3,64,127,3,4 ; n278 t=47.880 E4
    db 180,0,232,3,48,127,4,5 ; n279 t=47.880 C3
    db 180,0,232,3,71,127,1,6 ; n280 t=48.060 B4
    db 120,0,232,3,69,127,1,0 ; n281 t=48.240 A4
    db 0,0,232,3,79,127,1,7 ; n282 t=48.360 G5
    db 0,0,232,3,74,127,2,8 ; n283 t=48.360 D5
    db 0,0,232,3,71,127,3,6 ; n284 t=48.360 B4
    db 88,2,232,3,59,127,4,1 ; n285 t=48.360 B3
    db 88,2,232,3,57,127,4,0 ; n286 t=48.960 A3
    db 0,0,232,3,74,127,1,8 ; n287 t=49.560 D5
    db 0,0,232,3,71,127,2,6 ; n288 t=49.560 B4
    db 0,0,232,3,67,127,3,3 ; n289 t=49.560 G4
    db 88,2,232,3,55,127,4,1 ; n290 t=49.560 G3
    db 0,0,232,3,72,127,1,2 ; n291 t=50.160 C5
    db 0,0,232,3,67,127,2,3 ; n292 t=50.160 G4
    db 0,0,232,3,64,127,3,4 ; n293 t=50.160 E4
    db 180,0,232,3,48,127,4,5 ; n294 t=50.160 C3
    db 180,0,232,3,71,127,1,6 ; n295 t=50.340 B4
    db 120,0,232,3,69,127,1,0 ; n296 t=50.520 A4
    db 0,0,232,3,79,127,1,7 ; n297 t=50.640 G5
    db 0,0,232,3,74,127,2,8 ; n298 t=50.640 D5
    db 0,0,232,3,71,127,3,6 ; n299 t=50.640 B4
    db 88,2,232,3,59,127,4,1 ; n300 t=50.640 B3
    db 88,2,232,3,57,127,4,0 ; n301 t=51.240 A3
    db 0,0,232,3,74,127,1,8 ; n302 t=51.840 D5
    db 0,0,232,3,71,127,2,6 ; n303 t=51.840 B4
    db 0,0,232,3,67,127,3,3 ; n304 t=51.840 G4
    db 88,2,232,3,55,127,4,1 ; n305 t=51.840 G3
    db 0,0,232,3,72,127,1,2 ; n306 t=52.440 C5
    db 0,0,232,3,69,127,2,4 ; n307 t=52.440 A4
    db 0,0,232,3,65,127,3,5 ; n308 t=52.440 F4
    db 180,0,232,3,53,127,4,7 ; n309 t=52.440 F3
    db 180,0,232,3,71,127,1,6 ; n310 t=52.620 B4
    db 180,0,232,3,72,127,1,2 ; n311 t=52.800 C5
    db 0,0,232,3,69,127,1,4 ; n312 t=52.980 A4
    db 0,0,232,3,66,127,2,0 ; n313 t=52.980 F#4
    db 0,0,232,3,62,127,3,3 ; n314 t=52.980 D4
    db 176,4,232,3,50,127,4,0 ; n315 t=52.980 D3
    db 0,0,232,3,74,127,1,8 ; n316 t=54.180 D5
    db 0,0,232,3,62,127,2,3 ; n317 t=54.180 D4
    db 88,2,232,3,50,127,3,0 ; n318 t=54.180 D3
    db 44,1,232,3,50,127,4,0 ; n319 t=54.780 D3
    db 0,0,232,3,79,127,1,1 ; n320 t=55.080 G5
    db 0,0,232,3,74,127,2,8 ; n321 t=55.080 D5
    db 0,0,232,3,71,127,3,6 ; n322 t=55.080 B4
    db 88,2,232,3,55,127,4,2 ; n323 t=55.080 G3
    db 88,2,232,3,54,127,4,0 ; n324 t=55.680 F#3
    db 88,2,232,3,52,127,4,1 ; n325 t=56.280 E3
    db 88,2,232,3,50,127,4,0 ; n326 t=56.880 D3
    db 88,2,232,3,48,127,4,1 ; n327 t=57.480 C3
    db 88,2,232,3,50,127,4,0 ; n328 t=58.080 D3
    db 88,2,232,3,52,127,4,1 ; n329 t=58.680 E3
    db 88,2,232,3,54,127,4,0 ; n330 t=59.280 F#3
    db 176,4,232,3,55,127,4,2 ; n331 t=59.880 G3
    db 0,0,232,3,79,127,1,0 ; n332 t=61.080 G5
    db 0,0,232,3,74,127,2,8 ; n333 t=61.080 D5
    db 0,0,232,3,71,127,3,6 ; n334 t=61.080 B4
    db 60,0,232,3,55,127,4,2 ; n335 t=61.080 G3
    db 0,0,232,3,79,127,1,0 ; n336 t=61.140 G5
    db 0,0,232,3,74,127,2,8 ; n337 t=61.140 D5
    db 0,0,232,3,71,127,3,6 ; n338 t=61.140 B4
    db 60,0,232,3,55,127,4,2 ; n339 t=61.140 G3
    db 0,0,232,3,79,127,1,0 ; n340 t=61.200 G5
    db 0,0,232,3,74,127,2,8 ; n341 t=61.200 D5
    db 0,0,232,3,71,127,3,6 ; n342 t=61.200 B4
    db 60,0,232,3,55,127,4,2 ; n343 t=61.200 G3
    db 0,0,232,3,79,127,1,0 ; n344 t=61.260 G5
    db 0,0,232,3,74,127,2,8 ; n345 t=61.260 D5
    db 0,0,232,3,71,127,3,6 ; n346 t=61.260 B4
    db 0,0,232,3,55,127,4,2 ; n347 t=61.260 G3
    db 255,255,255,255,255,255,255,255  ; end
