; Harpsichord note data with dynamic channel assignment

; Field offsets:
;   tnext_lo    equ 0
;   tnext_hi    equ 1
;   duration_lo equ 2
;   duration_hi equ 3
;   pitch       equ 4
;   velocity    equ 5
;   instrument  equ 6
;   channel     equ 7

; Total notes: 304

midi_data:
    db 0,0,232,3,81,127,1,0 ; n1 t=4.045 A5
    db 0,0,232,3,57,127,3,1 ; n2 t=4.045 A3
    db 68,5,232,3,57,127,4,1 ; n3 t=4.045 A3
    db 0,0,232,3,81,127,1,0 ; n4 t=5.393 A5
    db 0,0,232,3,60,127,3,2 ; n5 t=5.393 C4
    db 162,2,232,3,57,127,4,1 ; n6 t=5.393 A3
    db 0,0,232,3,80,127,1,3 ; n7 t=6.067 G#5
    db 0,0,232,3,59,127,3,4 ; n8 t=6.067 B3
    db 162,2,232,3,52,127,4,0 ; n9 t=6.067 E3
    db 0,0,232,3,81,127,1,2 ; n10 t=6.742 A5
    db 0,0,232,3,60,127,3,5 ; n11 t=6.742 C4
    db 162,2,232,3,57,127,4,1 ; n12 t=6.742 A3
    db 0,0,232,3,83,127,1,3 ; n13 t=7.416 B5
    db 0,0,232,3,62,127,3,4 ; n14 t=7.416 D4
    db 162,2,232,3,55,127,4,0 ; n15 t=7.416 G3
    db 0,0,232,3,84,127,1,2 ; n16 t=8.090 C6
    db 0,0,232,3,64,127,3,5 ; n17 t=8.090 E4
    db 68,5,232,3,48,127,4,0 ; n18 t=8.090 C3
    db 0,0,232,3,84,127,1,2 ; n19 t=9.438 C6
    db 0,0,232,3,64,127,3,5 ; n20 t=9.438 E4
    db 162,2,232,3,48,127,4,0 ; n21 t=9.438 C3
    db 0,0,232,3,88,127,1,1 ; n22 t=10.112 E6
    db 0,0,232,3,60,127,3,3 ; n23 t=10.112 C4
    db 162,2,232,3,48,127,4,0 ; n24 t=10.112 C3
    db 0,0,232,3,86,127,1,2 ; n25 t=10.787 D6
    db 0,0,232,3,57,127,3,4 ; n26 t=10.787 A3
    db 162,2,232,3,53,127,4,1 ; n27 t=10.787 F3
    db 0,0,232,3,84,127,1,3 ; n28 t=11.461 C6
    db 0,0,232,3,60,127,3,5 ; n29 t=11.461 C4
    db 162,2,232,3,52,127,4,0 ; n30 t=11.461 E3
    db 0,0,232,3,84,127,1,3 ; n31 t=12.135 C6
    db 0,0,232,3,62,127,3,2 ; n32 t=12.135 D4
    db 162,2,232,3,53,127,4,1 ; n33 t=12.135 F3
    db 0,0,232,3,83,127,1,4 ; n34 t=12.809 B5
    db 0,0,232,3,62,127,3,2 ; n35 t=12.809 D4
    db 162,2,232,3,55,127,4,0 ; n36 t=12.809 G3
    db 0,0,232,3,84,127,1,3 ; n37 t=13.483 C6
    db 0,0,232,3,64,127,3,5 ; n38 t=13.483 E4
    db 68,5,232,3,48,127,4,0 ; n39 t=13.483 C3
    db 0,0,232,3,81,127,1,1 ; n40 t=14.832 A5
    db 0,0,232,3,69,127,3,2 ; n41 t=14.832 A4
    db 68,5,232,3,57,127,4,0 ; n42 t=14.832 A3
    db 0,0,232,3,81,127,1,1 ; n43 t=16.180 A5
    db 0,0,232,3,72,127,3,2 ; n44 t=16.180 C5
    db 162,2,232,3,57,127,4,0 ; n45 t=16.180 A3
    db 0,0,232,3,80,127,1,3 ; n46 t=16.854 G#5
    db 0,0,232,3,71,127,3,4 ; n47 t=16.854 B4
    db 162,2,232,3,52,127,4,1 ; n48 t=16.854 E3
    db 0,0,232,3,81,127,1,2 ; n49 t=17.528 A5
    db 0,0,232,3,72,127,3,5 ; n50 t=17.528 C5
    db 162,2,232,3,57,127,4,0 ; n51 t=17.528 A3
    db 0,0,232,3,83,127,1,3 ; n52 t=18.202 B5
    db 0,0,232,3,74,127,3,4 ; n53 t=18.202 D5
    db 162,2,232,3,55,127,4,1 ; n54 t=18.202 G3
    db 0,0,232,3,84,127,1,2 ; n55 t=18.876 C6
    db 0,0,232,3,76,127,3,5 ; n56 t=18.876 E5
    db 68,5,232,3,48,127,4,0 ; n57 t=18.876 C3
    db 0,0,232,3,84,127,1,2 ; n58 t=20.225 C6
    db 0,0,232,3,76,127,3,5 ; n59 t=20.225 E5
    db 162,2,232,3,48,127,4,0 ; n60 t=20.225 C3
    db 0,0,232,3,88,127,1,1 ; n61 t=20.899 E6
    db 0,0,232,3,72,127,3,3 ; n62 t=20.899 C5
    db 162,2,232,3,48,127,4,0 ; n63 t=20.899 C3
    db 0,0,232,3,86,127,1,2 ; n64 t=21.573 D6
    db 0,0,232,3,69,127,3,4 ; n65 t=21.573 A4
    db 162,2,232,3,50,127,4,1 ; n66 t=21.573 D3
    db 0,0,232,3,84,127,1,3 ; n67 t=22.247 C6
    db 0,0,232,3,72,127,3,5 ; n68 t=22.247 C5
    db 162,2,232,3,52,127,4,0 ; n69 t=22.247 E3
    db 0,0,232,3,84,127,1,3 ; n70 t=22.921 C6
    db 0,0,232,3,74,127,3,2 ; n71 t=22.921 D5
    db 162,2,232,3,57,127,4,1 ; n72 t=22.921 A3
    db 0,0,232,3,83,127,1,4 ; n73 t=23.596 B5
    db 0,0,232,3,74,127,3,2 ; n74 t=23.596 D5
    db 162,2,232,3,55,127,4,0 ; n75 t=23.596 G3
    db 0,0,232,3,84,127,1,3 ; n76 t=24.270 C6
    db 0,0,232,3,76,127,3,5 ; n77 t=24.270 E5
    db 68,5,232,3,48,127,4,0 ; n78 t=24.270 C3
    db 0,0,232,3,72,127,1,1 ; n79 t=25.618 C5
    db 0,0,232,3,76,127,3,5 ; n80 t=25.618 E5
    db 68,5,232,3,60,127,4,0 ; n81 t=25.618 C4
    db 0,0,232,3,71,127,1,1 ; n82 t=26.966 B4
    db 0,0,232,3,74,127,3,2 ; n83 t=26.966 D5
    db 162,2,232,3,55,127,4,3 ; n84 t=26.966 G3
    db 0,0,232,3,71,127,1,1 ; n85 t=27.640 B4
    db 0,0,232,3,76,127,3,5 ; n86 t=27.640 E5
    db 162,2,232,3,52,127,4,0 ; n87 t=27.640 E3
    db 0,0,232,3,69,127,1,2 ; n88 t=28.315 A4
    db 0,0,232,3,72,127,3,4 ; n89 t=28.315 C5
    db 162,2,232,3,53,127,4,1 ; n90 t=28.315 F3
    db 0,0,232,3,69,127,1,2 ; n91 t=28.989 A4
    db 0,0,232,3,74,127,3,3 ; n92 t=28.989 D5
    db 162,2,232,3,50,127,4,0 ; n93 t=28.989 D3
    db 0,0,232,3,68,127,1,4 ; n94 t=29.663 G#4
    db 0,0,232,3,71,127,3,5 ; n95 t=29.663 B4
    db 68,5,232,3,52,127,4,0 ; n96 t=29.663 E3
    db 0,0,232,3,64,127,1,1 ; n97 t=31.011 E4
    db 0,0,232,3,72,127,3,2 ; n98 t=31.011 C5
    db 68,5,232,3,48,127,4,0 ; n99 t=31.011 C3
    db 0,0,232,3,77,127,1,1 ; n100 t=32.359 F5
    db 0,0,232,3,69,127,3,2 ; n101 t=32.359 A4
    db 81,1,232,3,50,127,4,3 ; n102 t=32.359 D3
    db 81,1,232,3,79,127,1,4 ; n103 t=32.697 G5
    db 0,0,232,3,81,127,1,5 ; n104 t=33.034 A5
    db 0,0,232,3,72,127,3,6 ; n105 t=33.034 C5
    db 162,2,232,3,57,127,4,0 ; n106 t=33.034 A3
    db 0,0,232,3,81,127,1,5 ; n107 t=33.708 A5
    db 0,0,232,3,71,127,3,1 ; n108 t=33.708 B4
    db 162,2,232,3,52,127,4,2 ; n109 t=33.708 E3
    db 0,0,232,3,80,127,1,3 ; n110 t=34.382 G#5
    db 0,0,232,3,71,127,3,1 ; n111 t=34.382 B4
    db 162,2,232,3,52,127,4,2 ; n112 t=34.382 E3
    db 0,0,232,3,81,127,1,5 ; n113 t=35.056 A5
    db 0,0,232,3,69,127,3,0 ; n114 t=35.056 A4
    db 68,5,232,3,57,127,4,0 ; n115 t=35.056 A3
    db 0,0,232,3,84,127,1,1 ; n116 t=36.404 C6
    db 0,0,232,3,76,127,3,2 ; n117 t=36.404 E5
    db 68,5,232,3,60,127,4,0 ; n118 t=36.404 C4
    db 0,0,232,3,83,127,1,1 ; n119 t=37.753 B5
    db 0,0,232,3,74,127,3,2 ; n120 t=37.753 D5
    db 162,2,232,3,55,127,4,3 ; n121 t=37.753 G3
    db 0,0,232,3,83,127,1,1 ; n122 t=38.427 B5
    db 0,0,232,3,76,127,3,4 ; n123 t=38.427 E5
    db 162,2,232,3,52,127,4,0 ; n124 t=38.427 E3
    db 0,0,232,3,81,127,1,5 ; n125 t=39.101 A5
    db 0,0,232,3,72,127,3,6 ; n126 t=39.101 C5
    db 162,2,232,3,53,127,4,1 ; n127 t=39.101 F3
    db 0,0,232,3,81,127,1,5 ; n128 t=39.775 A5
    db 0,0,232,3,74,127,3,2 ; n129 t=39.775 D5
    db 162,2,232,3,50,127,4,0 ; n130 t=39.775 D3
    db 0,0,232,3,80,127,1,3 ; n131 t=40.449 G#5
    db 0,0,232,3,71,127,3,4 ; n132 t=40.449 B4
    db 68,5,232,3,52,127,4,0 ; n133 t=40.449 E3
    db 0,0,232,3,76,127,1,1 ; n134 t=41.798 E5
    db 0,0,232,3,72,127,3,6 ; n135 t=41.798 C5
    db 68,5,232,3,48,127,4,0 ; n136 t=41.798 C3
    db 0,0,232,3,77,127,1,1 ; n137 t=43.146 F5
    db 0,0,232,3,69,127,3,2 ; n138 t=43.146 A4
    db 81,1,232,3,50,127,4,3 ; n139 t=43.146 D3
    db 81,1,232,3,79,127,1,4 ; n140 t=43.483 G5
    db 0,0,232,3,81,127,1,5 ; n141 t=43.820 A5
    db 0,0,232,3,72,127,3,6 ; n142 t=43.820 C5
    db 162,2,232,3,57,127,4,0 ; n143 t=43.820 A3
    db 0,0,232,3,81,127,1,5 ; n144 t=44.494 A5
    db 0,0,232,3,71,127,3,1 ; n145 t=44.494 B4
    db 186,2,232,3,52,127,4,2 ; n146 t=44.494 E3
    db 0,0,232,3,80,127,1,3 ; n147 t=45.192 G#5
    db 0,0,232,3,71,127,3,1 ; n148 t=45.192 B4
    db 186,2,232,3,52,127,4,2 ; n149 t=45.192 E3
    db 0,0,232,3,81,127,1,5 ; n150 t=45.890 A5
    db 0,0,232,3,76,127,3,0 ; n151 t=45.890 E5
    db 115,5,232,3,57,127,4,0 ; n152 t=45.890 A3
    db 0,0,232,3,81,127,1,5 ; n153 t=47.285 A5
    db 0,0,232,3,57,127,3,0 ; n154 t=47.285 A3
    db 68,5,232,3,57,127,4,0 ; n155 t=47.285 A3
    db 0,0,232,3,81,127,1,5 ; n156 t=48.633 A5
    db 0,0,232,3,60,127,3,1 ; n157 t=48.633 C4
    db 162,2,232,3,57,127,4,0 ; n158 t=48.633 A3
    db 0,0,232,3,80,127,1,3 ; n159 t=49.307 G#5
    db 0,0,232,3,59,127,3,2 ; n160 t=49.307 B3
    db 162,2,232,3,52,127,4,1 ; n161 t=49.307 E3
    db 0,0,232,3,81,127,1,5 ; n162 t=49.982 A5
    db 0,0,232,3,60,127,3,4 ; n163 t=49.982 C4
    db 162,2,232,3,57,127,4,0 ; n164 t=49.982 A3
    db 0,0,232,3,83,127,1,2 ; n165 t=50.656 B5
    db 0,0,232,3,62,127,3,3 ; n166 t=50.656 D4
    db 162,2,232,3,55,127,4,1 ; n167 t=50.656 G3
    db 0,0,232,3,84,127,1,4 ; n168 t=51.330 C6
    db 0,0,232,3,64,127,3,5 ; n169 t=51.330 E4
    db 68,5,232,3,48,127,4,0 ; n170 t=51.330 C3
    db 0,0,232,3,84,127,1,4 ; n171 t=52.678 C6
    db 0,0,232,3,64,127,3,5 ; n172 t=52.678 E4
    db 162,2,232,3,48,127,4,0 ; n173 t=52.678 C3
    db 0,0,232,3,88,127,1,1 ; n174 t=53.352 E6
    db 0,0,232,3,60,127,3,2 ; n175 t=53.352 C4
    db 162,2,232,3,48,127,4,0 ; n176 t=53.352 C3
    db 0,0,232,3,86,127,1,3 ; n177 t=54.027 D6
    db 0,0,232,3,57,127,3,4 ; n178 t=54.027 A3
    db 162,2,232,3,53,127,4,1 ; n179 t=54.027 F3
    db 0,0,232,3,84,127,1,2 ; n180 t=54.701 C6
    db 0,0,232,3,60,127,3,5 ; n181 t=54.701 C4
    db 162,2,232,3,52,127,4,0 ; n182 t=54.701 E3
    db 0,0,232,3,84,127,1,2 ; n183 t=55.375 C6
    db 0,0,232,3,62,127,3,3 ; n184 t=55.375 D4
    db 162,2,232,3,53,127,4,1 ; n185 t=55.375 F3
    db 0,0,232,3,83,127,1,4 ; n186 t=56.049 B5
    db 0,0,232,3,62,127,3,3 ; n187 t=56.049 D4
    db 162,2,232,3,55,127,4,0 ; n188 t=56.049 G3
    db 0,0,232,3,84,127,1,2 ; n189 t=56.723 C6
    db 0,0,232,3,64,127,3,5 ; n190 t=56.723 E4
    db 68,5,232,3,48,127,4,0 ; n191 t=56.723 C3
    db 0,0,232,3,81,127,1,1 ; n192 t=58.072 A5
    db 0,0,232,3,69,127,3,2 ; n193 t=58.072 A4
    db 68,5,232,3,57,127,4,0 ; n194 t=58.072 A3
    db 0,0,232,3,81,127,1,1 ; n195 t=59.420 A5
    db 0,0,232,3,72,127,3,6 ; n196 t=59.420 C5
    db 162,2,232,3,57,127,4,0 ; n197 t=59.420 A3
    db 0,0,232,3,80,127,1,2 ; n198 t=60.094 G#5
    db 0,0,232,3,71,127,3,3 ; n199 t=60.094 B4
    db 162,2,232,3,52,127,4,1 ; n200 t=60.094 E3
    db 0,0,232,3,81,127,1,4 ; n201 t=60.768 A5
    db 0,0,232,3,72,127,3,6 ; n202 t=60.768 C5
    db 162,2,232,3,57,127,4,0 ; n203 t=60.768 A3
    db 0,0,232,3,83,127,1,2 ; n204 t=61.442 B5
    db 0,0,232,3,74,127,3,3 ; n205 t=61.442 D5
    db 162,2,232,3,55,127,4,1 ; n206 t=61.442 G3
    db 0,0,232,3,84,127,1,4 ; n207 t=62.117 C6
    db 0,0,232,3,76,127,3,5 ; n208 t=62.117 E5
    db 68,5,232,3,48,127,4,0 ; n209 t=62.117 C3
    db 0,0,232,3,84,127,1,4 ; n210 t=63.465 C6
    db 0,0,232,3,76,127,3,5 ; n211 t=63.465 E5
    db 162,2,232,3,48,127,4,0 ; n212 t=63.465 C3
    db 0,0,232,3,88,127,1,1 ; n213 t=64.139 E6
    db 0,0,232,3,72,127,3,6 ; n214 t=64.139 C5
    db 162,2,232,3,48,127,4,0 ; n215 t=64.139 C3
    db 0,0,232,3,86,127,1,2 ; n216 t=64.813 D6
    db 0,0,232,3,69,127,3,3 ; n217 t=64.813 A4
    db 162,2,232,3,50,127,4,1 ; n218 t=64.813 D3
    db 0,0,232,3,84,127,1,4 ; n219 t=65.487 C6
    db 0,0,232,3,72,127,3,6 ; n220 t=65.487 C5
    db 162,2,232,3,52,127,4,0 ; n221 t=65.487 E3
    db 0,0,232,3,84,127,1,4 ; n222 t=66.162 C6
    db 0,0,232,3,74,127,3,2 ; n223 t=66.162 D5
    db 162,2,232,3,57,127,4,1 ; n224 t=66.162 A3
    db 0,0,232,3,83,127,1,3 ; n225 t=66.836 B5
    db 0,0,232,3,74,127,3,2 ; n226 t=66.836 D5
    db 162,2,232,3,55,127,4,0 ; n227 t=66.836 G3
    db 0,0,232,3,84,127,1,4 ; n228 t=67.510 C6
    db 0,0,232,3,76,127,3,5 ; n229 t=67.510 E5
    db 68,5,232,3,48,127,4,0 ; n230 t=67.510 C3
    db 0,0,232,3,72,127,1,6 ; n231 t=68.858 C5
    db 0,0,232,3,76,127,3,5 ; n232 t=68.858 E5
    db 68,5,232,3,60,127,4,0 ; n233 t=68.858 C4
    db 0,0,232,3,71,127,1,1 ; n234 t=70.206 B4
    db 0,0,232,3,74,127,3,2 ; n235 t=70.206 D5
    db 162,2,232,3,55,127,4,3 ; n236 t=70.206 G3
    db 0,0,232,3,71,127,1,1 ; n237 t=70.881 B4
    db 0,0,232,3,76,127,3,5 ; n238 t=70.881 E5
    db 162,2,232,3,52,127,4,0 ; n239 t=70.881 E3
    db 0,0,232,3,69,127,1,2 ; n240 t=71.555 A4
    db 0,0,232,3,72,127,3,6 ; n241 t=71.555 C5
    db 162,2,232,3,53,127,4,1 ; n242 t=71.555 F3
    db 0,0,232,3,69,127,1,2 ; n243 t=72.229 A4
    db 0,0,232,3,74,127,3,3 ; n244 t=72.229 D5
    db 162,2,232,3,50,127,4,0 ; n245 t=72.229 D3
    db 0,0,232,3,68,127,1,4 ; n246 t=72.903 G#4
    db 0,0,232,3,71,127,3,5 ; n247 t=72.903 B4
    db 68,5,232,3,52,127,4,0 ; n248 t=72.903 E3
    db 0,0,232,3,64,127,1,1 ; n249 t=74.251 E4
    db 0,0,232,3,72,127,3,6 ; n250 t=74.251 C5
    db 68,5,232,3,48,127,4,0 ; n251 t=74.251 C3
    db 0,0,232,3,77,127,1,1 ; n252 t=75.600 F5
    db 0,0,232,3,69,127,3,2 ; n253 t=75.600 A4
    db 81,1,232,3,50,127,4,3 ; n254 t=75.600 D3
    db 81,1,232,3,79,127,1,4 ; n255 t=75.937 G5
    db 0,0,232,3,81,127,1,5 ; n256 t=76.274 A5
    db 0,0,232,3,72,127,3,6 ; n257 t=76.274 C5
    db 162,2,232,3,57,127,4,0 ; n258 t=76.274 A3
    db 0,0,232,3,81,127,1,5 ; n259 t=76.948 A5
    db 0,0,232,3,71,127,3,1 ; n260 t=76.948 B4
    db 162,2,232,3,52,127,4,2 ; n261 t=76.948 E3
    db 0,0,232,3,80,127,1,3 ; n262 t=77.622 G#5
    db 0,0,232,3,71,127,3,1 ; n263 t=77.622 B4
    db 162,2,232,3,52,127,4,2 ; n264 t=77.622 E3
    db 0,0,232,3,81,127,1,5 ; n265 t=78.296 A5
    db 0,0,232,3,69,127,3,0 ; n266 t=78.296 A4
    db 68,5,232,3,57,127,4,0 ; n267 t=78.296 A3
    db 0,0,232,3,84,127,1,1 ; n268 t=79.645 C6
    db 0,0,232,3,76,127,3,2 ; n269 t=79.645 E5
    db 68,5,232,3,60,127,4,0 ; n270 t=79.645 C4
    db 0,0,232,3,83,127,1,1 ; n271 t=80.993 B5
    db 0,0,232,3,74,127,3,2 ; n272 t=80.993 D5
    db 162,2,232,3,55,127,4,3 ; n273 t=80.993 G3
    db 0,0,232,3,83,127,1,1 ; n274 t=81.667 B5
    db 0,0,232,3,76,127,3,4 ; n275 t=81.667 E5
    db 162,2,232,3,52,127,4,0 ; n276 t=81.667 E3
    db 0,0,232,3,81,127,1,5 ; n277 t=82.341 A5
    db 0,0,232,3,72,127,3,6 ; n278 t=82.341 C5
    db 162,2,232,3,53,127,4,1 ; n279 t=82.341 F3
    db 0,0,232,3,81,127,1,5 ; n280 t=83.015 A5
    db 0,0,232,3,74,127,3,2 ; n281 t=83.015 D5
    db 162,2,232,3,50,127,4,0 ; n282 t=83.015 D3
    db 0,0,232,3,80,127,1,3 ; n283 t=83.689 G#5
    db 0,0,232,3,71,127,3,4 ; n284 t=83.689 B4
    db 68,5,232,3,52,127,4,0 ; n285 t=83.689 E3
    db 0,0,232,3,76,127,1,1 ; n286 t=85.038 E5
    db 0,0,232,3,72,127,3,6 ; n287 t=85.038 C5
    db 68,5,232,3,48,127,4,0 ; n288 t=85.038 C3
    db 0,0,232,3,77,127,1,1 ; n289 t=86.386 F5
    db 0,0,232,3,69,127,3,2 ; n290 t=86.386 A4
    db 81,1,232,3,50,127,4,3 ; n291 t=86.386 D3
    db 81,1,232,3,79,127,1,4 ; n292 t=86.723 G5
    db 0,0,232,3,81,127,1,5 ; n293 t=87.060 A5
    db 0,0,232,3,72,127,3,6 ; n294 t=87.060 C5
    db 162,2,232,3,57,127,4,0 ; n295 t=87.060 A3
    db 0,0,232,3,81,127,1,5 ; n296 t=87.734 A5
    db 0,0,232,3,71,127,3,1 ; n297 t=87.734 B4
    db 238,2,232,3,52,127,4,2 ; n298 t=87.734 E3
    db 0,0,232,3,80,127,1,3 ; n299 t=88.484 G#5
    db 0,0,232,3,71,127,3,1 ; n300 t=88.484 B4
    db 238,2,232,3,52,127,4,2 ; n301 t=88.484 E3
    db 0,0,232,3,81,127,1,5 ; n302 t=89.234 A5
    db 0,0,232,3,76,127,3,0 ; n303 t=89.234 E5
    db 0,0,232,3,57,127,4,4 ; n304 t=89.234 A3
    db 255,255,255,255,255,255,255,255  ; end
