<?xml version='1.0' encoding='utf-8'?>
<svg xmlns="http://www.w3.org/2000/svg" width="173" height="591" viewBox="0 0 173 591"><path id="left-column-011" fill="#ffffff" fill-rule="nonzero" d="m 140,553.5 c 0,-4.16667 0,-8.33333 0,-12.5 3.33333,0 6.66667,0 10,0 0,-152.66667 0,-305.33333 0,-458 -1.6334,0 -3.26679,0 -4.90019,0 -0.19994,-3.805996 -0.39988,-7.611993 -0.59981,-11.41799 -1.66667,-0.388 -3.33333,-0.776 -5,-1.164 -0.32528,-2.910833 -0.77657,-6.315191 -3.70303,-7.787723 C 134.82045,61.673728 132.52541,61.833322 132,60.683008 132,57.122006 132,53.561003 132,50 c 3,0 6,0 9,0 0,1.945627 0,3.891253 0,5.83688 2.36476,1.4615 4.72952,2.923003 7.09428,4.38451 0.56986,2.538553 0.6857,5.998446 3.63043,6.908507 2.79689,1.626954 2.13685,5.320791 2.26526,8.08606 0.28876,0.825476 -0.61314,2.84591 0.55977,2.784043 1.81675,0 3.63351,0 5.45026,0 0,157.33333 0,314.66667 0,472 -3.66667,0 -7.33333,0 -11,0 0,5.33333 0,10.66667 0,16 -3,0 -6,0 -9,0 0,-4.16667 0,-8.33333 0,-12.5 z" />
  </svg>